<svg width="351" height="201" viewBox="0 0 351 201" fill="none" xmlns="http://www.w3.org/2000/svg">
<path d="M249.724 186.924C251.6 186.828 274.134 186.156 280.818 188.167C280.818 188.167 305.673 186.906 305.491 192.557C305.491 192.557 332.342 193.545 337.126 195.184C341.911 196.821 311.945 199.282 306.739 198.607C301.533 197.93 284.413 194.098 261.806 193.363C247.397 192.896 211.485 191.867 194.133 193.974C184.263 195.174 239.93 199.173 229.216 199.716C199.67 201.214 117.689 197.852 139.469 191.574C161.247 185.302 249.724 186.924 249.724 186.924Z" fill="#866694"/>
<path d="M197.184 183.279C235.064 184.873 293.439 185.075 305.921 181.02C305.921 181.02 278.928 179.042 278.216 174.917C277.284 169.521 275.207 160.993 252.859 148.62C252.859 148.62 272.11 114.107 243.936 96.4975C215.762 78.8876 225.154 99.3142 225.154 99.3142C225.154 99.3142 186.802 48.167 138.752 36.8599C122.786 33.1035 126.543 46.722 126.543 46.722C126.543 46.722 112.454 35.4528 96.4891 38.7394C81.6606 41.791 57.5181 61.8563 66.1904 95.5477C88.1351 104.844 95.0821 112.604 95.0821 112.604C95.5494 101.661 107.993 96.0251 126.424 101.072C149.412 107.368 147.202 128.896 147.202 128.896C171.956 124.682 177.256 154.723 177.256 154.723C177.256 154.723 176.793 144.729 192.592 157.896C208.391 171.062 197.447 182.897 197.447 182.897L197.184 183.279Z" fill="#F4E8D8"/>
<path d="M223.864 183.837C223.864 183.837 204.066 169.706 189.467 157.54C174.869 145.374 178.817 162.979 178.817 162.979C178.817 162.979 169.086 126.483 146.215 130.376C146.215 130.376 145.727 107.992 128.211 103.126C110.694 98.2609 96.0222 102.641 96.0222 114.807C96.0222 114.807 88.0396 105.885 61.7423 96.0252C42.9956 88.9949 28.4576 89.9902 17.7542 99.721L22.1346 103.126C22.1346 103.126 5.59075 105.559 0.725367 118.697C-4.14002 131.836 16.7816 138.162 24.5673 140.107C32.3529 142.052 98.5282 160.543 98.5282 160.543C98.5282 160.543 83.7451 159.566 82.2875 161.998C80.8274 164.431 99.5437 178.903 122.373 180.007C140.672 180.897 223.864 183.837 223.864 183.837Z" fill="#F4E8D8"/>
<path d="M89.6815 192.997C89.6815 192.997 92.2153 189.155 118.033 190.094C125.063 190.349 143.504 190.178 145.843 192.997C148.182 195.816 170.804 197.89 163.003 197.89C155.203 197.89 92.0233 196.756 89.6815 192.997Z" fill="#866694"/>
<path d="M51.8827 169.751C51.8827 169.751 54.6994 164.115 52.8224 159.422C50.943 154.726 43.4301 155.195 38.734 155.665C34.0379 156.135 34.7427 160.243 34.7427 160.243C34.7427 160.243 29.3039 156.312 24.6456 157.072C18.1887 158.128 19.0098 165.055 19.0098 169.281C19.0098 173.508 25.113 181.725 31.9235 174.447C31.9235 174.447 42.0206 184.309 50.4706 177.264C50.4706 177.264 68.3154 180.55 74.8884 179.611L51.8827 169.751Z" fill="#F4E8D8"/>
<path d="M114.945 18.5983C114.945 18.5983 80.1978 12.4951 75.5017 12.4951C70.8055 12.4951 59.5364 4.51244 73.6222 0.756034C87.7081 -3.00037 100.857 8.26884 103.676 12.0252C106.495 15.7816 105.555 12.4951 105.555 12.4951C105.555 12.4951 103.209 5.45217 107.435 5.45217C111.661 5.45217 126.684 11.5528 114.945 18.5983Z" fill="#F4E8D8"/>
<path d="M341.021 123.967C341.021 123.967 350.186 129.032 348.966 129.054C344.583 129.133 339.771 131.166 338.01 131.871C336.249 132.576 324.119 122.087 331.28 119.036C333.859 119.859 341.021 123.967 341.021 123.967Z" fill="#229BC6"/>
<path opacity="0.5" d="M341.021 123.967C341.021 123.967 350.186 129.032 348.966 129.054C344.583 129.133 339.771 131.166 338.01 131.871C336.249 132.576 324.119 122.087 331.28 119.036C333.859 119.859 341.021 123.967 341.021 123.967Z" fill="#229BC6"/>
<path d="M335.191 127.018C335.191 127.018 337.381 125.139 342.861 125.296C347.142 125.417 351 126.079 351 126.079C351 126.079 342.547 119.741 336.209 119.387C329.871 119.036 321.77 118.682 321.77 118.682L335.191 127.018Z" fill="#F6BE4A"/>
<path d="M351 126.081C349.424 125.172 347.784 124.376 346.112 123.659C344.44 122.941 342.732 122.3 340.991 121.754C339.246 121.229 337.475 120.769 335.671 120.481C333.868 120.2 332.034 120.074 330.22 120.213C332.039 120.271 333.83 120.529 335.601 120.87L336.922 121.163C337.364 121.254 337.796 121.385 338.235 121.496L338.892 121.663L339.541 121.852C339.973 121.981 340.41 122.1 340.84 122.239L342.131 122.651C342.56 122.79 342.984 122.949 343.414 123.093C343.843 123.234 344.268 123.393 344.692 123.55C345.117 123.704 345.541 123.861 345.963 124.025C346.387 124.184 346.809 124.348 347.228 124.518C347.65 124.682 348.072 124.851 348.489 125.025C349.335 125.354 350.166 125.718 351 126.081Z" fill="#F4E8D8"/>
<path opacity="0.5" d="M335.191 127.018C335.191 127.018 337.381 125.139 342.861 125.296C347.142 125.417 351 126.079 351 126.079C351 126.079 342.547 119.741 336.209 119.387C329.871 119.036 321.77 118.682 321.77 118.682L335.191 127.018Z" fill="#F6874E"/>
<path d="M296.26 94.5431C296.26 94.5431 293.118 89.271 291.345 84.9917C289.647 80.8993 292.628 81.8618 296.111 84.0065C299.764 86.2548 304.071 90.9736 305.183 92.0195C306.292 93.0653 300.3 98.057 296.26 94.5431Z" fill="#1D2538"/>
<path d="M297.823 93.1024C297.823 93.1024 294.701 87.9743 292.548 84.6726C290.131 80.9591 292.339 81.4416 295.825 83.5863C299.478 85.8346 303.765 88.4239 304.874 89.4698C305.983 90.5131 300.309 95.9039 297.823 93.1024Z" fill="#273150"/>
<path d="M279.623 114.966C281.502 112.306 284.39 102.583 286.039 97.7479L290.422 91.5184C290.422 91.5184 300.1 85.4278 309.179 87.5295C318.258 89.6313 321.868 94.863 323.449 99.5995L323.767 99.9077C323.767 99.9077 331.869 101.37 336.53 102.361C341.188 103.353 342.908 105.339 341.794 110.356C340.68 115.373 340.162 116.596 337.813 118.793C335.464 120.989 324.899 127.834 319.021 129.825C319.021 129.825 316.563 134.845 313.587 136.878C310.606 138.922 274.858 121.719 279.623 114.966Z" fill="#273150"/>
<path d="M291.663 130.328C291.663 130.328 275.415 121.001 279.313 113.716C282.912 106.986 284.393 102.583 286.042 97.7506C285.871 98.3039 284.223 92.3219 282.912 86.3248C282.261 83.3439 283.617 82.8033 285.987 83.882C288.452 85.0036 294.965 88.5175 294.965 88.5175C294.965 88.5175 300.103 85.4305 309.179 87.5323C309.179 87.5323 299.32 94.0119 296.192 98.3392C293.065 102.667 294.225 119.609 294.225 119.609C294.225 119.609 302.667 125.698 302.19 126.728C300.669 130.005 291.663 130.328 291.663 130.328Z" fill="#1D2538"/>
<path d="M315.537 97.6468C316.53 99.3899 316.394 101.34 315.232 102.002C314.07 102.664 313.019 101.37 312.024 99.6273C311.028 97.8843 310.473 96.3509 311.635 95.689C312.797 95.0272 314.545 95.9037 315.537 97.6468Z" fill="#121721"/>
<path d="M341.921 105.733C342.504 108.305 342.219 110.828 340.809 111.925C338.015 114.097 333.458 109.901 332.67 107.385C331.882 104.869 331.26 100.812 336.113 102.219C340.175 103.399 341.514 103.942 341.921 105.733Z" fill="#121721"/>
<path d="M308.694 129.047C308.694 129.047 316.525 131.129 319.023 129.825C323.55 128.347 330.421 123.391 330.421 123.391L318.043 126.842L308.694 129.047Z" fill="#1D2538"/>
<path d="M333.448 122.029C333.448 122.029 324.761 118.743 321.767 118.685Z" fill="#273150"/>
<path d="M201.411 142.264C199.888 142.175 191.829 142.744 188.667 141.728C185.504 140.715 178.145 138.012 177.089 132.887C177.089 132.887 174.136 136.701 180.825 144.75C187.515 152.798 201.186 150.817 202.343 150.641C207.502 149.85 205.759 142.519 201.411 142.264Z" fill="#1D2538"/>
<path d="M308.387 148.619C308.387 148.619 323.531 156.721 326.699 157.777C329.869 158.832 331.63 165.524 331.276 168.341C330.925 171.158 325.994 177.849 325.994 177.849L305.568 160.593C305.57 160.593 298.173 148.268 308.387 148.619Z" fill="#1D2537"/>
<path d="M226.605 157.491C229.26 155.92 252.581 157.092 252.152 162.026C251.937 164.476 227.964 178.049 227.964 178.049L218.892 185.91C218.892 185.91 220.486 188.793 219.484 190.604C219.249 191.031 215.411 191.127 213.302 190.887C211.756 190.713 209.669 185.155 209.669 185.155C209.586 183.993 209.935 181.876 210.917 181.247L216.624 176.387C217.362 175.917 217.91 175.205 218.178 174.368C219.471 170.334 223.586 159.28 226.605 157.491Z" fill="#1D2538"/>
<path d="M299.348 132.184C299.348 132.184 286.788 124.436 276.008 118.53C266.283 124.315 252.823 124.525 241.405 126.025C234.231 126.968 210.535 132.646 203.439 139.462C198.68 144.034 196.407 155.235 202.03 158.479C211.187 163.761 254.958 161.253 271.762 163.175C283.756 164.547 299.84 160.692 304.514 157.774C307.04 156.198 312.923 146.187 311.456 138.474C310.488 133.394 303.67 134.738 299.348 132.184Z" fill="#273150"/>
<path d="M296.685 126.548C296.685 126.548 286.884 112.061 276.006 118.53C266.28 124.315 252.821 124.525 241.403 126.025C234.228 126.968 210.533 132.646 203.437 139.462C198.678 144.034 196.755 157.347 202.381 160.593C211.538 165.876 230.79 165.484 235.838 160.242C237.353 158.668 255.208 145.803 265.068 141.106C273.22 137.226 267.427 130.825 269.764 129.367C273.955 126.75 307.57 132.98 296.685 126.548Z" fill="#1D2538"/>
<path d="M253.947 137.727C253.947 137.727 259.255 157.719 274.066 163.499C274.066 163.499 271.535 164.688 264.34 163.91C259.394 163.377 245.353 148.92 245.952 138.927C246.884 135.885 253.947 137.727 253.947 137.727Z" fill="#634874"/>
<path d="M279 114.339C279 114.339 276.809 114.653 275.243 118.409C275.243 118.409 281.738 126.078 294.652 132.419C304.15 137.082 314.139 138.055 316.096 135.627C318.054 133.2 319.024 129.825 319.024 129.825C319.024 129.825 308.341 133.394 298.527 129.014C289.759 125.101 284.097 120.109 279 114.339Z" fill="#992C29"/>
<path d="M317.923 133.513C317.923 133.513 307.477 136.845 304.094 136.264L306.737 130.464C306.737 130.464 313.075 130.024 317.923 133.513Z" fill="#C93F37"/>
<path d="M317.865 133.455C317.865 133.455 315.857 141.894 312.896 144.544L303.317 140.748C303.319 140.748 313.502 134.336 317.865 133.455Z" fill="#C93F37"/>
<path d="M317.865 133.455C313.793 133.846 303.319 140.748 303.319 140.748C303.319 140.748 309.86 140.839 311.259 139.959C312.659 139.083 317.865 133.455 317.865 133.455Z" fill="#992C29"/>
<path d="M274.834 137.926C279.199 139.897 301.341 140.682 305.532 154.2C305.653 154.594 305.913 154.927 306.272 155.132C307.333 155.738 308.657 154.983 308.672 153.76C308.728 149.026 303.306 140.917 294.323 136.426C283.529 131.03 275.736 132.828 275.736 132.828C275.736 132.828 274.038 137.567 274.834 137.926Z" fill="#634874"/>
<path d="M206.64 150.754C209.053 148.702 216.843 146.434 224.914 150.392C232.986 154.351 232.056 159.941 232.109 161.197C232.235 164.142 222.335 169.278 220.88 170.208C218.475 171.744 205.061 176.965 201.073 179.946C198.718 181.707 193.474 187.388 194.558 188.201C195.515 188.921 196.71 192.205 195.553 192.723C193.158 193.797 180.717 193.236 182.073 188.863C183.354 184.736 183.564 179.559 184.564 177.344C184.85 176.713 195.5 169.099 195.99 168.288C196.47 167.495 205.195 151.984 206.64 150.754Z" fill="#1D2538"/>
<path d="M286.55 154.606C286.55 154.606 291.832 164.82 295.354 166.931C298.875 169.043 312.964 169.748 317.541 172.214C322.119 174.679 324.233 180.315 324.938 181.371C325.643 182.427 335.856 183.837 338.672 178.201C341.489 172.565 331.63 172.214 329.164 169.748C326.698 167.283 324.587 164.817 322.472 163.056C320.36 161.296 313.669 158.479 313.669 158.479C313.669 158.479 303.544 146.424 299.317 145.719C295.091 145.017 284.085 149.324 286.55 154.606Z" fill="#273150"/>
<path d="M275.903 136.992C273.437 140.493 250.762 142.633 232.652 140.311C230.727 140.063 229.032 139.063 228.012 137.595C225.978 134.673 224.263 128.779 223.101 124.538C221.85 119.978 224.427 112.773 226.498 111.013C230.972 107.208 235.638 108.845 240.615 108.395C249.057 107.633 256.486 108.087 263.193 110.103C271.53 112.609 275.94 119.271 279.128 124.32C282.077 128.984 277.148 135.223 275.903 136.992Z" fill="#BB83C3"/>
<path opacity="0.5" d="M231.629 109.212C226.862 109.1 234.181 124.896 237.159 125.333C240.137 125.771 256.532 127.503 261.395 126.321C273.5 124.222 254.006 109.737 231.629 109.212Z" fill="#634874"/>
<path opacity="0.5" d="M229.363 137.128C228.57 139.74 223.336 127.044 222.967 123.537C222.671 120.741 224.096 115.337 224.566 114.342C225.637 112.079 227.565 122.337 229.164 126.134C230.763 129.931 229.697 136.032 229.363 137.128Z" fill="#634874"/>
<path d="M209.212 44.7918C209.212 44.7918 218.723 34.763 222.235 25.4263C222.235 25.4263 235.184 29.3014 241.022 28.5335C241.022 28.5335 233.918 44.2108 227.999 47.899L209.212 44.7918Z" fill="#229BC6"/>
<path d="M241.019 28.5361L232.667 32.1713C231.276 32.775 229.876 33.3611 228.477 33.9345C227.072 34.5004 225.665 35.0663 224.233 35.526L223.993 35.6043L224.076 35.8418L225.127 38.8353L226.158 41.8364C226.499 42.8367 226.827 43.8421 227.153 44.8476C227.469 45.8555 227.782 46.866 227.994 47.9042C227.873 46.8508 227.605 45.8176 227.35 44.7895C227.09 43.7613 226.789 42.7458 226.491 41.7277C226.183 40.7148 225.872 39.7018 225.541 38.6938C225.21 37.6859 224.884 36.6805 224.533 35.6801L224.377 35.9934C225.839 35.5336 227.256 34.9753 228.661 34.3918C230.068 33.8133 231.457 33.1969 232.839 32.5654C234.218 31.9288 235.593 31.2821 236.957 30.6101C237.639 30.2792 238.316 29.9306 238.993 29.587C239.675 29.2435 240.352 28.8974 241.019 28.5361Z" fill="#F4E8D8"/>
<path d="M229.485 33.8104L228.53 31.8526L227.553 29.9075C227.224 29.2608 226.934 28.5939 226.555 27.975C226.178 27.3561 225.782 26.7447 225.312 26.1738L225.266 26.1991C225.491 26.9014 225.792 27.5657 226.11 28.2175C226.426 28.8718 226.83 29.4755 227.199 30.102L228.308 31.9739L229.44 33.8357L229.485 33.8104Z" fill="#F4E8D8"/>
<path d="M226.141 40.5732L223.038 41.5812L219.944 42.6119C218.913 42.9579 217.87 43.2636 216.859 43.6678C215.849 44.0669 214.844 44.4863 213.868 44.9839L213.886 45.0319C214.955 44.7945 215.998 44.4787 217.031 44.1427C218.067 43.8093 219.067 43.3798 220.083 42.9933L223.124 41.8186L226.158 40.6212L226.141 40.5732Z" fill="#F4E8D8"/>
<path d="M218.065 71.4062C218.065 71.4062 235.136 86.0201 251.852 92.0803C251.852 92.0803 250.713 99.5199 236.341 103.872C236.341 103.872 208.458 91.9919 202.554 83.1984L218.065 71.4062Z" fill="#229BC6"/>
<path d="M218.464 71.6748L219.51 75.5525C219.858 76.8458 220.217 78.1342 220.581 79.4225L221.667 83.2901C222.023 84.581 222.407 85.8643 222.776 87.1501L222.814 87.2839L222.953 87.3092L230.264 88.6506L237.584 89.9364C240.022 90.376 242.47 90.7625 244.913 91.1768C246.133 91.3839 247.358 91.581 248.581 91.7729C249.804 91.9675 251.029 92.1645 252.254 92.3489C251.041 92.0938 249.826 91.8512 248.611 91.6087C247.396 91.3637 246.181 91.1212 244.963 90.8913C242.528 90.429 240.101 89.9415 237.663 89.5019L230.352 88.158L223.034 86.8671L223.211 87.0263C222.824 85.7455 222.453 84.4597 222.056 83.1815L220.879 79.3417C220.487 78.0609 220.093 76.7827 219.687 75.507L218.464 71.6748Z" fill="#F4E8D8"/>
<path d="M234.65 89.7134C234.506 90.931 234.501 92.1587 234.552 93.3839C234.605 94.6091 234.723 95.8292 234.903 97.0418C235.095 98.2518 235.317 99.4593 235.63 100.642C235.926 101.829 236.302 102.998 236.742 104.138C236.504 102.935 236.234 101.751 236.014 100.556L235.845 99.6614L235.691 98.7646C235.585 98.1684 235.491 97.5672 235.403 96.9685L235.269 96.0692L235.153 95.1674C235.072 94.5661 235.009 93.9624 234.943 93.3586C234.819 92.1461 234.713 90.9335 234.65 89.7134Z" fill="#F4E8D8"/>
<path d="M221.127 81.4224C219.608 81.6042 218.095 81.7912 216.582 81.9958C215.069 82.1903 213.561 82.4 212.048 82.5819C210.537 82.7739 209.024 82.9557 207.511 83.1124C205.995 83.2589 204.482 83.4104 202.954 83.4685C204.477 83.6075 206.015 83.5873 207.541 83.5064C209.069 83.4307 210.593 83.269 212.111 83.0846C213.627 82.8901 215.14 82.6602 216.643 82.3848C218.148 82.112 219.644 81.7962 221.127 81.4224Z" fill="#F4E8D8"/>
<path d="M270.342 111.995C270.342 111.995 253.493 92.6878 249.35 82.563C249.35 82.563 234.855 89.4013 228.097 88.3858C228.097 88.3858 241.764 110.558 248.64 114.708L270.342 111.995Z" fill="#F6874E"/>
<path d="M270.342 111.995C270.342 111.995 253.493 92.6878 249.35 82.563C249.35 82.563 234.855 89.4013 228.097 88.3858C228.097 88.3858 241.764 110.558 248.64 114.708L270.342 111.995Z" fill="#F6BE4A"/>
<path d="M249.35 82.563L246.316 99.2104L270.342 111.995" fill="#F4E8D8"/>
<path d="M249.35 82.563L246.316 99.2104L270.342 111.995" stroke="#F4E8D8" stroke-width="2" stroke-miterlimit="10"/>
<path d="M255.921 104.672C255.921 104.672 249.479 109.123 248.64 114.708Z" fill="#F4E8D8"/>
<path d="M255.921 104.672C255.921 104.672 249.479 109.123 248.64 114.708" stroke="#F4E8D8" stroke-width="2" stroke-miterlimit="10"/>
<path d="M247.579 93.6679C247.579 93.6679 237.505 91.5156 228.097 88.3882Z" fill="#F4E8D8"/>
<path d="M247.579 93.6679C247.579 93.6679 237.505 91.5156 228.097 88.3882" stroke="#F4E8D8" stroke-width="2" stroke-miterlimit="10"/>
<path d="M278.259 124.482C278.259 124.482 274.26 122.125 264.019 118.121C263.079 117.754 260.083 115.168 256.845 115.441C245.022 116.436 242.865 121.953 240.046 121.241C238.513 120.561 237.242 112.553 236.224 110.269C234.792 107.054 236.108 101.41 238.611 101.236C238.611 101.236 252.914 101.201 256.943 102.747C260.973 104.293 262.673 107.218 263.438 107.943C264.337 108.797 268.142 107.309 270.832 109.342C277.282 114.213 274.844 112.086 277.807 116.779C281.765 123.049 283.738 126.379 282.374 128.925C280.992 131.502 279.196 134.93 276.195 137.059C273.197 139.189 284.335 128.955 278.259 124.482Z" fill="#634874"/>
<path d="M230.821 103.464C230.452 103.772 232.233 105.394 236.964 105.811C237.823 105.887 238.579 105.821 238.692 105.546C238.771 105.356 239.031 103.853 238.824 103.146C238.74 102.863 238.553 102.896 238.286 102.838C236.459 102.444 235.393 102.747 232.998 101.057L230.821 103.464Z" fill="#BB83C3"/>
<path d="M233.359 115.742C233.167 115.166 236.957 116.141 240.087 114.165C240.357 113.993 240.711 114.415 240.94 114.716L241.837 115.888C242.565 116.84 241.895 117.295 241.077 117.896C238.099 120.089 237.899 120.087 235.757 119.647C234.784 119.447 234.016 118.695 233.802 117.725L233.359 115.742Z" fill="#BB83C3"/>
<path d="M260.983 116.56C263.095 117.437 266.735 118.397 269.061 119.028C271.388 119.66 280.97 122.199 284.403 120.248C284.403 120.248 278.267 129.264 261.506 129.567C261.506 129.567 247.134 126.056 246.435 118.238C246.435 118.235 253.879 113.61 260.983 116.56Z" fill="#229BC6"/>
<path d="M261.503 129.565C261.549 128.529 261.566 127.491 261.582 126.455C261.594 125.417 261.587 124.381 261.574 123.343C261.551 122.304 261.531 121.269 261.465 120.228C261.448 119.968 261.43 119.708 261.402 119.442C261.39 119.308 261.375 119.18 261.344 119.031C261.314 118.892 261.276 118.76 261.231 118.629C261.046 118.109 260.796 117.639 260.473 117.189L260.417 117.111L260.319 117.093C259.498 116.949 258.679 116.82 257.856 116.714C257.032 116.6 256.209 116.507 255.38 116.434C254.554 116.358 253.723 116.307 252.889 116.3C252.472 116.3 252.056 116.307 251.641 116.335C251.227 116.363 250.808 116.416 250.411 116.54C251.229 116.403 252.058 116.461 252.879 116.525C253.7 116.595 254.521 116.694 255.337 116.803C256.971 117.027 258.606 117.293 260.228 117.583L260.074 117.487C260.351 117.881 260.591 118.336 260.751 118.793C260.788 118.909 260.824 119.026 260.849 119.139C260.872 119.245 260.889 119.372 260.902 119.498C260.93 119.748 260.953 120.006 260.97 120.261C261.039 121.289 261.094 122.322 261.142 123.355L261.304 126.458C261.369 127.496 261.428 128.531 261.503 129.565Z" fill="#F4E8D8"/>
<path d="M261.232 121.622C264.552 121.991 267.871 122.309 271.201 122.552C272.865 122.673 274.53 122.777 276.197 122.84C277.865 122.9 279.534 122.943 281.199 122.865C279.532 122.9 277.867 122.815 276.202 122.714C274.54 122.61 272.881 122.463 271.221 122.299C267.904 121.973 264.595 121.574 261.296 121.122L261.232 121.622Z" fill="#F4E8D8"/>
<path d="M257.532 115.719C257.385 115.757 257.244 115.805 257.1 115.848C256.958 115.893 256.817 115.944 256.68 115.999C256.542 116.052 256.382 116.067 256.274 116.171C256.163 116.272 256.062 116.391 256.003 116.585L256.029 116.628C256.226 116.676 256.38 116.651 256.524 116.61C256.67 116.57 256.764 116.441 256.883 116.35C256.999 116.259 257.115 116.166 257.229 116.067C257.34 115.966 257.454 115.87 257.562 115.762L257.532 115.719Z" fill="#F4E8D8"/>
<path d="M256.302 156.817C257.507 156.307 259.169 155.544 260.622 154.867C262.084 154.185 262.539 153.616 261.69 152.416L261.041 151.466C260.392 150.86 259.631 150.83 258.651 151.396L254.607 153.732C253.382 154.44 252.697 155.064 253.445 155.862L254.294 157.011C254.837 157.416 255.562 157.133 256.302 156.817Z" stroke="#866694" stroke-width="4" stroke-miterlimit="10"/>
<path d="M260.91 152.086C260.91 152.086 263.209 163.845 261.076 170.108L254.281 167.309C254.281 167.309 255.18 157.815 254.513 155.948L257.646 154.216L260.91 152.086Z" fill="#634874"/>
<path d="M261.74 152.119L254.079 156.578" stroke="#866694" stroke-width="4" stroke-miterlimit="10"/>
<path d="M338.008 131.871C336.247 132.576 333.213 143.898 331.827 147.68C331.397 148.854 311.93 137.393 310.069 135.941C306.86 133.437 307.017 132.341 307.017 132.341C307.017 132.341 315.389 127.579 323.154 123.219C326.287 121.461 339.769 131.166 338.008 131.871Z" fill="#229BC6"/>
<path opacity="0.5" d="M338.008 131.871C336.247 132.576 331.796 140.124 330.599 141.523C330.599 141.523 325.501 140.523 319.906 137.926C314.31 135.329 308.912 131.33 308.912 131.33C308.912 131.33 315.389 127.579 323.154 123.219C326.287 121.461 339.769 131.166 338.008 131.871Z" fill="#229BC6"/>
<path d="M328.813 139.111C328.813 139.111 312.262 133.829 307.33 127.842C307.33 127.842 319.656 118.685 321.77 118.685C322.753 118.685 326.07 119.591 329.76 120.776C330.526 121.021 331.306 121.279 332.087 121.542C335.623 122.737 339.132 124.06 340.981 124.985C340.981 124.985 335.229 126.003 334.095 127.958C332.329 131.005 328.813 139.111 328.813 139.111Z" fill="#F6BE4A"/>
<path opacity="0.5" d="M307.33 127.842C307.33 127.842 319.656 118.685 321.77 118.685C322.753 118.685 326.07 119.591 329.76 120.776C330.526 121.021 331.306 121.279 332.087 121.542C335.623 122.737 339.132 124.06 340.981 124.985C340.981 124.985 312.259 133.829 307.33 127.842Z" fill="#F6874E"/>
<path d="M331.748 121.267C331.933 121.466 332.087 121.714 332.107 121.971C332.125 122.234 331.912 122.421 331.677 122.522C331.443 122.623 331.17 122.689 330.907 122.757L330.106 122.952L326.885 123.672C324.736 124.154 322.588 124.644 320.456 125.228C319.923 125.377 319.393 125.531 318.865 125.697C318.339 125.859 317.821 126.018 317.291 126.157C316.235 126.44 315.164 126.673 314.088 126.887C311.93 127.299 309.755 127.635 307.568 127.898C309.771 127.822 311.971 127.61 314.153 127.264C315.245 127.092 316.331 126.875 317.407 126.609C317.945 126.483 318.481 126.321 319.011 126.162C319.532 126.001 320.06 125.852 320.59 125.708C322.71 125.132 324.849 124.616 326.984 124.071C328.05 123.795 329.118 123.525 330.179 123.219C330.445 123.141 330.71 123.068 330.975 122.982C331.238 122.891 331.501 122.815 331.763 122.679C331.89 122.605 332.011 122.517 332.102 122.391C332.193 122.267 332.233 122.105 332.21 121.956C332.155 121.663 331.953 121.443 331.748 121.267Z" fill="#F4E8D8"/>
<path d="M325.155 124.187C325.104 125.508 325.309 126.788 325.541 128.054C325.781 129.32 326.084 130.568 326.428 131.803C326.769 133.041 327.14 134.266 327.542 135.484C327.941 136.701 328.361 137.911 328.813 139.111C328.401 137.899 328.022 136.676 327.663 135.448C327.302 134.22 326.974 132.983 326.673 131.742C326.37 130.502 326.11 129.249 325.915 127.991C325.726 126.735 325.572 125.462 325.66 124.219L325.155 124.187Z" fill="#F4E8D8"/>
<path d="M321.77 118.685C318.776 118.627 330.927 115.926 333.451 122.029Z" fill="#273150"/>
<path d="M225.583 117.52C225.583 117.52 214.892 124.972 211.833 127.352C208.777 129.732 181.416 112.561 179.289 108.085C179.289 108.085 193.756 97.5027 199.185 94.9614C199.185 94.964 202.072 111.568 225.583 117.52Z" fill="#F6BE4A"/>
<path opacity="0.5" d="M202.58 116.141C205.278 121.238 181.419 112.564 179.292 108.087C179.292 108.087 193.759 97.5052 199.188 94.9639C199.185 94.9639 199.882 111.043 202.58 116.141Z" fill="#F6874E"/>
<path d="M211.432 127.569L211.336 124.846L211.215 122.123C211.172 121.216 211.17 120.304 211.068 119.402C210.97 118.498 210.849 117.598 210.644 116.702L210.594 116.704C210.52 117.621 210.533 118.531 210.563 119.437C210.591 120.347 210.722 121.246 210.811 122.151L211.084 124.861L211.382 127.572L211.432 127.569Z" fill="#F4E8D8"/>
<path d="M179.289 108.112L183.95 108.193L188.611 108.249C190.164 108.269 191.718 108.317 193.271 108.279C194.047 108.256 194.825 108.236 195.601 108.191L196.765 108.125C197.154 108.092 197.541 108.07 197.93 108.029V107.979C197.541 107.941 197.152 107.923 196.765 107.893L195.601 107.837C194.823 107.802 194.047 107.787 193.269 107.771C191.715 107.746 190.162 107.809 188.608 107.842L183.947 107.938L179.287 108.059L179.289 108.112Z" fill="#F4E8D8"/>
<path d="M199.185 94.9639C198.528 98.6773 198.068 102.434 197.964 106.218C197.944 107.165 197.952 108.115 198.028 109.062C198.103 110.01 198.22 110.965 198.543 111.894C198.712 112.351 198.919 112.826 199.331 113.19C199.718 113.519 200.142 113.751 200.566 113.978C201.423 114.418 202.309 114.766 203.206 115.082C205.005 115.694 206.839 116.171 208.688 116.573C209.613 116.775 210.542 116.952 211.474 117.113C212.407 117.28 213.344 117.409 214.281 117.52C218.03 117.96 221.852 118.134 225.583 117.517C224.646 117.624 223.706 117.679 222.764 117.707C221.824 117.732 220.882 117.709 219.942 117.669C218.063 117.591 216.191 117.404 214.329 117.136C210.613 116.593 206.91 115.83 203.368 114.607C202.484 114.304 201.61 113.966 200.784 113.551C200.377 113.339 199.968 113.114 199.634 112.834C199.326 112.571 199.127 112.157 198.97 111.74C198.664 110.889 198.538 109.954 198.457 109.027C198.381 108.097 198.351 107.16 198.348 106.22C198.348 104.344 198.457 102.462 198.609 100.585C198.75 98.7102 198.955 96.8358 199.185 94.9639Z" fill="#F4E8D8"/>
<path d="M169.089 73.7698C163.746 71.423 144.38 63.453 129.809 64.3902C129.809 64.3902 117.444 70.1827 117.914 77.8521C117.914 77.8521 137.191 77.3393 142.958 79.2617C147.535 80.7875 158.688 87.5576 158.688 87.5576C158.688 87.5576 159.707 84.7788 160.568 82.432C161.844 78.951 166.686 76.4905 169.149 75.1213C169.692 74.8156 169.66 74.0199 169.089 73.7698Z" fill="#229BC6"/>
<path opacity="0.5" d="M129.809 64.39C129.809 64.39 118.174 69.839 117.906 77.1648C117.898 77.3922 132.292 77.1648 132.292 77.1648C132.292 77.1648 131.625 69.5687 133.325 68.0706C135.026 66.5726 149.814 67.3709 149.814 67.3709C142.836 65.2767 135.692 64.0111 129.809 64.39Z" fill="#229BC6"/>
<path d="M130.16 64.4686C131.88 64.557 133.57 64.9536 135.139 65.6255C136.715 66.2849 138.181 67.1867 139.545 68.2123C140.227 68.7277 140.886 69.2708 141.535 69.8291C142.184 70.3874 142.813 70.9684 143.453 71.5494C143.773 71.8399 144.094 72.1279 144.435 72.4058C144.607 72.5447 144.779 72.6811 144.978 72.8049C145.072 72.8706 145.186 72.9236 145.297 72.9767C145.36 72.9994 145.426 73.0221 145.491 73.0398L145.658 73.0651C146.542 73.1965 147.383 73.2621 148.247 73.3455C151.68 73.6133 155.113 73.8608 158.549 74.0629L163.702 74.3459C165.423 74.4191 167.14 74.5101 168.861 74.5656C167.148 74.3964 165.433 74.2574 163.72 74.1008L158.577 73.6764C155.149 73.396 151.716 73.1535 148.29 72.8453C147.439 72.7695 146.565 72.7089 145.746 72.5927L145.592 72.5725L145.479 72.5346C145.398 72.4942 145.314 72.4588 145.231 72.4007C145.062 72.2997 144.895 72.1683 144.731 72.0395C144.402 71.7768 144.082 71.4938 143.761 71.2084C142.483 70.064 141.194 68.8969 139.774 67.9016C138.362 66.8987 136.852 66.0196 135.232 65.3982C133.608 64.7919 131.885 64.4433 130.16 64.4686Z" fill="#F4E8D8"/>
<path d="M159.531 85.2336L157.945 82.278L156.338 79.335C155.8 78.3549 155.3 77.3545 154.709 76.4047C154.123 75.4523 153.517 74.5126 152.84 73.6133L152.797 73.6385C153.234 74.6768 153.744 75.6721 154.272 76.6573C154.797 77.645 155.411 78.5797 155.99 79.5371L157.728 82.4043L159.489 85.2589L159.531 85.2336Z" fill="#F4E8D8"/>
<path d="M141.467 69.4526L135.97 69.9831L130.478 70.5768C128.649 70.7814 126.815 70.9633 124.997 71.2588C124.087 71.4079 123.178 71.5595 122.276 71.7514C121.374 71.9359 120.467 72.1354 119.591 72.4285L119.603 72.4765C121.42 72.1859 123.246 71.9965 125.07 71.759C126.894 71.5291 128.71 71.2386 130.531 70.9784L136.001 70.2332L141.472 69.5032L141.467 69.4526Z" fill="#F4E8D8"/>
<path d="M90.2297 102.444C90.2297 102.444 89.4467 117.469 79.7437 121.069C79.7437 121.069 61.2749 124.669 47.4998 120.129C47.4998 120.129 64.276 115.315 68.7877 111.99C71.761 109.8 73.7971 107.294 73.7971 104.791C73.7946 104.793 85.6902 104.323 90.2297 102.444Z" fill="#F6BE4A"/>
<path opacity="0.5" d="M79.7432 121.072C79.7432 121.072 61.2744 124.671 47.4992 120.132C47.4992 120.132 64.2755 115.317 68.7872 111.993C71.7605 109.802 73.7966 107.296 73.7966 104.793C73.794 104.793 75.8605 113.341 79.7432 121.072Z" fill="#F6874E"/>
<path d="M90.2297 102.444C88.1911 103.816 86.145 105.172 84.0912 106.513C83.0605 107.178 82.0324 107.845 80.9865 108.484C79.9533 109.136 78.8822 109.714 77.7909 110.272C77.2478 110.558 76.7022 110.836 76.1565 111.131C75.6134 111.429 75.0677 111.725 74.5575 112.117C74.3074 112.321 74.0472 112.533 73.8779 112.884C73.7263 113.241 73.7466 113.592 73.7895 113.918C73.8981 114.569 74.1609 115.153 74.464 115.701C75.0728 116.797 75.8635 117.768 76.7224 118.654C77.5939 119.531 78.5311 120.337 79.5466 121.031C78.6018 120.246 77.7025 119.41 76.9042 118.485C76.0984 117.57 75.3684 116.583 74.8126 115.517C74.5423 114.984 74.3124 114.42 74.229 113.855C74.1937 113.577 74.1987 113.289 74.2973 113.076C74.3958 112.869 74.6206 112.67 74.848 112.498C75.3178 112.149 75.8534 111.856 76.3915 111.568C76.9295 111.283 77.4777 111.005 78.0233 110.725C79.1121 110.154 80.2034 109.565 81.2417 108.893C82.2774 108.226 83.303 107.549 84.311 106.844C86.3344 105.442 88.3073 103.977 90.2297 102.444Z" fill="#F4E8D8"/>
<path d="M75.0471 115.749C73.7007 116.186 72.3643 116.653 71.0406 117.151C69.7144 117.641 68.4008 118.159 67.0872 118.684C65.7786 119.217 64.4701 119.756 63.1742 120.321C61.8757 120.88 60.5899 121.471 59.3142 122.09C60.6607 121.653 61.997 121.185 63.3207 120.688C64.6469 120.198 65.9605 119.677 67.2741 119.154C68.5827 118.621 69.8912 118.083 71.1846 117.517C72.4856 116.957 73.7714 116.368 75.0471 115.749Z" fill="#F4E8D8"/>
<path d="M79.5867 109.646C79.4831 109.093 79.2633 108.567 78.9981 108.075C78.8692 107.824 78.7126 107.59 78.5585 107.355C78.3918 107.127 78.2225 106.902 78.0381 106.69C77.8562 106.476 77.6491 106.281 77.4495 106.084C77.2323 105.905 77.0277 105.71 76.7902 105.556C76.338 105.22 75.8303 104.965 75.3048 104.775C75.7267 105.147 76.1536 105.48 76.5401 105.859C76.9342 106.228 77.3106 106.612 77.6592 107.021C78.0179 107.42 78.3488 107.847 78.6671 108.284C78.9829 108.721 79.2886 109.171 79.5867 109.646Z" fill="#F4E8D8"/>
<path d="M49.8416 50.0698C49.8416 50.0698 41.8791 45.2246 39.8026 42.4534C37.7261 39.6848 36.3418 34.1449 35.3035 28.6075C34.2653 23.0702 35.3035 16.146 35.3035 16.146C35.3035 16.146 22.1498 29.6458 19.7272 31.0301C19.7272 31.0301 16.2664 42.1074 24.5724 56.2993C24.5724 56.3018 37.7261 58.3783 49.8416 50.0698Z" fill="#229BC6"/>
<path opacity="0.5" d="M24.4961 44.7395C25.6784 38.0477 35.3005 28.61 35.3005 28.61C34.2623 23.0726 35.3005 16.1484 35.3005 16.1484C35.3005 16.1484 22.1468 29.6482 19.7242 31.0326C19.7242 31.0326 16.2634 42.1098 24.5694 56.3018C24.5719 56.3018 23.8974 48.1372 24.4961 44.7395Z" fill="#229BC6"/>
<path d="M49.6481 50.0318C47.5008 49.8221 45.3637 49.529 43.2442 49.1375C41.1248 48.7535 39.0205 48.2862 36.9642 47.6597C34.918 47.0256 32.8895 46.2754 31.058 45.1866C30.1486 44.6409 29.2897 44.0018 28.5799 43.2313C28.2136 42.8297 27.8372 42.4533 27.6351 42.0188C27.5846 41.9101 27.5467 41.799 27.5214 41.6853C27.4936 41.5742 27.4886 41.4554 27.4785 41.3241C27.4659 41.0664 27.4659 40.8037 27.4785 40.541C27.5341 39.485 27.6881 38.4215 27.8801 37.3681C28.0721 36.3122 28.302 35.2638 28.5521 34.218C29.0523 32.1263 29.6535 30.0574 30.2825 27.9986C30.9166 25.9423 31.6113 23.9011 32.3994 21.8979C32.7885 20.895 33.1977 19.8972 33.66 18.9246C33.8899 18.4371 34.1324 17.9571 34.3976 17.4897C34.6629 17.0224 34.9458 16.5626 35.2969 16.1509C34.5618 16.9466 34.0364 17.9091 33.5337 18.8615C33.036 19.8214 32.5864 20.8066 32.162 21.7994C31.3258 23.7925 30.5831 25.8261 29.9011 27.8748C29.219 29.926 28.6253 32.0076 28.0974 34.1043C27.8372 35.1552 27.5972 36.2111 27.3951 37.2772C27.1981 38.3432 27.0212 39.4194 26.9783 40.5182C26.9682 40.7936 26.9682 41.0715 26.9833 41.3519C26.9934 41.4883 27.001 41.6398 27.0389 41.7914C27.0718 41.9405 27.1223 42.087 27.188 42.2209C27.4507 42.769 27.8675 43.1581 28.2237 43.5496C28.9815 44.3656 29.8783 45.0173 30.8206 45.5756C32.7102 46.6821 34.769 47.4323 36.8531 48.0184C41.0364 49.1779 45.3384 49.7943 49.6481 50.0318Z" fill="#F4E8D8"/>
<path d="M28.2152 34.8951L22.2661 29.0723L27.8515 35.2462L28.2152 34.8951Z" fill="#F4E8D8"/>
<path d="M34.7298 47.0713L32.3906 56.1806L35.2174 47.2102L34.7298 47.0713Z" fill="#F4E8D8"/>
</svg>
