<svg width="287" height="206" viewBox="0 0 287 206" fill="none" xmlns="http://www.w3.org/2000/svg">
<path d="M82.2135 94.3738C82.2135 94.3738 31.5962 136.154 19.1412 143.384C6.68615 150.614 -4.56045 133.742 1.86763 119.279C8.29571 104.816 16.7319 103.612 16.7319 103.612C16.7319 103.612 -0.945287 73.8837 22.7589 50.5831C46.4631 27.2826 71.7692 23.2663 75.788 34.9166C75.788 34.9166 93.4348 12.035 128.416 3.17987C160.153 -4.85523 159.35 9.60795 141.673 27.2852C141.673 27.2852 153.725 21.2582 159.351 23.2689C164.971 25.277 82.2135 94.3738 82.2135 94.3738Z" fill="#F4E8D8"/>
<path d="M230.052 91.5634C230.052 91.5634 127.609 142.181 119.576 147.405C111.541 152.628 109.132 153.833 109.533 157.449C109.934 161.064 125.2 153.432 125.2 153.432C125.2 153.432 113.95 165.885 144.484 160.262C175.015 154.638 212.377 144.996 247.328 123.303C282.279 101.609 290.314 97.5929 285.894 89.5578C281.474 81.5227 267.816 83.1297 260.184 86.7449C252.553 90.36 272.637 77.9075 264.604 76.7016C256.566 75.4932 230.052 91.5634 230.052 91.5634Z" fill="#F4E8D8"/>
<path d="M168.787 52.7945C168.787 52.7945 168.787 43.7566 151.915 40.1389C135.042 36.5212 135.042 44.3582 136.248 50.9869C137.454 57.6155 147.096 61.8349 148.904 61.8349C150.711 61.8349 168.787 52.7945 168.787 52.7945Z" fill="#48598B"/>
<path d="M146.893 99.1948C146.893 99.1948 142.072 110.444 150.107 117.273C158.142 124.102 172.202 126.915 185.058 117.273C197.914 107.631 166.578 76.2979 146.893 99.1948Z" fill="#273150"/>
<path d="M156.131 55.6073C156.131 55.6073 171.245 37.7423 189.475 41.9489C210.366 46.77 217.797 58.6208 221.413 76.6992C221.413 76.6992 232.862 71.2764 236.477 88.1489C240.093 105.021 218.399 112.856 205.746 112.254C193.093 111.65 156.131 55.6073 156.131 55.6073Z" fill="#48598B"/>
<path d="M152.115 58.2196C152.115 58.2196 167.228 40.3546 185.459 44.5612C206.35 49.3823 213.781 61.2331 217.396 79.3115C217.396 79.3115 228.846 73.8887 232.461 90.7612C236.076 107.634 214.383 115.468 201.727 114.866C189.074 114.26 152.115 58.2196 152.115 58.2196Z" fill="#273150"/>
<path d="M141.47 79.913C141.47 79.913 132.432 85.9399 128.814 76.8995C125.197 67.859 139.058 60.027 144.481 60.6287C149.906 61.2329 148.099 72.0784 141.47 79.913Z" fill="#273150"/>
<path d="M166.779 54.6045C166.779 54.6045 166.779 45.5666 149.906 41.9489C133.034 38.3312 133.034 46.1683 134.24 52.797C135.446 59.4256 145.088 63.645 146.895 63.645C148.7 63.6424 166.779 54.6045 166.779 54.6045Z" fill="#273150"/>
<path d="M163.364 126.113C163.364 126.113 151.514 138.365 144.885 146.199C138.784 153.407 124.999 159.657 122.991 169.299C120.983 178.941 142.072 181.955 148.5 175.527C154.928 169.098 176.221 143.389 179.435 136.559C182.646 129.728 174.21 115.666 163.364 126.113Z" fill="#CE6D3E"/>
<path d="M185.058 122.094C185.058 122.094 178.63 117.273 174.613 117.674C170.597 118.075 158.947 130.731 158.947 130.731C158.947 130.731 163.567 130.931 166.581 133.744C169.594 136.557 173.41 145.194 173.41 145.194C173.41 145.194 189.478 126.915 185.058 122.094Z" fill="#C93F37"/>
<path d="M171.801 175.928C171.801 175.928 158.744 166.354 147.162 163.607C137.101 161.224 132.232 160.794 127.01 163.607C121.788 166.42 117.769 174.656 122.389 176.464C127.007 178.271 171.801 175.928 171.801 175.928Z" fill="#F6874E"/>
<path d="M232.461 182.757C232.461 182.757 234.068 157.048 231.659 140.977C229.25 124.907 225.632 112.856 218.001 108.035C210.367 103.214 196.307 110.848 185.863 115.265C177.345 118.868 173.811 135.753 168.186 145.395C163.375 153.643 159.749 161.465 171.801 175.926C183.852 190.386 225.632 208.868 232.461 182.757Z" fill="#D09435"/>
<path d="M232.462 182.757C232.462 182.757 234.069 157.048 231.66 140.977C229.25 124.907 225.633 112.856 218.001 108.035C210.367 103.214 219.207 140.173 211.573 155.441C206.618 165.352 202.332 175.928 213.581 184.364C228.641 195.659 225.633 208.868 232.462 182.757Z" fill="#F6BE4A"/>
<path d="M167.783 105.623C181.771 121.977 185.46 128.522 185.46 128.522C185.46 128.522 199.923 128.121 199.52 118.479C199.116 108.837 194.006 107.255 187.869 98.3926C180.639 87.9483 163.112 100.162 167.783 105.623Z" fill="#F6874E"/>
<path d="M167.782 105.623C174.611 114.26 184.855 113.658 184.855 113.658C184.855 113.658 203.535 116.971 187.868 98.3924C179.681 88.6792 163.11 100.162 167.782 105.623Z" fill="#CE6D3E"/>
<path d="M157.238 53.9015C157.238 53.9015 143.069 52.6549 139.662 74.4906C135.242 102.813 142.072 113.661 169.792 110.647C197.513 107.634 198.114 89.756 196.307 77.103C194.499 64.4448 173.506 49.6821 157.238 53.9015Z" fill="#F6874E"/>
<path d="M157.238 53.9013C157.238 53.9013 143.069 52.6548 139.662 74.4904C135.242 102.813 142.072 113.661 169.792 110.647C169.792 110.647 157.136 96.9887 155.329 84.3331C153.521 71.6775 176.22 53.5332 157.238 53.9013Z" fill="#CE6D3E"/>
<path d="M142.272 65.5008C142.272 65.5008 147.819 53.5306 164.971 56.4121C177.525 58.5218 190.983 71.2764 190.983 71.2764L196.307 66.6559C196.307 66.6559 184.651 48.6385 160.551 51.4895C147.395 53.0457 143.729 60.6797 142.272 65.5008Z" fill="#F6BE4A"/>
<path d="M142.272 65.5009C142.272 65.5009 147.819 53.5308 164.971 56.4123L160.551 51.4922C147.395 53.0459 143.729 60.6799 142.272 65.5009Z" fill="#D09435"/>
<path d="M201.128 79.9131C194.499 79.9131 189.478 87.1434 187.871 95.5796C186.441 103.089 184.857 112.452 207.155 111.85C229.45 111.249 213.781 79.9131 201.128 79.9131Z" fill="#273150"/>
<path d="M191.082 88.3494C195.132 88.3494 198.414 83.6949 198.414 77.9532C198.414 72.2116 195.132 67.5571 191.082 67.5571C187.033 67.5571 183.75 72.2116 183.75 77.9532C183.75 83.6949 187.033 88.3494 191.082 88.3494Z" fill="#F6874E"/>
<path d="M163.09 74.5122C164.435 74.1729 165.062 72.0661 164.492 69.8067C163.922 67.5472 162.37 65.9906 161.025 66.3299C159.681 66.6693 159.053 68.776 159.623 71.0354C160.194 73.2949 161.746 74.8515 163.09 74.5122Z" fill="#263052"/>
<path d="M148.24 78.5885C148.375 76.6822 147.565 75.0717 146.431 74.9913C145.296 74.9109 144.267 76.3911 144.132 78.2974C143.997 80.2037 144.807 81.8142 145.941 81.8946C147.076 81.975 148.105 80.4948 148.24 78.5885Z" fill="#263052"/>
<path d="M143.009 74.2871L147.629 74.6222" stroke="#273150" stroke-width="2" stroke-miterlimit="10"/>
<path d="M154.392 66.8565C154.392 66.8565 155.664 63.843 157.941 63.7085" stroke="#273150" stroke-width="2" stroke-miterlimit="10"/>
<path d="M184.611 62.64C184.611 62.64 191.643 71.1854 198.855 74.8462C204.309 77.616 208.678 78.1263 208.678 78.1263L207.586 75.943L210.303 73.8485C210.303 73.8485 200.11 72.7822 186.736 61.3579L184.611 62.64Z" fill="#C93F37"/>
<path d="M183.897 61.6422C183.897 61.6422 187.578 72.079 193.1 77.9891C197.276 82.4573 201.206 84.435 201.206 84.435L200.93 82.0105L204.197 80.9747C204.197 80.9747 194.986 76.4811 186.332 61.1675L183.897 61.6422Z" fill="#C93F37"/>
<path d="M188.368 67.1562C190.968 66.6992 193.441 52.8225 187.251 52.5305C181.425 52.2538 174.819 52.9976 175.916 57.3896C177.015 61.7817 185.771 67.6131 188.368 67.1562Z" fill="#C93F37"/>
<path d="M190.612 59.2633C190.612 59.2633 189.655 53.3125 187.81 53.4445C185.961 53.5766 187.614 56.1178 188.091 60.0376C188.569 63.9575 190.947 61.7741 190.612 59.2633Z" fill="#F7BC4B"/>
<path d="M186.21 64.2797C186.21 64.2797 185.819 61.5404 189.81 58.89C193.801 56.2395 196.837 54.795 199.376 56.369C201.915 57.943 202.793 64.8661 201.344 68.3569C199.894 71.8451 191.013 69.1947 188.777 67.8822C186.54 66.5696 186.21 64.2797 186.21 64.2797Z" fill="#C93F37"/>
<path d="M200.737 61.9617C200.737 61.9617 201.572 67.5139 199.089 68.4228C195.4 69.7709 197.726 59.2554 197.942 57.5926C198.157 55.9297 201.402 57.9835 200.737 61.9617Z" fill="#F7BC4B"/>
<path d="M121.282 122.698C121.282 122.698 123.691 113.96 122.488 109.441C121.282 104.922 120.68 103.414 116.461 101.005C112.242 98.5956 107.723 98.8952 108.327 94.0741C108.929 89.2531 110.134 91.6649 115.859 92.5687C121.584 93.4724 121.493 97.0064 126.405 98.8952C130.322 100.401 135.443 102.812 138.157 109.139C140.868 115.466 148.401 120.589 141.772 125.108C135.141 129.627 121.884 127.517 121.282 122.698Z" fill="#F6874E"/>
<path d="M187.466 116.872C187.466 116.872 178.225 136.557 175.415 144.592C172.602 152.627 176.217 157.045 182.645 160.663C189.073 164.278 196.705 165.684 203.133 152.828C209.561 139.972 215.184 131.335 212.775 124.907C210.366 118.479 195.501 105.623 187.466 116.872Z" fill="#F6874E"/>
<path d="M187.466 116.872C187.466 116.872 178.225 136.557 175.415 144.592C172.602 152.627 176.217 157.045 182.645 160.663C189.073 164.278 189.073 159.056 195.501 146.199C201.93 133.343 215.187 131.335 212.775 124.907C210.363 118.479 195.501 105.623 187.466 116.872Z" fill="#CE6D3E"/>
<path d="M187.065 118.078C187.065 118.078 194.699 99.9992 197.109 96.384C199.518 92.7689 204.743 90.3571 210.366 92.3678C215.989 94.3759 218.802 108.034 218.802 113.259C218.802 118.481 211.168 134.15 210.767 137.364C210.366 140.578 209.561 125.714 201.526 120.893C193.491 116.072 187.065 118.078 187.065 118.078Z" fill="#C93F37"/>
<path d="M197.109 96.384C199.518 92.7689 204.743 90.3571 210.366 92.3678C215.99 94.3759 218.802 108.034 218.802 113.259C218.802 118.481 211.169 134.15 210.767 137.364C210.366 140.578 213.177 107.636 209.965 103.216C205.401 96.9375 197.109 96.384 197.109 96.384Z" fill="#EE5D4F"/>
<path d="M198.47 147.68C198.47 147.68 194.067 131.383 179.025 132.023C163.983 132.663 170.587 156.946 185.629 158.863C200.671 160.779 198.47 147.68 198.47 147.68Z" fill="#CE6D3E"/>
<path d="M198.716 150.617C198.716 150.617 193.895 131.2 177.423 132.003C160.952 132.805 151.714 125.709 144.882 123.297C139.619 121.439 130.52 129.324 138.555 135.349C146.59 141.376 168.182 162.264 184.654 164.676C201.125 167.088 198.716 150.617 198.716 150.617Z" fill="#F6874E"/>
<path d="M126.405 118.781C126.405 118.781 116.463 114.864 115.258 113.96C114.052 113.056 113.45 108.837 109.533 108.837C105.615 108.837 108.931 113.056 109.231 115.466C109.533 117.875 112.422 120.147 114.554 123.1C115.859 124.907 117.266 128.223 121.285 129.929C128.038 132.798 135.446 135.351 140.868 133.544C146.291 131.736 135.745 116.671 126.405 118.781Z" fill="#F6874E"/>
<path d="M132.028 108.702C132.028 108.702 133.034 120.888 134.841 121.792C136.649 122.696 141.168 123.297 141.168 123.297C141.168 123.297 135.443 126.913 132.732 123.297C130.02 119.685 132.028 108.702 132.028 108.702Z" fill="#CE6D3E"/>
<path d="M125.339 102.343C124.714 101.594 122.465 100.718 120.089 101.843C117.715 102.967 117.715 103.219 117.839 105.592C117.964 107.966 117.839 112.841 118.588 113.592C119.337 114.341 121.713 115.217 123.087 113.592C124.46 111.967 125.087 109.093 125.087 106.717C125.09 104.341 125.963 103.092 125.339 102.343Z" fill="#F6874E"/>
<path d="M128.111 100.87C127.441 100.068 125.032 99.1287 122.488 100.335C119.944 101.541 119.944 101.807 120.079 104.351C120.213 106.895 120.079 112.117 120.881 112.922C121.683 113.724 124.229 114.663 125.702 112.922C127.174 111.18 127.845 108.101 127.845 105.557C127.845 103.013 128.781 101.673 128.111 100.87Z" fill="#CE6D3E"/>
<path d="M128.916 100.87C128.245 100.068 125.836 99.1287 123.292 100.335C120.748 101.541 120.748 101.807 120.883 104.351C121.018 106.895 120.883 112.117 121.685 112.922C122.487 113.724 125.034 114.663 126.506 112.922C127.979 111.18 128.649 108.101 128.649 105.557C128.649 103.013 129.583 101.673 128.916 100.87Z" fill="#F6874E"/>
<path d="M127.04 101.606C124.93 102.208 122.82 108.837 122.82 110.644C122.82 112.452 124.562 114.361 128.276 114.46C131.693 114.551 130.218 109.103 130.218 109.103C130.218 109.103 129.149 101.002 127.04 101.606Z" fill="#CE6D3E"/>
<path d="M145.085 123.901C145.085 123.901 144.684 114.259 143.78 111.85C142.876 109.441 139.261 107.029 135.042 104.62C130.822 102.21 130.221 101.005 128.111 101.606C126.001 102.208 123.892 108.837 123.892 110.644C123.892 112.452 124.694 113.256 128.411 113.356C131.828 113.447 131.289 109.103 131.289 109.103C131.289 109.103 132.627 110.644 132.93 115.463C133.232 120.281 134.338 127.517 145.085 123.901Z" fill="#F6874E"/>
<path d="M51.8833 164.042L67.7504 163.473L91.5536 163.372L97.2785 162.067L64.5364 160.259L51.8833 164.042Z" fill="#634874"/>
<path d="M57.4402 92.2669L73.9115 94.1735L103.437 82.3227L103.658 80.8934L89.1769 77.0015L57.4402 92.2669Z" fill="#634874"/>
<path d="M31.5934 55.9603L40.3901 51.0783L40.644 51.0732L51.7027 44.8761H51.9566L62.929 38.5674L102.901 53.1981V66.8565L63.3327 54.3685L31.5934 70.5225V55.9603Z" fill="#29ACE4"/>
<path d="M63.3327 54.2339L31.5934 70.5225V55.9603L40.3927 51.0732H40.644L51.7027 44.8761H51.9566L62.929 38.5674" fill="#48598B"/>
<path d="M31.5934 70.5224L76.9911 78.2046L102.901 66.8565L63.3327 54.2339L51.9744 60.0603L51.7103 60.0527L40.6491 65.8308L40.3876 65.8283L31.5934 70.5224Z" fill="#634874"/>
<path d="M42.4414 134.344L64.8584 137.296L101.294 128.87L87.5852 124.625L42.4414 134.344Z" fill="#634874"/>
<path d="M65.7417 95.8818L51.2125 88.8165L61.7254 81.6191L103.505 93.1374L65.7417 95.8818Z" fill="#634874"/>
<path d="M31.1923 107.131V120.99L65.4754 123.701L100.492 115.867L92.3581 107.834L102.701 105.422L80.2051 91.2612L63.1296 93.2694L31.1923 107.131Z" fill="#634874"/>
<path d="M31.5934 71.2766L62.929 54.9043L77.7095 59.573L77.7933 68.3977L91.4619 63.9143L103.64 67.7605V81.4189L63.3327 70.5734L31.5934 85.8388V71.2766Z" fill="#29ACE4"/>
<path d="M63.3327 70.5734L31.5934 85.8388V71.2766L62.929 54.9043" fill="#48598B"/>
<path d="M77.8032 68.3978L91.454 63.9448V78.2049L77.7931 80.9848L77.8032 68.3978Z" fill="#48598B"/>
<path d="M31.5934 85.8387L45.79 86.4733L77.8111 74.4651L63.3327 70.5732L31.5934 85.8387Z" fill="#634874"/>
<path d="M51.2125 77.4026V88.8167L63.2639 83.7621V71.5762L51.2125 77.4026Z" fill="#48598B"/>
<path d="M103.506 81.688V93.1377L63.2642 83.8306V71.5762L103.506 81.688Z" fill="#29ACE4"/>
<path d="M31.1923 97.4887V107.766L63.1296 95.7141V84.2314L31.1923 97.4887Z" fill="#48598B"/>
<path d="M63.1294 84.2314V95.7141L76.2877 98.8952V87.4455L63.1294 84.2314Z" fill="#29ACE4"/>
<path d="M89.8802 90.5913L89.5781 102.442L102.701 105.423V93.6733L89.8802 90.5913Z" fill="#29ACE4"/>
<path d="M31.2253 108.637V120.99L42.6751 115.867V104.118L31.2253 108.637Z" fill="#48598B"/>
<path d="M51.4133 101.304V112.754L63.1296 108.636V96.585L51.4133 101.304Z" fill="#48598B"/>
<path d="M63.1294 96.585L100.492 105.925V115.867L63.1294 108.636V96.585Z" fill="#29ACE4"/>
<path d="M53.9597 136.273V124.859L87.4583 114.067V126.702L53.9597 136.273Z" fill="#48598B"/>
<path d="M87.415 114.072V126.677L101.294 128.888V116.811L87.415 114.072Z" fill="#29ACE4"/>
<path d="M29.8033 142.204L67.6204 148.327L89.6871 142.26L54.1168 133.917L29.8033 142.204Z" fill="#634874"/>
<path d="M40.3747 124.592L40.1056 139.487L63.8301 143.11L64.084 128.162L40.3747 124.592Z" fill="#29ACE4"/>
<path d="M41.0298 139.031L51.2304 136.35L69.9282 138.223L56.8106 140.932L41.0298 139.031Z" fill="#634874"/>
<path d="M30.0547 128.292L29.8033 142.204L40.2502 139.538L40.5194 124.58L30.0547 128.292Z" fill="#48598B"/>
<path d="M41.3446 124.661L41.0298 139.03L51.233 136.405L51.4361 121.439L41.3446 124.661Z" fill="#48598B"/>
<path d="M51.4055 121.455L51.177 136.509L89.7633 142.26L89.9714 129.584L51.4055 121.455Z" fill="#29ACE4"/>
<path d="M103.036 153.631L86.2295 158.351L60.2379 156.812L90.883 151.856L103.036 153.631Z" fill="#634874"/>
<path d="M90.8833 139.586L103.036 141.265V153.631L90.8833 151.856V139.586Z" fill="#29ACE4"/>
<path d="M90.9339 139.604V151.856L70.8982 155.773V144.458L90.9339 139.604Z" fill="#48598B"/>
<path d="M77.6084 150.361L46.8617 156.779L31.9974 155.74L59.6316 147.563L77.6084 150.361Z" fill="#634874"/>
<path d="M64.0009 135.936V148.246L31.9976 155.74V144.189L64.0009 135.936Z" fill="#48598B"/>
<path d="M64.0006 135.936V148.246L77.5575 150.437V138.165L64.0006 135.936Z" fill="#29ACE4"/>
<path d="M101.163 165.281L74.5135 170.772L56.2346 165.718L89.7789 158.921L101.163 165.281Z" fill="#634874"/>
<path d="M51.8833 152.257V164.042L64.5948 161.097V148.878L51.8833 152.257Z" fill="#48598B"/>
<path d="M101.162 154.768V165.281L62.7971 161.698V149.479L101.162 154.768Z" fill="#29ACE4"/>
<path d="M33.2692 166.789V178.706H64.0006L79.101 175.893L79.0324 164.377L64.3357 162.671L33.2692 166.789Z" fill="#48598B"/>
<path d="M60.5199 168.728V179.622H88.6059L102.407 177.05L102.346 166.525L88.9131 164.966L60.5199 168.728Z" fill="#48598B"/>
<path d="M89.1875 164.936V177.327L102.468 177.094V166.129L89.1875 164.936Z" fill="#29ACE4"/>
<path d="M64.6377 162.636V176.195L79.1669 175.939V163.943L64.6377 162.636Z" fill="#29ACE4"/>
<path d="M40.5173 51.0732V65.8258" stroke="#29ACE4" stroke-miterlimit="10"/>
<path d="M51.8325 44.876V60.0525" stroke="#29ACE4" stroke-miterlimit="10"/>
<path d="M89.8803 90.5913L76.3209 93.8383V99.8501L87.2857 102.61L89.5782 102.442L89.8803 90.5913Z" fill="#48598B"/>
<path d="M263.797 202.844C263.058 201.585 234.873 175.123 167.782 174.321C113.417 173.671 31.594 175.928 13.5156 181.955C13.5156 181.955 67.5501 178.942 101.295 186.977C135.04 195.012 157.421 199.592 173.809 201.641C186.665 203.248 210.1 205.39 215.723 205.791C242.208 207.683 213.076 195.961 242.406 201.338C260.484 204.651 264.65 204.299 263.797 202.844Z" fill="#866694"/>
<path d="M94.6661 189.586C94.6661 189.586 76.5878 182.757 46.0569 184.765C9.61588 187.162 0.336792 182.277 0.336792 182.277C0.336792 182.277 10.38 196.982 33.9471 192.889C65.9251 187.34 94.6661 189.586 94.6661 189.586Z" fill="#866694"/>
</svg>
