<svg width="550" height="633" viewBox="0 0 550 633" fill="none" xmlns="http://www.w3.org/2000/svg">
<path d="M292.586 43.2682C292.586 43.2682 261.058 -17.8158 194.063 5.1728C127.068 28.1614 152.684 95.1567 152.684 95.1567C152.684 95.1567 127.725 81.3635 102.109 96.4703C76.4929 111.577 85.6883 134.566 85.6883 134.566C85.6883 134.566 69.2679 135.222 60.0725 147.702C50.8771 160.182 58.102 177.259 63.3566 179.886C63.3566 179.886 37.7407 194.993 38.3976 206.159C39.0544 217.325 127.068 171.347 163.85 152.3C200.631 133.252 309.663 74.7953 323.456 67.5704C337.249 60.3454 314.917 59.0318 307.692 65.5999C300.467 72.1681 379.942 29.475 354.983 28.1614C330.024 26.8477 292.586 43.2682 292.586 43.2682Z" fill="#F3E7D9"/>
<path d="M419.679 50.1646C419.679 50.1646 404.573 63.9578 413.768 62.6441C422.964 61.3305 485.361 29.8033 492.586 24.5488C499.811 19.2942 497.841 10.0988 490.616 8.78518C483.391 7.47155 467.627 16.0102 464.343 29.1465C464.343 29.1465 461.059 4.18747 442.668 4.84428C424.277 5.5011 417.709 35.0578 419.679 50.1646Z" fill="#F3E7D9"/>
<path d="M115.665 599.973C115.665 599.973 101.117 597.897 86.5615 597.897C72.0065 597.897 66.8111 608.288 73.0508 608.288C73.0508 608.288 29.3988 615.565 51.2248 619.723C73.0508 623.874 140.611 618.679 115.665 599.973Z" fill="#33A86D"/>
<path d="M356.98 573.963C361.19 569.93 346.32 569.398 327.922 570.225C304.572 571.276 309.354 576.419 309.354 576.419C309.354 576.419 296.717 575.776 290.273 579.736C286.339 582.153 292.336 583.697 310.392 584.761C328.441 585.825 334.116 579.762 334.116 579.762C334.116 579.762 352.763 577.996 356.98 573.963Z" fill="#33A86D"/>
<path d="M156.9 575.96C161.11 572.406 146.24 570.18 127.842 568.918C104.493 567.316 109.274 573.004 109.274 573.004C109.274 573.004 96.6371 570.922 90.1937 574.153C86.2594 576.124 92.2561 578.35 110.312 581.464C128.368 584.577 134.036 579.165 134.036 579.165C134.036 579.165 152.69 579.513 156.9 575.96Z" fill="#33A86D"/>
<path d="M201.413 592.708C201.413 592.708 181.504 592.373 164.513 595.034C147.521 597.694 153.228 603.401 157.754 603.401C162.279 603.401 90.0755 624.071 110.463 629.385C130.851 634.699 161.176 632.288 245.058 628.268C288.71 626.18 310.536 615.894 291.83 612.236C275.068 608.958 231.909 604.846 231.909 604.846C244.381 596.203 201.413 592.708 201.413 592.708Z" fill="#33A86D"/>
<path d="M107.961 599.953C107.961 599.953 106.634 591.533 109.287 591.533C111.941 591.533 111.501 596.853 111.501 596.853C111.501 596.853 116.821 588.873 116.821 591.979C116.821 595.079 114.161 597.74 114.161 597.74C114.161 597.74 109.294 603.06 107.961 599.953Z" fill="#288453"/>
<path d="M140.71 616.374C140.71 616.374 143.449 605.162 140.71 604.663C137.971 604.163 137.472 610.889 137.472 611.638C137.472 612.387 137.222 600.426 135.232 600.177C133.242 599.927 132.243 604.663 132.243 604.663C132.243 604.663 130.496 601.175 128.256 603.914C126.017 606.653 128.506 608.649 128.506 608.649C128.506 608.649 126.017 608.15 124.519 611.139C123.022 614.127 131.495 617.365 131.495 617.365L128.256 619.356C128.256 619.369 136.473 619.618 140.71 616.374Z" fill="#33A86D"/>
<path d="M321.413 611.835C321.413 611.835 319.147 609.95 320.283 607.303C321.413 604.662 323.679 607.677 323.679 607.677C323.679 607.677 325.564 599.749 328.211 601.634C330.851 603.519 328.585 606.922 328.585 606.922C328.585 606.922 335.383 595.592 338.405 600.505C341.426 605.411 334.254 609.569 334.254 609.569C334.254 609.569 339.541 613.345 337.275 613.345C335.009 613.345 320.283 615.23 318.017 614.475C315.751 613.726 321.413 611.835 321.413 611.835Z" fill="#288453"/>
<path d="M180.105 610.712C164.276 607.467 150.338 612.525 158.45 614.961C158.45 614.961 125.997 618.344 135.915 621.996C145.833 625.648 190.004 624.702 201.222 623.618C212.44 622.535 216.046 621.451 221.255 617.661C226.463 613.871 195.935 613.957 180.105 610.712Z" fill="#288453"/>
<path d="M161.958 625.674C161.958 625.674 160.756 619.461 162.562 620.866C164.362 622.272 164.959 627.48 161.958 625.674Z" fill="#33A86D"/>
<path d="M192.007 624.926C192.007 624.926 190.805 618.712 192.611 620.118C194.411 621.517 195.009 626.725 192.007 624.926Z" fill="#33A86D"/>
<path d="M158.752 624.873C158.752 624.873 157.55 618.659 159.356 620.065C161.156 621.47 161.754 626.679 158.752 624.873Z" fill="#33A86D"/>
<path d="M96.8802 606.246C96.8802 606.246 90.9558 600.86 94.1873 599.513C97.4188 598.167 97.1495 602.206 97.1495 602.206C97.1495 602.206 97.6881 592.781 100.381 594.127C103.074 595.474 101.189 599.782 101.189 599.782C101.189 599.782 103.074 594.935 103.613 598.167C104.151 601.398 100.65 607.323 96.8802 606.246Z" fill="#288453"/>
<path d="M181.603 522.941V274.52C181.603 274.52 181.603 269.771 186.352 265.699C191.101 261.627 197.209 256.201 197.209 256.201V194.421C197.209 192.102 198.917 190.132 201.209 189.804L211.456 188.339V92.7327C211.456 89.9938 213.584 87.7277 216.316 87.5504L233.853 86.4272L239.285 91.9708C239.285 91.9708 399.437 86.5389 405.545 86.5389C411.653 86.5389 488.337 123.859 495.122 127.255C501.906 130.651 497.834 132.687 498.517 140.148C499.194 147.61 499.194 307.768 499.194 307.768V519.552L181.603 522.941Z" fill="#F7BC4B"/>
<path d="M239.285 91.9709L256.139 110.125L252.086 269.193L265.334 311.288L264.553 333.896L264.388 340.346L263.778 407.171L382.261 410.284L384.599 255.945L386.924 85.5669L239.285 91.9709Z" fill="#F5894E"/>
<path d="M393.604 97.9154V308.373L447.056 310.146L451.621 246.52L432.284 227.459V103.794C432.284 103.794 426.208 81.3111 418.064 79.2749C413.223 78.0664 406.793 89.9219 400.744 90.3029C396.724 90.559 393.604 93.8957 393.604 97.9154Z" fill="#CE9436"/>
<path d="M382.898 93.3571C382.898 102.099 382.898 321.818 382.898 321.818H442.911V263.459L416.448 247.853C416.448 247.853 416.448 106.933 416.448 99.2356C416.448 91.5377 410.681 86.3423 407.594 86.3423C404.507 86.3423 391.962 86.5262 388.028 86.5262C384.087 86.5262 382.898 91.0714 382.898 93.3571Z" fill="#CC6D3D"/>
<path d="M386.924 85.5671C386.924 94.3093 386.924 304.898 386.924 304.898H446.938V246.54L420.474 230.934C420.474 230.934 420.474 99.1434 420.474 91.4456C420.474 83.7477 419.364 78.5522 416.277 78.5522C413.19 78.5522 395.995 78.7362 392.054 78.7362C388.113 78.7362 386.924 83.2879 386.924 85.5671Z" fill="#F7BC4B"/>
<path d="M247.423 100.799V270.448L262.352 279.269V331.525L254.891 340.346L258.963 347.808V432.636L265.748 429.247L268.461 347.808L264.388 340.346L268.461 335.598V268.412L261.564 258.744L256.139 110.126L247.423 100.799Z" fill="#CC6D3D"/>
<path d="M313.361 112.359V120.556C313.361 121.403 314.05 122.073 314.898 122.053L363.489 120.667C364.481 120.641 365.216 119.689 364.986 118.73L363.036 110.592C362.871 109.902 362.254 109.429 361.538 109.449L314.898 110.782C314.05 110.795 313.361 111.505 313.361 112.359Z" fill="#FEED7F"/>
<path d="M361.282 137.37L335.778 138.099C334.668 138.132 333.761 137.252 333.761 136.142V130.506C333.761 129.396 334.661 128.47 335.778 128.437L361.282 127.708C362.392 127.676 363.298 128.549 363.298 129.666V135.301C363.298 136.411 362.399 137.337 361.282 137.37Z" fill="#FEED7F"/>
<path d="M302.76 213.672L273.498 214.507C272.093 214.546 270.95 213.436 270.95 212.03V205.856C270.95 204.451 272.093 203.275 273.498 203.236L302.76 202.401C304.165 202.362 305.308 203.472 305.308 204.878V211.052C305.308 212.457 304.165 213.633 302.76 213.672Z" fill="#FEED7F"/>
<path d="M335.246 210.599L325.315 210.881C324.349 210.907 323.568 210.152 323.568 209.186V204.622C323.568 203.656 324.349 202.855 325.315 202.829L335.246 202.546C336.211 202.52 336.993 203.275 336.993 204.241V208.806C336.986 209.764 336.205 210.572 335.246 210.599Z" fill="#FEED7F"/>
<path d="M314.839 235.341L279.673 236.346C278.411 236.379 277.393 235.387 277.393 234.126V229.022C277.393 227.761 278.418 226.71 279.673 226.678L314.839 225.673C316.1 225.64 317.118 226.632 317.118 227.893V232.996C317.124 234.251 316.1 235.302 314.839 235.341Z" fill="#FEED7F"/>
<path d="M338.596 299.414H311.213V309.614H338.596V299.414Z" fill="#FEED7F"/>
<path d="M412.75 86.2568L406.609 94.6444L411.732 108.208L410.826 139.163L415.344 155.163L415.949 113.081L415.042 101.955L418.057 98.1321C418.064 98.1255 415.463 86.6049 412.75 86.2568Z" fill="#FEED7F"/>
<path d="M225.577 158.205L235.239 182.362L228.796 200.083L230.411 232.3V251.624L225.577 248.405L223.16 227.466L226.379 185.587L225.577 158.205Z" fill="#CC6D3D"/>
<path d="M197.925 230.684L196.316 260.484L201.952 274.178L201.144 336.996L203.561 345.049L207.587 273.371L200.342 257.265L197.925 230.684Z" fill="#CE9436"/>
<path d="M248.395 208.136L225.846 249.298L247.324 274.717L245.176 300.484L265.577 330.553L262.352 279.269L249.472 257.804L248.395 208.136Z" fill="#CC6D3D"/>
<path d="M442.76 101.823L441.69 151.222L459.942 196.326V237.134L500.751 302.638L499.299 131.708C499.286 130.014 498.307 128.477 496.783 127.748L442.76 101.823Z" fill="#CE9436"/>
<path d="M253.499 153.909L270.412 161.153L283.298 154.71L320.343 155.518L283.298 158.736L268.796 168.405L251.081 159.544L253.499 153.909Z" fill="#CC6D3D"/>
<path d="M384.776 201.423L392.021 215.117L384.776 223.978V201.423Z" fill="#CC6D3D"/>
<path d="M207.876 355.052L229.446 355.84L241.111 370.166L247.035 412.832L238.431 463.946L214.871 482.652L201.577 442.606L207.876 355.052Z" fill="#4B3355"/>
<path d="M241.111 370.166L227.193 388.261L230.891 412.773L240.093 439.092L247.035 412.832L241.111 370.166Z" fill="#665070"/>
<path d="M549.23 327.453C549.23 327.453 534.977 291.486 531.588 286.737C528.198 281.988 526.156 279.952 511.226 279.276C496.297 278.599 479.331 273.844 479.331 273.844L448.133 288.675L444.047 301.666L456.94 538.501L494.3 555.296L533.768 555.795L541.762 544.61C541.762 544.61 539.726 398.711 539.726 389.207C539.726 379.703 544.474 377.673 547.187 375.637C549.906 373.594 549.23 327.453 549.23 327.453Z" fill="#273252"/>
<path d="M457.256 286.527L476.047 281.693L501.282 293.502C501.282 293.502 509.874 298.337 515.24 296.721C520.606 295.105 529.197 291.887 529.197 291.887L535.102 302.626L544.232 329.47L543.693 362.757L531.345 361.148L517.92 397.122L503.154 356.852L511.207 331.079L498.051 299.401L474.964 287.052L457.256 286.527Z" fill="#3E4C6F"/>
<path d="M91.7046 401.424L107.994 386.494V325.417L108.979 306.172C109.209 301.719 111.836 297.739 115.843 295.775L170.424 269.088C170.424 269.088 190.102 272.484 199.606 278.586C209.104 284.694 213.859 294.875 213.859 294.875L216.572 325.41V372.235C216.572 372.235 218.608 374.271 213.859 378.343C209.111 382.415 208.427 384.452 208.427 384.452C208.427 384.452 207.068 387.847 207.751 391.237C208.427 394.632 207.751 509.996 207.751 509.996L178.569 551.408H103.921L95.1003 517.464L91.7046 401.424Z" fill="#3E4C6F"/>
<path d="M91.7046 401.424L107.994 386.494V325.417L108.723 311.23C109.11 303.65 113.583 296.878 120.401 293.548L122.976 292.287L170.424 269.088L154.358 305.148L163.6 338.251C163.009 341.647 163.981 345.135 166.253 347.729L169.708 351.676C173.734 356.281 175.114 358.672 179.882 354.842L216.572 325.404L215.646 347.184L200.342 360.071L195.508 393.897C195.508 393.897 191.606 448.491 192.289 451.887C192.546 453.174 177.794 445.444 177.794 445.444L162.49 509.989L178.569 551.401H103.921L95.1003 517.457L91.7046 401.424Z" fill="#273252"/>
<path d="M150.674 343.263L141.012 359.368L158.726 363.394L166.785 365.01L160.342 344.872L150.674 343.263Z" fill="#3E4C6F"/>
<path d="M129.458 315.716L143.429 308.208L151.751 309.975C153.163 310.074 157.564 334.186 156.585 335.21L149.432 333.601L141.242 329.299C141.123 330.658 139.199 330.81 138.871 329.489L132.066 342.113L124.664 342.678L115.219 323.42L129.458 315.716Z" fill="#48598B"/>
<path d="M118.457 303.17L134.569 306.927L149.064 297.804L168.395 270.954L133.491 288.136L115.238 300.484L118.457 303.17Z" fill="#48598B"/>
<path d="M506.116 360.622L503.437 386.934L514.169 410.021L516.501 434.718L521.151 452.971L512.56 434.718L510.412 412.169L498.602 386.396L503.167 356.865L506.116 360.622Z" fill="#3E4C6F"/>
<path d="M515.246 435.526L529.742 442.232L535.647 462.101L536.185 471.23L534.038 461.562L527.594 445.457L516.855 441.161L515.246 435.526Z" fill="#3E4C6F"/>
<path d="M457.321 300.891C455.574 299.144 457.906 291.006 461.394 297.594C464.875 304.182 459.062 302.632 457.321 300.891Z" fill="#288453"/>
<path d="M451.042 298.868C448.52 297.509 449.492 290.244 452.205 292.28C453.755 293.443 456.717 294.796 454.53 298.29C453.564 299.84 453.564 300.228 451.042 298.868Z" fill="#288453"/>
<path d="M452.277 292.169C449.564 290.231 449.564 278.986 453.827 282.087C458.096 285.187 454.99 294.106 452.277 292.169Z" fill="#288453"/>
<path d="M457.321 294.494C457.321 294.494 459.259 286.356 461.197 290.619C463.134 294.881 457.321 294.494 457.321 294.494Z" fill="#288453"/>
<path d="M449.748 309.673C449.748 309.673 450.924 302.08 447.64 304.76C444.356 307.44 445.998 311.906 449.748 309.673Z" fill="#288453"/>
<path d="M448.533 292.024C447.331 290.658 442.819 289.41 445.821 294.35C449.236 299.972 449.729 293.391 448.533 292.024Z" fill="#288453"/>
<path d="M450.727 306.317C450.727 306.317 459.252 312.517 457.315 307.867C455.377 303.216 451.115 302.829 450.727 306.317Z" fill="#288453"/>
<path d="M450.339 291.394C450.339 291.394 449.177 279.374 447.627 283.256C446.077 287.138 448.014 292.169 450.339 291.394Z" fill="#288453"/>
<path d="M442.431 294.316C439.686 293.206 436.467 295.978 442.701 298.086C448.927 300.188 445.177 295.426 442.431 294.316Z" fill="#288453"/>
<path d="M48.5911 563.611C45.1953 562.252 38.4104 545.286 42.4827 541.22C46.5549 537.148 49.2676 537.825 45.8784 526.967C42.4827 516.11 43.1658 458.429 43.1658 434.678C43.1658 410.928 43.1658 389.89 47.238 380.392C51.3103 370.895 47.238 361.391 49.9507 356.642C52.6633 351.893 60.1313 348.497 60.1313 348.497C60.1313 348.497 62.1675 326.106 63.5271 322.711C64.8867 319.315 79.133 313.89 84.5649 313.89C89.9968 313.89 89.9968 316.602 98.8178 326.106C107.639 335.604 114.424 341.036 116.46 344.432C118.496 347.827 117.82 351.9 119.856 356.648C121.892 361.397 133.425 406.869 135.462 411.617C137.498 416.366 137.498 415.013 138.174 426.547C138.851 438.081 140.21 477.444 140.887 480.833C141.563 484.228 140.887 486.941 146.319 490.33C151.751 493.726 151.751 499.828 153.104 503.224C154.463 506.619 154.463 519.513 154.463 525.614C154.463 531.716 153.104 556.833 153.787 560.905C154.463 564.977 157.859 569.726 149.038 571.086C140.217 572.445 122.575 573.122 114.43 573.799C106.286 574.475 104.25 571.086 104.25 571.086C104.25 571.086 82.5353 569.726 73.0312 569.726C63.5271 569.726 60.1379 571.762 58.7783 569.05C57.4121 566.324 51.9868 564.964 48.5911 563.611Z" fill="#856792"/>
<path d="M99.1332 566.442L99.4879 554.271L84.4534 536.373L87.3171 510.961L74.7916 501.654L71.5732 484.833L61.5502 469.444C61.5502 469.444 70.1413 441.168 69.7801 439.02C69.4254 436.872 83.3828 431.506 83.3828 431.506L99.4879 450.836L95.9082 470.166L99.4879 489.135L122.752 554.285L114.522 553.569L110.943 570.39L99.1332 566.442Z" fill="#665070"/>
<path d="M71.9278 349.883L77.294 348.451C77.294 348.451 90.8047 356.865 90.8047 364.918C90.8047 372.97 85.9706 382.639 85.9706 382.639C85.9706 382.639 84.3614 397.134 87.5798 405.995C90.7982 414.855 103.685 434.987 103.685 434.987L119.79 443.039C119.79 443.039 120.598 455.926 122.207 458.343C123.718 460.609 123.1 470.606 123.1 470.606C123.1 470.606 127.127 476.78 127.396 473.023C127.665 469.266 132.677 467.204 132.677 467.204L127.843 455.125L128.651 439.821L106.903 430.159L92.4074 405.194L91.5995 386.671L96.4336 364.924C96.4336 364.924 90.1676 351.144 84.8014 347.387C82.5091 345.778 67.9803 348.103 67.9803 348.103L71.9278 349.883Z" fill="#BB83C3"/>
<path d="M124.637 459.145L122.22 465.857L124.637 514.718C124.637 514.718 127.77 502.008 129.38 489.122C130.989 476.241 124.637 459.145 124.637 459.145Z" fill="#BB83C3"/>
<path d="M45.4385 544.248C45.4385 544.248 51.8818 551.23 55.6388 551.23C59.3958 551.23 64.23 543.178 64.23 543.178C64.23 543.178 76.0396 542.639 78.1874 542.639C80.3351 542.639 88.9263 550.692 88.9263 550.692L97.5175 555.526L92.6833 556.064L86.2399 552.846L77.1102 546.403L65.8326 546.941L56.7029 556.071L47.5731 549.089L45.4385 544.248Z" fill="#BB83C3"/>
<path d="M62.0823 548.544L56.7161 559.822L58.772 569.037L52.9526 563.04L51.882 553.378H55.6389L62.0823 548.544Z" fill="#BB83C3"/>
<path d="M84.368 321.423L78.726 329.305L81.9509 338.934L90.8114 347.689L92.4206 361.693L95.639 348.563L89.1956 340.688L83.5601 331.059L84.368 321.423Z" fill="#BB83C3"/>
<path d="M51.3431 376.997C51.3431 376.997 47.3168 406.796 48.1247 414.849C48.9326 422.902 54.5681 430.153 54.5681 434.98C54.5681 439.808 53.7602 457.529 47.3168 468.806C40.8735 480.084 44.0984 441.424 44.0984 441.424L42.4892 406.79C42.4827 406.796 42.4827 377.804 51.3431 376.997Z" fill="#BB83C3"/>
<path d="M57.248 458.074C50.5354 472.839 47.849 473.378 51.8818 481.43C55.9081 489.483 64.23 509.082 64.23 509.082C64.23 509.082 78.7259 528.412 81.9509 529.214C85.1693 530.022 81.143 510.691 81.143 510.691L74.6997 513.109L70.6734 509.89L61.8129 480.09L56.9787 472.839L62.6142 451.9L61.5436 430.96L57.5173 438.212L57.248 458.074Z" fill="#BB83C3"/>
<path d="M69.0641 379.414L65.0378 393.108L69.0641 410.823V422.1L72.2825 410.021L69.0641 393.108L72.2825 372.97L69.0641 379.414Z" fill="#665070"/>
<path d="M69.0642 404.379L77.1168 406.796L87.5864 405.995L78.726 412.432L69.0642 410.823V404.379Z" fill="#665070"/>
<path d="M72.2826 372.97L61.813 369.752L56.9854 362.5L50.542 364.11L53.7604 368.136L59.3959 373.778L72.2826 372.97Z" fill="#665070"/>
<path d="M65.6423 436.458C67.0741 438.606 72.0857 439.677 73.1563 435.92C74.2269 432.163 69.9379 430.554 69.9379 430.554C69.9379 430.554 64.2104 434.311 65.6423 436.458Z" fill="#288453"/>
<path d="M66.5355 420.531C66.5355 420.531 65.4649 431.27 71.3697 427.513C77.2745 423.756 70.8311 418.383 66.5355 420.531Z" fill="#33A86D"/>
<path d="M77.2747 432.347C77.2747 432.347 78.3453 439.861 81.0317 435.033C83.718 430.199 81.5702 427.513 77.2747 432.347Z" fill="#33A86D"/>
<path d="M71.3698 442.547C71.3698 442.547 76.2039 431.27 76.7359 436.642C77.2745 442.009 71.3698 442.547 71.3698 442.547Z" fill="#33A86D"/>
<path d="M245.853 412.117C245.853 412.117 245.137 397.739 249.446 404.209C253.755 410.679 250.162 414.278 250.162 414.278C250.162 414.278 254.477 404.209 258.792 412.839C263.108 421.47 252.323 422.908 252.323 422.908C252.323 422.908 237.945 423.624 237.945 412.839C237.945 402.055 245.853 412.117 245.853 412.117Z" fill="#33A86D"/>
<path d="M108.066 312.629C108.066 312.629 99.9938 304.018 99.9938 307.788C99.9938 311.558 105.373 315.86 105.373 315.86C105.373 315.86 98.378 315.322 99.4552 319.092C100.532 322.862 105.912 320.708 105.912 320.708C105.912 320.708 111.291 330.934 113.984 320.708C116.677 310.481 110.752 295.407 108.066 312.629Z" fill="#33A86D"/>
<path d="M131.429 338.586C130.188 334.455 138.621 325.647 138.621 331.394C138.621 337.148 133.583 345.778 131.429 338.586Z" fill="#33A86D"/>
<path d="M127.015 349.837C127.015 349.837 132.73 341.266 134.161 346.501C135.593 351.736 128.441 358.882 127.015 349.837Z" fill="#33A86D"/>
<path d="M130.706 373.096C130.706 373.096 122.798 359.434 130.706 360.872C138.621 362.311 135.744 379.572 130.706 373.096Z" fill="#33A86D"/>
<path d="M138.621 372.379C138.621 372.379 149.406 361.594 148.69 368.064C147.968 374.534 142.214 378.849 138.621 372.379Z" fill="#33A86D"/>
<path d="M126.398 376.695C126.398 376.695 115.613 375.979 120.644 378.849C125.675 381.726 133.583 382.448 126.398 376.695Z" fill="#33A86D"/>
<path d="M122.082 368.064C122.082 368.064 112.013 365.91 117.767 369.502C123.521 373.095 122.082 368.064 122.082 368.064Z" fill="#33A86D"/>
<path d="M139.337 389.634C139.337 389.634 140.775 376.695 145.807 380.288C150.844 383.887 147.968 391.795 139.337 389.634Z" fill="#33A86D"/>
<path d="M135.022 397.542C135.022 397.542 127.114 385.319 134.306 389.634C141.491 393.949 142.93 397.542 135.022 397.542Z" fill="#33A86D"/>
<path d="M137.183 406.172C137.183 406.172 141.498 392.511 145.091 401.857C148.683 411.204 138.621 411.926 137.183 406.172Z" fill="#33A86D"/>
<path d="M140.06 418.396C140.06 418.396 127.836 406.889 132.151 413.365C136.46 419.834 140.06 418.396 140.06 418.396Z" fill="#33A86D"/>
<path d="M149.406 411.926C149.406 411.926 139.337 419.118 147.968 416.958C156.592 414.803 154.437 412.642 149.406 411.926Z" fill="#33A86D"/>
<path d="M131.068 404.373C131.068 404.373 124.598 410.843 130.707 409.05C136.815 407.256 138.26 402.58 131.068 404.373Z" fill="#33A86D"/>
<path d="M135.744 422.35C135.744 422.35 132.506 432.774 140.421 429.181C148.322 425.588 146.891 416.958 135.744 422.35Z" fill="#33A86D"/>
<path d="M147.968 428.465C147.968 428.465 152.644 422.357 155.876 425.588C159.107 428.82 138.621 436.734 147.968 428.465Z" fill="#33A86D"/>
<path d="M137.899 432.419C137.899 432.419 122.437 438.173 134.306 436.373C146.168 434.573 143.652 434.212 137.899 432.419Z" fill="#33A86D"/>
<path d="M141.491 438.173C141.491 438.173 144.73 443.204 149.4 439.972C154.069 436.741 150.483 437.45 141.491 438.173Z" fill="#33A86D"/>
<path d="M154.437 432.058C154.437 432.058 166.3 432.058 159.114 433.857C151.928 435.657 148.322 434.934 154.437 432.058Z" fill="#33A86D"/>
<path d="M136.099 441.043C136.099 441.043 130.707 448.235 140.776 444.281C150.845 440.327 136.099 441.043 136.099 441.043Z" fill="#33A86D"/>
<path d="M151.199 442.481C151.199 442.481 144.729 450.389 155.153 446.435C165.583 442.481 161.984 439.966 151.199 442.481Z" fill="#33A86D"/>
<path d="M139.337 448.958C139.337 448.958 138.976 453.273 144.729 450.757C150.483 448.235 148.684 447.158 139.337 448.958Z" fill="#33A86D"/>
<path d="M140.414 456.143C140.414 456.143 133.945 459.736 142.214 459.381C150.483 459.02 140.414 456.143 140.414 456.143Z" fill="#33A86D"/>
<path d="M125.675 386.403C125.675 386.403 112.013 383.887 119.206 387.48C126.398 391.073 127.114 388.196 125.675 386.403Z" fill="#33A86D"/>
<path d="M133.945 382.087C133.945 382.087 122.083 380.287 128.552 383.526C135.022 386.757 137.183 384.964 133.945 382.087Z" fill="#33A86D"/>
<path d="M146.891 393.588C146.891 393.588 158.753 387.48 154.437 392.511C150.122 397.542 137.537 401.857 146.891 393.588Z" fill="#33A86D"/>
<path d="M109.859 330.199C109.859 330.199 95.9611 327.322 101.708 331.158C107.455 334.994 115.134 334.994 109.859 330.199Z" fill="#33A86D"/>
<path d="M110.339 336.911C110.339 336.911 103.147 346.98 113.216 343.144C123.285 339.309 117.051 334.993 110.339 336.911Z" fill="#33A86D"/>
<path d="M109.859 330.199C109.859 330.199 121.839 327.322 115.133 332.117C108.421 336.911 109.859 330.199 109.859 330.199Z" fill="#33A86D"/>
<path d="M117.524 319.171C117.524 319.171 108.894 331.631 119.442 324.925C129.99 318.219 125.675 312.944 117.524 319.171Z" fill="#33A86D"/>
<path d="M124.237 326.842C124.237 326.842 130.95 329.24 123.278 331.637C115.613 334.034 118.004 332.596 124.237 326.842Z" fill="#33A86D"/>
<path d="M122.798 335.473C122.798 335.473 115.606 342.186 124.237 339.309C132.867 336.432 130.95 334.514 122.798 335.473Z" fill="#33A86D"/>
<path d="M118.004 348.892C118.004 348.892 104.585 349.851 114.647 352.727C124.71 355.604 122.798 350.81 118.004 348.892Z" fill="#33A86D"/>
<path d="M119.442 344.097C119.442 344.097 128.552 336.425 126.155 342.179C123.758 347.933 116.572 348.412 119.442 344.097Z" fill="#33A86D"/>
<path d="M127.613 343.059C127.613 343.059 139.12 340.182 131.449 344.018C123.777 347.854 127.613 343.059 127.613 343.059Z" fill="#33A86D"/>
<path d="M115.613 357.043C115.613 357.043 100.276 358.481 109.859 360.399C119.442 362.311 118.483 358.961 115.613 357.043Z" fill="#33A86D"/>
<path d="M107.941 351.769C107.941 351.769 97.8722 351.769 102.667 354.166C107.462 356.563 113.215 356.563 107.941 351.769Z" fill="#33A86D"/>
<path d="M373.682 406.441L258.234 407.604C255.974 407.604 250.897 406.172 250.897 412.885C250.897 419.597 250.943 423.131 250.943 423.131L375.042 422.73L373.682 406.441Z" fill="#4B3355"/>
<path d="M226.648 446.744C226.648 446.744 225.938 445.673 225.708 438.875C225.439 430.954 224.763 428.209 227.856 426.658C231.613 424.78 241.144 424.241 241.144 424.241L365.683 421.095L366.221 431.131V448.097L226.648 446.744Z" fill="#4B3355"/>
<path d="M225.551 429.102C225.551 429.102 224.92 426.586 228.263 425.706C236.217 423.617 240.697 422.185 251.075 421.831C261.452 421.476 366.214 421.634 366.214 421.634V431.131L225.551 429.102Z" fill="#FEED7F"/>
<path d="M227.186 446.665C227.186 446.665 226.917 446.888 218.687 449.213C210.457 451.539 209.472 454.015 209.472 456.727C209.472 459.44 216.723 458.875 216.723 458.875L364.868 461.023V447.565L227.186 446.665Z" fill="#FEED7F"/>
<path d="M211.882 472.675C208.303 472.675 205.978 474.809 199.712 478.028C194.982 480.465 191.482 481.607 190.766 485.542C189.912 490.225 366.221 500.491 366.221 500.491V474.034C366.221 474.034 215.462 472.675 211.882 472.675Z" fill="#FFACFF"/>
<path d="M196.848 481.253C193.492 482.1 192.079 481.535 190.943 483.447C190.03 484.977 189.689 487.979 189.689 489.489C189.689 492.885 189.583 500.504 189.583 500.504H366.215L363.646 483.407C363.646 483.407 293.111 482.468 243.738 481.838L240.467 483.591C240.467 483.591 236.736 481.752 235.502 481.732C214.175 481.443 198.319 480.879 196.848 481.253Z" fill="#4B3355"/>
<path d="M370.319 508.977L173.767 510.061C173.143 510.061 172.696 506.304 175.179 505.345L189.465 500.55C189.544 500.511 189.636 500.491 189.728 500.491H375.285C375.758 500.491 376.04 501.023 375.771 501.417L370.806 508.715C370.694 508.885 370.516 508.977 370.319 508.977Z" fill="#FFACFF"/>
<path d="M170.45 520.807C170.45 520.807 169.642 517.227 170.004 513.739C170.358 510.252 173.583 507.204 173.583 507.204C173.583 506.028 175.087 506.488 176.27 506.488L365.374 506.672C366.549 506.672 367.508 507.624 367.508 508.807V519.749C367.508 520.925 366.556 521.877 365.38 521.884L174.404 522.278C173.222 522.278 170.45 521.982 170.45 520.807Z" fill="#665070"/>
<path d="M172.624 520.754L150.903 529.575L335.646 534.586L377.078 529.575L370.812 521.7L172.624 520.754Z" fill="#FFACFF"/>
<path d="M150.904 529.535C150.904 529.535 148.526 539.598 148.165 542.1C147.81 544.603 150.904 547.657 150.904 547.657H371.647L379.108 528.859L342.891 530.291C342.891 530.291 336.513 532.439 334.839 532.439C328.664 532.439 321.682 529.03 321.682 529.03L150.904 529.535Z" fill="#665070"/>
<path d="M149.478 547.841L138.109 550.816C133.071 552.136 130.989 552.281 130.989 557.49L129.557 562.501C129.557 568.826 127.527 573.956 133.853 573.956H363.587C369.912 573.956 375.042 568.826 375.042 562.501V558.915C375.042 552.59 369.912 547.46 363.587 547.46H152.381C151.403 547.473 150.431 547.598 149.478 547.841Z" fill="#665070"/>
<path d="M150.726 547.519L133.938 551.913C132.591 552.268 132.499 554.146 133.806 554.632L143.186 558.094C143.402 558.173 153.307 553.949 153.537 553.917L177.058 553.93C177.13 553.923 177.202 553.917 177.275 553.917L291.639 556.583C292.125 556.596 292.579 556.853 292.828 557.273C293.38 558.192 294.707 558.199 295.265 557.286L295.764 556.472C296.02 556.051 296.48 555.795 296.979 555.795H369.104C370.076 555.795 370.766 554.843 370.457 553.917L368.993 549.516C368.802 548.938 368.257 548.544 367.646 548.544L151.094 547.473C150.969 547.473 150.844 547.486 150.726 547.519Z" fill="#FFACFF"/>
<path d="M259.134 405.726C259.134 405.726 249.472 408.32 251.62 409.128C253.767 409.936 275.784 409.483 284.106 410.021C292.428 410.56 367.331 409.483 367.331 409.483C367.331 409.483 370.195 405.726 360.264 405.995C350.32 406.258 259.134 405.726 259.134 405.726Z" fill="#FEED7F"/>
<path d="M228.172 428.813L231.751 429.884L233.538 431.493L245.709 429.706L248.572 430.422L252.868 428.274L228.172 428.813Z" fill="#FEED7F"/>
<path d="M348.789 455.223L345.045 458.343L342.674 455.263L340.586 455.276L339.673 456.918L335.456 455.309L278.464 455.657L274.418 456.885L269.873 457.535L260.743 454.632L212.06 454.402C212.06 454.402 209.465 454.015 209.465 456.728C209.465 459.44 208.48 471.939 211.166 473.549C213.853 475.158 364.862 475.381 364.862 475.381V455.118L348.789 455.223Z" fill="#4B3355"/>
<path d="M245.708 478.206L251.213 484.445C251.213 484.445 260.382 483.821 263.134 484.445C265.012 484.872 291.705 485.181 291.705 485.181L298.897 486.002L307.094 482.317L294.773 479.447L245.708 478.206Z" fill="#FFACFF"/>
<path d="M185.846 505.588L202.759 508.813L207.744 509.995L216.178 509.884L223.16 510.961L236.585 503.979L185.846 505.588Z" fill="#FFACFF"/>
<path d="M259.85 527.782L264.5 532.077L274.523 534.225L279.18 531.723L285.978 532.077L293.853 527.782H259.85Z" fill="#FFACFF"/>
<path d="M212.066 454.402L224.06 454.757L226.923 456.905L225.491 460.839L229.071 466.205V470.14L235.869 469.069L239.088 473.004L210.096 472.288C210.096 472.288 209.025 471.572 209.025 465.844C209.025 460.117 208.303 453.687 212.066 454.402Z" fill="#34283A"/>
<path d="M170.45 520.806C170.45 520.806 166.779 514.901 173.583 507.204L177.518 506.665L177.163 512.392L181.603 518.067C181.721 518.094 181.833 518.021 181.859 517.903L182.174 516.327L196.493 513.463L197.925 517.043L195.422 520.622L170.45 520.806Z" fill="#4B3355"/>
<path d="M200.881 490.56L203.567 494.048L204.237 497.135L209.34 497.266L211.889 499.952L212.427 500.353H194.707L189.728 500.498L189.472 494.448C189.472 494.448 189.472 485.989 189.872 485.187C190.273 484.386 191.889 482.369 191.889 482.369L197.255 480.892L201.551 483.039L200.881 490.56Z" fill="#34283A"/>
<path d="M157.294 554.094L159.265 561.969L165.169 563.04L167.856 568.412L173.583 573.956H144.946L145.846 568.59L141.366 564.472L143.875 558.389L153.537 553.917L157.294 554.094Z" fill="#4B3355"/>
<path d="M207.232 554.633L206.785 558.744L211.166 562.147L218.595 560.623L224.414 565.726L232.519 555.191L207.232 554.633Z" fill="#4B3355"/>
<path d="M175.015 553.555L176.447 555.703L181.097 552.485L186.109 555.703H193.268C193.268 555.703 193.623 558.567 194.7 558.922C195.777 559.276 202.575 552.84 202.575 552.84L175.731 549.621L175.015 553.555Z" fill="#FFACFF"/>
<path d="M321.774 505.233L323.922 508.813L331.081 509.168L339.311 507.02L342.891 508.813L345.4 505.233H321.774Z" fill="#FFACFF"/>
<path d="M245.853 412.117C245.853 412.117 245.137 397.739 249.446 404.208C253.754 410.678 250.162 414.277 250.162 414.277C250.162 414.277 254.477 404.208 258.792 412.839C263.107 421.47 252.323 422.908 252.323 422.908C252.323 422.908 237.945 423.624 237.945 412.839C237.945 402.054 245.853 412.117 245.853 412.117Z" fill="#33A86D"/>
<path d="M360.408 463.178C360.408 463.178 360.408 442.14 360.408 434.678C360.408 427.217 364.481 422.554 364.481 422.554C364.481 422.554 364.848 407.427 365.177 403.985C365.577 399.69 374.753 391.414 374.753 391.414L376.697 380.675V296.235C376.697 296.235 374.661 290.803 373.985 289.45C373.308 288.09 373.985 281.988 373.985 281.988C373.985 281.988 392.986 273.844 395.023 273.844C397.059 273.844 435.739 284.701 435.739 284.701C435.739 284.701 458.13 311.164 458.813 315.236C459.489 319.309 458.813 349.167 458.813 349.167L477.394 357.667L487.056 382.632C487.056 382.632 493.414 422.455 496.133 423.132C498.846 423.808 507.667 448.918 508.35 452.99C510.537 466.12 514.445 455.217 514.445 495.066L524.107 509.996L528.133 560.715L500.212 580.222L376.185 578.252L365.164 574.318L360.408 463.178Z" fill="#665070"/>
<path d="M430.346 354.179L446.753 362.231L449.019 370.823L455.246 378.337L460.336 391.762L460.461 401.962L485.716 407.867L486.254 414.041C486.254 414.041 484.645 436.32 484.645 440.616C484.645 444.911 483.384 479.007 483.384 479.007L492.435 502.632L483.384 574.58L370.937 565.72L368.671 487.867L377.157 414.849L389.604 406.258L395.266 363.302L409.978 346.12L430.346 354.179Z" fill="#856792"/>
<path d="M357.926 477.135C357.926 477.135 359.804 457.588 359.804 448.413C359.804 445.844 360.408 436.307 360.408 434.678C360.408 431.953 360.953 429.601 361.643 427.71C362.839 424.432 364.481 422.554 364.481 422.554C364.481 422.554 365.032 405.529 365.177 403.985C365.577 399.69 374.753 391.414 374.753 391.414L384.06 395.709L385.492 388.911L376.697 369.581V296.235C376.697 296.235 374.661 290.803 373.985 289.45C373.308 288.09 373.985 281.988 373.985 281.988C373.985 281.988 392.986 273.844 395.023 273.844C397.059 273.844 396.054 329.483 396.054 329.483C396.054 329.483 432.422 339.105 433.098 343.177C433.775 347.25 397.932 463.986 397.932 463.986L357.393 510.968L357.926 477.135Z" fill="#856792"/>
<path d="M381.551 408.406L385.308 381.562L407.568 360.084L436.316 362.232C436.316 362.232 440.881 366.357 441.558 371.105C442.234 375.854 451.351 385.857 451.351 385.857C451.351 385.857 453.072 397.68 454.569 407.454C454.924 409.779 476.941 413.358 477.656 414.048C482.556 418.744 478.727 453.155 478.727 456.735C478.727 460.314 503.824 481.26 504.501 484.656C505.177 488.052 510.714 503.217 510.714 503.217C510.714 503.217 499.134 575.763 499.134 579.152C499.134 582.541 377.787 578.344 377.787 578.344V419.145L381.551 408.406Z" fill="#1D2538"/>
<path d="M399.226 339.545L405.157 330.941L396.231 329.01L399.226 339.545Z" fill="#665070"/>
<path d="M397.663 288.405L390.412 294.849L399.272 302.901L397.663 288.405Z" fill="#665070"/>
<path d="M432.56 290.822L437.394 315.519C437.394 315.519 444.376 327.867 448.671 333.239C452.967 338.606 452.428 354.179 452.428 354.179L463.167 361.161L449.21 356.327C449.21 356.327 448.671 338.606 447.062 335.926C445.453 333.239 437.932 322.501 435.253 319.282C432.56 316.057 432.56 290.822 432.56 290.822Z" fill="#4B3355"/>
<path d="M380.803 445.949C380.803 445.949 372.895 445.667 368.56 446.14C363.87 446.652 360.651 447.27 355.942 454.994C351.903 461.621 350.103 467.992 348.973 470.626C347.844 473.26 348.218 474.771 351.607 477.785C354.996 480.8 374.963 490.593 385.505 479.67C396.054 468.747 394.543 454.81 391.154 451.421C387.765 448.031 380.803 445.949 380.803 445.949Z" fill="#665070"/>
<path d="M405.663 428.419C400.954 425.221 385.847 424.511 378.871 426.659C367.147 430.265 367.062 436.859 364.375 443.841C362.451 448.84 365.275 456.104 369.052 457.569C372.829 459.027 386.635 458.758 391.357 455.349C396.08 451.94 410.372 431.624 405.663 428.419Z" fill="#665070"/>
<path d="M395.305 427.289C395.305 427.289 387.995 426.659 396.054 432.57L385.906 447.296C385.906 447.296 379.147 450.416 377.072 455.611C374.996 460.807 379.003 474.147 378.734 476.262C377.604 485.299 365.926 519.953 368.94 532.387C371.955 544.813 397.19 535.401 425.065 539.546C452.941 543.69 500.402 535.401 507.181 533.897C513.959 532.393 508.153 506.521 505.486 500.183C499.456 485.871 501.151 477.772 498.143 466.094C495.128 454.416 500.783 447.71 485.341 438.291C469.887 428.872 410.747 422.396 395.305 427.289Z" fill="#856792"/>
<path d="M442.721 419.926C442.721 419.926 452.317 420.051 461 422.192C463.384 422.777 469.013 420.99 471.476 421.66C481.223 424.314 489.663 429.45 490.879 432.051C493.512 437.7 497.282 459.926 493.893 462.941C490.504 465.956 486.465 469.857 479.68 469.857C472.895 469.857 461.598 468.728 460.094 462.698C458.583 456.669 429.538 436.498 442.721 419.926Z" fill="#856792"/>
<path d="M385.321 479.27L378.727 472.11C366.674 471.355 359.515 472.485 354.622 476.255C349.722 480.018 346.333 486.987 345.203 496.78C344.073 506.574 344.073 513.352 354.241 520.511C364.408 527.671 367.049 526.16 377.972 529.549C388.895 532.938 407.318 529.207 407.318 529.207L409.466 523.303L410.537 513.102C410.537 513.102 408.704 503.611 408.927 500.754C409.118 498.298 402.826 489.812 399.062 489.437C395.298 489.063 388.139 488.308 385.124 487.178L385.321 479.27Z" fill="#856792"/>
<path d="M393.433 495.854H398.116C398.116 495.854 397.617 493.24 405.637 492.721C413.663 492.196 413.702 497.707 413.702 497.707C413.702 497.707 414.353 502.895 415.791 508.708C416.849 512.997 416.172 517.313 416.172 519.92C416.172 526.068 412.658 531.887 407.64 533.451C403.955 534.6 395.857 532.676 391.627 528.465C390.103 526.948 389.085 525.135 388.954 523.06C388.737 519.717 390.392 515.139 390.386 511.132C390.386 509.595 388.651 508.452 388.671 507.033C388.737 503.48 388.875 500.478 389.085 498.981C389.591 495.329 393.433 495.854 393.433 495.854Z" fill="#665070"/>
<path d="M392.842 497.812H398.648C398.648 497.812 398.609 495.244 401.256 494.968C411.207 494.495 409.965 499.237 409.965 499.237C409.965 499.237 412.54 503.033 413.847 509.49C414.668 513.516 414.707 517.286 414.707 519.657C414.707 525.24 409.965 530.541 403.745 531.96C399.174 533.004 395.85 531.257 390.609 527.434C388.724 526.055 387.456 524.406 387.292 522.528C387.029 519.493 389.072 515.336 389.065 511.697C389.065 510.298 386.911 509.267 386.944 507.973C387.023 504.741 387.2 502.022 387.456 500.662C388.073 497.339 392.842 497.812 392.842 497.812Z" fill="#856792"/>
<path d="M511.897 538.6C511.897 550.462 513.427 565.247 511.897 568.689C510.366 572.131 508.941 575.106 501.289 578.613C492.12 582.817 486.294 579.769 479.41 582.449C472.527 585.129 462.215 584.36 449.217 583.979C436.225 583.599 435.456 580.157 429.722 582.83C423.988 585.503 412.527 587.034 412.139 576.715C411.758 566.397 411.377 544.229 412.52 538.495C413.67 532.761 418.057 533.313 423.41 532.951C429.144 532.57 437.361 534.672 437.361 534.672C449.913 529.575 466.379 530.291 466.379 530.291C466.379 530.291 475.962 527.795 483.607 525.503C491.253 523.211 490.484 523.211 493.545 520.919C496.606 518.62 511.897 526.731 511.897 538.6Z" fill="#665070"/>
<path d="M359.331 516.564C359.331 516.564 340.842 522.823 335.489 526.265C330.136 529.707 327.843 532.38 327.843 541.549C327.843 550.718 328.993 557.983 328.993 561.805C328.993 565.628 335.489 572.124 339.692 577.09C343.896 582.055 346.569 580.144 355.745 581.293C364.921 582.443 366.825 579.382 373.709 580.144C380.586 580.906 391.292 578.613 391.292 578.613C391.292 578.613 393.584 581.668 400.08 582.436C406.576 583.198 401.61 583.198 408.106 582.817C414.602 582.436 418.425 580.525 418.044 564.091C417.663 547.658 421.486 541.162 415.371 536.577C409.256 531.993 407.725 531.612 401.991 531.224C396.257 530.837 395.259 532.603 391.055 531.842C386.852 531.08 368.888 527.638 366.215 523.815C363.535 520.006 365.827 518.856 359.331 516.564Z" fill="#665070"/>
<path d="M454.648 425.976C454.648 425.976 457.597 439.88 461.394 445.785C465.19 451.69 465.282 452.938 473.289 454.206C481.295 455.467 486.353 453.785 486.353 453.785C486.353 453.785 488.625 457.903 479.147 457.687C469.663 457.477 460.816 455.368 459.128 454.107C457.44 452.846 456.336 442.836 454.648 436.728C452.96 430.619 454.648 425.976 454.648 425.976Z" fill="#665070"/>
<path d="M483.824 487.986C483.824 487.986 479.614 486.114 477.414 486.238C475.213 486.363 470.819 492.478 469.538 494.797C468.258 497.115 469.893 510.547 469.893 512.945C469.893 515.342 468.987 516.885 472.284 518.166C475.581 519.447 480.159 517.877 481.079 517.936C481.992 517.995 484.744 515.506 483.279 515.145C481.814 514.784 475.588 516.518 474.307 515.9C473.026 515.283 472.107 511.493 472.107 511.493C472.107 511.493 471.194 503.171 471.555 500.531C471.916 497.89 473.387 495.053 473.387 495.053C473.387 495.053 475.949 488.82 477.42 488.918C478.878 489.004 483.824 487.986 483.824 487.986Z" fill="#665070"/>
<path d="M467.463 531.901L455.739 540.86C455.739 540.86 450.616 560.072 451.548 564.59C452.481 569.109 458.07 575.323 458.07 575.323L475.772 581.536C475.772 581.536 482.294 582.101 486.484 578.147C490.675 574.193 488.816 565.149 488.816 565.149C488.816 565.149 486.405 534.948 483.844 532.971C481.282 530.994 467.463 531.901 467.463 531.901Z" fill="#856792"/>
<path d="M423.975 534.074C423.975 534.074 413.683 530.685 413.197 533.51C412.711 536.334 411.239 551.027 412.218 554.981C413.197 558.935 414.175 561.194 414.175 561.194L412.218 565.713C412.218 565.713 412.277 583.053 415.43 583.704C418.589 584.36 425.939 577.011 425.939 577.011L428.881 567.408C428.881 567.408 429.86 539.158 428.389 537.464C426.918 535.769 423.975 534.074 423.975 534.074Z" fill="#856792"/>
<path d="M493.611 488.538C493.611 488.538 496.435 493.746 497 499.986C497.565 506.226 495.818 512.446 491.916 517.273C484.639 526.278 483.864 525.648 483.864 525.648C483.864 525.648 468.888 528.374 464.369 526.482L483.016 521.089C483.016 521.089 493.998 511.349 493.998 509.654C493.998 507.96 492.961 493.72 492.961 493.72L493.611 488.538Z" fill="#665070"/>
<path d="M402.642 409.844C402.642 409.844 403.673 413.621 402.813 415.861C401.952 418.094 398.944 417.667 396.54 417.667C394.136 417.667 391.988 417.411 390.786 416.379C389.584 415.348 387.844 409.64 388.724 408.307C389.604 406.974 392.501 407.447 396.113 407.966C399.726 408.484 402.642 409.844 402.642 409.844Z" fill="#856792"/>
<path d="M443.995 424.34C443.995 424.34 444.501 408.347 442.727 403.782C440.947 399.21 440.947 399.723 436.126 396.419C431.305 393.122 430.543 393.627 430.287 391.598C430.031 389.568 428.507 388.55 418.359 388.55C408.205 388.55 398.051 389.568 395.771 391.598C393.492 393.627 390.845 401.857 390.845 401.857C390.845 401.857 388.809 410.56 390.688 423.073C390.714 426.508 391.226 431.053 391.226 431.053L389.794 431.769C389.794 431.769 390.537 445.667 391.299 448.202C392.06 450.738 391.555 453.536 406.53 452.518C421.506 451.5 432.422 450.738 434.957 445.917C437.492 441.096 439.91 437.759 439.91 437.759C439.91 437.759 444.553 431.138 443.995 424.34Z" fill="#856792"/>
<path d="M412.014 412.675C412.014 412.675 414.044 417.076 415.397 418.429C416.75 419.782 426.904 420.124 426.904 420.124C426.904 420.124 421.492 420.8 418.103 420.8C414.72 420.8 413.367 419.447 413.367 419.447L412.014 412.675Z" fill="#665070"/>
<path d="M401.42 412.794C399.272 410.376 390.011 409.615 389.873 411.296C389.742 412.971 391.154 417.496 392.737 417.897C394.149 418.252 400.77 418.863 401.236 417.542C401.617 416.465 403.568 415.211 401.42 412.794Z" fill="#665070"/>
<path d="M431.469 406.107L443.233 406.146L443.167 408.005L435.364 409.87C435.364 409.87 433.499 414.54 432.829 415.71C430.149 420.353 413.775 416.997 413.775 416.997L412.435 413.779L431.469 406.107Z" fill="#665070"/>
<path d="M389.696 431.408C389.696 431.408 390.53 437.03 392.054 442.107C393.578 447.184 394.077 449.641 397.637 449.897C401.19 450.153 415.837 450.048 425.23 449.037C434.622 448.019 436.488 443.631 438.011 440.334C439.535 437.037 440.297 432.721 440.297 432.721C440.297 432.721 441.565 435.007 440.803 437.542C440.041 440.078 440.691 448.531 434.09 449.799C429.736 450.633 406.333 452.781 397.131 452.439C390.281 452.183 390.537 448.964 390.031 441.858C389.512 434.744 389.696 431.408 389.696 431.408Z" fill="#665070"/>
<path d="M411.253 410.041C411.253 410.041 412.1 414.948 414.471 416.13C416.842 417.312 424.284 417.148 427.837 416.977C431.39 416.807 430.885 417.148 431.22 414.271C431.561 411.394 432.238 404.964 430.543 404.117C428.849 403.27 415.141 407.335 411.253 410.041Z" fill="#34283A"/>
<path d="M401.394 411.572C401.394 411.572 402.156 414.363 401.519 416.012C400.881 417.66 398.668 417.345 396.888 417.345C395.115 417.345 393.525 417.155 392.638 416.393C391.752 415.631 390.464 411.421 391.115 410.435C391.765 409.45 393.906 409.798 396.566 410.179C399.239 410.554 401.394 411.572 401.394 411.572Z" fill="#34283A"/>
<path d="M444.415 404.117C444.415 404.117 444.192 407.165 441.617 407.165C439.043 407.165 432.199 405.05 427.305 406.574C422.412 408.097 414.622 412.603 411.791 412.603C408.96 412.603 403.614 412.669 401.808 412.669C400.001 412.669 398.977 410.639 394.596 410.383C390.215 410.127 388.001 410.744 387.594 410.16C386.819 407.112 387.128 401.503 389.446 399.473C391.765 397.444 386.372 388.478 402.839 386.528C432.822 382.974 432.297 388.308 433.841 389.825C435.384 391.349 438.504 391.244 440.356 392.281C444.586 394.639 444.415 400.058 444.415 404.117Z" fill="#856792"/>
<path d="M391.751 407.874C385.308 407.335 387.127 401.496 389.446 399.467C391.765 397.437 386.372 388.471 402.838 386.521C432.822 382.967 432.297 388.301 433.84 389.818C434.852 390.816 424.875 394.981 419.331 398.619C413.788 402.258 412.284 399.624 410.668 400.695C409.059 401.765 400.671 399.138 401.413 399.276C401.42 399.283 394.543 408.104 391.751 407.874Z" fill="#665070"/>
<path d="M391.725 421.142L392.231 430.705L389.748 431.421L389.84 433.043C389.84 433.043 416.908 431.296 427.568 433.831L425.538 431.296C425.538 431.296 409.236 429.01 394.681 430.199L393.243 427.913L391.725 421.142Z" fill="#665070"/>
<path d="M401.473 412.662C401.473 412.662 404.481 413.253 404.908 413.253C405.328 413.253 407.194 412.997 407.194 412.997L412.356 412.577L411.85 413.339L407.279 414.777L404.06 414.862L401.768 414.468L401.473 412.662Z" fill="#665070"/>
<path d="M444.133 418.56C444.133 418.56 444.198 428.576 443.207 430.862C441.512 435.02 440.074 436.682 440.074 436.682L440.415 433.358C440.415 433.358 442.694 430.862 443.036 429.621C443.371 428.373 444.133 418.56 444.133 418.56Z" fill="#665070"/>
<path d="M392.973 392.609C392.973 392.609 396.021 398.192 398.307 399.21C400.593 400.228 406.432 398.705 406.432 398.705C406.432 398.705 398.563 402.764 397.039 401.752C395.515 400.734 392.973 392.609 392.973 392.609Z" fill="#856792"/>
<path d="M351.962 478.633C351.962 478.633 356.835 476.38 362.865 474.324C368.894 472.268 371.528 471.901 371.528 471.901C371.528 471.901 367.949 469.109 361.479 472.071C357.315 473.976 354.825 474.436 351.962 478.633Z" fill="#856792"/>
<path d="M354.812 496.787L355.377 512.327L361.308 525.037C361.308 525.037 351.988 515.717 351.988 513.175C351.988 510.633 354.812 496.787 354.812 496.787Z" fill="#665070"/>
<path d="M424.363 491.815L430.392 488.38L442.451 489.851L447.246 492.879L448.645 492.945L439.325 487.053L427.266 485.582L421.236 489.017L421.578 494.186L424.875 493.72L424.363 491.815Z" fill="#665070"/>
<path d="M420.547 493.346L414.832 492.754C414.491 492.722 414.176 492.925 414.064 493.247L411.68 500.308C411.568 500.643 411.706 501.004 412.015 501.181L414.307 502.475C414.806 502.758 414.806 503.474 414.307 503.75L413.151 504.393C412.908 504.531 412.763 504.794 412.777 505.076L413.814 522.876C413.821 523.007 413.86 523.132 413.933 523.237L419.404 531.487C419.522 531.664 419.706 531.782 419.916 531.809L431.476 533.352C431.601 533.372 431.732 533.352 431.85 533.306L438.885 530.416C439.621 530.114 439.417 529.03 438.622 529.011L421.762 528.61C421.466 528.604 421.203 528.42 421.098 528.144L418.714 522.068C418.642 521.878 418.491 521.727 418.3 521.654L415.358 520.505C415.069 520.393 414.878 520.104 414.891 519.796L415.029 516.551C415.043 516.321 415.161 516.104 415.351 515.98L415.785 515.034C416.199 514.751 416.212 514.154 415.818 513.851L414.964 512.446C414.793 512.314 414.688 512.111 414.681 511.894L414.53 507.953C414.524 507.769 414.589 507.585 414.708 507.447L417.02 504.768C417.269 504.479 417.256 504.052 416.987 503.782L414.103 500.82C413.88 500.59 413.834 500.236 413.985 499.953L416.093 496.144C416.192 495.966 416.363 495.835 416.56 495.789L420.645 494.791C421.446 494.587 421.361 493.431 420.547 493.346Z" fill="#665070"/>
<path d="M337.341 534.738C340.835 532.734 353.216 532.754 356.192 534.738C359.167 536.721 354.169 552.57 354.169 552.57C354.169 552.57 365.919 572.4 362.944 575.375C359.968 578.35 342.109 571.408 338.635 567.933C335.16 564.459 332.113 546.928 333.374 542.672C334.549 538.705 333.847 536.741 337.341 534.738Z" fill="#856792"/>
<path d="M360.461 530.121L368.934 536.341L386.825 536.15L368.934 532.38L360.461 530.121Z" fill="#856792"/>
<path d="M481.598 484.833L456.231 489.562L448.606 494.068L455.693 486.876L472.33 482.094L481.598 484.833Z" fill="#665070"/>
<path d="M465.098 453.01L458.254 462.902C458.254 462.902 457.492 483.441 462.819 485.726C462.819 485.726 466.622 476.597 467.384 472.032C468.146 467.467 468.146 466.455 469.414 464.17C470.681 461.89 472.711 455.296 472.711 455.296L465.098 453.01Z" fill="#665070"/>
<path d="M408.074 469.47C408.074 469.47 406.34 480.905 406.688 485.753C407.036 490.6 413.965 496.492 413.965 496.492C413.965 496.492 410.156 490.948 410.156 484.715C410.156 478.482 408.074 469.47 408.074 469.47Z" fill="#665070"/>
<path d="M406.517 452.518C406.517 452.518 414.477 461.332 420.717 461.332C426.957 461.332 436.31 449.378 436.31 449.378L406.517 452.518Z" fill="#665070"/>
<path d="M436.31 530.705C436.31 530.705 449.821 525.51 450.859 524.472C451.896 523.434 450.859 513.037 450.859 513.037C450.859 513.037 456.836 522.909 453.46 526.547C450.084 530.186 436.31 530.705 436.31 530.705Z" fill="#665070"/>
<path d="M494.34 458.383C494.34 458.383 496.415 464.274 497.46 473.628C498.498 482.981 492.264 494.416 492.264 494.416C492.264 494.416 501.269 489.91 500.58 476.747C499.883 463.578 494.34 458.383 494.34 458.383Z" fill="#665070"/>
<path d="M377.065 516.157C376.802 518.495 382.438 523.52 382.438 523.52L380.704 516.807L381.354 510.574C381.354 510.567 377.328 513.812 377.065 516.157Z" fill="#665070"/>
<path d="M358.878 522.521C358.878 522.521 362.339 525.943 365.459 527.329C368.579 528.715 382.09 529.753 382.09 529.753C383.41 530.101 372.323 530.692 364.77 528.715C363.384 528.354 362.339 527.368 358.878 522.521Z" fill="#665070"/>
<path d="M364.073 446.777C364.073 446.777 369.21 443.802 372.211 443.69C375.206 443.578 375.64 445.864 375.64 445.864C375.64 445.864 372.783 444.826 370.576 445.082C367.029 445.503 364.073 446.777 364.073 446.777Z" fill="#856792"/>
<path d="M385.899 486.377C385.899 486.377 379.935 483.625 376.27 483.625C372.605 483.625 366.412 489.129 366.412 489.129C366.412 489.129 376.27 486.606 378.333 486.836C380.395 487.066 385.899 486.377 385.899 486.377Z" fill="#665070"/>
<path d="M405.906 494.068C405.906 493.03 402.011 489.562 398.891 489.562C395.771 489.562 395.213 489.779 392.829 490.6C390.32 491.467 388.671 492.675 387.981 493.72C387.981 493.72 387.981 488.872 393.525 488.176C399.069 487.487 398.602 486.895 400.625 487.487C402.701 488.091 405.906 494.068 405.906 494.068Z" fill="#665070"/>
<path d="M375.765 487.053C375.765 487.053 385.899 487.316 389.538 490.692C389.538 490.692 393.216 488.235 389.538 487.053C382.261 484.715 375.765 487.053 375.765 487.053Z" fill="#665070"/>
<path d="M60.5848 566.462L61.5437 556.846L28.8474 533.766L9.61579 542.416L0 556.846L17.3071 570.304L60.5848 566.462Z" fill="#665070"/>
<path d="M17.3071 570.304L33.6553 568.386L19.8753 557.483L28.8474 533.766L9.6158 542.416L10.5747 551.073L0 556.846L17.3071 570.304Z" fill="#4B3355"/>
<path d="M472.783 588.235L462.898 572.209L451.68 576.478L446.74 588.892L453.026 590.002L462.189 592.334L472.783 588.235Z" fill="#4B3355"/>
<path d="M462.636 572.34L463.706 579.953L459.43 584.229L459.03 589.037L462.104 591.973C468.783 591.441 472.79 588.229 472.79 588.229L473.322 580.478L462.636 572.34Z" fill="#665070"/>
<path d="M449.204 592.57L451.351 583.979L440.974 580.399L434.169 587.204L439.181 591.854L449.204 592.57Z" fill="#4B3355"/>
<path d="M449.204 592.57L443.476 584.695L438.11 587.204L439.181 591.854L449.204 592.57Z" fill="#665070"/>
<path d="M374.569 469.082C374.569 469.082 374.569 461.03 378.865 463.178C383.161 465.325 381.013 471.23 381.013 471.23C381.013 471.23 385.847 468.012 386.918 472.301C387.988 476.596 383.699 474.987 383.699 474.987L374.569 469.082Z" fill="#33A86D"/>
<path d="M364.369 472.839C364.369 472.839 361.683 468.005 365.978 468.544C370.274 469.082 367.055 473.378 364.369 472.839Z" fill="#33A86D"/>
<path d="M375.647 476.058C375.647 476.058 369.203 468.005 368.133 473.91C367.055 479.821 372.96 481.43 375.647 476.058Z" fill="#288453"/>
<path d="M375.108 482.501C375.108 482.501 374.037 469.615 378.865 472.301C383.699 474.987 380.481 484.117 375.108 482.501Z" fill="#288453"/>
<path d="M372.422 488.413C372.422 488.413 360.612 492.708 369.203 493.779C377.794 494.856 372.422 488.413 372.422 488.413Z" fill="#288453"/>
<path d="M333.873 574.383C333.873 574.383 331.633 566.482 334.589 566.784C337.545 567.086 336.139 573.148 336.139 573.148C336.139 573.148 341.538 563.881 342.687 570.318C343.837 576.754 342.188 579.125 342.188 579.125C342.188 579.125 345.82 573.91 347.535 576.511C349.242 579.112 346.95 580.932 346.95 580.932C346.95 580.932 343.2 584.761 340.356 582.777C337.512 580.794 337.512 580.794 337.512 580.794C337.512 580.794 335.055 583.309 330.024 578.396C324.999 573.477 325.715 565.877 333.873 574.383Z" fill="#33A86D"/>
<path d="M129.196 572.708C129.196 572.708 127.587 561.969 132.953 563.578C138.319 565.188 135.639 569.483 135.639 569.483C135.639 569.483 142.083 567.874 139.396 573.779C136.71 579.684 134.03 579.684 134.03 579.684C134.03 579.684 126.516 583.979 123.83 574.317C121.143 564.656 129.196 572.708 129.196 572.708Z" fill="#33A86D"/>
<path d="M105.577 572.708C105.577 572.708 102.358 565.727 105.577 564.656C108.795 563.585 108.795 568.951 108.795 568.951C108.795 568.951 112.552 561.97 113.629 567.342C114.7 572.708 112.552 579.684 105.577 572.708Z" fill="#33A86D"/>
<path d="M107.186 553.917C107.186 553.917 107.186 560.36 110.404 558.212C113.629 556.065 115.238 547.473 107.186 553.917Z" fill="#33A86D"/>
<path d="M91.0741 554.987C91.0741 554.987 89.4649 561.969 92.6833 561.431C95.9017 560.892 96.9788 560.36 95.9017 557.135C94.8376 553.917 91.0741 554.987 91.0741 554.987Z" fill="#33A86D"/>
<path d="M87.8558 546.935C87.8558 546.935 89.465 553.378 92.69 549.621C95.9084 545.858 91.6128 542.639 87.8558 546.935Z" fill="#33A86D"/>
<path d="M96.447 550.153C96.447 550.153 98.5948 554.988 100.743 554.449C102.89 553.911 103.429 544.249 96.447 550.153Z" fill="#33A86D"/>
<path d="M92.1514 543.178C92.1514 543.178 92.69 551.769 97.5176 546.396C102.345 541.024 96.9855 539.414 92.1514 543.178Z" fill="#33A86D"/>
<path d="M91.6128 536.196C91.6128 536.196 91.0742 542.639 94.8312 538.882C98.5948 535.119 95.9084 529.752 91.6128 536.196Z" fill="#33A86D"/>
<path d="M478.195 495.388C478.195 495.388 479.003 484.918 485.447 488.945C491.89 492.971 481.42 498.613 478.195 495.388Z" fill="#33A86D"/>
<path d="M480.612 499.414C480.612 499.414 469.157 506.751 482.044 502.817C494.931 498.882 493.144 497.45 480.612 499.414Z" fill="#33A86D"/>
<path d="M483.121 506.042C483.121 506.042 484.553 517.851 487.417 511.053C490.281 504.249 489.204 504.964 483.121 506.042Z" fill="#33A86D"/>
<path d="M480.974 506.396C480.974 506.396 470.596 508.544 479.187 509.614C487.772 510.692 480.974 506.396 480.974 506.396Z" fill="#33A86D"/>
<path d="M482.044 523.217C482.044 523.217 490.635 518.206 483.476 518.206C476.317 518.206 473.453 523.217 482.044 523.217Z" fill="#33A86D"/>
<path d="M490.366 476.242C490.366 476.242 488.934 484.833 495.378 480.176C501.821 475.526 497.887 473.733 490.366 476.242Z" fill="#33A86D"/>
<path d="M502.182 464.787C502.182 464.787 492.52 468.366 498.964 469.082C505.401 469.798 504.33 465.141 502.182 464.787Z" fill="#33A86D"/>
<path d="M496.094 456.196C496.094 456.196 495.023 464.787 500.028 460.491C505.046 456.196 502.537 456.196 496.094 456.196Z" fill="#33A86D"/>
<path d="M493.591 460.492C493.591 460.492 487.509 459.776 492.52 461.923C497.525 464.071 493.591 460.492 493.591 460.492Z" fill="#33A86D"/>
<path d="M493.23 451.539C493.23 451.539 503.253 456.55 499.312 451.539C495.378 446.527 487.502 446.173 493.23 451.539Z" fill="#33A86D"/>
<path d="M498.241 571.093C498.241 571.093 496.809 577.891 501.46 576.104C506.11 574.318 504.678 570.738 502.892 570.377C501.105 570.016 498.241 571.093 498.241 571.093Z" fill="#33A86D"/>
<path d="M498.241 566.443C498.241 566.443 502.892 555.349 501.821 562.863C500.75 570.377 498.241 566.443 498.241 566.443Z" fill="#33A86D"/>
<path d="M496.094 568.951C496.094 568.951 484.639 554.994 490.011 556.426C495.378 557.858 495.023 562.153 495.023 562.153C495.023 562.153 496.094 547.119 498.241 552.846C500.389 558.574 496.094 568.951 496.094 568.951Z" fill="#33A86D"/>
<path d="M505.407 560.617C505.407 560.617 513.21 555.014 512.094 559.756C510.977 564.498 504.291 562.344 505.407 560.617Z" fill="#33A86D"/>
<path d="M511.128 573.24C511.128 573.24 510.774 563.933 507.91 563.933C505.046 563.933 507.91 574.672 511.128 573.24Z" fill="#33A86D"/>
<path d="M514.353 572.17C514.353 572.17 509.703 553.917 515.424 557.135C521.151 560.36 518.649 575.388 514.353 572.17Z" fill="#33A86D"/>
<path d="M501.821 554.988C501.821 554.988 502.537 545.681 504.323 551.769C506.117 557.851 503.253 558.567 501.821 554.988Z" fill="#33A86D"/>
<path d="M517.933 570.377C517.933 570.377 519.364 559.283 522.228 559.999C525.092 560.715 523.299 565.01 523.299 565.01C523.299 565.01 526.517 554.633 529.381 557.496C532.245 560.36 527.233 564.656 527.233 564.656C527.233 564.656 535.463 560.36 532.961 564.301C530.458 568.235 524.731 566.803 524.731 566.803C524.731 566.803 526.878 573.602 517.933 570.377Z" fill="#33A86D"/>
<path d="M487.864 583.264C487.864 583.264 477.486 575.034 482.136 573.957C486.787 572.886 485.716 576.459 485.716 576.459C485.716 576.459 491.082 573.241 490.727 575.388C490.373 577.536 491.798 577.891 491.798 577.891C491.798 577.891 500.034 585.057 487.864 583.264Z" fill="#33A86D"/>
<path d="M366.517 568.951C366.517 568.951 366.517 561.792 368.303 563.224C370.09 564.656 369.735 568.236 369.735 568.236C369.735 568.236 376.533 563.94 375.817 567.52C375.101 571.099 371.522 571.454 371.522 571.454C371.522 571.454 371.522 577.536 369.374 575.75C367.226 573.963 366.517 568.951 366.517 568.951Z" fill="#33A86D"/>
<path d="M368.665 553.556C368.665 553.556 375.108 555.703 372.244 557.851C369.38 559.999 368.665 553.556 368.665 553.556Z" fill="#33A86D"/>
<path d="M373.676 561.076C373.676 561.076 375.463 568.951 379.042 563.224C382.628 557.496 382.267 559.283 373.676 561.076Z" fill="#33A86D"/>
<path d="M345.039 524.203C345.039 524.203 340.389 516.327 345.755 518.121C351.121 519.914 347.187 522.771 347.187 522.771C347.187 522.771 355.062 521.7 352.914 525.273C350.766 528.853 346.116 526.705 346.116 526.705L345.039 524.203Z" fill="#33A86D"/>
<path d="M342.891 525.279C342.891 525.279 343.607 519.913 340.743 518.836C337.879 517.759 335.732 527.066 342.891 525.279Z" fill="#33A86D"/>
<path d="M345.039 513.825C345.039 513.825 339.673 506.665 343.252 507.381C346.832 508.097 347.548 509.884 347.548 509.884C347.548 509.884 352.559 509.529 350.412 514.534C348.264 519.539 345.039 513.825 345.039 513.825Z" fill="#33A86D"/>
<path d="M342.536 500.577C342.536 500.577 347.187 505.943 349.335 502.009C351.482 498.074 342.536 500.577 342.536 500.577Z" fill="#33A86D"/>
<path d="M357.571 502.725C357.571 502.725 362.221 498.429 360.073 498.429C357.926 498.429 357.926 498.429 356.855 498.429C355.778 498.429 355.062 502.37 357.571 502.725Z" fill="#33A86D"/>
<path d="M351.128 495.211C351.128 495.211 347.909 500.938 352.914 498.074C357.919 495.211 358.642 493.779 351.128 495.211Z" fill="#33A86D"/>
<path d="M351.929 475.526C351.929 475.526 350.858 469.444 354.431 471.592C358.011 473.739 355.147 476.242 355.147 476.242C355.147 476.242 362.307 474.81 359.443 479.106C356.579 483.401 354.077 480.892 354.077 480.892L351.929 475.526Z" fill="#33A86D"/>
<path d="M348.711 468.721C348.711 468.721 337.617 467.651 341.551 471.224C345.492 474.81 352.29 470.153 348.711 468.721Z" fill="#33A86D"/>
<path d="M347.64 474.449C347.64 474.449 341.912 479.099 346.924 477.667C351.929 476.242 349.426 474.094 347.64 474.449Z" fill="#33A86D"/>
<path d="M344.415 482.685C344.415 482.685 353.722 481.253 348.349 480.183C342.976 479.112 341.551 481.608 344.415 482.685Z" fill="#33A86D"/>
<path d="M350.497 490.199C350.497 490.199 353.715 485.903 349.781 485.903C345.847 485.903 345.847 489.483 350.497 490.199Z" fill="#33A86D"/>
<path d="M441.689 544.964C441.689 544.964 434.53 549.976 439.903 548.544C445.269 547.112 441.689 544.964 441.689 544.964Z" fill="#33A86D"/>
<path d="M443.121 550.337C442.123 551.158 446.701 556.781 447.772 551.408C448.849 546.042 449.203 545.326 443.121 550.337Z" fill="#33A86D"/>
<path d="M438.464 554.987C438.464 554.987 448.488 561.785 444.547 557.135C440.612 552.485 436.678 553.917 438.464 554.987Z" fill="#33A86D"/>
<path d="M439.896 560.715C439.896 560.715 444.546 568.229 444.908 564.294C445.269 560.36 445.985 560.36 439.896 560.715Z" fill="#33A86D"/>
<path d="M438.11 566.442C438.11 566.442 450.997 569.661 442.76 570.022C434.524 570.383 431.666 566.804 438.11 566.442Z" fill="#33A86D"/>
<path d="M453.144 533.155C453.144 533.155 449.565 538.166 454.576 536.018C459.588 533.871 464.238 530.646 453.144 533.155Z" fill="#33A86D"/>
<path d="M451.713 540.314C451.713 540.314 457.795 540.669 454.931 539.244C452.067 537.805 448.488 537.451 451.713 540.314Z" fill="#33A86D"/>
<path d="M451.712 544.248C451.712 544.248 455.647 548.544 457.794 543.894C459.942 539.237 448.849 542.462 451.712 544.248Z" fill="#33A86D"/>
<path d="M403.003 326.606C403.003 326.606 397.748 315.512 403.003 316.681C408.258 317.85 404.757 321.936 404.757 321.936C404.757 321.936 412.934 317.85 411.765 323.689C410.596 329.528 408.264 331.282 408.264 331.282C408.264 331.282 415.272 325.443 414.688 333.036C414.103 340.629 408.264 335.374 408.264 335.374C408.264 335.374 404.763 341.213 400.671 335.959C396.579 330.704 400.671 332.458 400.671 332.458C400.671 332.458 388.402 323.105 403.003 326.606Z" fill="#33A86D"/>
<path d="M391.219 388.898C388.356 389.969 384.776 400.708 395.246 394.264C405.715 387.828 394.083 387.828 391.219 388.898Z" fill="#33A86D"/>
<path d="M395.85 381.608C398.504 381.608 407.069 381.437 398.806 386.087C390.543 390.737 393.197 381.608 395.85 381.608Z" fill="#33A86D"/>
<path d="M398.32 400.852C398.32 400.852 402.74 395.69 396.106 398.035C389.479 400.386 391.134 404.143 398.32 400.852Z" fill="#33A86D"/>
<path d="M400.481 405.187C396.343 406.678 396.645 411.224 402.674 407.874C408.697 404.517 404.619 403.696 400.481 405.187Z" fill="#33A86D"/>
<path d="M403.89 393.824C401.269 394.271 403.141 400.603 409.611 397.135C412.947 395.341 406.511 393.371 403.89 393.824Z" fill="#33A86D"/>
<path d="M387.64 426.126C387.64 426.126 389.788 422.192 385.853 422.908C381.919 423.624 384.067 425.772 384.067 425.772C384.067 425.772 377.985 418.258 375.476 421.476C372.973 424.695 379.771 427.204 379.771 427.204C379.771 427.204 369.748 425.056 367.601 428.636C365.453 432.215 372.612 429.351 372.612 429.351C372.612 429.351 364.021 434.718 366.53 436.15C369.032 437.581 372.973 434.718 372.973 434.718C372.973 434.718 375.121 439.729 376.553 435.072C377.985 430.422 377.985 430.422 377.985 430.422C377.985 430.422 384.067 434.356 383.712 430.422C383.358 426.488 383.712 427.558 383.712 427.558C383.712 427.558 388.711 431.138 387.64 426.126Z" fill="#33A86D"/>
<path d="M440.612 328.944C440.612 328.944 432.56 324.648 435.778 332.701C438.996 340.753 443.299 332.162 440.612 328.944Z" fill="#288453"/>
<path d="M440.074 323.571C440.074 323.571 450.274 315.519 445.979 321.962C441.683 328.406 440.074 323.571 440.074 323.571Z" fill="#288453"/>
<path d="M432.56 315.519C432.56 315.519 428.803 321.423 435.246 320.353C441.689 319.282 432.56 315.519 432.56 315.519Z" fill="#288453"/>
<path d="M434.707 308.543C434.707 308.543 445.985 316.596 438.464 314.987C430.95 313.371 434.707 308.543 434.707 308.543Z" fill="#288453"/>
<path d="M444.908 331.092C444.908 331.092 436.317 338.074 442.76 337.535C449.203 336.997 444.908 331.092 444.908 331.092Z" fill="#288453"/>
<path d="M448.665 339.144C448.665 339.144 458.865 340.753 451.883 342.901C444.901 345.049 448.133 338.074 448.665 339.144Z" fill="#288453"/>
<path d="M88.749 448.084C88.749 448.084 102.174 439.493 98.4108 446.475C94.6538 453.457 88.749 448.084 88.749 448.084Z" fill="#33A86D"/>
<path d="M90.3583 454.527C90.3583 454.527 87.6719 463.657 93.5767 459.362C99.488 455.066 90.3583 454.527 90.3583 454.527Z" fill="#33A86D"/>
<path d="M85.524 452.38C85.524 452.38 78.542 437.884 74.2465 445.398C69.9509 452.912 78.542 448.084 78.542 448.084C78.542 448.084 71.0281 455.598 76.3943 454.527C81.767 453.457 85.524 452.38 85.524 452.38Z" fill="#33A86D"/>
<path d="M83.3765 440.031C83.3765 440.031 79.6195 449.693 87.6721 442.718C95.7246 435.742 85.5243 440.57 85.5243 440.57L83.3765 440.031Z" fill="#33A86D"/>
<path d="M196.848 287.065C196.848 287.065 204.362 280.622 203.83 286.527C203.291 292.432 196.848 287.065 196.848 287.065Z" fill="#33A86D"/>
<path d="M198.464 292.432C198.464 292.432 203.83 299.946 206.516 294.58C209.203 289.213 198.464 292.432 198.464 292.432Z" fill="#33A86D"/>
<path d="M211.35 297.804C211.35 297.804 201.689 309.614 211.35 304.248C221.012 298.881 221.012 296.188 211.35 297.804Z" fill="#33A86D"/>
<path d="M200.073 299.952C200.073 299.952 185.577 302.1 194.707 304.248C203.836 306.396 207.587 306.396 200.073 299.952Z" fill="#33A86D"/>
<path d="M210.273 313.91C210.273 313.91 222.621 310.153 217.787 309.076C212.96 308.005 206.516 313.91 210.273 313.91Z" fill="#33A86D"/>
<path d="M210.812 317.134C204.907 315.525 196.316 320.353 211.882 321.969C227.456 323.571 216.717 318.744 210.812 317.134Z" fill="#33A86D"/>
<path d="M492.401 243.66C489.183 235.43 488.467 225.046 494.903 212.875C494.903 212.875 497.774 218.891 501.301 218.556C504.835 218.222 507.738 213.591 507.915 206.629C508.092 199.542 506.411 196.461 506.411 196.461L512.454 204.264C512.454 204.264 513.294 197.827 512.828 192.691C512.309 186.996 509.222 181.532 509.222 181.532C509.222 181.532 525.255 186.34 528.933 199.213C531.738 209.019 530.936 215.259 530.936 215.259L536.073 209.657C536.073 209.657 542.516 231.85 537.117 243.594C532.644 253.315 524.191 258.8 515.672 259.41C505.872 260.107 495.626 251.89 492.401 243.66Z" fill="#FFACFF"/>
<path d="M516.927 249.026C516.927 249.026 509.065 247.884 505.058 240.041C500.94 231.989 506.733 229.742 506.733 229.742L510.483 236.14L517.465 217.348C517.465 217.348 521.761 222.537 522.654 224.862C523.547 227.187 530.234 244.599 516.927 249.026Z" fill="#9E54C7"/>
<path d="M522.293 178.688C522.293 178.688 521.754 174.931 523.364 174.931C524.979 174.931 526.588 178.156 522.293 178.688Z" fill="#9E54C7"/>
<path d="M499.206 190.504C499.206 190.504 496.519 182.99 500.815 179.226C500.815 179.226 491.153 185.669 499.206 190.504Z" fill="#FFACFF"/>
<path d="M516.434 162.405C516.565 163.541 515.061 164.06 514.483 163.075C513.196 160.868 511.803 157.972 514.234 159.364C515.758 160.231 516.316 161.361 516.434 162.405Z" fill="#FFACFF"/>
<path d="M149.478 264.372C149.478 264.372 133.997 268.504 124.014 250.52C117.465 239.906 121.78 221.482 121.78 221.482C121.78 221.482 128.48 221.035 132.953 225.948C130.273 211.203 137.866 204.057 137.866 204.057L141.885 205.843C141.885 205.843 144.493 202.822 150.181 193.16C150.181 193.16 169.912 205.384 167.068 220.681C164.224 235.978 165.124 230.855 165.124 230.855L176.296 224.602C176.283 224.609 185.498 262.763 149.478 264.372Z" fill="#FFACFF"/>
<path d="M156.848 254.323C156.848 254.323 149.479 260.353 143.442 254.993C137.413 249.633 138.753 241.587 138.753 241.587L141.433 244.267C141.433 244.267 140.763 238.908 145.452 231.532C150.142 224.162 150.142 224.162 150.142 224.162L152.822 234.211L156.841 230.862C156.848 230.862 167.574 248.957 156.848 254.323Z" fill="#9E54C7"/>
<path d="M121.682 200.622C121.682 200.622 121.327 207.065 123.83 209.213C126.332 211.36 122.398 202.769 125.616 197.758L121.682 200.622Z" fill="#9E54C7"/>
<path d="M141.367 184.51C141.367 184.51 137.432 189.522 139.935 190.954C142.437 192.385 141.367 184.51 141.367 184.51Z" fill="#FFACFF"/>
<path d="M161.413 186.303C161.413 186.303 161.058 191.669 163.199 190.237C165.354 188.806 163.922 182.362 161.413 186.303Z" fill="#9E54C7"/>
<path d="M149.603 167.689C149.603 167.689 152.822 168.405 152.467 171.623C152.112 174.842 149.603 167.689 149.603 167.689Z" fill="#FFACFF"/>
<path d="M168.795 548.19C168.618 549.444 181.997 556.065 190.588 555.704C199.18 555.342 215.061 555.901 216.618 554.16C218.116 552.485 212.96 551.139 212.96 551.139C212.96 551.139 200.808 546.981 189.872 544.919C175.639 542.239 168.973 546.935 168.795 548.19Z" fill="#C94039"/>
<path d="M208.395 575.703C208.395 578.613 207.987 606.18 207.409 611.296C207.022 614.712 202.707 616.879 202.293 612.236C201.695 605.582 199.685 595.52 199.39 592.787C198.516 584.597 200.651 576.669 200.651 576.669C200.651 576.669 208.395 574.357 208.395 575.703Z" fill="#F5894E"/>
<path d="M205.36 585.28C204.487 586.305 207.134 605.917 206.556 611.04C206.168 614.456 202.707 616.879 202.293 612.236C201.695 605.582 199.685 595.52 199.39 592.787C198.516 584.597 200.099 576.695 200.099 576.695C200.099 576.695 206.234 584.255 205.36 585.28Z" fill="#CC6D3D"/>
<path d="M210.096 559.822C209.965 562.686 210.208 568.039 209.728 571.953C209.649 572.617 209.794 572.019 208.822 581.635L199.075 581.7L198.641 570.981C198.076 569.188 196.559 558.607 196.533 558.751C197.071 556.065 210.273 555.861 210.096 559.822Z" fill="#273252"/>
<path d="M204.992 611.723C208.21 613.51 208.716 613.805 211.416 615.283C214.312 616.866 203.619 617.234 202.844 615.152C202.063 613.076 202.233 610.186 204.992 611.723Z" fill="#CC6D3D"/>
<path d="M201.892 612.768C202.234 612.012 204.053 612.38 204.408 612.525C204.762 612.669 208.519 614.114 208.519 614.114C208.519 614.114 212.257 615.697 213.281 615.848C216.191 616.275 218.378 618.337 211.317 619.053C208.513 619.336 205.642 618.147 205.642 618.147L205.399 619.021L204.729 619.152C204.729 619.152 202.142 619.323 202.004 619.021C201.82 618.6 201.55 613.523 201.892 612.768Z" fill="#992C29"/>
<path d="M212.789 618.882C212.789 618.882 208.69 619.638 205.636 618.009C205.636 618.009 205.196 617.102 206.608 617.359C210.897 618.14 211.416 618.744 212.789 618.882Z" fill="#C94039"/>
<path d="M208.506 559.822C208.342 563.04 207.554 566.804 207.232 569.845C207.16 570.508 207.068 579.329 206.175 580.761C205.281 582.193 199.403 581.116 199.403 581.116L197.951 569.943C197.433 568.19 196.323 558.567 196.29 558.751C196.769 556.065 208.703 555.861 208.506 559.822Z" fill="#1D2538"/>
<path d="M194.076 544.518C194.076 544.518 195.909 557.017 196.822 560.235C197.735 563.454 209.465 567.513 209.912 562.955C210.359 558.396 211.482 545.056 209.045 540.761C206.608 536.465 194.076 537.536 194.076 544.518Z" fill="#273252"/>
<path d="M194.076 544.518C194.076 544.518 195.725 557.017 196.552 560.235C197.38 563.454 207.942 567.513 208.349 562.955C208.749 558.39 209.768 545.056 207.567 540.761C205.36 536.465 194.076 537.536 194.076 544.518Z" fill="#1D2538"/>
<path d="M180.809 565.779C180.809 565.779 179.777 572.439 177.63 579.289C176.152 584.005 175.777 585.726 175.784 595.677C175.784 597.956 175.088 605.996 175.14 607.572C175.232 610.311 175.186 612.249 176.592 611.986C178.799 611.565 179.475 610.666 181.991 599.73C185.354 585.115 188.947 565.904 188.947 565.904L180.809 565.779Z" fill="#F5894E"/>
<path d="M180.809 565.779C180.809 565.779 179.777 572.439 177.63 579.289C176.152 584.005 175.777 585.726 175.784 595.677C175.784 597.956 174.47 608.117 174.523 609.694C174.615 612.432 175.186 612.249 176.585 611.986C178.792 611.565 177.866 607.986 180.382 597.05C183.744 582.436 182.707 581.661 182.707 581.661L180.809 565.779Z" fill="#CC6D3D"/>
<path d="M195.226 542.876C195.226 542.876 192.106 561.162 189.82 565.352C186.779 570.929 180.809 569.904 180.283 566.344C179.455 560.682 178.851 550.429 179.357 544.886C179.902 538.928 188.618 534.022 195.226 542.876Z" fill="#273252"/>
<path d="M180.368 565.004C178.575 565.924 177.222 579.244 177.222 579.244L185.951 580.984C185.951 580.984 188.27 575.053 189.61 566.797C190.845 559.198 181.866 562.193 180.368 565.004Z" fill="#273252"/>
<path d="M192.382 542.285C192.382 542.285 192.02 551.322 190.247 557.444C189.754 559.152 188.355 565.404 187.856 566.317C184.815 571.894 180.802 569.897 180.276 566.331C179.449 560.669 178.845 550.416 179.35 544.872C179.902 538.928 185.774 533.431 192.382 542.285Z" fill="#1D2538"/>
<path d="M176.027 607.815C176.73 607.624 177.485 607.821 178.083 608.248C180.428 609.93 180.283 610.298 183.357 612.413C185.577 613.943 175.009 615.263 174.431 613.575C173.925 612.124 173.702 608.445 176.027 607.815Z" fill="#CC6D3D"/>
<path d="M173.774 610.508C174.26 609.411 173.833 606.895 176.986 608.655C181.406 611.125 183.107 611.624 184.362 612.117C185.617 612.609 186.293 612.918 187.245 613.076C190.07 613.529 189.36 613.943 186.142 615.375C183.666 616.478 178.608 615.073 178.608 615.073L178.418 615.618C178.286 615.999 177.932 616.248 177.531 616.248L174.779 616.064C174.779 616.064 174.168 615.848 174.017 615.467C173.807 614.935 173.288 611.605 173.774 610.508Z" fill="#992C29"/>
<path d="M180.368 565.004C178.575 565.923 177.222 579.244 177.222 579.244L184.914 580.722C184.914 580.722 186.648 574.699 187.988 566.449C189.222 558.85 181.866 562.193 180.368 565.004Z" fill="#1D2538"/>
<path d="M204.907 510.245L203.836 516.689C203.836 516.689 209.203 527.782 212.25 535.303C215.291 542.817 217.084 546.935 216.901 553.556C216.901 553.556 209.741 551.053 203.121 550.869C196.5 550.692 176.454 541.024 168.756 548.183C168.756 548.183 178.602 529.214 182.536 520.084C182.536 520.084 177.347 499.322 183.968 495.743C190.588 492.163 199.002 493.595 200.789 494.488C202.575 495.388 208.303 500.222 204.907 510.245Z" fill="#F7BC4B"/>
<path d="M200.342 510.246L199.272 516.689L204.638 535.658L194.168 540.223L205.176 540.761C205.176 540.761 198.385 543.369 189.603 544.518C181.899 545.53 172.349 544.84 168.756 548.19C168.756 548.19 178.602 529.221 182.536 520.091C182.536 520.091 177.347 499.329 183.968 495.75C190.589 492.17 199.002 493.602 200.789 494.495C202.575 495.388 203.745 500.223 200.342 510.246Z" fill="#CE9436"/>
<path d="M183.725 464.754C183.725 464.754 185.984 467.282 188.244 468.307C189.951 469.089 191.291 469.187 191.291 469.187L190.93 468.53L191.738 467.854C191.738 467.854 188.605 467.657 184.362 464.327L183.725 464.754Z" fill="#EE5D4F"/>
<path d="M183.495 464.452C183.495 464.452 184.756 467.598 186.523 469.338C187.856 470.652 189.084 471.21 189.084 471.21L188.966 470.468L189.951 470.107C189.951 470.107 187.075 468.846 184.231 464.268L183.495 464.452Z" fill="#EE5D4F"/>
<path d="M184.933 466.087C185.721 465.916 186.306 461.634 184.408 461.621C182.621 461.607 180.605 461.923 180.999 463.256C181.386 464.583 184.145 466.258 184.933 466.087Z" fill="#992C29"/>
<path d="M185.518 463.643C185.518 463.643 185.15 461.831 184.585 461.896C184.02 461.962 184.559 462.717 184.756 463.913C184.953 465.102 185.656 464.405 185.518 463.643Z" fill="#F7BC4B"/>
<path d="M184.237 465.233C184.237 465.233 184.08 464.399 185.268 463.539C186.457 462.678 187.37 462.199 188.165 462.645C188.96 463.092 189.321 465.207 188.92 466.291C188.52 467.374 185.768 466.678 185.065 466.304C184.369 465.929 184.237 465.233 184.237 465.233Z" fill="#992C29"/>
<path d="M188.658 464.34C188.658 464.34 188.986 466.028 188.237 466.336C187.127 466.796 187.705 463.545 187.745 463.033C187.791 462.527 188.809 463.111 188.658 464.34Z" fill="#F7BC4B"/>
<path d="M198.168 467.651C198.168 467.651 202.069 468.885 203.711 474.422C205.354 479.966 205.202 487.513 197.813 487.513C186.22 487.513 186.339 478.179 186.674 476.064C188.112 467.033 198.168 467.651 198.168 467.651Z" fill="#CC6D3D"/>
<path d="M197.544 467.473C197.544 467.473 201.446 468.708 203.088 474.245C204.73 479.788 204.579 487.335 197.19 487.335C185.597 487.335 185.715 478.002 186.05 475.887C187.488 466.855 197.544 467.473 197.544 467.473Z" fill="#F5894E"/>
<path d="M200.539 477.673C200.539 477.673 201.814 470.021 197.919 467.203C194.707 464.878 191.791 464.675 187.692 465.279C187.692 465.279 193.439 464.806 197.873 470.31C199.436 472.248 200.539 477.673 200.539 477.673Z" fill="#F7BC4B"/>
<path d="M194.437 466.396C194.437 466.396 188.263 463.178 182.628 467.736C176.992 472.301 176.631 474.803 177.708 477.49C178.779 480.176 178.779 480.176 178.779 480.176C178.779 480.176 174.483 480.984 174.483 483.394C174.483 485.805 174.457 491.532 182.536 491.986C188.132 492.301 188.933 490.284 188.933 490.284C188.933 490.284 199.803 493.772 203.475 489.122C206.214 485.654 206.582 480.084 200.946 478.475C200.946 478.475 200.073 467.204 194.437 466.396Z" fill="#273252"/>
<path d="M192.29 466.396C192.29 466.396 185.491 462.501 180.48 467.736C176.454 471.939 175.199 475.164 175.56 477.489C176 480.346 176.631 480.176 176.631 480.176C176.631 480.176 172.335 480.984 172.335 483.394C172.335 485.805 172.335 491.177 180.388 491.985C188.441 492.793 189.248 490.915 189.248 490.915C189.248 490.915 201.301 493.778 203.298 487.539C204.73 483.066 204.795 480.826 199.16 479.217C199.153 479.217 197.925 467.204 192.29 466.396Z" fill="#1D2538"/>
<path d="M190.543 466.107C190.543 466.107 192.513 459.841 195.016 460.918C197.518 461.989 193.229 467.184 193.229 467.184C193.229 467.184 196.986 463.066 199.134 464.682C201.282 466.291 199.134 470.232 195.016 470.409C190.897 470.58 190.543 466.107 190.543 466.107Z" fill="#273252"/>
<path d="M189.873 466.035C189.873 466.035 191.843 459.769 194.345 460.846C196.848 461.916 192.559 467.112 192.559 467.112C192.559 467.112 196.316 462.993 198.464 464.609C200.612 466.218 198.464 470.159 194.345 470.337C190.227 470.514 189.873 466.035 189.873 466.035Z" fill="#1D2538"/>
<path d="M202.102 476.084C202.102 476.084 200.756 472.275 199.331 472.971C197.905 473.667 198.056 477.582 201.203 479.138C204.342 480.701 202.102 476.084 202.102 476.084Z" fill="#CC6D3D"/>
<path d="M202.674 476.373C202.674 476.373 201.603 473.352 200.473 473.903C199.344 474.462 199.462 477.562 201.958 478.796C204.46 480.038 202.674 476.373 202.674 476.373Z" fill="#F5894E"/>
<path d="M224.684 538.698C225.019 539.04 225.846 540.261 226.247 541.023C226.372 541.253 226.759 541.713 226.72 542.199C226.621 543.44 226.378 544.202 225.413 544.11C225.176 543.572 224.854 541.831 224.191 541.562C223.495 541.279 222.93 536.925 224.684 538.698Z" fill="#CC6D3D"/>
<path d="M214.667 535.421C214.621 535.335 214.851 534.633 215.909 533.963C217.15 533.181 217.774 533.936 217.774 533.936L231.265 549.838L226.72 553.418L214.667 535.421Z" fill="#1D2538"/>
<path d="M212.132 528.971C210.444 530.048 210.247 532.34 211.64 534.002C212.96 535.578 215.219 535.966 216.723 534.954C218.214 533.949 218.516 531.88 217.367 530.245C216.152 528.524 213.794 527.907 212.132 528.971ZM215.397 533.444C214.773 533.766 213.774 533.496 213.15 532.826C212.513 532.137 212.513 531.302 213.17 530.974C213.82 530.646 214.845 530.954 215.449 531.651C216.047 532.321 216.014 533.122 215.397 533.444Z" fill="#1D2538"/>
<path d="M213.229 529.746C212.257 530.344 212.152 531.657 212.973 532.649C213.137 532.846 213.321 533.01 213.518 533.148C213.386 533.056 213.262 532.945 213.15 532.827C212.513 532.137 212.513 531.303 213.17 530.974C213.82 530.646 214.845 530.955 215.449 531.651C216.04 532.327 216.014 533.122 215.396 533.451C215.009 533.654 214.483 533.621 213.984 533.418C214.674 533.72 215.455 533.707 216.04 533.339C216.94 532.767 217.084 531.533 216.349 530.554C215.593 529.529 214.194 529.155 213.229 529.746Z" fill="#F7BC4B"/>
<path d="M213.616 533.214C213.636 533.227 213.649 533.24 213.669 533.247C213.649 533.234 213.636 533.227 213.616 533.214Z" fill="#F6BE4A"/>
<path d="M213.839 533.339C213.872 533.352 213.899 533.365 213.931 533.385C213.899 533.372 213.866 533.352 213.839 533.339Z" fill="#F6BE4A"/>
<path d="M215.298 534.665C215.271 534.692 215.239 534.711 215.199 534.718C214.904 534.764 214.621 534.764 214.365 534.718C214.273 534.698 214.214 534.6 214.24 534.501C214.267 534.396 214.358 534.33 214.457 534.35C214.674 534.39 214.917 534.396 215.173 534.35C215.271 534.337 215.357 534.403 215.363 534.508C215.363 534.567 215.337 534.626 215.298 534.665Z" fill="#3E4C6F"/>
<path d="M221.084 540.912C221.918 540.025 222.221 539.138 222.221 539.138L228.795 546.928C229.537 547.736 231.672 550.1 231.672 550.1C231.672 550.1 227.488 553.516 226.779 553.93C226.779 553.93 224.841 550.954 224.329 550.081L219.199 542.35C219.199 542.337 220.25 541.805 221.084 540.912Z" fill="#C94039"/>
<path d="M220.855 544.721L220.217 543.618C220.217 543.618 221.327 542.948 223.061 541.096C223.061 541.096 223.528 541.404 220.855 544.721Z" fill="#1D2538"/>
<path d="M222.168 539.079C222.168 539.079 220.007 541.339 218.799 541.766L218.043 540.452C218.043 540.452 220.992 538.836 221.498 538.291L222.168 539.079Z" fill="#C73F37"/>
<path d="M224.526 541.871L224.782 542.179C224.782 542.179 223.074 544.222 221.459 545.135L224.526 541.871Z" fill="#1D2538"/>
<path d="M222.017 546.6L222.661 547.559C222.661 547.559 225.038 545.884 225.965 543.559C225.965 543.559 223.639 546.376 222.017 546.6Z" fill="#1D2538"/>
<path d="M224.329 550.068L223.37 548.603C223.37 548.603 226.063 547.434 227.436 545.273L229.498 547.703C229.498 547.71 227.672 548.373 224.329 550.068Z" fill="#1D2538"/>
<path d="M225.498 551.907L225.991 552.721C225.991 552.721 228.657 551.914 230.076 549.385C230.076 549.391 226.299 552.189 225.498 551.907Z" fill="#1D2538"/>
<path d="M239.396 549.529C239.186 549.601 239.055 549.779 238.877 549.91L223.521 561.989C223.311 562.133 222.845 562.028 221.616 561.825C220.789 561.687 219.987 561.233 220.25 560.406C220.598 559.322 220.782 557.923 221.163 557.7L236.224 546.422C236.46 546.251 237.59 546.094 238.056 546.028C238.582 545.956 238.897 545.66 239.534 545.779C240.007 545.864 240.29 546.35 240.257 546.935L239.396 549.529Z" fill="#C94039"/>
<path d="M238.943 548.793C238.864 549.004 238.727 549.194 238.543 549.332L222.608 561.273C222.562 561.306 220.552 561.28 220.263 560.774C219.974 560.268 220.868 557.877 220.868 557.877C220.868 557.877 236.874 545.49 237.176 545.523C237.728 545.588 238.431 545.503 239.101 545.621C239.6 545.713 239.889 546.219 239.718 546.692L238.943 548.793Z" fill="#F5894E"/>
<path d="M238.943 548.794C238.864 549.004 238.726 549.194 238.542 549.332L234.838 549.227L220.868 557.871C220.868 557.871 236.874 545.483 237.176 545.516C237.859 545.49 238.431 545.496 239.101 545.615C239.6 545.707 239.889 546.212 239.718 546.685L238.943 548.794Z" fill="#FEED7F"/>
<path opacity="0.5" d="M254.641 579.592L251.508 575.486L240.67 573.812L243.659 577.89L254.641 579.592Z" fill="#FEED7F"/>
<path opacity="0.5" d="M250.536 574.331L249.268 572.807L238.431 571.132L239.554 572.629L250.536 574.331Z" fill="#FEED7F"/>
<path d="M236.631 551.027L235.652 550.889C235.317 550.836 235.252 550.856 235.193 551.197L234.969 552.268L236.631 551.027Z" fill="#C94039"/>
<path d="M272.585 601.469C272.585 601.469 236.244 555.446 235.744 554.73C235.245 554.014 234.72 553.338 234.72 553.338C234.378 553.062 234.03 553.226 232.782 554.264L227.639 558.29L264.106 608.084C264.283 608.333 271.639 610.284 271.639 610.284C271.817 610.212 272.152 610.35 272.323 609.634L272.966 602.461C272.947 601.949 272.736 601.667 272.585 601.469Z" fill="#F7BC4B"/>
<path d="M272.585 601.47C272.585 601.47 236.257 555.388 235.757 554.672C235.252 553.956 234.483 553.004 234.483 553.004C234.483 553.004 234.437 552.971 233.78 553.496L271.817 602.554C271.817 602.554 272.152 610.35 272.322 609.635L272.966 602.462C272.946 601.95 272.736 601.667 272.585 601.47Z" fill="#F5894E"/>
<path d="M255.002 579.473L256.52 581.24C256.658 581.352 256.428 581.575 256.106 581.641L253.919 582.088C253.722 582.127 253.59 582.061 253.623 581.943L254.523 579.526C254.575 579.336 254.858 579.362 255.002 579.473Z" fill="#F5894E"/>
<path d="M255.758 596.643L257.597 596.886L257.15 598.528L255.758 596.643Z" fill="#F5894E"/>
<path d="M258.983 599.066L261.485 598.935L260.047 600.682L258.983 599.066Z" fill="#F5894E"/>
<path d="M272.001 610.088L230.877 555.795" stroke="#F3E7D9" stroke-miterlimit="10"/>
<path d="M249.472 587.947L250.608 587.093L252.474 588.085L252.487 590.016L256.401 591.106L257.906 591.546" stroke="#F3E7D9" stroke-miterlimit="10"/>
<path d="M210.273 505.772C210.273 505.772 214.569 516.15 215.462 519.552C215.843 520.99 216.441 523.743 215.442 524.721C214.083 526.055 210.799 525.148 209.557 522.777C207.41 518.659 202.306 509.174 203.022 506.672C203.745 504.156 208.395 501.476 210.273 505.772Z" fill="#F5894E"/>
<path d="M207.318 508.005C207.318 508.005 211.075 516.058 212.553 519.683C213.341 521.614 211.705 526.889 209.558 522.77C207.41 518.652 202.306 509.168 203.022 506.665C203.745 504.156 205.439 503.71 207.318 508.005Z" fill="#CC6D3D"/>
<path d="M220.743 539.953C220.743 539.953 224.165 540.491 221.19 534.403C218.897 529.713 217.722 525.457 216.244 521.562C214.845 517.877 209.892 520.491 210.07 523.171C210.247 525.857 212.362 528.59 214.569 532.61C217.61 538.166 218.595 540.13 220.743 539.953Z" fill="#F5894E"/>
<path d="M220.743 539.953C220.743 539.953 223.653 541.004 220.677 534.922C218.385 530.232 215.154 523.808 212.96 520.222C210.411 516.058 208.664 518.475 208.842 521.161C209.019 523.848 212.362 528.596 214.569 532.616C217.61 538.166 218.595 540.13 220.743 539.953Z" fill="#CC6D3D"/>
<path d="M218.149 537.627C218.149 537.627 218.806 535.723 221.282 536.399C223.042 536.879 222.93 536.925 224.684 538.705C225.019 539.046 225.801 540.36 226.208 541.122C226.615 541.884 222.904 542.291 222.72 542.462C222.366 542.797 222.7 545.457 222.7 545.457L223.239 547.27C223.239 547.27 223.686 548.609 223.863 549.148C224.04 549.687 223.213 549.687 222.865 549.431C222.517 549.174 221.558 547.874 221.558 547.874C220.986 548.123 220.822 548.347 219.476 545.962C219.068 545.247 218.405 543.946 218.405 543.946C218.405 543.946 217.61 539.775 218.149 537.627Z" fill="#CC6D3D"/>
<path d="M202.49 493.425C202.49 493.425 204.908 493.07 207.055 497.359C209.203 501.655 210.727 506.489 210.727 506.489L203.476 509.707C203.476 509.707 201.775 508.899 199.896 500.577C198.241 493.247 202.49 493.425 202.49 493.425Z" fill="#C94039"/>
<path d="M203.83 493.687C203.83 493.687 203.495 499.953 203.895 500.892C204.296 501.831 207.455 507.874 207.455 507.874L203.475 509.706C203.475 509.706 201.774 508.899 199.895 500.577C199.068 496.912 199.541 494.311 201.058 493.595C202.359 492.991 203.83 493.687 203.83 493.687Z" fill="#992C29"/>
<path d="M204.684 499.217C204.684 499.217 204.086 502.935 205.36 504.892L206.378 505.91C206.378 505.904 204.539 499.94 204.684 499.217Z" fill="#992C29"/>
<path d="M197.564 491.808C194.759 491.808 179.58 492.971 176.894 497.266C172.5 504.294 169.288 512.301 165.531 515.256C161.774 518.212 144.322 524.918 137.61 524.117C130.897 523.316 127.14 521.969 122.575 527.874C118.01 533.779 108.348 545.056 106.47 545.858C106.47 545.858 118.733 548.183 122.22 546.573C125.708 544.964 131.35 545.319 139.941 548.544C148.532 551.762 151.488 549.352 151.488 549.352C151.488 549.352 159.002 544.518 164.644 538.344C170.28 532.17 181.826 531.992 187.015 528.143C192.204 524.294 195.035 522.298 197.846 514.632C199.521 510.054 202.759 501.989 203.127 499.506C203.646 496.018 203.409 493.26 202.772 492.885C201.459 492.123 199.712 491.808 197.564 491.808Z" fill="#1689CB"/>
<path d="M197.636 495.644C197.636 495.644 190.279 502.015 182.417 504.288C179.343 505.181 176.316 505.089 173.636 501.523C170.963 497.956 172.46 494.245 174.516 490.619C176.572 486.994 181.294 487.808 188.145 487.401C194.995 486.994 201.064 488.793 197.636 495.644Z" fill="#29ABE2"/>
<path d="M195.777 488.229C197.524 489.569 178.661 497.647 177.117 496.242C175.58 494.836 175.902 491.276 177.8 488.905C179.166 487.197 181.137 487.598 186.858 487.395C191.994 487.217 194.03 486.889 195.777 488.229Z" fill="#992C29"/>
</svg>
