<svg width="160" height="43" viewBox="0 0 160 43" fill="none" xmlns="http://www.w3.org/2000/svg">
<path opacity="0.4" d="M154.001 35.8678H147.993V26.0998C147.993 23.7705 147.953 20.772 144.869 20.772C141.74 20.772 141.261 23.3099 141.261 25.9302V35.8671H135.253V15.7802H141.021V18.5253H141.101C141.679 17.5007 142.513 16.6578 143.515 16.0864C144.517 15.515 145.649 15.2365 146.792 15.2805C152.881 15.2805 154.004 19.4388 154.004 24.8484L154.001 35.8678ZM128.475 13.0344C127.785 13.0346 127.111 12.8224 126.538 12.4248C125.964 12.0272 125.517 11.4619 125.253 10.8006C124.989 10.1392 124.92 9.41145 125.054 8.70929C125.189 8.00712 125.521 7.36211 126.008 6.8558C126.496 6.3495 127.117 6.00465 127.793 5.86486C128.469 5.72507 129.17 5.79662 129.808 6.07046C130.445 6.3443 130.989 6.80813 131.372 7.40331C131.756 7.99848 131.96 8.69826 131.96 9.41416C131.96 9.88949 131.87 10.3602 131.695 10.7994C131.52 11.2386 131.263 11.6376 130.94 11.9738C130.616 12.31 130.232 12.5767 129.809 12.7587C129.386 12.9406 128.932 13.0343 128.475 13.0344V13.0344ZM131.478 35.8678H125.464V15.7802H131.478V35.8678ZM156.996 0.002868H122.446C121.661 -0.00632001 120.906 0.308106 120.345 0.877053C119.784 1.446 119.463 2.22292 119.454 3.03709V39.0573C119.463 39.8719 119.783 40.6493 120.344 41.2188C120.905 41.7884 121.661 42.1034 122.446 42.0948H156.996C157.782 42.105 158.54 41.7908 159.103 41.2213C159.667 40.6518 159.989 39.8735 160 39.0573V3.03449C159.989 2.21871 159.666 1.4409 159.103 0.87197C158.54 0.303037 157.782 -0.0104912 156.996 0.000268043" fill="#746D63"/>
<path opacity="0.4" d="M0 6.22949H6.25366V29.8795H17.831V35.8713H0V6.22949Z" fill="#746D63"/>
<path opacity="0.4" d="M20.5966 15.7734H26.6043V35.8603H20.5966V15.7734ZM23.6005 5.78711C24.2897 5.78724 24.9635 5.99956 25.5365 6.39722C26.1096 6.79489 26.5561 7.36004 26.8198 8.02121C27.0835 8.68239 27.1524 9.40989 27.0179 10.1117C26.8834 10.8136 26.5514 11.4582 26.064 11.9642C25.5765 12.4702 24.9556 12.8147 24.2795 12.9543C23.6035 13.0938 22.9028 13.0222 22.266 12.7483C21.6292 12.4744 21.085 12.0106 20.702 11.4156C20.3191 10.8206 20.1147 10.121 20.1147 9.40544C20.1147 8.93022 20.2049 8.45965 20.3801 8.02061C20.5553 7.58158 20.812 7.18266 21.1357 6.84666C21.4594 6.51066 21.8437 6.24415 22.2666 6.06235C22.6895 5.88055 23.1428 5.78702 23.6005 5.78711" fill="#746D63"/>
<path opacity="0.4" d="M51.7349 6.22461H57.7426V23.9394L64.5513 15.7639H71.917L64.0319 25.0634L71.7512 35.8684H64.2003L57.8227 25.9393H57.7438V35.8671H51.7361L51.7349 6.22461Z" fill="#746D63"/>
<path opacity="0.4" d="M29.9348 15.7748H35.7041V18.5199H35.7861C36.3623 17.4949 37.1959 16.6516 38.1978 16.0801C39.1997 15.5087 40.3323 15.2304 41.4746 15.2752C47.5668 15.2752 48.6883 19.4367 48.6883 24.843V35.8585H42.6805V26.0925C42.6805 23.7612 42.6392 20.7647 39.5515 20.7647C36.4288 20.7647 35.9469 23.3032 35.9469 25.9229V35.8559H29.9392L29.9348 15.7748Z" fill="#746D63"/>
<path opacity="0.4" d="M84.5682 23.4799C84.5797 22.9739 84.4921 22.4707 84.3108 22.0008C84.1294 21.5309 83.8581 21.1042 83.5133 20.7464C83.1684 20.3886 82.7572 20.1072 82.3045 19.9193C81.8518 19.7313 81.3671 19.6407 80.8797 19.653C79.83 19.5852 78.7967 19.9484 78.0025 20.6643C77.2083 21.3801 76.7169 22.3913 76.6342 23.4799H84.5682ZM89.6572 32.3812C88.6589 33.6381 87.4038 34.6487 85.9829 35.3399C84.562 36.0311 83.0108 36.3856 81.4417 36.3776C75.434 36.3776 70.624 32.2142 70.624 25.7669C70.624 19.3197 75.4333 15.1582 81.4417 15.1582C87.057 15.1582 90.5784 19.3165 90.5784 25.7669V27.7226H76.6342C76.8079 28.8317 77.3617 29.8384 78.1937 30.557C79.0257 31.2756 80.0799 31.6579 81.1619 31.6333C82.017 31.6278 82.8572 31.4004 83.6061 30.9716C84.3549 30.5429 84.9885 29.9266 85.4493 29.1787L89.6572 32.3812Z" fill="#746D63"/>
<path opacity="0.4" d="M103.101 20.6284C100.097 20.6284 98.2947 22.7108 98.2947 25.745C98.2947 28.7792 100.096 30.8635 103.101 30.8635C106.105 30.8635 107.911 28.7844 107.911 25.745C107.911 22.7056 106.108 20.6284 103.101 20.6284ZM113.442 35.856H107.911V33.1922H107.829C107.136 34.1611 106.236 34.9506 105.2 35.4992C104.164 36.0479 103.02 36.3407 101.857 36.355C96.0844 36.355 92.282 32.0298 92.282 25.9133C92.282 20.2957 95.6469 15.1376 101.178 15.1376C103.665 15.1376 105.987 15.8438 107.349 17.8014H107.428V6.22266H113.442L113.442 35.856Z" fill="#746D63"/>
</svg>
