<svg width="43" height="37" viewBox="0 0 43 37" fill="none" xmlns="http://www.w3.org/2000/svg">
<path d="M14.3244 6.77289V34.8466C14.3244 35.2443 14.225 35.5857 14.0234 35.8625C13.8245 36.142 13.5316 36.2817 13.1473 36.2817C12.8758 36.2817 12.6125 36.2172 12.3545 36.0909L1.19594 30.5143C0.860002 30.3558 0.575127 30.087 0.344002 29.7134C0.115564 29.3372 0 28.9663 0 28.6008V1.31724C0 0.997431 0.0806245 0.725994 0.239187 0.502931C0.400438 0.279868 0.631563 0.166992 0.935251 0.166992C1.15831 0.166992 1.51038 0.28793 1.99144 0.527118L14.2545 6.65463C14.3002 6.70032 14.3244 6.74064 14.3244 6.77289Z" fill="#FF6100"/>
<path d="M15.8616 9.19141L28.6756 29.9148L15.8616 23.5508V9.19141ZM43 9.62141V34.8463C43 35.2441 42.8871 35.5693 42.6641 35.8165C42.441 36.0638 42.1373 36.1874 41.753 36.1874C41.3687 36.1874 40.9925 36.0826 40.6243 35.8757L30.0409 30.6108L43 9.62141Z" fill="#F5C9B0"/>
<path d="M42.9277 6.74833C42.9277 6.79671 40.8771 10.1427 36.7733 16.7889C32.6695 23.4351 30.2669 27.3239 29.5627 28.4553L20.2048 13.2817L27.9798 0.669188C28.2512 0.223062 28.6678 0 29.2268 0C29.4499 0 29.6595 0.0483763 29.8503 0.142439L42.831 6.60321C42.8955 6.63814 42.9277 6.68383 42.9277 6.74833Z" fill="#FF6100"/>
</svg>
