<svg width="287" height="259" viewBox="0 0 287 259" fill="none" xmlns="http://www.w3.org/2000/svg">
<path d="M253.49 68.9309C253.49 68.9309 261.344 27.8392 229.157 16.1026C196.97 4.36604 175.487 11.9388 168.002 14.2223C160.517 16.5059 116.876 44.3358 143.281 76.8531C143.281 76.8531 137.099 73.5147 134.285 76.0441C131.471 78.5736 131.474 78.5737 131.474 78.5737C131.474 78.5737 118.246 75.5353 107.441 83.6671C96.6347 91.8019 102.503 94.7884 104.751 96.5809C106.999 98.3734 105.332 98.2857 105.332 98.2857C105.332 98.2857 85.3917 101.923 78.1006 106.895C70.8096 111.866 64.4663 117.894 90.3461 115.907C116.226 113.921 129.4 111.605 129.4 111.605C129.4 111.605 106.071 116.067 105.825 120.741C105.579 125.416 160.885 117.614 171.689 115.84C182.492 114.067 232.423 100.291 242.613 97.4821C242.613 97.4821 233.6 103.366 240.61 103.735C247.62 104.104 277.521 89.2772 281.684 86.4833C285.848 83.6894 273.11 84.0223 273.11 84.0223C273.11 84.0223 275.885 75.8003 272.178 69.9146C268.472 64.0289 256.005 65.7148 253.49 68.9309Z" fill="#F3E7D9"/>
<path d="M91.2429 64.9724C91.2429 64.9724 94.381 56.0536 86.7464 51.8481C81.705 49.0729 71.163 55.3796 71.6714 61.5971C71.8924 64.2833 68.4376 59.4172 62.5168 63.7928C56.5959 68.1684 56.7024 75.7035 56.7024 75.7035C56.7024 75.7035 43.9653 79.2171 42.243 80.1298C40.5208 81.0425 38.3966 83.2758 51.9583 79.9703C65.5226 76.6739 91.2429 64.9724 91.2429 64.9724Z" fill="#F3E7D9"/>
<path d="M53.2046 137.163C53.2046 137.163 51.4992 131.383 40.7307 132.49C29.9622 133.598 25.5001 142.066 27.114 143.155C28.731 144.243 29.0126 145.264 29.0126 145.264C29.0126 145.264 13.3064 151.131 7.15645 153.485C1.00654 155.839 6.82268 159.826 18.7528 155.77C30.683 151.711 61.3036 142.277 72.4066 141.187C83.5097 140.097 53.2046 137.163 53.2046 137.163Z" fill="#F3E7D9"/>
<path d="M115.76 188.447C94.5373 194.643 91.9978 204.651 91.9978 204.651C91.9978 204.651 48.8454 211.592 38.9198 215.919C28.9942 220.245 15.0497 228.089 34.0085 235.538C46.8346 240.577 78.4143 248.541 107.17 245.691C135.925 242.841 154.621 241.057 162.526 236.553C170.43 232.051 163.551 225.498 163.551 225.498C163.551 225.498 180.893 228.154 205.657 229.155C230.422 230.156 244.618 224.527 233.159 219.353C233.159 219.353 294.817 203.934 263.592 191.502C258.591 189.783 246.816 178.618 206.221 176.119C165.626 173.619 145.305 179.819 115.76 188.447Z" fill="#856792"/>
<path d="M163.386 195.065C163.386 195.065 134.022 200.882 138.811 205.261C143.6 209.64 161.795 210.089 161.795 210.089C161.795 210.089 169.356 219.331 184.072 219.078C198.788 218.826 208.983 218.383 218.005 215.393C227.028 212.402 264.05 205.219 231.68 198.621C199.309 192.024 163.386 195.065 163.386 195.065Z" fill="#4B3355"/>
<path d="M153.262 185.461C136.143 188.064 133.044 191.012 145.245 194.724C157.446 198.437 162.361 195.583 170.713 191.68C179.068 187.777 170.384 182.855 153.262 185.461Z" fill="#4B3355"/>
<path d="M144.586 211.902C138.859 210.145 133.289 214.701 144.867 215.796C156.445 216.89 150.31 213.656 144.586 211.902Z" fill="#4B3355"/>
<path d="M117.808 218.612C117.808 218.612 117.064 218.681 115.905 218.805C111.043 219.325 98.8417 220.803 103.072 222.2C108.315 223.932 128.724 223.065 122.106 219.809" fill="#4B3355"/>
<path d="M91.8195 210.598C91.8195 210.598 54.3566 214.032 48.4928 217.836C42.629 221.639 64.5931 225.764 64.5931 225.764C64.5931 225.764 72.0372 227.785 82.44 227.422C92.8429 227.059 125.891 221.173 116.983 216.697C110.089 213.228 91.8195 210.598 91.8195 210.598Z" fill="#4B3355"/>
<path d="M136.129 228.448C136.129 228.448 115.004 226.075 118.671 231.24C122.337 236.404 153.253 232.356 136.129 228.448Z" fill="#4B3355"/>
<path d="M144.097 244.238C140.335 245.837 131.609 251.337 150.942 252.355C170.275 253.373 175.127 241.022 170.459 240.776C165.794 240.531 147.856 242.642 144.097 244.238Z" fill="#856792"/>
<path d="M170.95 162.713C170.95 162.713 120.331 166.066 110.81 169.14C101.288 172.215 87.7908 181.643 110.985 185.559C134.179 189.479 146.913 194.555 157.525 190.495C168.138 186.435 160.84 176.91 160.84 176.91C160.84 176.91 179.428 179.464 192.022 177.3C204.619 175.13 208.112 158.161 170.95 162.713Z" fill="#856792"/>
<path d="M199.333 217.249C197.205 217.784 195.21 221.881 200.53 222.161C205.849 222.441 211.475 220.874 209.437 218.751C206.983 216.196 201.463 216.714 199.333 217.249Z" fill="#4B3355"/>
<path d="M175.396 229.886C175.396 229.886 170.891 232.557 176.185 233.321C181.479 234.085 181.683 230.217 175.396 229.886Z" fill="#856792"/>
<path d="M177.666 236.936C175.588 238.806 174.068 241.622 181.346 242.311C188.623 243 189.253 236.785 186.841 236.353C184.423 235.92 179.745 235.066 177.666 236.936Z" fill="#856792"/>
<path d="M222.313 213.61C222.313 213.61 222.364 215.712 226.41 215.604C230.456 215.494 235.062 213.96 235.062 213.96C235.062 213.96 238.913 214.486 241.915 212.704C244.917 210.921 242.034 207.376 233.56 208.709C225.086 210.039 221.226 212.744 222.313 213.61Z" fill="#4B3355"/>
<path d="M175.268 170.122C175.268 170.122 163.339 168.766 166.777 172.583C170.212 176.403 185.271 173.56 175.268 170.122Z" fill="#4B3355"/>
<path d="M176.199 152.381L174.977 169.781L172.788 171.205L170.103 175.041C170.103 175.041 170.247 178.112 169.685 182.986C169.123 187.859 168.173 194.242 168.173 194.242L205.528 212.142L220.161 213.526L233.031 212.559L254.916 202.076L249.945 183.23L249.542 179.225L244.781 176.525L247.965 174.242L246.728 151.199L194.529 147.532L176.199 152.381Z" fill="#7A462F"/>
<path d="M246.732 151.191L220.985 139.724L192.424 140.979L176.199 152.381C176.199 152.381 178.53 154.648 183.419 154.905C188.308 155.163 209.856 159.055 209.856 159.055L225.762 159.587C225.762 159.587 238.546 155.357 242.262 154.633C245.978 153.909 246.732 151.191 246.732 151.191Z" fill="#A96443"/>
<path d="M241.66 205.254L232.574 193.625L232.424 178.103L227.868 163.316L228.225 174.97L230.871 179.959L229.649 193.956L229.598 204.133L220.164 213.523L233.39 205.789L232.32 198.46L238.2 206.527L241.66 205.254Z" fill="#A96443"/>
<path d="M216.036 157.844L214.712 164.564L208.809 156.981L216.036 157.844Z" fill="#A96443"/>
<path d="M234.611 154.943L237.743 159.957L240.516 153.316L234.611 154.943Z" fill="#A96443"/>
<path d="M213.085 149.446L210.895 163.393L215.349 170.899L214.381 180.061L212.805 173.191L208.504 162.782L213.085 149.446Z" fill="#A96443"/>
<path d="M217.284 171.001L216.699 182.121L220.335 195.889L220.462 202.682L222.448 192.606L219.624 181.792L217.284 171.001Z" fill="#A96443"/>
<path d="M220.592 172.631L219.65 181.309L221.277 187.211L221.378 176.066L222.982 168.636L220.592 172.631Z" fill="#A96443"/>
<path d="M176.072 171.015L173.941 179.226L175.3 187.216L174.188 192.974L176.426 187.276L175.045 179.766L176.072 171.015Z" fill="#A96443"/>
<path d="M240.847 156.242C240.847 156.242 239.956 163.952 239.879 165.404C239.803 166.855 239.027 181.601 239.027 181.601L244.624 194.987L243.337 182.555L254.916 202.073L249.542 179.222L244.781 176.522L247.965 174.239L247.128 156.575L245.211 160.835L244.486 170.01L243.098 164.117L243.607 159.053L240.847 156.242Z" fill="#A96443"/>
<path d="M238.294 211.62C239.636 211.448 242.155 207.34 236.95 200.276C234.792 197.35 234.577 205.021 235.34 207.829C236.105 210.636 236.952 211.792 238.294 211.62Z" fill="#33A86D"/>
<path d="M240.123 207.769C240.123 207.769 238.659 199.914 240.049 200.08C244.228 200.575 242.57 203.268 242.57 203.268C242.57 203.268 248.658 197.951 249.617 200.044C250.576 202.14 246.583 205.051 246.583 205.051C246.583 205.051 257.043 198.818 251.836 203.734C246.633 208.651 239.153 211.471 240.123 207.769Z" fill="#33A86D"/>
<path d="M235.707 189.426C235.707 189.426 237.311 195.812 238.964 192.02C240.619 188.229 239.804 185.278 235.707 189.426Z" fill="#33A86D"/>
<path d="M248.202 191.54C248.202 191.54 251.307 187.824 247.922 187.646C244.537 187.468 246.317 190.47 248.202 191.54Z" fill="#33A86D"/>
<path d="M236.827 158.939C236.827 158.939 237.566 163.342 234.713 162.221C231.86 161.101 232.067 157.235 236.827 158.939Z" fill="#33A86D"/>
<path d="M235.91 167.132C235.91 167.132 242.754 166.037 239.446 164.41C236.139 162.781 233.086 165.531 235.91 167.132Z" fill="#33A86D"/>
<path d="M239.345 175.556C239.345 175.556 243.925 171.433 239.599 170.72C235.273 170.01 234.535 174.817 239.345 175.556Z" fill="#33A86D"/>
<path d="M230.514 168.304C230.514 168.304 230.692 174.133 232.726 172.299C234.761 170.465 234.992 166.117 230.514 168.304Z" fill="#33A86D"/>
<path d="M212.141 215.943C212.141 215.943 209.299 210.588 212.195 208.312C215.092 206.032 212.141 215.943 212.141 215.943Z" fill="#288453"/>
<path d="M210.252 214.75C209.419 216.001 203.972 202.784 206.891 202.573C209.811 202.361 211.087 213.504 210.252 214.75Z" fill="#288453"/>
<path d="M204.961 213.182C204.266 211.813 203.861 204.882 206.213 207.833C207.94 210.006 208.378 210.451 208.739 213.543C209.101 216.632 205.655 214.551 204.961 213.182Z" fill="#288453"/>
<path d="M168.69 196.078C168.69 196.078 168.193 187.082 165.242 187.897C162.291 188.712 165.458 193 165.458 193C165.458 193 161.31 188.903 162.342 192.351C163.373 195.799 168.69 196.078 168.69 196.078Z" fill="#33A86D"/>
<path d="M171.552 196.957C171.552 196.957 174.006 191.752 171.615 191.141C169.225 190.53 169.54 193.697 169.54 193.697C169.54 193.697 167.646 188.263 167.264 190.912C166.882 193.557 168.232 195.569 169.884 196.384C171.539 197.199 171.539 197.199 171.539 197.199" fill="#288453"/>
<path d="M99.6132 239.593C99.6132 239.593 95.7958 229.212 97.8397 231.862C99.8804 234.516 100.53 236.005 100.53 236.005C100.53 236.005 100.129 229.803 102.591 231.388C105.053 232.973 103.392 236.884 103.392 236.884C103.392 236.884 107.554 233.829 107.801 236.026C108.047 238.222 102.456 240.833 99.6132 239.593Z" fill="#33A86D"/>
<path d="M76.182 240.301C76.182 240.301 72.9569 232.494 75.5337 231.905C78.1107 231.312 78.5692 236.428 78.5692 236.428C78.5692 236.428 78.7041 226.98 81.9657 227.152C85.2272 227.323 81.8881 235.51 81.8881 235.51C81.8881 235.51 83.0707 233.754 84.7883 235.662C86.5058 237.571 85.2468 240.778 85.2468 240.778C85.2468 240.778 89.0063 238.43 91.0883 240.358C93.1672 242.285 90.9546 242.896 90.9546 242.896C90.9546 242.896 97.9215 241.808 97.4617 243.601C97.0048 245.395 91.1252 246.541 85.7627 244.803C80.4002 243.066 68.3749 243.526 69.6179 240.68C70.8577 237.837 76.182 240.301 76.182 240.301Z" fill="#33A86D"/>
<path d="M36.2576 222.388C36.2576 222.388 30.3991 215.509 35.2983 211.14L36.4164 215.73C36.4164 215.73 38.6749 209.978 41.4529 208.184L38.1555 216.603C38.1555 216.603 40.3455 212.438 43.0585 211.365C45.7715 210.295 36.2576 222.388 36.2576 222.388Z" fill="#856792"/>
<path d="M33.6709 222.025C33.6709 222.025 27.7369 217.603 21.1209 216.749C21.1209 216.749 25.8218 215.409 28.7041 216.525C31.5865 217.641 31.453 219.949 31.453 219.949L30.3998 214.637C30.3998 214.637 36.2042 220.499 36.2545 222.388C36.3048 224.278 33.6709 222.025 33.6709 222.025Z" fill="#856792"/>
<path d="M259.478 193.016C259.478 193.016 257.763 184.51 260.759 182.158L260.582 186.845C260.582 186.845 262.539 182.263 264.133 181.569L261.27 188.277C261.27 188.277 262.95 185.157 264.401 185.114C265.853 185.071 259.478 193.016 259.478 193.016Z" fill="#856792"/>
<path d="M258.31 191.76C258.31 191.76 256.182 185.529 253.178 182.391C253.178 182.391 255.613 182.801 256.807 184.864C258.001 186.928 257.582 189.038 257.582 189.038L257.902 183.7C257.902 183.7 259.748 191.231 259.481 193.017C259.213 194.803 258.31 191.76 258.31 191.76Z" fill="#856792"/>
<path d="M145.092 189.033C145.031 189.05 144.97 189.074 144.912 189.104C144.027 189.531 135.616 190.741 134.745 191.702C134.033 192.485 134.013 195.988 134.163 197.344C134.21 197.765 134.488 198.121 134.887 198.274C136.51 198.905 138.797 200.352 142.868 200.33C148.264 200.299 149.351 200.024 153.45 198.326C156.135 197.215 160.293 196.245 161.109 195.881C161.498 195.706 161.685 195.339 161.728 194.925L162.183 190.381C162.24 189.812 161.94 189.296 161.369 189.162C158.724 188.543 151.312 187.123 145.092 189.033Z" fill="#29ABE2"/>
<path d="M148.097 187.429C148.097 187.429 135.604 190.294 134.691 191.234C133.779 192.175 134.157 196.088 134.157 196.088C134.157 196.088 137.589 198.443 142.938 198.215C148.308 197.986 149.532 198.341 153.603 196.803C156.759 195.609 160.978 194.666 161.587 194.411C161.75 194.342 161.859 194.204 161.876 194.043L162.294 190.028C162.332 189.661 162.071 189.321 161.675 189.225C159.332 188.668 154.567 185.598 148.097 187.429Z" fill="#121721"/>
<path d="M140.597 189.808C140.597 189.808 143.992 189.448 146.402 191.743" stroke="#29ABE2" stroke-width="2" stroke-miterlimit="10" stroke-linecap="round" stroke-linejoin="round"/>
<path d="M142.973 188.828C142.973 188.828 145.41 188.552 149.312 191.18" stroke="#29ABE2" stroke-width="2" stroke-miterlimit="10" stroke-linecap="round" stroke-linejoin="round"/>
<path d="M191.896 125.401C191.896 125.401 170.605 119.593 162.378 118.328C157.845 117.631 155.669 118.858 154.13 121.398C152.589 123.934 152.471 132.889 156.83 135.598C161.189 138.308 168.313 138.554 173.962 140.819C179.609 143.081 187.606 148.198 192.497 146.081C197.389 143.963 204.65 131.583 191.896 125.401Z" fill="#CE9436"/>
<path d="M191.896 125.401L182.317 123.025L163.716 138.04C163.716 138.04 171.469 139.819 173.959 140.819C179.605 143.081 187.602 148.198 192.494 146.081C197.388 143.963 198.777 125.602 191.896 125.401Z" fill="#F7BC4B"/>
<path d="M164.506 155.293C164.506 155.293 164.49 134.139 165.169 129.616C165.85 125.093 165.736 118.672 157.657 117.902C152.188 117.381 148.957 118.112 148.287 124.702C147.753 129.954 146.937 134.239 147.446 139.714C148.131 147.058 146.922 180.508 145.817 181.636C144.712 182.764 144.63 182.284 144.605 185.137C144.586 187.439 146.578 187.777 151.876 189.024C155.14 189.606 158.356 192.012 161.133 190.466C163.91 188.92 163.324 187.649 163.324 187.649L163.328 184.786L164.506 155.293Z" fill="#CE9436"/>
<path d="M164.506 155.294C164.506 155.294 167.948 135.025 168.629 130.502C169.31 125.98 157.306 153.642 157.941 156.586C158.58 159.531 158.625 165.503 158.625 165.503L156.76 162.637C156.76 162.637 153.73 181.52 153.705 184.376C153.686 186.678 146.574 187.783 151.873 189.027C155.137 189.609 158.353 192.015 161.13 190.469C163.906 188.923 163.32 187.653 163.32 187.653L163.324 184.789L164.506 155.294Z" fill="#F7BC4B"/>
<path d="M230.397 130.641C230.397 130.641 234.401 140.55 232.644 146.274C230.887 152.001 229.599 151.933 222.854 151.093C216.692 150.325 180.943 145.209 187.983 131.964C193.894 120.843 202.498 123.353 211.92 125.467C221.345 127.58 230.397 130.641 230.397 130.641Z" fill="#F7BC4B"/>
<path d="M189.573 86.4662C189.573 86.4662 183.72 90.5698 182.929 96.2696C182.138 101.969 178.224 108.038 176.738 109.919C175.253 111.799 171.424 118.591 177.281 122.775C183.137 126.959 185.779 118.358 188.266 114.653C190.752 110.947 194.258 107.606 196.281 102.007C198.304 96.4051 200.858 82.942 189.573 86.4662Z" fill="#7A462F"/>
<path d="M182.27 119.201C182.27 119.201 183.537 123.461 178.631 127.56C173.725 131.66 165.532 138.078 163.397 139.829C161.262 141.579 158.396 140.73 156.474 138.664C154.552 136.596 156.622 133.734 161.903 127.982C167.183 122.231 173.029 114.387 177.868 112.754C182.707 111.122 182.27 119.201 182.27 119.201Z" fill="#7A462F"/>
<path d="M169.434 131.311C170.371 130.623 183.537 123.46 178.631 127.56C173.725 131.66 165.531 138.078 163.397 139.828C161.262 141.579 159.924 136.953 161.958 135.122C163.992 133.292 165.979 133.837 169.434 131.311Z" fill="#A96443"/>
<path d="M158.725 134.129C157.73 133.798 156.15 134.173 153.981 134.703C152.342 135.102 149.833 135.212 148.126 135.365C145.445 135.604 145.502 134.58 143.664 135.696C142.739 136.258 143.139 137.717 143.698 138.121C145.023 139.08 149.009 138.577 149.519 138.832C150.03 139.086 146.219 142.806 146.04 143.087C145.86 143.368 141.396 145.281 140.426 145.895C139.456 146.508 140.119 147.067 140.503 147.45C140.887 147.833 142.316 147.884 142.316 147.884C142.316 147.884 140.939 148.446 141.856 149.516C142.776 150.589 143.488 150.485 144.1 150.179C144.712 149.873 145.63 149.67 145.63 149.67C145.63 149.67 145.349 151.024 146.728 151.225C148.108 151.426 148.668 151.022 148.668 151.022C148.668 151.022 148.873 151.685 150.021 152.069C151.168 152.453 151.296 152.07 153.414 150.819C155.531 149.568 158.415 147.809 159.257 147.068C160.099 146.328 163.288 140.587 162.752 138.878C162.222 137.164 159.72 134.46 158.725 134.129Z" fill="#7A462F"/>
<path d="M160.238 137.132C159.243 136.801 156.307 135.798 154.141 136.325C152.502 136.724 149.543 136.164 147.84 136.317C145.158 136.556 145.801 135.159 143.963 136.275C143.038 136.837 143.148 137.714 143.704 138.121C145.029 139.08 149.014 138.577 149.525 138.832C150.036 139.086 146.225 142.806 146.046 143.087C145.866 143.368 141.402 145.281 140.432 145.895C139.462 146.509 140.125 147.068 140.509 147.45C140.893 147.833 142.65 147.398 142.65 147.398C142.65 147.398 140.945 148.447 141.861 149.519C142.781 150.592 143.474 149.838 144.143 149.699C145.082 149.506 145.781 149.3 145.781 149.3C145.781 149.3 145.019 150.982 146.734 151.228C147.772 151.376 149.873 150.031 149.873 150.031C149.873 150.031 148.834 150.764 149.473 151.312C150.462 152.161 151.11 151.458 153.227 150.207C155.345 148.956 157.87 146.902 158.711 146.162C159.553 145.422 162.366 140.46 161.83 138.752C161.294 137.04 161.233 137.462 160.238 137.132Z" fill="#A96443"/>
<path d="M148.461 144.43C148.461 144.43 151.068 146.347 152.136 146.765C153.204 147.184 153.955 147.547 153.955 147.547C153.955 147.547 149.894 144.868 149.658 144.736C149.422 144.604 148.146 143.524 148.146 143.524L148.461 144.43Z" fill="#7A462F"/>
<path d="M148.87 150.643L151.656 148.942L153.555 147.406C153.555 147.406 152.921 148.253 151.727 149.134C151.001 149.668 149.733 150.239 148.87 150.643Z" fill="#7A462F"/>
<path d="M145.773 149.42L148.617 147.551C148.617 147.551 150.37 146.241 151.369 145.916L149.101 147.576L145.773 149.42Z" fill="#7A462F"/>
<path d="M142.234 147.577L146.319 145.974L148.476 144.147C148.476 144.147 146.502 145.579 146.166 145.804C145.831 146.029 141.624 147.665 141.624 147.665L142.234 147.577Z" fill="#7A462F"/>
<path d="M209.561 81.3036C199.035 81.7199 194.102 83.3172 191.623 84.3189C189.148 85.3207 189.586 86.1524 189.586 86.1524C189.586 86.1524 189.951 94.5757 190.274 97.6626C190.597 100.749 191.423 108.439 191.638 112.44C191.873 116.84 194.985 124.857 194.603 127.505C194.141 130.716 195.635 135.559 195.635 135.559C195.635 135.559 204.858 133.823 211.261 134.968C217.664 136.114 230.698 134.131 231.352 134.004C232.006 133.877 231.534 132.073 231.619 130.463C231.704 128.85 231.594 126.341 231.594 126.341C231.594 126.341 230.697 111.911 230.867 108.686C231.036 105.463 232.493 88.0934 231.366 84.6317C230.667 82.4954 220.086 80.8872 209.561 81.3036Z" fill="#29ABE2"/>
<path d="M227.365 106.887C227.365 106.887 227.658 112.075 227.463 115.782C227.267 119.488 229.004 123.377 228.138 125.997C227.272 128.617 226.508 133.911 226.508 133.911" stroke="#1689CB" stroke-miterlimit="10"/>
<path d="M216.589 81.3325C217.556 81.3834 216.682 86.4469 215.332 88.3166C213.981 90.1863 208.301 92.9572 203.94 92.8894C199.263 92.8169 196.988 91.1967 198.757 86.9589C199.682 84.7464 200.293 82.3526 201.92 82.1148C203.55 81.8771 204.707 81.7373 208.475 81.5703C212.242 81.4032 215.621 81.2815 216.589 81.3325Z" fill="#7A462F"/>
<path d="M211.013 86.4507C214.706 85.7047 214.502 85.646 214.261 83.7435L213.62 74.8115C213.43 73.298 211.794 72.2924 209.493 72.7553L204.613 73.5737C202.379 74.0221 201.429 75.5146 201.389 77.0219C201.389 77.0219 201.693 83.4114 202.154 85.4213C202.619 87.4555 207.316 87.1966 211.013 86.4507Z" fill="#A96443"/>
<path d="M210.788 86.7368C202.888 82.1669 201.426 75.5159 201.386 77.0202C201.386 77.0202 201.466 83.6944 201.926 85.7043C202.397 87.7418 207.091 87.4857 210.788 86.7368Z" fill="#7A462F"/>
<path d="M190.907 101.009L191.521 105.899C191.521 105.899 205.56 108.204 223.691 106.856L222.89 101.36C222.887 101.359 209.923 102.98 190.907 101.009Z" fill="#3E4C6F"/>
<path d="M223.69 109.159C223.69 109.159 207.439 110.244 191.764 108.449L192.34 112.882C192.34 112.882 197.608 114.129 205.478 114.382C213.347 114.634 224.551 113.568 224.551 113.568L223.69 109.159Z" fill="#3E4C6F"/>
<path d="M215.811 63.174C217.02 77.8025 214.303 76.6202 208.336 77.4383C203.343 78.1249 198.565 72.629 197.69 65.353C196.815 58.0769 200.161 51.6909 205.165 51.0887C210.168 50.4865 215.068 54.1828 215.811 63.174Z" fill="#273252"/>
<path d="M212.756 61.5249C211.919 54.8319 210.756 51.0868 203.478 51.4315C199.68 51.6119 196.014 52.4193 193.968 53.8481C192.118 55.1404 191.119 56.9208 190.947 61.3983C190.817 64.7728 190.762 70.5863 192.493 75.9966C193.605 79.4634 198.199 80.2623 202.145 80.0567C212.131 79.5401 213.534 78.3171 213.569 71.1698C213.602 64.4507 213.099 64.2715 212.756 61.5249Z" fill="#7A462F"/>
<path d="M211.578 54.4871C209.478 50.456 203.379 55.0229 206.036 56.1481C209.95 57.8097 208.508 66.8357 207.57 72.3092C206.537 78.3317 203.009 79.6435 203.009 79.6435C203.009 79.6435 204.9 79.794 207.159 79.3169C210.836 78.54 213.409 78.7564 213.398 69.8605C213.395 65.5925 212.87 56.9631 211.578 54.4871Z" fill="#A96443"/>
<path d="M192.403 53.8802C191.843 54.318 191.124 58.1437 190.977 60.529C190.948 61.0306 191.553 57.3965 192.277 56.5571C192.277 56.5571 194.392 57.1746 196.847 56.9564C201.406 56.5524 205.498 55.5728 205.498 55.5728C205.498 55.5728 207.074 60.7922 208.504 62.4729C209.97 64.1973 211.735 65.0929 211.735 65.0929L213.717 61.3635C213.311 56.3225 211.448 52.0673 208.02 51.3538C201.745 50.0501 194.458 52.2692 192.403 53.8802Z" fill="#273252"/>
<path d="M203.135 65.748C203.139 66.7548 202.672 66.874 202.163 66.8741C201.653 66.8773 201.285 66.762 201.269 65.7546C201.253 64.7382 201.663 63.903 202.184 63.9005C202.705 63.9009 203.132 64.7322 203.135 65.748Z" fill="#1D2538"/>
<path d="M200.633 60.5393C200.633 60.5393 202.703 60.2588 203.627 61.2061" stroke="#1D2538" stroke-miterlimit="10" stroke-linecap="round" stroke-linejoin="round"/>
<path d="M195.705 66.2582C195.748 67.2011 195.337 67.2723 194.858 67.2741C194.378 67.2758 194.004 67.2082 193.952 66.2648C193.897 65.3122 194.25 64.5279 194.739 64.5267C195.227 64.5224 195.659 65.3031 195.705 66.2582Z" fill="#1D2538"/>
<path d="M195.456 61.2729C195.456 61.2729 193.937 60.7615 192.587 62.0416" stroke="#1D2538" stroke-miterlimit="10" stroke-linecap="round" stroke-linejoin="round"/>
<path d="M216.394 66.143C215.759 68.5445 213.869 70.1911 212.154 69.8912C212.154 69.8912 212.137 64.4004 212.1 63.3532C212.074 62.6959 212.471 60.6772 214.299 60.998C216.121 61.3186 217.049 63.6586 216.394 66.143Z" fill="#A96443"/>
<path d="M215.299 68.6344C215.199 69.2852 214.572 69.7615 213.904 69.7023C213.236 69.6432 212.766 69.0672 212.857 68.416C212.949 67.7587 213.574 67.2704 214.254 67.3301C214.933 67.3899 215.403 67.9778 215.299 68.6344Z" fill="#F3E7D9"/>
<path d="M203.26 142.466C203.26 142.466 203.395 147.187 199.312 147.269C199.312 147.269 203.083 143.439 203.26 142.466Z" fill="#CE9436"/>
<path d="M184.36 199.393C178.941 201.015 171.063 202.52 170.621 204.83C170.179 207.125 169.848 209.558 170.032 210.43C170.174 211.09 170.45 211.491 170.968 211.722C172.284 212.31 174.91 213.703 180.262 214.374C182.571 214.663 187.667 213.61 190.795 211.493C193.273 209.817 196.235 207.877 197.343 207.15C197.631 206.962 197.826 206.67 197.883 206.334L198.33 203.758C198.421 203.233 198.155 202.7 197.668 202.444C195.384 201.237 188.761 198.073 184.36 199.393Z" fill="#29ABE2"/>
<path d="M184.714 197.164C179.992 198.506 171.006 201.603 170.583 203.893C170.201 205.961 170.025 207.101 170.069 207.901C170.091 208.291 171.178 208.513 171.706 208.726C173.049 209.267 175.726 210.546 181.16 211.207C183.502 211.492 188.113 211.052 191.267 209.184C193.885 207.636 197.038 205.831 198.017 205.271C198.211 205.159 198.346 204.983 198.39 204.779L198.803 202.785C198.98 201.929 198.913 198.199 197.969 197.865C194.535 196.648 188.898 195.974 184.714 197.164Z" fill="#121721"/>
<path d="M185.063 203.218C185.063 203.218 180.798 199.243 175.806 200.541" stroke="#29ABE2" stroke-width="2" stroke-miterlimit="10" stroke-linecap="round" stroke-linejoin="round"/>
<path d="M188.14 201.493C188.14 201.493 183.681 197.883 178.705 199.175" stroke="#29ABE2" stroke-width="2" stroke-miterlimit="10" stroke-linecap="round" stroke-linejoin="round"/>
<path d="M192.482 199.64C192.482 199.64 190.714 199.876 186.826 199.552C182.934 199.23 182.72 197.946 181.725 197.342C180.729 196.739 178.407 199.097 179.594 192.747C180.782 186.397 179.868 183.851 179.641 182.246C179.414 180.64 178.972 182.501 179.245 177.481C179.518 172.46 180.035 168.498 180.081 161.873C180.128 155.247 180.214 134.083 181.065 131.303C181.918 128.521 201.167 130.507 202.344 135.466C203.52 140.425 201.553 146.117 200.839 148.406C200.125 150.696 200.656 157.517 199.811 162.078C199.339 164.617 198.926 172.23 199.123 180.785C199.319 189.34 199.77 192.389 200.292 193.336C200.814 194.283 199.977 197.387 199.546 198.697C199.12 200.01 192.482 199.64 192.482 199.64Z" fill="#F7BC4B"/>
<path d="M231.842 135.405C231.46 133.444 231.059 134.756 216.748 132.026C205.673 129.912 190.833 123.875 188.247 130.04C185.662 136.206 216.384 138.955 223.466 139.489C230.551 140.024 232.224 137.366 231.842 135.405Z" fill="#F7BC4B"/>
<path d="M190.995 142.305C190.995 142.305 185.183 139.091 185.896 134.765C186.618 130.374 197.146 129.298 202.292 128.761C193.029 125.122 181.918 128.527 181.064 131.309C180.211 134.092 180.127 155.256 180.081 161.879C180.035 168.504 179.518 172.466 179.245 177.487C178.968 182.507 179.411 180.646 179.641 182.252C179.871 183.857 180.782 186.403 179.594 192.753C178.406 199.103 180.729 196.745 181.724 197.348C182.72 197.952 182.934 199.236 186.825 199.558C190.717 199.879 192.481 199.646 192.481 199.646C192.481 199.646 199.12 200.013 199.548 198.703C199.977 197.393 200.817 194.289 200.295 193.342C200.013 192.83 194.975 187.09 190.309 181.636L190.686 183.007L190.712 188.249C190.712 188.249 188.846 183.695 188.186 182.016C187.719 180.826 186.832 178.323 186.35 176.959C184.138 174.303 182.513 172.244 182.346 171.717C182.073 170.864 182.271 139.396 185.223 141.355C188.664 143.638 190.995 142.305 190.995 142.305Z" fill="#CE9436"/>
<path d="M229.868 83.9087C228.399 83.8942 225.522 82.9521 223.688 88.4323C221.854 93.9125 224.897 107.404 227.809 106.589C230.721 105.775 230.664 98.4974 231.54 94.4224C232.417 90.3444 231.778 83.9283 229.868 83.9087Z" fill="#7A462F"/>
<path d="M229.868 83.9058C228.175 83.5801 227.469 84.9955 226.31 87.0341C224.491 90.2418 225.393 97.9626 228.285 97.5308C231.177 97.099 231.431 90.7509 232.221 88.3126C233.011 85.8743 232.187 84.3543 229.868 83.9058Z" fill="#A96443"/>
<path d="M239.18 100.398C239.18 100.398 237.915 96.7766 235.97 92.3105C234.025 87.8443 232.866 83.743 229.915 84.5581C226.964 85.3731 225.469 89.9817 225.036 93.5949C224.604 97.2081 226.11 100.842 228.663 104.532C230.711 107.491 232.757 116.545 235.617 120.574C239.189 125.608 242.301 128.683 245.825 126.203C249.349 123.723 247.531 116.837 245.111 112.104C242.692 107.37 239.18 100.398 239.18 100.398Z" fill="#A96443"/>
<path d="M227.445 97.6784C224.588 93.8591 226.107 88.557 226.107 88.557C226.107 88.557 225.186 89.964 224.753 93.5772C224.32 97.1904 225.827 100.825 228.379 104.514C230.428 107.473 232.757 116.542 235.615 120.571C235.615 120.571 243.994 119.497 241.494 118.637C239.114 117.82 237.688 118.452 237.08 117.315C235.893 115.105 231.994 105.714 231.994 105.714C231.994 105.714 229.709 100.709 227.445 97.6784Z" fill="#7A462F"/>
<path d="M244.258 119.088C244.258 119.088 242.215 118.193 236.806 119.606C231.398 121.02 233.887 122.663 223.902 126.987C218.787 129.2 221.987 133.834 228.818 132.984C235.65 132.131 241.215 130.809 244.79 127.361C248.365 123.911 248.722 121.749 244.258 119.088Z" fill="#A96443"/>
<path d="M234.587 123.185C236.083 121.967 238.538 120.102 239.236 119.309C239.777 118.694 239.168 118.886 236.802 119.504C231.394 120.918 233.89 122.664 223.904 126.987C218.786 129.2 231.927 125.349 234.587 123.185Z" fill="#7A462F"/>
<path d="M224.865 128.25C224.117 127.678 219.673 125.554 217.028 125.172C214.382 124.791 211.441 125.363 211.441 125.363L206.007 127.258C206.007 127.258 204.092 129.098 203.57 129.795C203.048 130.495 203.921 131.206 203.921 131.206C203.921 131.206 205.734 132.452 206.117 132.11C206.497 131.767 206.497 131.767 206.497 131.767C206.497 131.767 207.408 132.905 208.127 133.066C208.847 133.224 209.698 133.149 209.698 133.149C209.698 133.149 211.589 134.096 212.918 134.166C214.247 134.236 215.565 132.245 216.907 132.073C218.249 131.901 219.294 133.956 221.839 133.967C224.384 133.982 227.079 129.942 224.865 128.25Z" fill="#A96443"/>
<path d="M223.221 127.346C221.486 126.509 218.838 125.432 217.028 125.172C214.382 124.791 211.441 125.363 211.441 125.363L206.007 127.258C206.007 127.258 204.092 129.098 203.57 129.795C203.048 130.495 203.921 131.206 203.921 131.206C203.921 131.206 205.734 132.452 206.117 132.11C206.497 131.767 206.497 131.767 206.497 131.767C206.497 131.767 207.408 132.905 208.127 133.066C208.847 133.224 209.698 133.149 209.698 133.149L210.308 131.525L218.209 127.253C218.212 127.253 224.024 127.733 223.221 127.346Z" fill="#7A462F"/>
<path d="M117.572 172.548C117.572 172.548 119.222 177.963 120.361 179.254L121.756 176.542C121.753 176.542 120.183 173.698 117.572 172.548Z" fill="#992C29"/>
<path d="M118.256 174.863C118.256 174.863 117.21 179.259 117.558 180.849L119.857 180.231C119.854 180.231 119.835 177.414 118.256 174.863Z" fill="#992C29"/>
<path d="M60.9567 192.531C60.9567 192.531 58.7045 204.365 59.1052 207.223C59.5029 210.08 58.3399 213.625 57.0944 215.437C56.4035 216.557 58.4153 220.955 58.4153 220.955C58.4153 220.955 61.8268 222.146 65.2185 221.154C68.1844 220.286 67.5669 218.531 65.7684 217.592C63.9555 216.643 68.6771 209.218 68.6771 209.218C68.6771 209.218 72.6109 196.334 72.9267 194.374C73.2424 192.417 63.0774 186.155 60.9567 192.531Z" fill="#1D2538"/>
<path d="M114.453 175.31C111.502 175.777 96.6409 174.231 95.7031 168.378C95.0113 164.052 93.5231 159.209 93.3287 155.563C93.3287 155.563 91.8779 152.911 90.6446 149.713C89.406 146.5 90.0488 146.01 91.8284 146.966C93.5936 147.912 96.8435 151.321 96.8435 151.321C96.8435 151.321 101.351 148.425 107.4 148.208C113.266 147.998 111.802 149.928 113.852 152.752L115.302 155.3C115.302 155.3 119.665 153.211 122.493 153.034C125.278 152.86 126.171 154.051 127.186 157.183C128.235 160.416 128.275 160.742 127.502 162.567C126.725 164.401 124.127 167.78 121.326 170.241C121.336 170.236 117.361 174.849 114.453 175.31Z" fill="#1D2538"/>
<path d="M114.453 175.31C111.502 175.777 108.256 178.661 107.321 172.808C106.629 168.483 107.211 161.427 107.211 161.427C107.211 161.427 101.36 148.42 107.409 148.202C113.276 147.993 113.595 149.675 115.117 152.283L116.084 154.901C116.084 154.901 119.674 153.203 122.502 153.028C125.288 152.854 126.18 154.045 127.195 157.178C128.244 160.411 128.284 160.736 127.511 162.561C126.735 164.395 124.137 167.775 121.336 170.236C121.336 170.236 117.361 174.849 114.453 175.31Z" fill="#273252"/>
<path d="M126.142 154.313C127.135 155.764 124.962 157.228 123.96 155.773C122.953 154.31 119.994 153.63 121.769 153.076C122.996 152.698 125.147 152.856 126.142 154.313Z" fill="#121721"/>
<path d="M104.14 150.289C104.14 150.289 103.696 146.037 103.793 142.873C103.89 139.853 105.492 140.428 106.97 142.956C108.511 145.589 110.601 150.611 110.968 151.61C111.338 152.609 105.593 153.81 104.14 150.289Z" fill="#273252"/>
<path d="M105.746 143.56C105.314 140.509 105.849 141.445 107.327 143.969C108.866 146.596 108.729 147.098 109.099 148.1C109.465 149.099 106.131 146.276 105.746 143.56Z" fill="#1D2538"/>
<path d="M107.421 211.599C107.064 210.424 104.951 210.28 104.879 209.986C103.662 205.004 103.527 199.998 103.385 198.826C103.093 196.417 104.654 191.842 104.062 186.653C103.49 181.652 94.9106 186.001 95.4481 191.947C95.7586 195.381 97.5286 206.99 98.0395 210.144C98.1119 210.588 98.2782 211.013 98.5307 211.395L100.963 214.003C101.508 214.978 102.712 214.691 104.915 214.151C107.09 213.618 107.906 213.194 107.421 211.599Z" fill="#273252"/>
<path d="M122.526 218.465C122.401 215.428 118.679 215.301 118.679 215.301C118.482 214.892 117.793 214.101 117.74 213.694C117.327 210.605 117.873 203.545 117.807 202.178C117.669 199.335 118.397 190.786 118.212 184.235C118.025 177.655 109.756 182.826 109.375 189.323C109.105 193.948 112.074 212.539 112.348 214.326C112.348 214.326 116.263 220.582 118.332 220.482C120.377 220.383 122.604 220.338 122.526 218.465Z" fill="#273252"/>
<path d="M95.594 170.514C94.2277 173.2 95.0803 174.47 91.6529 175.514C83.8575 177.893 77.5303 178.096 68.7375 180.131C63.0011 181.458 58.8504 193.399 61.1137 196.888C63.38 200.377 73.1907 200.282 79.0925 204.576C85.2828 209.08 92.5842 204.367 96.6531 202.742C100.722 201.117 111.32 194.439 113.97 191.988C114.927 191.104 115.43 188.554 116.16 185.888C117.217 182.027 119.016 177.617 116.692 173.918C115.119 171.41 96.9603 167.83 95.594 170.514Z" fill="#1D2538"/>
<path d="M110.403 175.672L106.294 182.542C106.294 182.542 101.701 188.829 102.075 188.834L105.986 196.471C105.986 196.471 111.323 194.436 113.971 191.985C114.928 191.101 117.006 189.054 117.737 186.385C118.793 182.523 118.411 179.373 117.784 173.826L110.403 175.672Z" fill="#273252"/>
<path d="M95.6579 169.292C95.6579 169.292 95.0007 170.057 95.0222 171.697C95.0222 171.697 100.097 173.731 109.862 175.64C114.818 176.611 118.666 176.056 118.666 176.056L118.432 173.049C118.432 173.052 106.721 174.472 95.6579 169.292Z" fill="#992C29"/>
<path d="M70.0578 184.184C69.2434 182.928 67.9354 183.767 64.8809 177.784C61.8264 171.8 61.1371 162.192 65.5488 159.235C65.5488 159.235 60.9081 157.78 56.8867 166.641C52.7738 175.7 62.3045 186.558 63.1853 187.407C67.078 191.179 72.3735 187.759 70.0578 184.184Z" fill="#273252"/>
<path d="M70.5245 184.537C69.7045 183.271 66.7902 187.997 62.2779 178.87C59.9039 174.07 58.7987 162.292 65.5637 159.234C65.5637 159.234 58.3294 157.781 55.9325 167.299C52.832 179.601 62.2923 186.79 63.1786 187.648C67.1052 191.458 72.8624 188.143 70.5245 184.537Z" fill="#1D2538"/>
<path d="M73.5742 196.127C73.5742 196.127 76.7601 211.734 78.3674 214.143C79.9664 216.539 81.1091 220.095 80.6235 222.094C80.1374 224.102 83.8155 226.715 83.8155 226.715C83.8155 226.715 88.7642 226.413 89.5922 226.16C90.4172 225.907 92.1471 222.742 89.9764 222.502C87.7818 222.261 86.9817 212.766 86.9817 212.766C86.9817 212.766 86.9925 195.89 86.4863 194.012C85.98 192.138 72.9697 189.632 73.5742 196.127Z" fill="#1D2538"/>
<path d="M114.544 155.271C114.87 155.165 114.888 154.315 114.582 153.372C114.277 152.429 113.764 151.75 113.437 151.856C113.11 151.962 113.093 152.812 113.399 153.755C113.704 154.698 114.217 155.377 114.544 155.271Z" fill="#121721"/>
<path d="M124.037 166.335C124.037 166.335 119.721 166.108 119.561 169.541C119.55 169.804 119.675 170.059 119.888 170.214L122.831 172.334C122.831 172.334 128.598 179.424 129.528 180.201C130.457 180.978 134.138 183.19 136.83 179.615C139.242 176.414 138.153 170.595 135.646 169.855L124.037 166.335Z" fill="#F5894E"/>
<path d="M129.26 177.599C128.52 175.451 130.162 171.441 133.757 171.211C137.892 170.943 137.842 177.245 136.147 179.348C134.064 181.937 130.453 181.058 129.26 177.599Z" fill="#FFFCF3"/>
<path d="M129.527 175.594L131.419 177.269C131.419 177.269 131.16 176.95 131.353 175.448C131.48 174.46 132.355 173.425 134.287 172.694L132.442 172.052C132.442 172.052 130.13 172.233 129.527 175.594Z" fill="#F5894E"/>
<path d="M128.866 178.953C128.866 178.953 135.095 181.865 135.74 175.759C135.852 174.705 134.445 172.702 132.199 173.15C129.687 173.65 132.05 172.172 132.611 172.201C133.173 172.231 137.578 173.038 136.277 177.04C135.023 180.894 131.798 180.658 130.143 179.948C129.405 179.631 128.866 178.953 128.866 178.953Z" fill="#F5894E"/>
<path d="M125.274 166.643C125.274 166.643 121.137 165.79 121.241 171.28" stroke="#F7BC4B" stroke-miterlimit="10" stroke-linecap="round" stroke-linejoin="round"/>
<path d="M125.131 166.998C125.131 166.998 127.968 163.753 125.862 164.613C123.756 165.473 125.131 166.998 125.131 166.998Z" stroke="#F7BC4B" stroke-miterlimit="10"/>
<path d="M125.273 166.643C125.273 166.643 128.04 164.727 129.041 166.479C130.042 168.23 126.897 168.064 126.3 167.91C125.7 167.756 125.273 166.643 125.273 166.643Z" stroke="#F7BC4B" stroke-miterlimit="10"/>
<path d="M125.274 166.643C125.274 166.643 124.221 166.498 122.882 167.76C121.993 168.597 121.107 170.971 121.597 171.452" stroke="#F7BC4B" stroke-miterlimit="10" stroke-linecap="round" stroke-linejoin="round"/>
</svg>
