<svg width="478" height="680" viewBox="0 0 478 680" fill="none" xmlns="http://www.w3.org/2000/svg">
<path d="M172.785 112.586C123.778 93.3215 74.7714 53.1023 64.6322 49.0466C54.4929 44.9909 97.0779 19.3047 124.792 25.3883C152.506 31.4719 149.126 67.9733 149.126 76.0847C149.126 76.0847 155.886 65.2695 170.757 71.3531C185.628 77.4366 189.683 100.419 189.683 111.234C189.683 122.049 180.551 115.641 172.785 112.586Z" fill="#F3E7D9"/>
<path d="M532.723 329.357C532.723 329.357 438.454 283.791 395.247 258.653C352.041 233.514 344.97 205.232 341.827 190.307C338.684 175.382 341.043 162.025 378.747 180.878C378.747 180.878 370.109 165.169 383.459 148.669C396.816 132.169 428.241 148.669 443.166 169.096C458.091 189.523 458.875 193.45 458.875 193.45C458.875 193.45 469.873 175.382 486.373 180.878C502.873 186.373 507.584 230.371 495.011 243.728C495.011 243.728 509.152 240.585 528.004 259.437C546.857 278.289 559.43 294.005 553.927 301.076C548.425 308.146 533.5 308.146 516.216 297.148C516.216 297.148 552.352 330.141 552.352 334.86C552.359 339.571 532.723 329.357 532.723 329.357Z" fill="#F3E7D9"/>
<path d="M140.434 386.34C133.161 377.681 120.02 361.999 120.02 361.999C120.02 361.999 100.188 381.115 93.5294 387.496C86.4522 394.276 72.5546 404.523 78.9897 405.294C85.4653 406.065 92.9413 404.726 94.9557 404.145C94.9557 404.145 95.8277 423.998 122.528 419.259C148.241 414.69 148.349 395.763 140.434 386.34Z" fill="#1D2538"/>
<path d="M94.3539 400.021C94.3539 400.021 46.1991 445.52 47.6659 449.826C49.1801 454.273 83.6671 462.405 105.561 436.793C123.9 415.345 125.292 391.518 94.3539 400.021Z" fill="#1D2538"/>
<path d="M63.6116 452.59C61.0159 454.071 7.99422 508.066 8.42683 516.272C8.88648 524.883 35.7556 536.753 59.8668 519.665C81.8218 504.111 98.2136 432.879 63.6116 452.59Z" fill="#1D2538"/>
<path d="M420.176 387.145L487.278 438.781C487.278 438.781 481.62 443.262 465.999 439.72L379.078 459.471L420.176 387.145Z" fill="#1D2538"/>
<path d="M461.795 431.751L514.032 476.445C514.032 476.445 490.834 495.25 468.108 475.12C461.612 469.368 382.728 475.377 382.728 475.377L417.743 428.114C417.743 428.114 450.966 429.358 461.795 431.751Z" fill="#1D2538"/>
<path d="M496.769 478.75C499.134 479.744 519.825 494.371 543.125 514.217C543.125 514.217 515.716 535.212 497.052 527.263C478.376 519.307 462.613 464.372 496.769 478.75Z" fill="#1D2538"/>
<path d="M337.222 332.196L380.692 382.737C380.692 382.737 375.42 386.563 363.827 383.393L291.473 394.296L337.222 332.196Z" fill="#1D2538"/>
<path d="M356.337 374.301L394.13 409.938C394.13 409.938 341.527 486.084 327.467 468.549C323.446 463.541 291.358 408.045 291.358 408.045L327.643 367.535C327.657 367.528 348.3 372.159 356.337 374.301Z" fill="#1D2538"/>
<path d="M380.158 411.796C381.828 412.675 395.32 425.437 409.887 442.735C409.887 442.735 384.464 460.641 371.317 453.645C358.163 446.649 356.067 399.143 380.158 411.796Z" fill="#1D2538"/>
<path d="M321.832 241.355C321.832 241.355 335.351 165.649 268.432 149.426C201.513 133.203 179.558 184.866 175.826 196.066C168.391 218.373 168.391 231.892 168.391 231.892L321.832 241.355Z" fill="#C94039"/>
<path d="M319.439 233.379C319.439 233.379 298.978 203.827 249.911 191.93C200.843 180.033 192.096 191.213 190.008 193.532C185.195 198.879 185.195 217.866 185.195 217.866C185.195 217.866 220.608 210.458 256.596 214.392C303.128 219.475 319.439 233.379 319.439 233.379Z" fill="#EE5D4F"/>
<path d="M168.222 232.324C167.553 242.457 189.704 250.629 248.153 253.968C306.603 257.314 321.832 246.763 321.832 241.605C322.501 231.473 287.92 221.104 255.589 217.704C217.059 213.641 168.891 222.192 168.222 232.324Z" fill="#1D2538"/>
<path d="M178.794 224.375L179.267 224.2C179.26 224.092 177.732 213.797 186.202 187.719C194.827 161.174 224.441 148.804 224.731 148.676L223.528 149L222.825 149.203C222.535 149.331 194.314 162.201 185.824 187.739C177.401 213.074 178.787 224.267 178.794 224.375Z" fill="#1D2538"/>
<path d="M268.804 203.61C254.132 203.61 242.239 191.717 242.239 177.045C242.239 162.374 254.132 150.48 268.804 150.48C283.475 150.48 295.369 162.374 295.369 177.045C295.369 191.717 283.475 203.61 268.804 203.61Z" fill="#EE5D4F"/>
<path d="M259.983 201.474C244.117 201.474 231.255 188.612 231.255 172.746C231.255 156.88 244.117 144.018 259.983 144.018C275.849 144.018 288.711 156.88 288.711 172.746C288.711 188.612 275.849 201.474 259.983 201.474Z" fill="#34283A"/>
<path d="M263.362 198.094C247.496 198.094 234.634 185.232 234.634 169.366C234.634 153.5 247.496 140.638 263.362 140.638C279.228 140.638 292.09 153.5 292.09 169.366C292.09 185.232 279.228 198.094 263.362 198.094Z" fill="#1689CB"/>
<path d="M265.052 192.011C251.613 192.011 240.718 181.116 240.718 167.676C240.718 154.237 251.613 143.342 265.052 143.342C278.492 143.342 289.386 154.237 289.386 167.676C289.386 181.116 278.492 192.011 265.052 192.011Z" fill="#29ABE2"/>
<path d="M265.728 188.631C253.782 188.631 244.098 178.947 244.098 167C244.098 155.054 253.782 145.37 265.728 145.37C277.674 145.37 287.359 155.054 287.359 167C287.359 178.947 277.674 188.631 265.728 188.631Z" fill="#665070"/>
<path d="M263.464 187.671C253.198 187.671 244.875 179.349 244.875 169.082C244.875 158.816 253.198 150.494 263.464 150.494C273.73 150.494 282.052 158.816 282.052 169.082C282.052 179.349 273.73 187.671 263.464 187.671Z" fill="#FEED7F"/>
<path d="M248.958 177.775C255.913 189.219 269.507 184.433 269.507 184.433L248.309 160.565C248.309 160.565 242.002 166.331 248.958 177.775Z" fill="#F7BC4B"/>
<path d="M253.655 132.561L266.491 1" stroke="#F7BC4B" stroke-miterlimit="10"/>
<path d="M314.626 148.608L407.685 31.4856" stroke="#F7BC4B" stroke-miterlimit="10"/>
<path d="M277.726 130.959L313.024 55.5493" stroke="#F7BC4B" stroke-miterlimit="10"/>
<path d="M345.112 129.357C345.112 129.357 327.463 79.6199 266.492 82.8239" stroke="#F7BC4B" stroke-miterlimit="10"/>
<path d="M448.512 118.481L441.293 148.966L446.903 143.349L452.521 117.676L448.512 118.481Z" fill="#3E4C6F"/>
<path d="M437.812 120.975L430.593 151.46L436.21 145.843L441.827 120.177L437.812 120.975Z" fill="#3E4C6F"/>
<path d="M438.974 119.731L445.389 142.193L440.576 149.412L433.357 128.552L434.959 155.029L422.927 152.623L429.342 120.529L438.974 119.731Z" fill="#1D2538"/>
<path d="M443.145 246.08C452.169 239.794 454.954 172.645 454.4 153.563C453.866 135.352 454.076 142.491 454.076 142.491C454.076 142.491 455.008 138.563 446.91 138.563C438.813 138.563 438.819 138.793 437.799 141.335C436.771 143.89 436.095 148.114 435.047 149.764C433.993 151.427 432.141 152.021 430.458 151.981C428.775 151.94 431.255 149.054 426.226 149.054C421.197 149.054 419.359 148.108 417.946 154.049C416.506 160.072 405.975 211.519 405.826 216.805C405.671 222.158 414.194 223.754 421.13 225.261C425.658 226.248 433.107 236.461 434.175 239.402C435.23 242.335 439.306 248.757 443.145 246.08Z" fill="#1D2538"/>
<path d="M425.334 220.009C425.334 220.009 423.995 239.794 411.963 250.224C399.931 260.654 389.366 264.399 389.366 264.399" stroke="#4B3355" stroke-width="3" stroke-miterlimit="10"/>
<path d="M427.74 220.009C427.74 220.009 426.936 241.666 414.904 252.096C402.872 262.526 391.773 264.399 391.773 264.399" stroke="#665070" stroke-width="3" stroke-miterlimit="10"/>
<path d="M415.559 209.139C415.559 209.139 412.288 228.627 400.202 238.996C388.116 249.359 376.401 255.841 376.401 255.841" stroke="#665070" stroke-width="3" stroke-miterlimit="10"/>
<path d="M419.034 209.403C419.034 209.403 415.762 228.891 403.676 239.26C391.59 249.622 379.876 256.105 379.876 256.105" stroke="#4B3355" stroke-width="3" stroke-miterlimit="10"/>
<path d="M424.915 212.884C424.915 212.884 421.643 232.372 409.557 242.741C397.471 253.103 385.757 259.586 385.757 259.586" stroke="#4B3355" stroke-width="3" stroke-miterlimit="10"/>
<path d="M432.776 131.499C432.776 131.499 421.042 136.995 417.932 135.17C414.823 133.345 411.7 130.12 409.429 125.443C407.158 120.765 404.988 117.825 406.948 115.905C408.908 113.992 411.031 112.032 411.031 112.032C411.031 112.032 408.983 113.62 407.151 111.288C405.319 108.956 399.479 98.0127 400.479 95.1196C401.48 92.2265 403.751 88.1235 404.643 86.8392C405.535 85.5549 406.286 86.4134 406.286 86.4134C406.286 86.4134 406.252 82.9119 407.881 81.0801C409.51 79.2483 412.552 78.1059 412.552 78.1059C412.552 78.1059 412.443 75.6725 414.323 74.1313C416.202 72.5901 417.006 72.6442 420.521 71.637C424.036 70.6299 426.301 70.569 426.301 70.569C426.301 70.569 428.998 68.4601 430.478 68.0748C431.958 67.6895 439.137 66.2564 442.327 68.4127C445.525 70.5623 451.324 78.0113 453.656 84.9465C455.988 91.8818 458.807 110.112 455.833 117.561C452.859 125.017 440.306 130.06 432.776 131.499Z" fill="#992C29"/>
<path d="M422.988 121.428C422.988 121.428 413.403 130.425 411.443 126.646C409.807 123.483 407.786 119.637 407.786 119.637C407.786 119.637 407.171 117.933 407.509 116.629C407.847 115.324 409.733 114.121 409.733 114.121C408.232 112.215 402.629 104.367 403.453 101.994C404.271 99.6216 406.13 96.2621 406.86 95.2144C407.59 94.1666 408.205 94.8629 408.205 94.8629C408.205 94.8629 408.178 91.9968 409.51 90.4962C410.841 88.9956 413.336 88.0628 413.336 88.0628C413.336 88.0628 413.248 86.0755 414.789 84.8114C416.33 83.5474 416.986 83.5947 419.865 82.7701C422.745 81.9454 424.597 81.8981 424.597 81.8981C424.597 81.8981 426.807 80.1744 428.017 79.8567C429.227 79.539 435.108 78.3696 437.724 80.1339C440.34 81.8981 445.092 87.9952 447.005 93.6799C448.918 99.3647 451.027 106.651 446.43 111.343C442.882 114.972 433.662 113.506 422.988 121.428Z" fill="#C94039"/>
<path d="M428.748 69.0144C428.748 69.0144 424.455 72.7659 424.388 75.0236C424.32 77.2813 427.93 89.6377 429.106 93.1527C430.282 96.6676 430.721 97.3368 433.02 98.0601C435.318 98.7833 439.171 97.9046 439.171 97.9046C439.171 97.9046 437.887 99.0267 434.764 99.1822C431.641 99.3376 429.863 97.5599 429.086 97.107C428.308 96.6541 427.342 92.9499 426.416 89.3741C425.483 85.7983 422.894 76.8622 422.509 75.3819C422.123 73.9015 423.854 70.9476 428.748 69.0144Z" fill="#121721"/>
<path d="M412.694 77.9844C412.694 77.9844 413.032 82.9864 415.871 92.8689C416.797 96.0931 417.581 100.94 422.306 100.061C425.307 99.1282 430.647 97.3639 430.647 97.3639L430.89 97.9588C430.89 97.9588 426.889 99.7906 424.212 100.622C421.528 101.453 419.217 101.663 417.777 100.189C416.337 98.7158 413.674 89.6716 412.89 85.136C412.106 80.5936 410.896 79.5053 412.694 77.9844Z" fill="#121721"/>
<path d="M406.279 86.4066C406.279 86.4066 409.28 97.9181 410.308 101.338C411.329 104.759 413.566 105.583 417.108 107.557L415.999 107.672C415.999 107.672 410.517 105.327 409.679 102.123C408.841 98.9185 405.495 86.1633 405.495 86.1633C405.495 86.1633 405.637 86.1024 405.901 86.1633C406.158 86.2241 406.279 86.4066 406.279 86.4066Z" fill="#121721"/>
<path d="M409.287 114.114C409.287 114.114 416.087 107.868 419.338 105.698C422.59 103.529 425.672 105.759 426.591 107.76C427.504 109.761 430.208 112.019 428.099 114.019C425.997 116.02 421.522 117.967 419.251 119.826C419.251 119.826 419.453 119.981 420.068 121.549C420.684 123.118 421.664 123.435 421.664 123.435L420.163 119.833C420.163 119.833 429.471 114.783 429.64 112.897C429.809 111.011 427.457 107.544 426.105 105.394C424.753 103.245 422.036 103.427 418.473 105.408C414.911 107.382 409.287 114.114 409.287 114.114Z" fill="#121721"/>
<path d="M414.904 264.798C403.238 264.798 393.781 255.34 393.781 243.674C393.781 232.008 403.238 222.551 414.904 222.551C426.57 222.551 436.028 232.008 436.028 243.674C436.028 255.34 426.57 264.798 414.904 264.798Z" fill="#992C29"/>
<path d="M419.183 253.029C414.901 253.029 411.43 249.558 411.43 245.276C411.43 240.994 414.901 237.523 419.183 237.523C423.465 237.523 426.936 240.994 426.936 245.276C426.936 249.558 423.465 253.029 419.183 253.029Z" fill="#4B3355"/>
<path d="M433.357 218.136C433.357 218.136 432.019 237.922 419.987 248.352C407.955 258.781 397.39 262.526 397.39 262.526" stroke="#856792" stroke-width="3" stroke-miterlimit="10"/>
<path d="M439.238 217.068C439.238 217.068 437.9 236.853 425.868 247.283C413.836 257.713 403.271 261.458 403.271 261.458" stroke="#BB83C3" stroke-width="3" stroke-miterlimit="10"/>
<path d="M437.366 222.28C437.366 222.28 434.689 248.352 422.657 258.782C410.625 269.212 400.06 272.956 400.06 272.956" stroke="#665070" stroke-width="3" stroke-miterlimit="10"/>
<path d="M320.155 273.179C326.293 267.481 322.819 268.644 353.527 253.746C372.305 244.634 386.351 239.929 392.753 238.003C395.139 237.286 399.296 238.516 399.857 241.707C401.128 248.885 402.25 253.326 404.311 257.159C406.339 260.917 408.185 262.344 411.368 260.661C414.43 259.038 418.331 254.665 419.48 259.065C420.609 263.412 420.798 273.632 417.013 276.153C408.678 281.716 360.199 314.034 339.062 319.185C314.964 325.059 313.828 279.06 320.155 273.179Z" fill="#C94039"/>
<path d="M344.456 276.917C348.843 273.017 342.57 274.389 364.782 263.952C378.551 257.484 388.934 254.05 393.692 252.63C395.47 252.096 398.58 252.894 398.999 255.091C399.952 260.052 400.79 263.128 402.345 265.771C403.872 268.373 405.265 269.353 407.671 268.143C409.99 266.981 412.944 263.878 413.822 266.947C414.694 269.989 414.85 277.167 411.977 278.965C405.65 282.92 369.324 305.172 353.919 309.052C345.639 311.154 339.947 280.926 344.456 276.917Z" fill="#EE5D4F"/>
<path d="M420.014 267.832L331.343 314.818" stroke="#1D2538" stroke-width="0.5" stroke-miterlimit="10"/>
<path d="M315.465 266.629C315.465 266.629 329.464 259.701 331.424 264.736C332.512 277.417 339.454 301.907 345.903 318.677C344.037 321.131 334.885 328.283 327.416 325.842C319.595 323.294 315.465 266.629 315.465 266.629Z" fill="#F7BC4B"/>
<path d="M330.525 299.257C333.256 297.541 334.648 294.309 334.06 291.132C332.181 280.939 329.829 260.654 331.424 264.743C332.512 277.424 339.454 301.914 345.903 318.684C344.037 321.138 334.885 328.29 327.416 325.849C323.373 324.531 320.866 301.035 320.866 301.035C325.631 300.886 328.254 300.684 330.525 299.257Z" fill="#FEED7F"/>
<path d="M444.841 244.911C455.156 237.901 459.009 164.939 457.184 146.479C455.521 129.654 456.163 136.157 456.163 136.157C456.163 136.157 456.9 132.561 448.471 132.561C440.096 132.561 440.109 132.77 439.156 135.075C438.19 137.407 437.656 141.294 436.622 142.822C435.581 144.363 433.668 144.904 431.91 144.863C430.159 144.816 432.647 142.153 427.435 142.132C422.244 142.112 420.338 141.24 418.972 146.722C417.566 152.366 407.812 201.366 405.805 216.088C408.813 214.939 415.64 216.027 424.387 220.137C433.276 224.315 439.082 230.669 440.731 236.353C442.414 242.126 440.434 247.905 444.841 244.911Z" fill="#C94039"/>
<path d="M414.37 169.197L416.418 158.409C416.418 158.409 438.88 151.636 457.78 160.903L457.421 172.314C457.421 172.32 435.047 161.715 414.37 169.197Z" fill="#F7BC4B"/>
<path d="M457.158 177.62L457.293 173.875C457.293 173.875 445.383 169.448 435.5 168.663C423.732 167.731 413.843 171.469 413.843 171.469L413.174 175.349C413.174 175.349 421.515 171.029 435.291 172.003C441.543 172.449 448.925 174.402 457.158 177.62Z" fill="#F7BC4B"/>
<path d="M446.363 241.781C452.074 225.085 454.859 185.603 454.859 185.603C454.859 185.603 455.522 182.358 447.924 182.358C440.374 182.358 425.28 190.564 421.319 195.134C413.741 203.867 410.53 212.783 411.957 213.493C413.383 214.203 420.028 215.73 427.916 219.434C435.933 223.199 441.171 228.932 442.658 234.062C444.173 239.267 444.808 246.337 446.363 241.781Z" fill="#EE5D4F"/>
<path d="M449.756 132.561C453.798 140.057 453.764 175.727 449.397 202.623C446.072 223.125 439.772 233.913 439.772 233.913" stroke="#1D2538" stroke-width="0.5" stroke-miterlimit="10"/>
<path d="M320.48 266.271C320.48 266.271 305.001 242.741 254.19 238.996C194.652 232.933 166.363 254.874 166.363 254.874L115.673 537.084L348.62 530.237L320.48 266.271Z" fill="#992C29"/>
<path d="M329.869 353.982C329.869 353.982 292.969 329.114 240.819 329.114C188.669 329.114 148.653 353.448 148.653 353.448L141.61 392.133C141.61 392.133 187.872 368.421 237.608 367.623C287.345 366.825 334.236 394.276 334.236 394.276L329.869 353.982Z" fill="#F7BC4B"/>
<path d="M335.527 407.592C335.527 407.592 295.22 385.4 239.177 385.4C183.133 385.4 139.203 407.011 139.203 407.011L132.248 442.579C132.248 442.579 196.071 415.305 236.716 415.663C277.361 416.021 339.583 442.796 339.583 442.796L335.527 407.592Z" fill="#F7BC4B"/>
<path d="M315.005 288.192C315.005 288.192 305.163 276.721 264.89 273.753C211.409 283.379 137.602 465.751 137.602 465.751C137.602 465.751 181.457 447.034 237.615 446.229C293.774 445.425 337.629 474.309 337.629 474.309L315.005 288.192Z" fill="#EE5D4F"/>
<path d="M169.669 395.594C169.669 395.594 165.417 403.976 160.868 413.479C157.089 421.375 153.155 430.054 150.83 435.211C241.36 383.934 333.445 440.612 333.445 440.612L329.133 404.557C329.133 404.557 288.967 385.617 237.433 385.894C203.919 386.07 183.952 391.592 169.669 395.594Z" fill="#FEED7F"/>
<path d="M322.474 349.69L327.551 390.795C327.551 390.795 305.265 374.572 257.002 370.428C208.732 366.285 178.875 377.783 178.875 377.783C178.875 377.783 190.616 354.787 204.723 332.859C204.723 332.852 256.332 316.541 322.474 349.69Z" fill="#FEED7F"/>
<path d="M162.206 274.828C162.206 274.828 192.692 247.283 250.54 251.907C271.704 253.597 296.085 260.207 321.231 275.369" stroke="#1D2538" stroke-width="0.5" stroke-miterlimit="10"/>
<path d="M297.599 263.506L300.634 328.708" stroke="#1D2538" stroke-width="0.5" stroke-miterlimit="10"/>
<path d="M328.862 346.013L328.997 346.128L328.957 345.648C328.957 345.648 323.083 339.909 311.476 333.683C300.763 327.944 282.904 320.664 258.651 318.583C204.426 313.918 160.638 329.513 150.681 342.207L150.552 342.917L150.755 342.667C160.266 329.986 204.149 314.236 258.624 318.914C282.823 320.996 300.641 328.249 311.321 333.974C322.88 340.179 328.801 345.952 328.862 346.013Z" fill="#1D2538"/>
<path d="M138.67 454.26C138.67 454.26 183.147 420.503 242.421 425.376C288.143 429.135 320.507 440.619 335.683 452.671" stroke="#1D2538" stroke-width="0.5" stroke-miterlimit="10"/>
<path d="M239.575 251.474L239.217 283.92C239.217 283.92 211.003 284.325 199.998 286.772C183.951 290.334 180.389 292.477 180.389 292.477L183.242 262.168C183.242 262.168 209.604 250.494 239.575 251.474Z" stroke="#1D2538" stroke-width="0.5" stroke-miterlimit="10"/>
<path d="M181.816 276.789C181.816 276.789 168.979 280.709 164.7 284.63" stroke="#1D2538" stroke-width="0.5" stroke-miterlimit="10"/>
<path d="M239.217 276.788C239.217 276.788 273.089 274.652 298.404 287.482" stroke="#1D2538" stroke-width="0.5" stroke-miterlimit="10"/>
<path d="M180.389 292.477L178.158 326.924" stroke="#1D2538" stroke-width="0.5" stroke-miterlimit="10"/>
<path d="M40.2639 118.48L47.4831 148.966L41.8659 143.349L36.2555 117.676L40.2639 118.48Z" fill="#3E4C6F"/>
<path d="M50.9575 120.975L58.1834 151.46L52.5662 145.843L46.9491 120.177L50.9575 120.975Z" fill="#3E4C6F"/>
<path d="M49.8017 119.731L43.3869 142.193L48.1996 149.413L55.4188 128.553L53.81 155.03L65.8488 152.623L59.4272 120.529L49.8017 119.731Z" fill="#1D2538"/>
<path d="M65.5581 220.63C68.9041 219.765 71.0265 217.007 70.8237 213.952C69.9518 200.703 68.0794 167.717 67.9037 165.52C67.6941 162.837 66.4504 160.214 62.273 159.477C58.1226 158.747 52.9921 158.747 52.4514 156.577C51.9241 154.448 52.5122 150.913 48.9229 150.656C45.3404 150.399 40.4397 149.561 38.4997 151.339C35.8635 153.752 24.9739 199.419 23.622 220.461C22.0335 245.201 41.9403 257.152 43.4747 254.867C44.9821 252.617 38.3172 247.331 44.1574 231.797C47.571 222.706 59.8395 222.111 65.5581 220.63Z" fill="#1D2538"/>
<path d="M44.0093 210.917C44.0093 210.917 45.3477 230.702 57.3797 241.132C69.4116 251.562 79.9767 255.307 79.9767 255.307" stroke="#4B3355" stroke-width="3" stroke-miterlimit="10"/>
<path d="M41.6026 210.917C41.6026 210.917 42.4069 232.574 54.4389 243.004C66.4708 253.434 77.57 255.307 77.57 255.307" stroke="#665070" stroke-width="3" stroke-miterlimit="10"/>
<path d="M56.595 197.236C56.595 197.236 59.8666 216.723 71.9527 227.092C84.0387 237.455 95.7529 243.937 95.7529 243.937" stroke="#665070" stroke-width="3" stroke-miterlimit="10"/>
<path d="M53.114 197.506C53.114 197.506 56.3856 216.994 68.4716 227.363C80.5576 237.725 92.2719 244.208 92.2719 244.208" stroke="#4B3355" stroke-width="3" stroke-miterlimit="10"/>
<path d="M44.4281 203.792C44.4281 203.792 47.6998 223.28 59.7858 233.649C71.8718 244.011 83.5861 250.494 83.5861 250.494" stroke="#4B3355" stroke-width="3" stroke-miterlimit="10"/>
<path d="M60.5559 135.846C60.5559 135.846 72.5406 140.517 75.4945 138.495C78.4484 136.474 81.3145 133.068 83.2409 128.289C85.1674 123.503 87.1141 120.441 85.0389 118.683C82.9705 116.926 80.7331 115.135 80.7331 115.135C80.7331 115.135 82.8691 116.561 84.5252 114.127C86.1813 111.694 91.2036 100.46 90.0139 97.6679C88.8243 94.8695 86.2962 90.9692 85.3228 89.7593C84.3495 88.5493 83.6667 89.4483 83.6667 89.4483C83.6667 89.4483 83.4572 85.9807 81.72 84.2841C79.9828 82.5874 76.8937 81.6681 76.8937 81.6681C76.8937 81.6681 76.8329 79.255 74.8659 77.8558C72.8989 76.4565 72.108 76.5647 68.5592 75.8144C65.0105 75.0641 62.7663 75.1587 62.7663 75.1587C62.7663 75.1587 59.9476 73.2593 58.4605 72.9821C56.9666 72.705 49.7677 71.779 46.753 74.1313C43.7383 76.4836 38.5132 84.2435 36.6813 91.2734C34.8495 98.3033 33.3151 116.534 36.7759 123.699C40.2301 130.857 53.0055 134.947 60.5559 135.846Z" fill="#992C29"/>
<path d="M67.6198 127.2C67.6198 127.2 76.245 132.101 78.3404 131.621C80.4359 131.141 81.8013 130.215 83.3019 126.47C84.8025 122.725 86.3302 120.332 84.7079 118.953C83.0856 117.574 83.0045 117.291 84.3023 115.391C85.6001 113.485 89.5274 104.698 88.5946 102.514C87.6618 100.324 85.688 97.2757 84.9242 96.3226C84.1604 95.3695 83.6264 96.0792 83.6264 96.0792C83.6264 96.0792 83.4641 93.3686 82.1055 92.037C80.7468 90.7054 78.3337 89.9889 78.3337 89.9889C78.3337 89.9889 78.2863 88.103 76.7452 87.0079C75.204 85.9129 74.5889 86.0008 71.8107 85.4127C69.0393 84.8246 67.2818 84.899 67.2818 84.899C67.2818 84.899 65.0782 83.4119 63.9156 83.1956C62.753 82.9793 57.1155 82.256 54.7564 84.0946C52.3974 85.9332 48.3078 92.01 46.8748 97.5055C45.4418 103.008 44.509 108.517 47.2128 114.12C49.9166 119.724 57.7644 118.379 67.6198 127.2Z" fill="#C94039"/>
<path d="M60.2316 73.7795C60.2316 73.7795 64.7335 77.1931 64.9633 79.4237C65.1931 81.6544 62.4623 94.1325 61.5362 97.688C60.6102 101.243 60.2249 101.946 58.001 102.812C55.7771 103.677 51.9039 103.082 51.9039 103.082C51.9039 103.082 53.2558 104.11 56.3517 104.042C59.4475 103.981 61.0901 102.102 61.8269 101.595C62.5637 101.088 63.2666 97.3635 63.9358 93.7607C64.6118 90.1579 66.5586 81.1339 66.8425 79.6468C67.1264 78.1597 65.2134 75.3545 60.2316 73.7795Z" fill="#121721"/>
<path d="M76.7382 81.5464C76.7382 81.5464 76.7517 86.5214 74.6225 96.4985C73.9263 99.7565 73.4869 104.603 68.7485 104.056C65.7134 103.339 60.3125 101.96 60.3125 101.96L60.1165 102.569C60.1165 102.569 64.1993 104.103 66.9098 104.745C69.6204 105.38 71.9254 105.428 73.2435 103.873C74.5616 102.318 76.576 93.1795 77.0424 88.6371C77.502 84.088 78.6241 82.9253 76.7382 81.5464Z" fill="#121721"/>
<path d="M83.667 89.4417C83.667 89.4417 81.4837 101.041 80.7131 104.495C79.9425 107.949 77.7862 108.916 74.4132 111.113L75.5218 111.147C75.5218 111.147 80.7875 108.449 81.3891 105.218C81.9974 101.987 84.4308 89.1375 84.4308 89.1375C84.4308 89.1375 84.2889 89.0835 84.0321 89.1646C83.7752 89.2524 83.667 89.4417 83.667 89.4417Z" fill="#121721"/>
<path d="M82.5989 117.068C82.5989 117.068 75.4405 111.356 72.0675 109.436C68.6945 107.517 65.8015 109.936 65.0309 111.978C64.2603 114.019 63.3613 114.945 65.5716 117.548C67.782 120.15 72.3649 124.355 72.3649 124.355C72.3649 124.355 68.289 126.518 66.5518 128.545C67.1736 126.213 70.3979 123.442 70.3979 123.442C70.3979 123.442 63.3342 117.23 63.0368 115.371C62.7394 113.512 64.1589 111.816 65.3486 109.592C66.5382 107.368 69.242 107.361 72.9057 109.078C76.5694 110.795 82.5989 117.068 82.5989 117.068Z" fill="#121721"/>
<path d="M61.2997 260.207C49.6335 260.207 40.1762 250.75 40.1762 239.084C40.1762 227.418 49.6335 217.96 61.2997 217.96C72.9659 217.96 82.4232 227.418 82.4232 239.084C82.4232 250.75 72.9659 260.207 61.2997 260.207Z" fill="#992C29"/>
<path d="M58.0888 246.303C54.2473 246.303 51.1332 243.189 51.1332 239.347C51.1332 235.506 54.2473 232.392 58.0888 232.392C61.9302 232.392 65.0443 235.506 65.0443 239.347C65.0443 243.189 61.9302 246.303 58.0888 246.303Z" fill="#4B3355"/>
<path d="M41.2913 213.499C41.2913 213.499 42.6298 233.284 54.6617 243.714C66.6937 254.144 77.2588 257.889 77.2588 257.889" stroke="#856792" stroke-width="3" stroke-miterlimit="10"/>
<path d="M35.4039 212.431C35.4039 212.431 36.7423 232.216 48.7743 242.646C60.8062 253.076 71.3713 256.821 71.3713 256.821" stroke="#BB83C3" stroke-width="3" stroke-miterlimit="10"/>
<path d="M38.6148 223.929C38.6148 223.929 39.9532 243.714 51.9851 254.144C64.0171 264.574 74.5822 268.319 74.5822 268.319" stroke="#665070" stroke-width="3" stroke-miterlimit="10"/>
<path d="M164.193 253.955C164.193 253.955 100.201 233.068 91.3324 230.527C82.8154 228.08 79.3545 229.479 78.3068 236.63C77.2726 243.674 73.7644 247.033 67.2685 247.844C61.0025 248.629 59.2923 248.405 58.008 248.662C56.7237 248.919 55.9193 251.65 55.8382 258.105C55.7638 264.297 53.6684 265.325 67.0995 273.625C81.4095 282.467 140.447 308.491 140.447 308.491C140.447 308.491 157.887 299.251 163.389 286.036C169.121 272.287 164.193 253.955 164.193 253.955Z" fill="#C94039"/>
<path d="M118.262 270.61C103.614 265.69 85.0663 257.071 79.9425 257.659C74.9811 258.227 68.3905 260.147 64.1928 260.039C60.0222 259.937 58.8596 257.97 58.7852 262.972C58.7176 267.778 63.2262 268.799 73.7711 275.308C84.9784 282.223 136.425 303.469 136.425 303.469C136.425 303.469 144.057 295.093 145.125 284.718C145.706 278.979 133.154 275.613 118.262 270.61Z" fill="#EE5D4F"/>
<path d="M138.615 292.424C138.541 293.64 139.426 294.674 140.602 294.735C141.778 294.796 142.799 293.85 142.88 292.633C142.961 291.41 142.069 290.369 140.893 290.315C139.71 290.254 138.696 291.2 138.615 292.424Z" fill="#3E4C6F"/>
<path d="M149.031 300.832L55.919 261.458" stroke="#1D2538" stroke-width="0.5" stroke-miterlimit="10"/>
<path d="M159.299 251.332C159.299 251.332 170.27 253.326 172.413 255.861C174.569 258.409 171.581 281.453 164.916 294.904C158.535 307.774 151.532 313.716 144.867 310.782C141.609 309.343 138.311 307.599 138.311 307.599C138.311 307.599 145.124 300.028 151.566 280.831C158.657 259.68 159.299 251.332 159.299 251.332Z" fill="#FEED7F"/>
<path d="M159.299 251.332C159.299 251.332 170.27 253.326 172.413 255.861C174.569 258.409 167.012 281.811 167.012 281.811C167.012 281.811 164.173 285.704 151.566 280.831C158.657 259.68 159.299 251.332 159.299 251.332Z" fill="#F7BC4B"/>
<path d="M61.2999 211.714C67.5389 211.714 70.4793 216.23 70.4793 216.23C70.4793 216.23 71.0809 216.027 70.6821 211.836C69.2558 194.255 67.9242 155.664 67.7822 153.812C67.5524 150.811 66.2073 147.877 61.6784 147.053C57.1833 146.235 51.6202 146.235 51.0389 143.808C50.4644 141.429 51.0997 137.468 47.213 137.184C43.333 136.9 38.0201 135.96 35.9179 137.948C33.0586 140.652 21.2632 191.727 19.7964 215.27C18.0727 242.943 40.2237 256.963 41.8798 254.408C43.5156 251.886 33.0383 244.796 39.3652 227.417C43.0762 217.244 55.0608 211.714 61.2999 211.714Z" fill="#C94039"/>
<path d="M66.6937 182.304C66.6937 182.304 53.8573 183.906 47.9765 180.702C42.0958 177.491 48.3078 152.555 48.3078 152.555L65.7541 156.232L66.6937 182.304Z" stroke="#1D2538" stroke-width="0.5" stroke-miterlimit="10"/>
<path d="M59.3597 209.781C66.7817 210.106 68.2485 210.768 67.897 207.084C67.2752 193.984 31.2604 188.279 28.4957 188.367C25.0754 188.475 21.3645 202.272 22.4325 219.387C23.5005 236.502 32.8489 250.568 34.2008 234.359C34.9173 225.801 42.4069 209.045 59.3597 209.781Z" fill="#EE5D4F"/>
<path d="M42.5826 136.664C41.5754 139.611 21.0129 201.555 32.2405 248.622" stroke="#1D2538" stroke-width="0.5" stroke-miterlimit="10"/>
<path d="M148.619 212.032C151.789 215.196 159.042 220.441 155.453 223.875C152.675 226.538 149.207 223.706 143.32 217.893C139.534 214.155 145.449 208.869 148.619 212.032Z" fill="#CC6D3D"/>
<path d="M151.188 220.042L149.356 223.152L144.138 217.839L151.188 220.042Z" fill="#F5894E"/>
<path d="M137.709 206.05C137.709 206.05 140.846 203.157 144.462 206.997C148.538 211.329 148.734 211.654 148.734 211.654L143.327 217.893C143.327 217.893 136.276 207.22 137.709 206.05Z" fill="#C94039"/>
<path d="M156.075 223.848C153.432 225.342 152.215 225.349 150.519 223.192C148.822 221.036 153.385 218.089 160.232 214.486C167.086 210.883 169.391 209.241 170.453 210.802C171.521 212.363 168.486 215.98 163.727 219.069C158.968 222.158 158.718 222.354 156.075 223.848Z" fill="#CC6D3D"/>
<path d="M156.521 223.307C153.878 224.801 152.695 223.99 152.695 223.99L154.541 221.239C154.541 221.239 169.459 214.878 164.7 217.967C159.942 221.056 159.164 221.813 156.521 223.307Z" fill="#F5894E"/>
<path d="M170.635 214.425C171.845 213.621 172.602 213.235 173.305 212.526C174.116 211.316 174.799 208.957 175.414 207.949C176.685 205.881 175.286 204.144 174.738 205.536C174.19 206.929 171.52 209.328 171.52 209.328L172.683 205.131L176.063 201.021C176.063 201.021 176.218 197.452 175.144 197.797C174.069 198.141 172.021 202.413 170.209 202.866C168.398 203.319 166.018 210.552 166.518 212.14C167.019 213.729 169.06 215.371 170.635 214.425Z" fill="#CC6D3D"/>
<path d="M155.014 241.646C155.014 241.646 156.42 246.763 145.456 244.904C134.492 243.045 114.484 238.178 114.484 238.178C114.484 238.178 148.302 233.365 155.014 241.646Z" fill="#EE5D4F"/>
<path d="M140.474 262.81L132.072 275.775L128.361 271.78L134.837 258.457L140.474 262.81Z" fill="#CC6D3D"/>
<path d="M149.464 240.274C150.201 240.456 154.568 241.288 150.417 248.216C145.632 256.206 144.483 257.997 140.38 263.067L134.688 258.849C134.688 258.849 137.926 250.738 139.487 246.134C141.414 240.456 148.728 240.091 149.464 240.274Z" fill="#1D2538"/>
<path d="M140.569 259.072C143.61 258.274 154.568 241.288 150.417 248.216C145.631 256.206 144.482 257.997 140.379 263.067L134.688 258.849C134.688 258.856 137.52 259.87 140.569 259.072Z" fill="#3E4C6F"/>
<path d="M132.403 274.335C132.403 274.335 134.262 281.94 132.241 282.785C130.22 283.63 127.097 273.571 128.361 271.78C129.625 269.989 132.403 274.335 132.403 274.335Z" fill="#CC6D3D"/>
<path d="M132.701 275.592C132.701 275.592 133.269 280.594 132.248 280.662C131.234 280.729 129.429 277.316 128.861 276.282C128.294 275.247 129.017 271.726 128.206 271.597C127.401 271.469 126.11 273.754 126.076 274.767C126.063 275.119 126.786 275.977 127.374 278.059C127.753 279.398 127.874 281.797 128.408 283.061C129.436 285.488 131.268 287.178 131.998 287.55C133.688 288.422 134.086 285.9 134.1 282.656C134.12 279.411 132.701 275.592 132.701 275.592Z" fill="#C94039"/>
<path d="M128.699 275.187C128.598 273.828 129.01 271.733 128.206 271.604C127.401 271.476 126.11 273.76 126.077 274.774C126.063 275.126 126.786 275.984 127.374 278.066C127.753 279.405 127.875 281.804 128.409 283.068C129.436 285.495 131.268 287.185 131.998 287.557C133.688 288.429 129.166 284.785 129.186 281.541C129.193 280.743 131.464 280.283 131.464 280.283C131.464 280.283 128.882 277.6 128.699 275.187Z" fill="#992C29"/>
<path d="M138.75 232.899C138.75 232.899 148.058 237.009 150.748 240.179C153.439 243.349 153.182 250.028 140.109 244.911C131.078 241.376 121.851 237.908 126.15 236.793C130.443 235.677 134.167 230.641 138.75 232.899Z" fill="#1D2538"/>
<path d="M139.027 282.96C139.027 282.96 140.711 285.873 141.42 287.523C142.035 288.962 143.252 290.869 143.482 291.984C143.975 294.39 143.786 295.722 142.752 295.85C141.718 295.979 138.953 295.073 137.392 293.356C136.513 292.39 134.81 287.861 134.465 285.691C134.188 284.001 136.06 278.864 139.027 282.96Z" fill="#C94039"/>
<path d="M137.398 289.476C138.297 293.829 143.786 295.729 142.752 295.85C141.718 295.979 138.953 295.073 137.392 293.356C136.513 292.389 133.755 286.414 133.404 284.244C133.133 282.548 134.417 281.081 134.789 280.722C135.154 280.371 140.265 285.434 137.398 289.476Z" fill="#992C29"/>
<path d="M137.507 268.346L138.419 281.155C138.419 281.155 141.454 289.679 140.65 289.713C139.846 289.747 137.007 287.726 135.479 284.576C134.492 282.528 131.923 271.408 130.923 268.576C127.57 259.038 137.216 260.505 137.507 268.346Z" fill="#F5894E"/>
<path d="M123.616 235.468C125.65 236.461 134.397 238.374 135.256 244.262C136.317 251.508 137.527 268.609 137.527 268.609L131.071 268.839C131.071 268.839 126.894 259.315 125.698 253.252C124.846 248.939 124.494 245.472 124.494 245.472C124.494 245.472 115.694 238.942 114.943 236.556C114.2 234.17 121.581 234.474 123.616 235.468Z" fill="#1D2538"/>
<path d="M136.209 253.272L136.77 259.538L137.534 268.616L131.072 268.839L135.641 263.878L136.209 253.272Z" fill="#3E4C6F"/>
<path d="M119.567 226.808C118.689 225.7 120.5 223.841 120.743 221.401C121.149 217.264 120.723 211.775 121.818 207.814C122.575 205.063 122.548 204.718 124.366 203.42C125.57 202.562 130.234 204.144 134.959 204.333C139.731 204.529 140.049 204.82 141.826 209.95C143.516 214.824 142.076 215.703 140.17 219.089C138.649 221.793 136.196 224.699 136.196 224.699C136.196 224.699 135.641 228.018 131.396 228.857C125.84 229.965 121.94 229.803 119.567 226.808Z" fill="#CE9436"/>
<path d="M138.696 198.702L136.804 204.685C136.804 204.685 135.776 207.328 133.769 207.348C131.761 207.368 130.517 204.827 130.693 204.205C130.869 203.583 133.174 196.357 133.174 196.357L138.696 198.702Z" fill="#CC6D3D"/>
<path d="M135.682 225.355C138.156 226.606 144.347 232.365 148.18 234.629C156.508 240.625 155.014 241.646 155.014 241.646C155.014 241.646 152.161 239.01 148.782 239.794C146.923 240.226 142.685 243.64 137.108 241.051C133.012 239.151 126.435 238.252 126.435 238.252C126.435 238.252 120.148 239.408 118.979 239.699C115.39 240.591 113.247 238.158 113.247 238.158C114.599 234.46 119.27 223.584 122.528 222.354C125.799 221.131 133.208 224.105 135.682 225.355Z" fill="#F7BC4B"/>
<path d="M118.986 239.706C115.423 240.672 113.253 238.165 113.253 238.165C115.214 232.304 118.857 226.531 118.857 226.531L115.829 236.164L118.986 239.706Z" fill="#CE9436"/>
<path d="M133.485 217.927C134.681 218.596 141.333 214.276 140.718 215.838C140.102 217.393 135.905 226.761 134.06 227.518C132.221 228.275 130.348 224.274 127.942 223.692C125.536 223.111 121.352 224.821 121.48 223.794C121.608 222.766 126.692 214.128 133.485 217.927Z" fill="#F7BC4B"/>
<path d="M136.439 238.327C138.453 239.49 142.583 240.206 142.583 240.206C142.583 240.206 137.838 237.732 134.026 231.824C134.019 231.824 134.424 237.164 136.439 238.327Z" fill="#CE9436"/>
<path d="M116.295 212.343C116.295 212.343 113.544 217.264 112.496 220.921C111.449 224.578 114.078 226.275 115.727 226.2C117.377 226.133 120.642 217.866 122.757 214.466C124.873 211.066 119.215 206.652 116.295 212.343Z" fill="#CC6D3D"/>
<path d="M122.832 215.507C122.832 215.507 128.124 206.53 124.15 203.894C120.182 201.251 116.728 210.065 115.863 212.607L122.832 215.507Z" fill="#C94039"/>
<path d="M109.096 239.077C109.096 239.077 116.802 227.964 117.945 223.99C119.087 220.015 114.321 219.4 112.584 220.948C110.854 222.489 106.751 233.784 105.886 236.596C105.02 239.408 107.359 240.456 109.096 239.077Z" fill="#CC6D3D"/>
<path d="M110.32 236.691C110.32 236.691 116.255 228.127 117.134 225.072C118.012 222.009 108.509 232.615 107.846 234.785C107.184 236.948 108.975 237.752 110.32 236.691Z" fill="#F5894E"/>
<path d="M109.313 237.523C109.313 237.523 109.678 240.261 109.177 242.052C108.995 242.863 107.488 243.025 106.291 243.228C105.095 243.431 103.891 243.404 103.209 243.356C102.533 243.309 101.566 242.545 103.79 242.004C104.743 241.775 106.731 240.869 106.731 240.869C106.731 240.869 107.028 238.949 107.461 237.983C108.17 236.381 109.313 237.523 109.313 237.523Z" fill="#CC6D3D"/>
<path d="M105.98 241.281C105.98 241.281 102.371 241.011 101.141 241.173C99.8359 241.349 97.389 242.038 96.9226 241.369C96.4697 240.707 98.0852 239.699 98.5989 239.659C99.0991 239.612 102.844 239.416 102.844 239.416C102.844 239.416 109.975 239.808 105.98 241.281Z" fill="#CC6D3D"/>
<path d="M107.156 239.273C107.156 239.273 103.263 237.867 102.567 237.773C101.85 237.678 96.9495 241.011 98.4907 241.004C99.944 240.997 101.519 239.544 102.756 240.335C103.979 241.112 107.548 241.653 107.156 239.273Z" fill="#CC6D3D"/>
<path d="M107.453 237.982C107.453 237.982 104.79 236.799 104.093 237.063C103.363 237.34 100.72 239.463 102.316 239.463C103.81 239.469 107.284 241.7 107.453 237.982Z" fill="#CC6D3D"/>
<path d="M145.76 198.088C145.76 198.088 143.084 202.549 139.001 200.724C134.918 198.892 133.911 188.503 139.967 188.705C146.024 188.908 148.025 195.039 145.76 198.088Z" fill="#273252"/>
<path d="M142.84 184.15C140.799 181.946 140.035 179.114 135.574 180.04C135.574 180.04 131.004 178.559 126.617 181.696C121.359 185.461 123.353 190.916 123.353 190.916C123.353 190.916 117.566 196.729 124.495 200.616C127.834 202.488 133.952 200.616 136.635 199.757C142.617 197.851 144.882 186.353 142.84 184.15Z" fill="#273252"/>
<path d="M136.817 182.804C139.075 183.372 147.139 182.311 147.322 180.452C147.504 178.593 140.623 176.565 139.602 180.472C139.602 180.472 141.231 176.673 138.906 175.626C136.574 174.571 134.56 182.236 136.817 182.804Z" fill="#273252"/>
<path d="M144.868 190.666C145.828 199.433 140.245 201.528 134.202 200.751C129.659 200.17 129.024 197.283 129.274 191.551C129.524 185.819 131.775 181.547 136.344 181.229C142.381 180.81 144.246 184.974 144.868 190.666Z" fill="#CC6D3D"/>
<path d="M142.962 195.431C141.907 198.52 139.515 200.771 135.364 200.271C132.032 199.872 130.085 197.31 129.936 194.133C129.788 190.956 136.831 188.753 140.136 188.651C144.496 188.523 144.016 192.335 142.962 195.431Z" fill="#F5894E"/>
<path d="M128.233 192.66L132.086 192.464C132.086 192.464 132.255 185.454 136.696 183.771C141.36 182 143.489 184.988 143.489 184.988C143.489 184.988 141.265 178.992 134.37 181.507C128.888 183.501 128.233 192.66 128.233 192.66Z" fill="#F7BC4B"/>
<path d="M127.313 193.098C126.85 191.344 127.583 189.629 128.951 189.268C130.319 188.906 131.803 190.035 132.267 191.789C132.73 193.543 131.997 195.258 130.629 195.62C129.261 195.981 127.777 194.852 127.313 193.098Z" fill="#F5894E"/>
<path d="M137.83 187.273C137.83 187.273 139.007 186.495 139.764 186.502" stroke="#1D2538" stroke-width="0.25" stroke-miterlimit="10" stroke-linecap="round" stroke-linejoin="round"/>
<path d="M138.795 189.572C138.646 188.886 138.825 188.265 139.193 188.185C139.562 188.106 139.981 188.597 140.13 189.283C140.278 189.969 140.1 190.589 139.732 190.669C139.363 190.749 138.944 190.258 138.795 189.572Z" fill="#273252"/>
<path d="M143.143 189.006C143.083 188.374 143.227 187.843 143.464 187.82C143.702 187.798 143.944 188.292 144.005 188.924C144.065 189.556 143.922 190.086 143.684 190.109C143.446 190.132 143.204 189.638 143.143 189.006Z" fill="#273252"/>
<path d="M142.616 186.056C142.616 186.056 143.482 185.995 143.908 186.407" stroke="#1D2538" stroke-width="0.25" stroke-miterlimit="10" stroke-linecap="round" stroke-linejoin="round"/>
<path d="M128.024 195.1C128.024 195.1 132.045 193.383 134.391 196.08C136.737 198.777 132.965 205.557 128.382 203.096C123.799 200.649 124.941 196.1 128.024 195.1Z" fill="#273252"/>
<path d="M133.978 182.872C133.978 182.872 134.161 185.88 133.404 187.955C132.829 189.523 132.052 190.436 132.052 190.436L131.863 189.8L130.93 189.888C130.93 189.888 132.768 187.779 133.309 183.021L133.978 182.872Z" fill="#EE5D4F"/>
<path d="M133.938 182.541C133.938 182.541 135.141 185.305 135.141 187.509C135.141 189.178 134.722 190.3 134.722 190.3L134.33 189.766L133.485 190.165C133.485 190.165 134.486 187.556 133.37 182.892L133.938 182.541Z" fill="#EE5D4F"/>
<path d="M134.066 184.474C133.464 184.866 130.388 182.554 131.571 181.351C132.68 180.215 134.14 179.134 134.735 180.215C135.336 181.29 134.674 184.082 134.066 184.474Z" fill="#EE5D4F"/>
<path d="M132.152 183.313C132.152 183.313 131.239 181.947 131.632 181.629C132.024 181.311 132.166 182.129 132.801 182.995C133.43 183.874 132.551 183.881 132.152 183.313Z" fill="#F7BC4B"/>
<path d="M133.965 183.494C133.965 183.494 133.533 182.872 132.248 183.088C130.957 183.298 130.085 183.575 129.869 184.359C129.653 185.143 130.768 186.691 131.701 187.117C132.64 187.543 133.918 185.366 134.121 184.69C134.324 184.014 133.965 183.494 133.965 183.494Z" fill="#EE5D4F"/>
<path d="M130.632 185.732C130.632 185.732 131.497 186.996 132.16 186.712C133.147 186.293 130.727 184.63 130.375 184.339C130.03 184.049 129.76 185.062 130.632 185.732Z" fill="#F7BC4B"/>
<path d="M426.801 491.011C426.801 491.011 512.005 544.905 536.528 555.281C561.903 566.015 513.593 566.961 513.593 566.961C513.593 566.961 535.913 580.663 519.629 582.562C503.251 584.475 494.004 582.562 494.004 582.562C494.004 582.562 532.364 598.204 502.392 612.534C471.076 627.507 289.765 679.251 180.267 650.097C79.1247 623.16 76.9481 614.271 40.8387 616.319C4.50632 618.381 22.6083 601.976 35.35 597.116C35.35 597.116 -10.6621 600.354 2.3027 580.873C27.8672 542.458 47.2265 530.602 47.2265 530.602L426.801 491.011Z" fill="#1D2538"/>
<path d="M249.451 640.701C248.451 638.349 232.12 623.613 240.13 622.2C248.14 620.787 259.766 629.541 259.766 629.541C259.766 629.541 262.26 615.177 266.201 619.381C270.149 623.586 272.508 630.819 272.508 630.819C272.508 630.819 275.394 615.698 280.241 620.328C285.087 624.958 287.088 629.663 287.088 629.663C287.088 629.663 294.672 620.517 296.93 625.817C299.188 631.116 301.695 636.997 301.695 636.997C301.695 636.997 307.921 622.978 312.95 622.984C317.979 622.991 320.947 633.333 320.947 633.333C320.947 633.333 323.941 620.145 329.22 620.74C334.499 621.335 337.115 629.156 337.115 629.156C337.115 629.156 348.789 628.676 350.905 635.314C353.014 641.958 340.083 635.307 311.889 640.755C289.603 645.068 249.451 640.701 249.451 640.701Z" fill="#3E4C6F"/>
<path d="M458.989 601.936C458.989 601.936 476.49 588.944 471.961 588.329C467.344 587.7 461.795 594.155 461.795 594.155C461.795 594.155 462.025 583.475 457.394 587.937C452.825 592.33 448.6 607.445 448.6 607.445C448.6 607.445 453.589 586.774 447.045 593.905C440.671 600.854 438.373 609.33 438.373 609.33C438.373 609.33 419.041 583.333 410.098 593.615C401.473 603.531 407.522 609.526 407.522 609.526C407.522 609.526 401.223 594.622 395.484 603.693C389.961 612.42 415.735 627.459 458.989 601.936Z" fill="#3E4C6F"/>
<path d="M215.964 648.022C215.964 648.022 242.8 652.713 240.305 646.379C237.818 640.046 227.165 642.405 227.165 642.405C227.165 642.405 234.533 625.492 228.517 627.243C222.501 629.001 221.541 631.204 221.541 631.204C221.541 631.204 220.236 620.139 216.106 623.586C211.976 627.04 211.976 627.04 211.976 627.04C211.976 627.04 206.068 610.466 204.98 616.989C203.885 623.512 203.885 623.512 203.885 623.512C203.885 623.512 193.529 611.128 192.82 624.816C192.11 638.504 185.999 638.471 215.964 648.022Z" fill="#3E4C6F"/>
<path d="M186.27 618.713C186.27 618.713 178.246 605.072 177.448 609.087C176.644 613.095 179.855 623.525 179.855 623.525C179.855 623.525 166.214 606.681 163.01 613.9C159.799 621.119 168.627 627.541 168.627 627.541C168.627 627.541 146.165 613.9 146.97 619.517C147.774 625.134 174.244 641.979 188.683 637.166C203.114 632.353 186.27 618.713 186.27 618.713Z" fill="#3E4C6F"/>
<path d="M115.775 603.152C115.775 603.152 124.576 590.917 128.922 598.251C133.268 605.585 124.947 606.491 124.947 606.491C124.947 606.491 138.446 604.105 133.829 611.405C129.213 618.706 125.907 618.908 125.907 618.908C125.907 618.908 139.318 621.396 132.619 626.682C125.927 631.968 95.1986 617.286 85.5866 616.313C75.9745 615.346 77.678 601.787 84.6267 603.896C91.5823 606.005 91.5823 606.005 91.5823 606.005C91.5823 606.005 86.1882 591.134 94.0698 592.594C101.958 594.06 101.958 594.06 101.958 594.06C101.958 594.06 111.699 581.184 115.775 603.152Z" fill="#3E4C6F"/>
<path d="M177.442 531.751C177.442 531.751 196.909 559.08 191.022 564.866C185.04 570.747 153.838 560.662 153.838 560.662C153.838 560.662 145.713 571.849 132.248 571.963C118.776 572.085 101.316 554.26 101.316 554.26C101.316 554.26 72.6964 569.327 65.3082 566.961C57.9673 564.609 45.4285 543.864 45.4285 543.864C45.4285 543.864 19.1541 551.279 14.4292 547.298C9.75841 543.364 59.9614 493.337 59.9614 493.337L78.3338 473.491L177.442 531.751Z" fill="#33A86D"/>
<path d="M109.989 523.112C110.009 524.593 114.7 617.61 114.7 617.61L87.8378 608.14L97.1592 518.705L109.989 523.112Z" fill="#4B3355"/>
<path d="M110.056 524.322C110.077 525.803 112.774 571.666 112.774 571.666L100.701 552.219L94.1039 546.338L95.8884 524.052L110.056 524.322Z" fill="#34283A"/>
<path d="M149.566 483.468L174.515 522.092C174.515 522.092 189.886 544.094 186.858 548.934C183.783 553.841 146.612 525.708 146.612 525.708C146.612 525.708 136.168 547.291 127.597 547.508C119.02 547.724 103.479 528.371 103.479 528.371C103.479 528.371 76.3804 542.708 68.073 541.079C59.7993 539.457 51.9245 515.258 51.9245 515.258C51.9245 515.258 39.1084 526.776 33.2006 521.314C27.3874 515.941 65.2204 478.811 72.2098 468.658C78.9017 458.938 78.9017 458.938 78.9017 458.938L149.566 483.468Z" fill="#288453"/>
<path d="M141.947 442.64L142.062 444.371C144.334 450.211 168.107 491.275 168.107 491.275C168.107 491.275 168.648 504.104 161.611 503.739C154.588 503.374 137.196 490.45 137.196 490.45C137.196 490.45 122.027 510.776 110.286 508.356C98.6257 505.957 93.1167 485.475 93.1167 485.475C93.1167 485.475 74.8254 495.608 68.2687 491.092C61.7998 486.645 66.8357 479.27 66.8357 479.27C66.8357 479.27 54.1953 483.738 57.494 478.756C60.7453 473.849 96.0503 425.87 96.0503 425.87C96.0503 425.87 112.922 403.401 122.622 414.676C132.721 426.41 143.509 442.64 143.509 442.64" fill="#33A86D"/>
<path d="M142.049 430.865L142.157 432.278C144.347 437.043 169.047 479.757 169.047 479.757C169.047 479.757 164.808 485.847 160.55 485.536C156.291 485.225 137.493 469.787 137.493 469.787C137.493 469.787 119.709 486.496 111.712 484.306C103.783 482.129 97.9093 465.839 97.9093 465.839C97.9093 465.839 75.2514 473.788 72.284 472.524C69.3233 471.267 71.1146 464.406 71.1146 464.406C71.1146 464.406 57.2981 469.057 60.3196 465.048C63.2938 461.101 97.835 417.164 97.835 417.164C97.835 417.164 114.044 398.751 123.413 407.998C133.154 417.61 143.55 430.872 143.55 430.872" fill="#288453"/>
<path d="M117.613 388.74C117.613 388.74 139.068 419.401 152.641 443.093C152.641 443.093 146.402 450.968 142.076 449.244C137.77 447.527 126.448 430.818 126.448 430.818C126.448 430.818 119.729 443.384 111.023 445.121C102.263 446.865 93.3265 435.232 93.3265 435.232C93.3265 435.232 76.7251 444.567 77.5227 439.7C78.3 434.907 116.18 391.491 117.613 388.74Z" fill="#FFFCF3"/>
<path d="M98.8826 557.207L99.6802 572.092L98.3554 590.288L98.7947 607.66L93.9279 591.532L96.5844 576.641L95.1716 545.98L100.66 541.525L98.8826 557.207Z" fill="#34283A"/>
<path d="M104.088 589.477L105.514 597.676L101.945 605.166V596.25L102.662 584.13L104.088 589.477Z" fill="#34283A"/>
<path d="M255.082 479.635C255.082 479.635 187.338 582.617 203.385 588.234C219.432 593.851 253.872 574.559 253.872 574.559C253.872 574.559 263.22 594.507 280.768 597.251C298.316 599.995 309.28 580.744 309.28 580.744C309.28 580.744 352.331 587.429 361.159 579.676C369.98 571.923 341.908 536.091 341.908 536.091L288.312 474.343L255.082 479.635Z" fill="#33A86D"/>
<path d="M291.043 548.914L294.794 646.251L275.192 644.899L281.032 547.562L291.043 548.914Z" fill="#4B3355"/>
<path d="M291.631 545.446L293.233 589.653L288.886 586.625L278.706 585.821L279.93 543.817L291.631 545.446Z" fill="#34283A"/>
<path d="M258.293 475.221C258.293 475.221 194.111 555.491 208.198 560.844C222.285 566.191 257.083 548.65 257.083 548.65C257.083 548.65 271.244 564.805 283.979 566.205C296.714 567.604 312.491 553.436 312.491 553.436C312.491 553.436 347.255 569.821 358.483 556.647C369.717 543.472 307.678 467.894 307.678 467.894L258.293 475.221Z" fill="#288453"/>
<path d="M314.87 470.895C314.87 470.895 288.366 436.401 277.963 412.148C277.963 412.148 263.281 445.412 257.211 455.335C251.141 465.258 239.217 480.244 243.517 482.481C247.816 484.718 261.139 472.369 261.139 472.369C261.139 472.369 270.514 480.818 276.557 482.136C282.6 483.454 287.791 478.655 287.791 478.655C287.791 478.655 301.581 486.172 307.279 485.3C312.977 484.428 314.87 470.895 314.87 470.895Z" fill="#FFFCF3"/>
<path d="M284.858 581.988L286.994 598.927L286.101 609.269L286.284 621.389L284.141 610.155L284.675 599.461L281.471 581.636L284.858 581.988Z" fill="#34283A"/>
<path d="M289.488 590.904L290.562 618.003L289.488 625.492L291.989 616.042L291.631 600.887L289.488 590.904Z" fill="#34283A"/>
<path d="M283.073 622.457L280.93 633.509L279.504 643.317L279.687 632.083L282.005 623.349L282.357 614.974L283.073 622.457Z" fill="#34283A"/>
<path d="M463.39 484.035C473.969 499.008 520.136 518.908 531.587 530.622C543.058 542.363 545.214 550.387 533.682 556.315C522.056 562.284 501.277 547.203 501.277 547.203C501.277 547.203 504.495 566.238 491.895 572.612C465.364 586.03 447.208 570.422 447.208 570.422C447.208 570.422 451.263 588.504 439.089 591.012C426.834 593.533 412.7 582.136 412.7 582.136C412.7 582.136 393.868 609.864 381.559 609.823C369.189 609.783 367.351 593.736 367.351 593.736C367.351 593.736 350.797 610.195 336.007 610.155C321.122 610.107 320.075 579.561 320.075 579.561C320.075 579.561 296.085 604.037 292.34 588.206C288.622 572.484 314.944 539.605 343.314 481.419C369.872 426.951 442.949 455.118 463.39 484.035Z" fill="#288453"/>
<path d="M401.622 502.131L392.976 619.294L425.679 625.296L413.66 495.405L401.622 502.131Z" fill="#665070"/>
<path d="M401.331 498.298L395.693 581.839L414.681 562.324L420.386 565.819L412.646 493.418L401.331 498.298Z" fill="#4B3355"/>
<path d="M478.416 489.065C478.416 489.065 545.545 538.159 536.028 542.228C526.45 546.325 489.563 523.876 489.563 523.876C489.563 523.876 490.8 556.444 470.636 559.925C450.263 563.44 434.216 540.829 434.216 540.829L415.336 537.929C415.336 537.929 394.767 579.399 386.48 579.297C372.975 579.135 378.605 557.309 378.605 557.309C378.605 557.309 356.143 584.502 339.988 584.313C323.731 584.124 328.862 555.639 328.862 555.639C328.862 555.639 310.652 578.061 297.7 577.614C284.682 577.161 318.966 521.598 346.802 469.996C371.683 423.876 428.585 450.954 478.416 489.065Z" fill="#33A86D"/>
<path d="M431.167 422.213C431.167 422.213 514.539 480.791 512.356 488.538C510.403 495.473 505.171 492.641 494.639 491.816C484.067 490.984 471.15 483.596 471.15 483.596C471.15 483.596 469.007 494.371 460.206 496.318C455.049 497.46 436.913 488.058 436.913 488.058C436.913 488.058 434.148 498.846 420.656 502.719C410.983 505.49 390.428 490.349 390.428 490.349C390.428 490.349 386.615 515.481 373.941 515.265C361.2 515.042 345.828 475.789 345.828 475.789L320.108 496.575C320.108 496.575 348.167 421.483 363.511 389.693C378.484 358.674 431.167 422.213 431.167 422.213Z" fill="#288453"/>
<path d="M359.192 464.419C359.192 464.419 365.107 500.279 353.987 506.389C342.78 512.547 346.052 492.208 346.052 492.208C346.052 492.208 329.768 511.689 325.719 506.281C321.677 500.88 330.396 489.565 330.396 489.565C330.396 489.565 315.735 504.233 322.846 486.908C329.971 469.55 331.85 467.738 331.85 467.738L359.192 464.419Z" fill="#288453"/>
<path d="M436.73 423.389C453.095 438.753 501.385 470.233 499.337 477.621C497.275 485.049 464.127 457.16 464.127 457.16C464.127 457.16 477.625 481.494 468.838 481.305C460.051 481.115 440.489 472.382 440.489 472.382C440.489 472.382 433.52 491.694 421.177 490.964C408.847 490.234 387.535 472.328 387.535 472.328C387.535 472.328 376.996 492.174 365.505 490.619C354.041 489.065 347.68 466.643 347.68 466.643C347.68 466.643 319.202 502.638 323.042 486.368C326.097 473.41 374.996 364.662 374.996 364.662C374.996 364.662 420.575 408.221 436.73 423.389Z" fill="#33A86D"/>
<path d="M375.51 354.408L447.978 422.443C447.978 422.443 443.808 425.16 435.832 425.106C427.828 425.045 419.447 414.426 419.447 414.426C419.447 414.426 424.138 426.485 415.31 427.722C406.448 428.966 397.701 413.007 397.701 413.007C397.701 413.007 384.655 433.157 373.712 432.217C362.727 431.271 365.411 417.995 365.411 417.995C354.224 430.946 333.344 456.923 333.682 445.628C334.02 434.4 362.22 384.022 375.51 354.408Z" fill="#F3E7D9"/>
<path d="M442.192 525.532C442.192 525.532 445.22 546.588 434.148 550.651C427.328 553.152 421.738 542.33 413.991 532.265C410.611 527.871 412.247 519.144 417.459 519.449L442.192 525.532Z" fill="#33A86D"/>
<path d="M402.352 572.491L398.222 584.124L397.965 597.873L395.592 615.495L400.702 603.28L401.047 587.071L404.758 571.734L402.352 572.491Z" fill="#4B3355"/>
<path d="M400.736 611.229L403.926 612.548L403.23 619.787L406.488 613.818L406.346 588.092L400.736 611.229Z" fill="#4B3355"/>
<path d="M410.274 559.35L405.549 564.163L409.828 599.995L412.714 587.801L410.274 559.35Z" fill="#4B3355"/>
<path d="M269.331 525.776C209.286 436.394 198.343 438.767 198.343 438.767C198.343 438.767 94.5838 568.78 106.102 575.769C126.07 587.882 157.691 562.196 157.691 562.196C157.691 562.196 147.423 587.152 159.529 589.842C171.717 592.546 202.317 583.428 202.317 583.428C202.317 583.428 213.599 601.435 229.058 604.822C244.652 608.235 260.936 564.028 260.936 564.028C260.936 564.028 282.661 587.517 302.865 574.343C309.084 568.53 284.074 547.717 269.331 525.776Z" fill="#288453"/>
<path d="M206.103 524.91L207.597 643.547L180.923 637.612L197.471 515.988L206.103 524.91Z" fill="#665070"/>
<path d="M194.997 580.156L192.692 595.656L193.956 610.716L194.051 625.026L195.7 614.183L194.422 594.392L194.997 580.156Z" fill="#4B3355"/>
<path d="M202.365 555.876L198.674 572.572L200.235 596.108L203.162 631.211L203.703 614.974L202.743 593.209L201.101 571.659L202.365 555.876Z" fill="#4B3355"/>
<path d="M197.41 604.274L198.728 631.211L203.406 640.829L200.837 625.958L197.41 604.274Z" fill="#4B3355"/>
<path d="M207.042 540.417L207.049 565.954L195.76 568.408L188.413 581.968L196.038 531.494L207.042 540.417Z" fill="#4B3355"/>
<path d="M257.962 490.112C212.01 416.542 201.276 430.108 201.276 430.108C201.276 430.108 138.622 512.061 127.962 528.459C115.464 547.677 110.286 549.873 118.459 554.585C126.732 559.357 163.903 537.943 163.903 537.943C163.903 537.943 170.71 552.361 185.195 555.139C199.789 557.944 210.111 545.216 210.111 545.216C210.111 545.216 230.68 564.176 243.584 562.75C256.441 561.331 255.785 541.613 255.785 541.613C255.785 541.613 289.569 557.376 300.918 557.937C312.288 558.505 269.162 508.045 257.962 490.112Z" fill="#33A86D"/>
<path d="M232.255 453.476L271.575 508.228C271.575 508.228 265.336 517.597 253.811 518.063C242.273 518.536 232.302 508.978 232.302 508.978C232.302 508.978 215.748 526.56 207.644 526.513C199.539 526.465 190.475 510.013 190.475 510.013C190.475 510.013 172.569 523.39 165.613 522.22C158.678 521.058 155.832 505.335 155.832 505.335C155.832 505.335 143.28 510.857 141.482 505.815C139.704 500.833 178.078 455.328 184.472 440.349C190.184 426.952 217.986 439.328 232.255 453.476Z" fill="#288453"/>
<path d="M227.699 442.985C242.394 464 270.163 491.681 266.492 496.777C262.768 501.948 257.799 496.291 249.647 495.973C241.502 495.655 230.45 479.007 230.45 479.007C230.45 479.007 216.019 500.569 206.427 500.745C196.828 500.921 189.751 478.959 189.751 478.959C189.751 478.959 171.561 499.366 165.376 497.115C159.232 494.885 160.178 480.818 160.178 480.818C160.178 480.818 152.824 488.821 148.572 487.152C144.341 485.482 185.79 433.136 185.79 433.136C185.79 433.136 213.91 423.261 227.699 442.985Z" fill="#33A86D"/>
<path d="M203.96 405.483L242.989 460.932L224.374 455.436C224.374 455.436 219.615 467.88 215.296 467.88C210.97 467.88 195.409 457.079 195.409 457.079C195.409 457.079 188.068 468.097 182.803 467.522C177.55 466.948 173.785 456.984 173.785 456.984C173.785 456.984 157.65 466.299 163.315 459.255C194.679 420.253 203.96 405.483 203.96 405.483Z" fill="#F3E7D9"/>
<path d="M3.89795 619.436C3.89795 619.436 32.0311 595.865 86.7832 608.79C141.535 621.714 182.599 647.569 250.276 642.249C317.952 636.929 388.677 624.762 435.061 607.269C481.445 589.782 527.835 592.824 547.607 598.907C567.379 604.991 548.344 603.213 529.62 606.417C510.896 609.621 482.966 621.721 472.319 627.04C472.319 627.04 504.569 619.733 504.258 623.241C503.947 626.743 402.608 676.601 341.523 679.156C264.883 682.367 198.214 669.936 123.69 643.324C66.5249 622.897 19.1069 615.63 3.89795 619.436Z" fill="#1D2538"/>
</svg>
