<svg width="837" height="658" viewBox="0 0 837 658" fill="none" xmlns="http://www.w3.org/2000/svg">
<path d="M579.586 68.2682C579.586 68.2682 548.058 7.18422 481.063 30.1728C414.068 53.1614 439.684 120.157 439.684 120.157C439.684 120.157 414.725 106.364 389.109 121.47C363.493 136.577 372.688 159.566 372.688 159.566C372.688 159.566 356.268 160.222 347.072 172.702C337.877 185.182 345.102 202.259 350.357 204.886C350.357 204.886 324.741 219.993 325.398 231.159C326.054 242.325 414.068 196.347 450.85 177.3C487.631 158.252 596.663 99.7953 610.456 92.5704C624.249 85.3454 601.917 84.0318 594.692 90.5999C587.467 97.1681 666.942 54.475 641.983 53.1614C617.024 51.8477 579.586 68.2682 579.586 68.2682Z" fill="#F3E7D9"/>
<path d="M706.679 75.1646C706.679 75.1646 691.573 88.9578 700.768 87.6441C709.964 86.3305 772.361 54.8033 779.586 49.5488C786.811 44.2942 784.841 35.0988 777.616 33.7852C770.391 32.4715 754.627 41.0102 751.343 54.1465C751.343 54.1465 748.059 29.1875 729.668 29.8443C711.277 30.5011 704.709 60.0578 706.679 75.1646Z" fill="#F3E7D9"/>
<path d="M402.665 624.973C402.665 624.973 388.117 622.897 373.562 622.897C359.007 622.897 353.811 633.288 360.051 633.288C360.051 633.288 316.399 640.565 338.225 644.723C360.051 648.874 427.611 643.679 402.665 624.973Z" fill="#33A86D"/>
<path d="M643.98 598.963C648.19 594.93 633.32 594.398 614.922 595.225C591.572 596.276 596.354 601.419 596.354 601.419C596.354 601.419 583.717 600.776 577.273 604.736C573.339 607.153 579.336 608.697 597.392 609.761C615.441 610.825 621.116 604.762 621.116 604.762C621.116 604.762 639.763 602.996 643.98 598.963Z" fill="#33A86D"/>
<path d="M443.9 600.96C448.11 597.406 433.24 595.18 414.842 593.918C391.493 592.316 396.274 598.004 396.274 598.004C396.274 598.004 383.637 595.922 377.194 599.153C373.259 601.124 379.256 603.35 397.312 606.464C415.368 609.577 421.036 604.165 421.036 604.165C421.036 604.165 439.69 604.513 443.9 600.96Z" fill="#33A86D"/>
<path d="M488.413 617.708C488.413 617.708 468.504 617.373 451.513 620.034C434.521 622.694 440.229 628.401 444.754 628.401C449.279 628.401 377.076 649.071 397.463 654.385C417.851 659.699 448.176 657.288 532.058 653.268C575.71 651.18 597.536 640.894 578.83 637.236C562.068 633.958 518.909 629.846 518.909 629.846C531.382 621.203 488.413 617.708 488.413 617.708Z" fill="#33A86D"/>
<path d="M394.961 624.953C394.961 624.953 393.634 616.533 396.287 616.533C398.941 616.533 398.501 621.853 398.501 621.853C398.501 621.853 403.821 613.873 403.821 616.979C403.821 620.079 401.161 622.74 401.161 622.74C401.161 622.74 396.294 628.06 394.961 624.953Z" fill="#288453"/>
<path d="M427.71 641.374C427.71 641.374 430.449 630.162 427.71 629.663C424.971 629.163 424.472 635.889 424.472 636.638C424.472 637.387 424.222 625.426 422.232 625.177C420.242 624.927 419.243 629.663 419.243 629.663C419.243 629.663 417.496 626.175 415.256 628.914C413.017 631.653 415.506 633.649 415.506 633.649C415.506 633.649 413.017 633.15 411.519 636.139C410.022 639.127 418.495 642.365 418.495 642.365L415.256 644.356C415.256 644.369 423.473 644.618 427.71 641.374Z" fill="#33A86D"/>
<path d="M608.413 636.835C608.413 636.835 606.147 634.95 607.283 632.303C608.413 629.662 610.679 632.677 610.679 632.677C610.679 632.677 612.564 624.749 615.211 626.634C617.851 628.519 615.585 631.922 615.585 631.922C615.585 631.922 622.383 620.592 625.405 625.505C628.426 630.411 621.254 634.569 621.254 634.569C621.254 634.569 626.541 638.345 624.275 638.345C622.009 638.345 607.283 640.23 605.017 639.475C602.751 638.726 608.413 636.835 608.413 636.835Z" fill="#288453"/>
<path d="M467.105 635.712C451.276 632.467 437.338 637.525 445.45 639.961C445.45 639.961 412.997 643.344 422.915 646.996C432.833 650.648 477.004 649.702 488.222 648.618C499.44 647.535 503.046 646.451 508.255 642.661C513.464 638.871 482.935 638.957 467.105 635.712Z" fill="#288453"/>
<path d="M448.958 650.674C448.958 650.674 447.756 644.461 449.562 645.866C451.362 647.272 451.959 652.48 448.958 650.674Z" fill="#33A86D"/>
<path d="M479.007 649.926C479.007 649.926 477.805 643.712 479.611 645.118C481.411 646.517 482.009 651.725 479.007 649.926Z" fill="#33A86D"/>
<path d="M445.752 649.873C445.752 649.873 444.55 643.659 446.357 645.065C448.156 646.47 448.754 651.679 445.752 649.873Z" fill="#33A86D"/>
<path d="M383.88 631.246C383.88 631.246 377.956 625.86 381.187 624.513C384.419 623.167 384.15 627.206 384.15 627.206C384.15 627.206 384.688 617.781 387.381 619.127C390.074 620.474 388.189 624.782 388.189 624.782C388.189 624.782 390.074 619.935 390.613 623.167C391.151 626.398 387.65 632.323 383.88 631.246Z" fill="#288453"/>
<path d="M468.603 547.941V299.52C468.603 299.52 468.603 294.771 473.352 290.699C478.101 286.627 484.209 281.201 484.209 281.201V219.421C484.209 217.102 485.917 215.132 488.209 214.804L498.456 213.339V117.733C498.456 114.994 500.584 112.728 503.316 112.55L520.853 111.427L526.285 116.971C526.285 116.971 686.437 111.539 692.545 111.539C698.653 111.539 775.337 148.859 782.122 152.255C788.907 155.651 784.834 157.687 785.517 165.148C786.194 172.61 786.194 332.768 786.194 332.768V544.552L468.603 547.941Z" fill="#F7BC4B"/>
<path d="M526.285 116.971L543.139 135.125L539.086 294.193L552.334 336.288L551.553 358.896L551.388 365.346L550.778 432.171L669.261 435.284L671.599 280.945L673.924 110.567L526.285 116.971Z" fill="#F5894E"/>
<path d="M680.604 122.915V333.373L734.056 335.146L738.621 271.52L719.284 252.459V128.794C719.284 128.794 713.208 106.311 705.064 104.275C700.223 103.066 693.793 114.922 687.744 115.303C683.724 115.559 680.604 118.896 680.604 122.915Z" fill="#CE9436"/>
<path d="M669.898 118.357C669.898 127.099 669.898 346.818 669.898 346.818H729.911V288.459L703.448 272.853C703.448 272.853 703.448 131.933 703.448 124.236C703.448 116.538 697.681 111.342 694.594 111.342C691.507 111.342 678.962 111.526 675.028 111.526C671.087 111.526 669.898 116.071 669.898 118.357Z" fill="#CC6D3D"/>
<path d="M673.924 110.567C673.924 119.309 673.924 329.898 673.924 329.898H733.938V271.54L707.474 255.934C707.474 255.934 707.474 124.143 707.474 116.446C707.474 108.748 706.364 103.552 703.277 103.552C700.19 103.552 682.995 103.736 679.054 103.736C675.113 103.736 673.924 108.288 673.924 110.567Z" fill="#F7BC4B"/>
<path d="M534.423 125.799V295.448L549.352 304.269V356.525L541.891 365.346L545.963 372.808V457.636L552.748 454.247L555.461 372.808L551.389 365.346L555.461 360.598V293.412L548.564 283.744L543.139 135.126L534.423 125.799Z" fill="#CC6D3D"/>
<path d="M600.361 137.359V145.556C600.361 146.403 601.05 147.073 601.898 147.053L650.489 145.667C651.481 145.641 652.216 144.689 651.986 143.73L650.036 135.592C649.872 134.902 649.254 134.429 648.538 134.449L601.898 135.782C601.05 135.795 600.361 136.505 600.361 137.359Z" fill="#FEED7F"/>
<path d="M648.282 162.37L622.778 163.099C621.668 163.132 620.761 162.252 620.761 161.142V155.506C620.761 154.396 621.661 153.47 622.778 153.437L648.282 152.708C649.392 152.676 650.298 153.549 650.298 154.666V160.301C650.298 161.411 649.399 162.337 648.282 162.37Z" fill="#FEED7F"/>
<path d="M589.76 238.672L560.498 239.507C559.093 239.546 557.95 238.436 557.95 237.03V230.856C557.95 229.451 559.093 228.275 560.498 228.236L589.76 227.401C591.165 227.362 592.308 228.472 592.308 229.878V236.052C592.308 237.457 591.165 238.633 589.76 238.672Z" fill="#FEED7F"/>
<path d="M622.246 235.599L612.315 235.881C611.349 235.907 610.568 235.152 610.568 234.186V229.622C610.568 228.656 611.349 227.855 612.315 227.829L622.246 227.546C623.211 227.52 623.993 228.275 623.993 229.241V233.806C623.986 234.764 623.205 235.572 622.246 235.599Z" fill="#FEED7F"/>
<path d="M601.839 260.341L566.673 261.346C565.412 261.379 564.393 260.387 564.393 259.126V254.022C564.393 252.761 565.418 251.71 566.673 251.678L601.839 250.673C603.1 250.64 604.118 251.632 604.118 252.893V257.996C604.124 259.251 603.1 260.302 601.839 260.341Z" fill="#FEED7F"/>
<path d="M625.596 324.414H598.213V334.614H625.596V324.414Z" fill="#FEED7F"/>
<path d="M699.75 111.257L693.609 119.644L698.732 133.208L697.826 164.163L702.345 180.163L702.949 138.081L702.042 126.955L705.057 123.132C705.064 123.126 702.463 111.605 699.75 111.257Z" fill="#FEED7F"/>
<path d="M512.577 183.205L522.239 207.362L515.796 225.083L517.411 257.3V276.624L512.577 273.405L510.16 252.466L513.379 210.587L512.577 183.205Z" fill="#CC6D3D"/>
<path d="M484.925 255.684L483.316 285.484L488.952 299.178L488.144 361.996L490.561 370.049L494.587 298.371L487.342 282.265L484.925 255.684Z" fill="#CE9436"/>
<path d="M535.395 233.136L512.846 274.298L534.324 299.717L532.176 325.484L552.577 355.553L549.352 304.269L536.472 282.804L535.395 233.136Z" fill="#CC6D3D"/>
<path d="M729.76 126.823L728.69 176.222L746.943 221.326V262.134L787.751 327.638L786.299 156.708C786.286 155.014 785.307 153.477 783.783 152.748L729.76 126.823Z" fill="#CE9436"/>
<path d="M540.499 178.909L557.412 186.153L570.298 179.71L607.343 180.518L570.298 183.736L555.796 193.405L538.081 184.544L540.499 178.909Z" fill="#CC6D3D"/>
<path d="M671.776 226.423L679.021 240.117L671.776 248.978V226.423Z" fill="#CC6D3D"/>
<path d="M494.876 380.052L516.446 380.84L528.111 395.166L534.035 437.832L525.431 488.946L501.871 507.652L488.577 467.606L494.876 380.052Z" fill="#4B3355"/>
<path d="M528.111 395.166L514.193 413.261L517.891 437.773L527.093 464.092L534.035 437.832L528.111 395.166Z" fill="#665070"/>
<path d="M836.23 352.453C836.23 352.453 821.977 316.486 818.588 311.737C815.199 306.988 813.156 304.952 798.226 304.276C783.297 303.599 766.331 298.844 766.331 298.844L735.133 313.675L731.047 326.666L743.94 563.501L781.3 580.296L820.768 580.795L828.762 569.61C828.762 569.61 826.726 423.711 826.726 414.207C826.726 404.703 831.474 402.673 834.187 400.637C836.906 398.594 836.23 352.453 836.23 352.453Z" fill="#273252"/>
<path d="M744.256 311.527L763.048 306.693L788.282 318.502C788.282 318.502 796.874 323.337 802.24 321.721C807.606 320.105 816.197 316.887 816.197 316.887L822.102 327.626L831.232 354.47L830.693 387.757L818.345 386.148L804.92 422.122L790.154 381.852L798.207 356.079L785.051 324.401L761.964 312.052L744.256 311.527Z" fill="#3E4C6F"/>
<path d="M378.705 426.424L394.994 411.494V350.417L395.979 331.172C396.209 326.719 398.836 322.739 402.843 320.775L457.424 294.088C457.424 294.088 477.102 297.484 486.606 303.586C496.104 309.694 500.859 319.875 500.859 319.875L503.572 350.41V397.235C503.572 397.235 505.608 399.271 500.859 403.343C496.111 407.415 495.427 409.452 495.427 409.452C495.427 409.452 494.068 412.847 494.751 416.237C495.427 419.632 494.751 534.996 494.751 534.996L465.569 576.408H390.921L382.1 542.464L378.705 426.424Z" fill="#3E4C6F"/>
<path d="M378.705 426.424L394.994 411.494V350.417L395.723 336.23C396.11 328.65 400.583 321.878 407.401 318.548L409.976 317.287L457.424 294.088L441.358 330.148L450.6 363.251C450.009 366.647 450.981 370.135 453.253 372.729L456.708 376.676C460.734 381.281 462.114 383.672 466.882 379.842L503.572 350.404L502.646 372.184L487.342 385.071L482.508 418.897C482.508 418.897 478.606 473.491 479.289 476.887C479.546 478.174 464.794 470.444 464.794 470.444L449.49 534.989L465.569 576.401H390.921L382.1 542.457L378.705 426.424Z" fill="#273252"/>
<path d="M437.674 368.263L428.012 384.368L445.726 388.394L453.785 390.01L447.342 369.872L437.674 368.263Z" fill="#3E4C6F"/>
<path d="M416.458 340.716L430.429 333.208L438.751 334.975C440.163 335.074 444.564 359.186 443.585 360.21L436.432 358.601L428.242 354.299C428.123 355.658 426.199 355.81 425.871 354.489L419.066 367.113L411.664 367.678L402.219 348.42L416.458 340.716Z" fill="#48598B"/>
<path d="M405.457 328.17L421.569 331.927L436.064 322.804L455.395 295.954L420.491 313.136L402.238 325.484L405.457 328.17Z" fill="#48598B"/>
<path d="M793.116 385.622L790.437 411.934L801.169 435.021L803.501 459.718L808.151 477.971L799.56 459.718L797.412 437.169L785.602 411.396L790.167 381.865L793.116 385.622Z" fill="#3E4C6F"/>
<path d="M802.246 460.526L816.742 467.232L822.647 487.101L823.185 496.23L821.038 486.562L814.594 470.457L803.855 466.161L802.246 460.526Z" fill="#3E4C6F"/>
<path d="M744.322 325.891C742.574 324.144 744.906 316.006 748.394 322.594C751.875 329.182 746.062 327.632 744.322 325.891Z" fill="#288453"/>
<path d="M738.042 323.868C735.52 322.509 736.492 315.244 739.205 317.28C740.755 318.443 743.717 319.796 741.53 323.29C740.564 324.84 740.564 325.228 738.042 323.868Z" fill="#288453"/>
<path d="M739.277 317.169C736.564 315.231 736.564 303.986 740.827 307.087C745.096 310.187 741.99 319.106 739.277 317.169Z" fill="#288453"/>
<path d="M744.322 319.494C744.322 319.494 746.259 311.356 748.197 315.619C750.134 319.881 744.322 319.494 744.322 319.494Z" fill="#288453"/>
<path d="M736.748 334.673C736.748 334.673 737.924 327.08 734.64 329.76C731.356 332.44 732.998 336.906 736.748 334.673Z" fill="#288453"/>
<path d="M735.533 317.024C734.331 315.658 729.819 314.41 732.821 319.35C736.236 324.972 736.729 318.391 735.533 317.024Z" fill="#288453"/>
<path d="M737.727 331.317C737.727 331.317 746.252 337.517 744.315 332.867C742.377 328.216 738.115 327.829 737.727 331.317Z" fill="#288453"/>
<path d="M737.34 316.394C737.34 316.394 736.177 304.374 734.627 308.256C733.077 312.138 735.014 317.169 737.34 316.394Z" fill="#288453"/>
<path d="M729.431 319.316C726.686 318.206 723.468 320.978 729.701 323.086C735.927 325.188 732.177 320.426 729.431 319.316Z" fill="#288453"/>
<path d="M335.591 588.611C332.195 587.252 325.41 570.286 329.483 566.22C333.555 562.148 336.268 562.825 332.878 551.967C329.483 541.11 330.166 483.429 330.166 459.678C330.166 435.928 330.166 414.89 334.238 405.392C338.31 395.895 334.238 386.391 336.951 381.642C339.663 376.893 347.131 373.497 347.131 373.497C347.131 373.497 349.168 351.106 350.527 347.711C351.887 344.315 366.133 338.89 371.565 338.89C376.997 338.89 376.997 341.602 385.818 351.106C394.639 360.604 401.424 366.036 403.46 369.432C405.496 372.827 404.82 376.9 406.856 381.648C408.892 386.397 420.426 431.869 422.462 436.617C424.498 441.366 424.498 440.013 425.174 451.547C425.851 463.081 427.21 502.444 427.887 505.833C428.564 509.228 427.887 511.941 433.319 515.33C438.751 518.726 438.751 524.828 440.104 528.224C441.463 531.619 441.463 544.513 441.463 550.614C441.463 556.716 440.104 581.833 440.787 585.905C441.463 589.977 444.859 594.726 436.038 596.086C427.217 597.445 409.575 598.122 401.43 598.799C393.286 599.475 391.25 596.086 391.25 596.086C391.25 596.086 369.535 594.726 360.031 594.726C350.527 594.726 347.138 596.762 345.778 594.05C344.412 591.324 338.987 589.964 335.591 588.611Z" fill="#856792"/>
<path d="M386.133 591.442L386.488 579.271L371.453 561.373L374.317 535.961L361.792 526.654L358.573 509.833L348.55 494.444C348.55 494.444 357.141 466.168 356.78 464.02C356.425 461.872 370.383 456.506 370.383 456.506L386.488 475.836L382.908 495.166L386.488 514.135L409.752 579.285L401.522 578.569L397.943 595.39L386.133 591.442Z" fill="#665070"/>
<path d="M358.928 374.883L364.294 373.451C364.294 373.451 377.805 381.865 377.805 389.918C377.805 397.97 372.971 407.639 372.971 407.639C372.971 407.639 371.361 422.134 374.58 430.995C377.798 439.855 390.685 459.987 390.685 459.987L406.79 468.039C406.79 468.039 407.598 480.926 409.207 483.343C410.718 485.609 410.1 495.606 410.1 495.606C410.1 495.606 414.127 501.78 414.396 498.023C414.665 494.266 419.677 492.204 419.677 492.204L414.843 480.125L415.651 464.821L393.903 455.159L379.407 430.194L378.6 411.671L383.434 389.924C383.434 389.924 377.168 376.144 371.801 372.387C369.509 370.778 354.98 373.103 354.98 373.103L358.928 374.883Z" fill="#BB83C3"/>
<path d="M411.637 484.145L409.22 490.857L411.637 539.718C411.637 539.718 414.77 527.008 416.38 514.122C417.989 501.241 411.637 484.145 411.637 484.145Z" fill="#BB83C3"/>
<path d="M332.438 569.248C332.438 569.248 338.882 576.23 342.639 576.23C346.396 576.23 351.23 568.178 351.23 568.178C351.23 568.178 363.04 567.639 365.187 567.639C367.335 567.639 375.926 575.692 375.926 575.692L384.517 580.526L379.683 581.064L373.24 577.846L364.11 571.403L352.833 571.941L343.703 581.071L334.573 574.089L332.438 569.248Z" fill="#BB83C3"/>
<path d="M349.082 573.544L343.716 584.822L345.772 594.037L339.953 588.04L338.882 578.378H342.639L349.082 573.544Z" fill="#BB83C3"/>
<path d="M371.368 346.423L365.726 354.305L368.951 363.934L377.811 372.689L379.421 386.693L382.639 373.563L376.196 365.688L370.56 356.059L371.368 346.423Z" fill="#BB83C3"/>
<path d="M338.343 401.997C338.343 401.997 334.317 431.796 335.125 439.849C335.933 447.902 341.568 455.153 341.568 459.98C341.568 464.808 340.76 482.529 334.317 493.806C327.874 505.084 331.098 466.424 331.098 466.424L329.489 431.79C329.483 431.796 329.483 402.804 338.343 401.997Z" fill="#BB83C3"/>
<path d="M344.248 483.074C337.535 497.839 334.849 498.378 338.882 506.43C342.908 514.483 351.23 534.082 351.23 534.082C351.23 534.082 365.726 553.412 368.951 554.214C372.169 555.022 368.143 535.691 368.143 535.691L361.7 538.109L357.673 534.89L348.813 505.09L343.979 497.839L349.614 476.9L348.544 455.96L344.517 463.212L344.248 483.074Z" fill="#BB83C3"/>
<path d="M356.064 404.414L352.038 418.108L356.064 435.823V447.1L359.283 435.021L356.064 418.108L359.283 397.97L356.064 404.414Z" fill="#665070"/>
<path d="M356.064 429.379L364.117 431.796L374.586 430.995L365.726 437.432L356.064 435.823V429.379Z" fill="#665070"/>
<path d="M359.283 397.97L348.813 394.752L343.985 387.5L337.542 389.11L340.76 393.136L346.396 398.778L359.283 397.97Z" fill="#665070"/>
<path d="M352.642 461.458C354.074 463.606 359.086 464.677 360.156 460.92C361.227 457.163 356.938 455.554 356.938 455.554C356.938 455.554 351.21 459.311 352.642 461.458Z" fill="#288453"/>
<path d="M353.536 445.531C353.536 445.531 352.465 456.27 358.37 452.513C364.274 448.756 357.831 443.383 353.536 445.531Z" fill="#33A86D"/>
<path d="M364.275 457.347C364.275 457.347 365.345 464.861 368.032 460.033C370.718 455.199 368.57 452.513 364.275 457.347Z" fill="#33A86D"/>
<path d="M358.37 467.547C358.37 467.547 363.204 456.27 363.736 461.642C364.274 467.009 358.37 467.547 358.37 467.547Z" fill="#33A86D"/>
<path d="M532.853 437.117C532.853 437.117 532.137 422.739 536.446 429.209C540.755 435.679 537.162 439.278 537.162 439.278C537.162 439.278 541.477 429.209 545.792 437.839C550.108 446.47 539.323 447.908 539.323 447.908C539.323 447.908 524.945 448.624 524.945 437.839C524.945 427.055 532.853 437.117 532.853 437.117Z" fill="#33A86D"/>
<path d="M395.066 337.629C395.066 337.629 386.994 329.018 386.994 332.788C386.994 336.558 392.373 340.86 392.373 340.86C392.373 340.86 385.378 340.322 386.455 344.092C387.532 347.862 392.912 345.708 392.912 345.708C392.912 345.708 398.291 355.934 400.984 345.708C403.677 335.481 397.752 320.407 395.066 337.629Z" fill="#33A86D"/>
<path d="M418.429 363.586C417.188 359.455 425.621 350.647 425.621 356.394C425.621 362.148 420.583 370.778 418.429 363.586Z" fill="#33A86D"/>
<path d="M414.015 374.837C414.015 374.837 419.729 366.266 421.161 371.501C422.593 376.736 415.44 383.882 414.015 374.837Z" fill="#33A86D"/>
<path d="M417.706 398.096C417.706 398.096 409.798 384.434 417.706 385.872C425.621 387.311 422.744 404.572 417.706 398.096Z" fill="#33A86D"/>
<path d="M425.621 397.379C425.621 397.379 436.406 386.594 435.69 393.064C434.968 399.534 429.214 403.849 425.621 397.379Z" fill="#33A86D"/>
<path d="M413.398 401.695C413.398 401.695 402.613 400.979 407.644 403.849C412.675 406.726 420.583 407.448 413.398 401.695Z" fill="#33A86D"/>
<path d="M409.082 393.064C409.082 393.064 399.013 390.91 404.767 394.502C410.521 398.095 409.082 393.064 409.082 393.064Z" fill="#33A86D"/>
<path d="M426.337 414.634C426.337 414.634 427.775 401.695 432.807 405.288C437.844 408.887 434.968 416.795 426.337 414.634Z" fill="#33A86D"/>
<path d="M422.022 422.542C422.022 422.542 414.114 410.319 421.306 414.634C428.491 418.949 429.93 422.542 422.022 422.542Z" fill="#33A86D"/>
<path d="M424.183 431.172C424.183 431.172 428.498 417.511 432.091 426.857C435.683 436.204 425.621 436.926 424.183 431.172Z" fill="#33A86D"/>
<path d="M427.059 443.396C427.059 443.396 414.836 431.889 419.151 438.365C423.46 444.834 427.059 443.396 427.059 443.396Z" fill="#33A86D"/>
<path d="M436.406 436.926C436.406 436.926 426.337 444.118 434.968 441.958C443.592 439.803 441.437 437.642 436.406 436.926Z" fill="#33A86D"/>
<path d="M418.068 429.373C418.068 429.373 411.598 435.843 417.707 434.05C423.815 432.256 425.26 427.58 418.068 429.373Z" fill="#33A86D"/>
<path d="M422.744 447.35C422.744 447.35 419.506 457.774 427.421 454.181C435.322 450.588 433.89 441.958 422.744 447.35Z" fill="#33A86D"/>
<path d="M434.968 453.465C434.968 453.465 439.644 447.357 442.876 450.588C446.107 453.82 425.621 461.734 434.968 453.465Z" fill="#33A86D"/>
<path d="M424.898 457.419C424.898 457.419 409.437 463.173 421.306 461.373C433.168 459.573 430.652 459.212 424.898 457.419Z" fill="#33A86D"/>
<path d="M428.491 463.173C428.491 463.173 431.73 468.204 436.4 464.972C441.069 461.741 437.483 462.45 428.491 463.173Z" fill="#33A86D"/>
<path d="M441.437 457.058C441.437 457.058 453.299 457.058 446.114 458.857C438.928 460.657 435.322 459.934 441.437 457.058Z" fill="#33A86D"/>
<path d="M423.099 466.043C423.099 466.043 417.707 473.235 427.776 469.281C437.845 465.327 423.099 466.043 423.099 466.043Z" fill="#33A86D"/>
<path d="M438.199 467.481C438.199 467.481 431.729 475.389 442.153 471.435C452.583 467.481 448.984 464.966 438.199 467.481Z" fill="#33A86D"/>
<path d="M426.337 473.958C426.337 473.958 425.976 478.273 431.729 475.757C437.483 473.235 435.683 472.158 426.337 473.958Z" fill="#33A86D"/>
<path d="M427.414 481.143C427.414 481.143 420.944 484.736 429.214 484.381C437.483 484.02 427.414 481.143 427.414 481.143Z" fill="#33A86D"/>
<path d="M412.675 411.403C412.675 411.403 399.013 408.887 406.206 412.48C413.398 416.073 414.114 413.196 412.675 411.403Z" fill="#33A86D"/>
<path d="M420.945 407.087C420.945 407.087 409.083 405.287 415.552 408.526C422.022 411.757 424.183 409.964 420.945 407.087Z" fill="#33A86D"/>
<path d="M433.89 418.588C433.89 418.588 445.753 412.48 441.437 417.511C437.122 422.542 424.537 426.857 433.89 418.588Z" fill="#33A86D"/>
<path d="M396.859 355.199C396.859 355.199 382.961 352.322 388.708 356.158C394.455 359.994 402.133 359.994 396.859 355.199Z" fill="#33A86D"/>
<path d="M397.339 361.911C397.339 361.911 390.146 371.98 400.215 368.144C410.284 364.309 404.051 359.993 397.339 361.911Z" fill="#33A86D"/>
<path d="M396.859 355.199C396.859 355.199 408.839 352.322 402.133 357.117C395.421 361.911 396.859 355.199 396.859 355.199Z" fill="#33A86D"/>
<path d="M404.524 344.171C404.524 344.171 395.894 356.631 406.442 349.925C416.99 343.219 412.675 337.944 404.524 344.171Z" fill="#33A86D"/>
<path d="M411.237 351.842C411.237 351.842 417.949 354.24 410.278 356.637C402.613 359.034 405.004 357.596 411.237 351.842Z" fill="#33A86D"/>
<path d="M409.798 360.473C409.798 360.473 402.606 367.186 411.237 364.309C419.867 361.432 417.949 359.514 409.798 360.473Z" fill="#33A86D"/>
<path d="M405.004 373.892C405.004 373.892 391.585 374.851 401.647 377.727C411.71 380.604 409.798 375.81 405.004 373.892Z" fill="#33A86D"/>
<path d="M406.442 369.097C406.442 369.097 415.552 361.425 413.155 367.179C410.757 372.933 403.572 373.412 406.442 369.097Z" fill="#33A86D"/>
<path d="M414.613 368.059C414.613 368.059 426.12 365.182 418.449 369.018C410.777 372.854 414.613 368.059 414.613 368.059Z" fill="#33A86D"/>
<path d="M402.613 382.043C402.613 382.043 387.276 383.481 396.859 385.399C406.442 387.311 405.483 383.961 402.613 382.043Z" fill="#33A86D"/>
<path d="M394.941 376.769C394.941 376.769 384.872 376.769 389.667 379.166C394.462 381.563 400.215 381.563 394.941 376.769Z" fill="#33A86D"/>
<path d="M660.682 431.441L545.234 432.604C542.974 432.604 537.897 431.172 537.897 437.885C537.897 444.597 537.943 448.131 537.943 448.131L662.042 447.73L660.682 431.441Z" fill="#4B3355"/>
<path d="M513.648 471.744C513.648 471.744 512.938 470.673 512.708 463.875C512.439 455.954 511.763 453.209 514.856 451.658C518.613 449.78 528.144 449.241 528.144 449.241L652.683 446.095L653.221 456.131V473.097L513.648 471.744Z" fill="#4B3355"/>
<path d="M512.551 454.102C512.551 454.102 511.92 451.586 515.263 450.706C523.217 448.617 527.697 447.185 538.075 446.831C548.452 446.476 653.214 446.634 653.214 446.634V456.131L512.551 454.102Z" fill="#FEED7F"/>
<path d="M514.186 471.665C514.186 471.665 513.917 471.888 505.687 474.213C497.457 476.539 496.472 479.015 496.472 481.727C496.472 484.44 503.723 483.875 503.723 483.875L651.868 486.023V472.565L514.186 471.665Z" fill="#FEED7F"/>
<path d="M498.882 497.675C495.303 497.675 492.978 499.809 486.712 503.028C481.982 505.465 478.482 506.607 477.766 510.542C476.912 515.225 653.221 525.491 653.221 525.491V499.034C653.221 499.034 502.462 497.675 498.882 497.675Z" fill="#FFACFF"/>
<path d="M483.848 506.253C480.491 507.1 479.079 506.535 477.943 508.447C477.03 509.977 476.689 512.979 476.689 514.489C476.689 517.885 476.583 525.504 476.583 525.504H653.215L650.646 508.407C650.646 508.407 580.111 507.468 530.738 506.838L527.467 508.591C527.467 508.591 523.736 506.752 522.501 506.732C501.175 506.443 485.319 505.879 483.848 506.253Z" fill="#4B3355"/>
<path d="M657.32 533.977L460.767 535.061C460.143 535.061 459.697 531.304 462.179 530.345L476.465 525.55C476.544 525.511 476.636 525.491 476.728 525.491H662.285C662.758 525.491 663.04 526.023 662.771 526.417L657.806 533.715C657.694 533.885 657.517 533.977 657.32 533.977Z" fill="#FFACFF"/>
<path d="M457.45 545.807C457.45 545.807 456.642 542.227 457.004 538.739C457.358 535.252 460.583 532.204 460.583 532.204C460.583 531.028 462.087 531.488 463.27 531.488L652.374 531.672C653.549 531.672 654.508 532.624 654.508 533.807V544.749C654.508 545.925 653.556 546.877 652.38 546.884L461.404 547.278C460.222 547.278 457.45 546.982 457.45 545.807Z" fill="#665070"/>
<path d="M459.624 545.754L437.903 554.575L622.646 559.586L664.078 554.575L657.812 546.7L459.624 545.754Z" fill="#FFACFF"/>
<path d="M437.904 554.535C437.904 554.535 435.526 564.598 435.165 567.1C434.81 569.603 437.904 572.657 437.904 572.657H658.647L666.108 553.859L629.891 555.291C629.891 555.291 623.513 557.439 621.839 557.439C615.664 557.439 608.682 554.03 608.682 554.03L437.904 554.535Z" fill="#665070"/>
<path d="M436.478 572.841L425.109 575.816C420.071 577.136 417.989 577.281 417.989 582.49L416.557 587.501C416.557 593.826 414.527 598.956 420.853 598.956H650.587C656.912 598.956 662.042 593.826 662.042 587.501V583.915C662.042 577.59 656.912 572.46 650.587 572.46H439.381C438.403 572.473 437.431 572.598 436.478 572.841Z" fill="#665070"/>
<path d="M437.726 572.519L420.938 576.913C419.591 577.268 419.499 579.146 420.806 579.632L430.186 583.094C430.402 583.173 440.307 578.949 440.537 578.917L464.058 578.93C464.13 578.923 464.202 578.917 464.275 578.917L578.639 581.583C579.125 581.596 579.579 581.853 579.828 582.273C580.38 583.192 581.707 583.199 582.265 582.286L582.764 581.472C583.02 581.051 583.48 580.795 583.979 580.795H656.104C657.076 580.795 657.766 579.843 657.457 578.917L655.993 574.516C655.802 573.938 655.257 573.544 654.646 573.544L438.094 572.473C437.969 572.473 437.844 572.486 437.726 572.519Z" fill="#FFACFF"/>
<path d="M546.134 430.726C546.134 430.726 536.472 433.32 538.62 434.128C540.767 434.936 562.784 434.483 571.106 435.021C579.428 435.56 654.331 434.483 654.331 434.483C654.331 434.483 657.195 430.726 647.264 430.995C637.32 431.258 546.134 430.726 546.134 430.726Z" fill="#FEED7F"/>
<path d="M515.172 453.813L518.751 454.884L520.538 456.493L532.709 454.706L535.572 455.422L539.868 453.274L515.172 453.813Z" fill="#FEED7F"/>
<path d="M635.789 480.223L632.045 483.343L629.674 480.263L627.586 480.276L626.673 481.918L622.456 480.309L565.464 480.657L561.418 481.885L556.873 482.535L547.743 479.632L499.06 479.402C499.06 479.402 496.465 479.015 496.465 481.728C496.465 484.44 495.48 496.939 498.166 498.549C500.853 500.158 651.862 500.381 651.862 500.381V480.118L635.789 480.223Z" fill="#4B3355"/>
<path d="M532.708 503.206L538.213 509.445C538.213 509.445 547.382 508.821 550.134 509.445C552.012 509.872 578.705 510.181 578.705 510.181L585.897 511.002L594.094 507.317L581.773 504.447L532.708 503.206Z" fill="#FFACFF"/>
<path d="M472.846 530.588L489.759 533.813L494.744 534.995L503.178 534.884L510.16 535.961L523.585 528.979L472.846 530.588Z" fill="#FFACFF"/>
<path d="M546.85 552.782L551.5 557.077L561.523 559.225L566.18 556.723L572.978 557.077L580.853 552.782H546.85Z" fill="#FFACFF"/>
<path d="M499.066 479.402L511.06 479.757L513.923 481.905L512.491 485.839L516.071 491.205V495.14L522.869 494.069L526.088 498.004L497.096 497.288C497.096 497.288 496.025 496.572 496.025 490.844C496.025 485.117 495.303 478.687 499.066 479.402Z" fill="#34283A"/>
<path d="M457.45 545.806C457.45 545.806 453.779 539.901 460.583 532.204L464.518 531.665L464.163 537.392L468.603 543.067C468.721 543.094 468.833 543.021 468.859 542.903L469.174 541.327L483.493 538.463L484.925 542.043L482.422 545.622L457.45 545.806Z" fill="#4B3355"/>
<path d="M487.881 515.56L490.567 519.048L491.237 522.135L496.34 522.266L498.889 524.952L499.427 525.353H481.706L476.728 525.498L476.472 519.448C476.472 519.448 476.472 510.989 476.872 510.187C477.273 509.386 478.889 507.369 478.889 507.369L484.255 505.892L488.55 508.039L487.881 515.56Z" fill="#34283A"/>
<path d="M444.294 579.094L446.265 586.969L452.169 588.04L454.856 593.412L460.583 598.956H431.946L432.846 593.59L428.366 589.472L430.875 583.389L440.537 578.917L444.294 579.094Z" fill="#4B3355"/>
<path d="M494.232 579.633L493.785 583.744L498.166 587.147L505.595 585.623L511.414 590.726L519.519 580.191L494.232 579.633Z" fill="#4B3355"/>
<path d="M462.015 578.555L463.447 580.703L468.097 577.485L473.109 580.703H480.268C480.268 580.703 480.623 583.567 481.7 583.922C482.777 584.276 489.575 577.84 489.575 577.84L462.731 574.621L462.015 578.555Z" fill="#FFACFF"/>
<path d="M608.774 530.233L610.922 533.813L618.081 534.168L626.311 532.02L629.891 533.813L632.4 530.233H608.774Z" fill="#FFACFF"/>
<path d="M532.853 437.117C532.853 437.117 532.137 422.739 536.446 429.208C540.754 435.678 537.162 439.277 537.162 439.277C537.162 439.277 541.477 429.208 545.792 437.839C550.107 446.47 539.323 447.908 539.323 447.908C539.323 447.908 524.945 448.624 524.945 437.839C524.945 427.054 532.853 437.117 532.853 437.117Z" fill="#33A86D"/>
<path d="M647.408 488.178C647.408 488.178 647.408 467.14 647.408 459.678C647.408 452.217 651.481 447.554 651.481 447.554C651.481 447.554 651.848 432.427 652.177 428.985C652.577 424.69 661.753 416.414 661.753 416.414L663.697 405.675V321.235C663.697 321.235 661.661 315.803 660.985 314.45C660.308 313.09 660.985 306.988 660.985 306.988C660.985 306.988 679.986 298.844 682.023 298.844C684.059 298.844 722.739 309.701 722.739 309.701C722.739 309.701 745.13 336.164 745.813 340.236C746.489 344.309 745.813 374.167 745.813 374.167L764.394 382.667L774.056 407.632C774.056 407.632 780.414 447.455 783.133 448.132C785.846 448.808 794.667 473.918 795.35 477.99C797.537 491.12 801.445 480.217 801.445 520.066L811.107 534.996L815.133 585.715L787.212 605.222L663.185 603.252L652.164 599.318L647.408 488.178Z" fill="#665070"/>
<path d="M717.346 379.179L733.753 387.231L736.019 395.823L742.246 403.337L747.336 416.762L747.461 426.962L772.716 432.867L773.254 439.041C773.254 439.041 771.645 461.32 771.645 465.616C771.645 469.911 770.384 504.007 770.384 504.007L779.435 527.632L770.384 599.58L657.937 590.72L655.671 512.867L664.157 439.849L676.604 431.258L682.266 388.302L696.978 371.12L717.346 379.179Z" fill="#856792"/>
<path d="M644.926 502.135C644.926 502.135 646.804 482.588 646.804 473.413C646.804 470.844 647.408 461.307 647.408 459.678C647.408 456.953 647.953 454.601 648.643 452.71C649.839 449.432 651.481 447.554 651.481 447.554C651.481 447.554 652.032 430.529 652.177 428.985C652.577 424.69 661.753 416.414 661.753 416.414L671.06 420.709L672.492 413.911L663.697 394.581V321.235C663.697 321.235 661.661 315.803 660.985 314.45C660.308 313.09 660.985 306.988 660.985 306.988C660.985 306.988 679.986 298.844 682.023 298.844C684.059 298.844 683.054 354.483 683.054 354.483C683.054 354.483 719.422 364.105 720.098 368.177C720.775 372.25 684.932 488.986 684.932 488.986L644.393 535.968L644.926 502.135Z" fill="#856792"/>
<path d="M668.551 433.406L672.308 406.562L694.568 385.084L723.316 387.232C723.316 387.232 727.881 391.357 728.558 396.105C729.234 400.854 738.351 410.857 738.351 410.857C738.351 410.857 740.072 422.68 741.569 432.454C741.924 434.779 763.941 438.358 764.656 439.048C769.556 443.744 765.727 478.155 765.727 481.735C765.727 485.314 790.824 506.26 791.501 509.656C792.177 513.052 797.714 528.217 797.714 528.217C797.714 528.217 786.134 600.763 786.134 604.152C786.134 607.541 664.787 603.344 664.787 603.344V444.145L668.551 433.406Z" fill="#1D2538"/>
<path d="M686.226 364.545L692.157 355.941L683.231 354.01L686.226 364.545Z" fill="#665070"/>
<path d="M684.663 313.405L677.412 319.849L686.272 327.901L684.663 313.405Z" fill="#665070"/>
<path d="M719.56 315.822L724.394 340.519C724.394 340.519 731.376 352.867 735.671 358.239C739.967 363.606 739.428 379.179 739.428 379.179L750.167 386.161L736.21 381.327C736.21 381.327 735.671 363.606 734.062 360.926C732.453 358.239 724.932 347.501 722.253 344.282C719.56 341.057 719.56 315.822 719.56 315.822Z" fill="#4B3355"/>
<path d="M667.803 470.949C667.803 470.949 659.895 470.667 655.56 471.14C650.87 471.652 647.651 472.27 642.942 479.994C638.903 486.621 637.103 492.992 635.973 495.626C634.844 498.26 635.218 499.771 638.607 502.785C641.996 505.8 661.963 515.593 672.505 504.67C683.054 493.747 681.543 479.81 678.154 476.421C674.765 473.031 667.803 470.949 667.803 470.949Z" fill="#665070"/>
<path d="M692.663 453.419C687.954 450.221 672.847 449.511 665.871 451.659C654.147 455.265 654.062 461.859 651.375 468.841C649.451 473.84 652.275 481.104 656.052 482.569C659.829 484.027 673.635 483.758 678.357 480.349C683.08 476.94 697.372 456.624 692.663 453.419Z" fill="#665070"/>
<path d="M682.305 452.289C682.305 452.289 674.995 451.659 683.054 457.57L672.906 472.296C672.906 472.296 666.147 475.416 664.072 480.611C661.996 485.807 666.003 499.147 665.734 501.262C664.604 510.299 652.926 544.953 655.94 557.387C658.955 569.813 684.19 560.401 712.065 564.546C739.941 568.69 787.402 560.401 794.181 558.897C800.959 557.393 795.153 531.521 792.486 525.183C786.456 510.871 788.151 502.772 785.143 491.094C782.128 479.416 787.783 472.71 772.341 463.291C756.887 453.872 697.747 447.396 682.305 452.289Z" fill="#856792"/>
<path d="M729.721 444.926C729.721 444.926 739.317 445.051 748 447.192C750.384 447.777 756.013 445.99 758.476 446.66C768.223 449.314 776.663 454.45 777.879 457.051C780.512 462.7 784.282 484.926 780.893 487.941C777.504 490.956 773.465 494.857 766.68 494.857C759.895 494.857 748.598 493.728 747.094 487.698C745.583 481.669 716.538 461.498 729.721 444.926Z" fill="#856792"/>
<path d="M672.321 504.27L665.727 497.11C653.674 496.355 646.515 497.485 641.622 501.255C636.722 505.018 633.333 511.987 632.203 521.78C631.073 531.574 631.073 538.352 641.241 545.511C651.408 552.671 654.049 551.16 664.972 554.549C675.895 557.938 694.318 554.207 694.318 554.207L696.466 548.303L697.537 538.102C697.537 538.102 695.704 528.611 695.927 525.754C696.118 523.298 689.826 514.812 686.062 514.437C682.298 514.063 675.139 513.308 672.124 512.178L672.321 504.27Z" fill="#856792"/>
<path d="M680.433 520.854H685.116C685.116 520.854 684.617 518.24 692.637 517.721C700.663 517.196 700.703 522.707 700.703 522.707C700.703 522.707 701.353 527.895 702.791 533.708C703.849 537.997 703.172 542.313 703.172 544.92C703.172 551.068 699.658 556.887 694.64 558.451C690.955 559.6 682.857 557.676 678.627 553.465C677.103 551.948 676.085 550.135 675.954 548.06C675.737 544.717 677.392 540.139 677.386 536.132C677.386 534.595 675.652 533.452 675.671 532.033C675.737 528.48 675.875 525.478 676.085 523.981C676.591 520.329 680.433 520.854 680.433 520.854Z" fill="#665070"/>
<path d="M679.842 522.812H685.648C685.648 522.812 685.609 520.244 688.256 519.968C698.207 519.495 696.965 524.237 696.965 524.237C696.965 524.237 699.54 528.033 700.847 534.49C701.668 538.516 701.707 542.286 701.707 544.657C701.707 550.24 696.965 555.541 690.745 556.96C686.174 558.004 682.85 556.257 677.609 552.434C675.724 551.055 674.456 549.406 674.292 547.528C674.029 544.493 676.072 540.336 676.065 536.697C676.065 535.298 673.911 534.267 673.944 532.973C674.023 529.741 674.2 527.022 674.456 525.662C675.073 522.339 679.842 522.812 679.842 522.812Z" fill="#856792"/>
<path d="M798.897 563.6C798.897 575.462 800.427 590.247 798.897 593.689C797.366 597.131 795.941 600.106 788.289 603.613C779.12 607.817 773.294 604.769 766.41 607.449C759.527 610.129 749.215 609.36 736.217 608.979C723.225 608.599 722.456 605.157 716.722 607.83C710.988 610.503 699.527 612.034 699.139 601.715C698.758 591.397 698.377 569.229 699.52 563.495C700.67 557.761 705.057 558.313 710.41 557.951C716.144 557.57 724.361 559.672 724.361 559.672C736.913 554.575 753.379 555.291 753.379 555.291C753.379 555.291 762.962 552.795 770.607 550.503C778.253 548.211 777.484 548.211 780.545 545.919C783.606 543.62 798.897 551.731 798.897 563.6Z" fill="#665070"/>
<path d="M646.331 541.564C646.331 541.564 627.842 547.823 622.489 551.265C617.136 554.707 614.843 557.38 614.843 566.549C614.843 575.718 615.993 582.983 615.993 586.805C615.993 590.628 622.489 597.124 626.692 602.09C630.896 607.055 633.569 605.144 642.745 606.293C651.921 607.443 653.825 604.382 660.709 605.144C667.586 605.906 678.292 603.613 678.292 603.613C678.292 603.613 680.584 606.668 687.08 607.436C693.576 608.198 688.61 608.198 695.106 607.817C701.602 607.436 705.425 605.525 705.044 589.091C704.663 572.658 708.486 566.162 702.371 561.577C696.256 556.993 694.725 556.612 688.991 556.224C683.257 555.837 682.259 557.603 678.055 556.842C673.852 556.08 655.888 552.638 653.215 548.815C650.535 545.006 652.827 543.856 646.331 541.564Z" fill="#665070"/>
<path d="M741.648 450.976C741.648 450.976 744.597 464.88 748.394 470.785C752.19 476.69 752.282 477.938 760.289 479.206C768.295 480.467 773.353 478.785 773.353 478.785C773.353 478.785 775.625 482.903 766.147 482.687C756.663 482.477 747.816 480.368 746.128 479.107C744.44 477.846 743.336 467.836 741.648 461.728C739.96 455.619 741.648 450.976 741.648 450.976Z" fill="#665070"/>
<path d="M770.824 512.986C770.824 512.986 766.614 511.114 764.414 511.238C762.213 511.363 757.819 517.478 756.538 519.797C755.258 522.115 756.893 535.547 756.893 537.945C756.893 540.342 755.987 541.885 759.284 543.166C762.581 544.447 767.159 542.877 768.079 542.936C768.992 542.995 771.744 540.506 770.279 540.145C768.814 539.784 762.588 541.518 761.307 540.9C760.026 540.283 759.107 536.493 759.107 536.493C759.107 536.493 758.194 528.171 758.555 525.531C758.916 522.89 760.387 520.053 760.387 520.053C760.387 520.053 762.949 513.82 764.42 513.918C765.878 514.004 770.824 512.986 770.824 512.986Z" fill="#665070"/>
<path d="M754.463 556.901L742.739 565.86C742.739 565.86 737.616 585.072 738.548 589.59C739.481 594.109 745.07 600.323 745.07 600.323L762.772 606.536C762.772 606.536 769.294 607.101 773.484 603.147C777.675 599.193 775.816 590.149 775.816 590.149C775.816 590.149 773.405 559.948 770.844 557.971C768.282 555.994 754.463 556.901 754.463 556.901Z" fill="#856792"/>
<path d="M710.975 559.074C710.975 559.074 700.683 555.685 700.197 558.51C699.711 561.334 698.239 576.027 699.218 579.981C700.197 583.935 701.175 586.194 701.175 586.194L699.218 590.713C699.218 590.713 699.277 608.053 702.43 608.704C705.589 609.36 712.939 602.011 712.939 602.011L715.881 592.408C715.881 592.408 716.86 564.158 715.389 562.464C713.918 560.769 710.975 559.074 710.975 559.074Z" fill="#856792"/>
<path d="M780.611 513.538C780.611 513.538 783.435 518.746 784 524.986C784.565 531.226 782.818 537.446 778.916 542.273C771.639 551.278 770.864 550.648 770.864 550.648C770.864 550.648 755.888 553.374 751.369 551.482L770.016 546.089C770.016 546.089 780.998 536.349 780.998 534.654C780.998 532.96 779.961 518.72 779.961 518.72L780.611 513.538Z" fill="#665070"/>
<path d="M689.642 434.844C689.642 434.844 690.673 438.621 689.813 440.861C688.952 443.094 685.944 442.667 683.54 442.667C681.136 442.667 678.988 442.411 677.786 441.379C676.584 440.348 674.844 434.64 675.724 433.307C676.604 431.974 679.501 432.447 683.113 432.966C686.726 433.484 689.642 434.844 689.642 434.844Z" fill="#856792"/>
<path d="M730.995 449.34C730.995 449.34 731.501 433.347 729.727 428.782C727.947 424.21 727.947 424.723 723.126 421.419C718.305 418.122 717.543 418.627 717.287 416.598C717.031 414.568 715.507 413.55 705.359 413.55C695.205 413.55 685.051 414.568 682.771 416.598C680.492 418.627 677.845 426.857 677.845 426.857C677.845 426.857 675.809 435.56 677.688 448.073C677.714 451.508 678.226 456.053 678.226 456.053L676.794 456.769C676.794 456.769 677.537 470.667 678.298 473.202C679.06 475.738 678.555 478.536 693.53 477.518C708.505 476.5 719.422 475.738 721.957 470.917C724.492 466.096 726.91 462.759 726.91 462.759C726.91 462.759 731.553 456.138 730.995 449.34Z" fill="#856792"/>
<path d="M699.014 437.675C699.014 437.675 701.044 442.076 702.397 443.429C703.75 444.782 713.904 445.124 713.904 445.124C713.904 445.124 708.492 445.8 705.103 445.8C701.72 445.8 700.367 444.447 700.367 444.447L699.014 437.675Z" fill="#665070"/>
<path d="M688.42 437.794C686.272 435.376 677.011 434.615 676.873 436.296C676.742 437.971 678.154 442.496 679.737 442.897C681.149 443.252 687.77 443.863 688.236 442.542C688.617 441.465 690.568 440.211 688.42 437.794Z" fill="#665070"/>
<path d="M718.469 431.107L730.233 431.146L730.167 433.005L722.364 434.87C722.364 434.87 720.499 439.54 719.829 440.71C717.149 445.353 700.775 441.997 700.775 441.997L699.435 438.779L718.469 431.107Z" fill="#665070"/>
<path d="M676.696 456.408C676.696 456.408 677.53 462.03 679.054 467.107C680.578 472.184 681.077 474.641 684.637 474.897C688.19 475.153 702.837 475.048 712.23 474.037C721.622 473.019 723.488 468.631 725.011 465.334C726.535 462.037 727.297 457.721 727.297 457.721C727.297 457.721 728.565 460.007 727.803 462.542C727.041 465.078 727.691 473.531 721.09 474.799C716.735 475.633 693.333 477.781 684.131 477.439C677.28 477.183 677.537 473.964 677.031 466.858C676.512 459.744 676.696 456.408 676.696 456.408Z" fill="#665070"/>
<path d="M698.252 435.041C698.252 435.041 699.1 439.948 701.471 441.13C703.842 442.312 711.284 442.148 714.837 441.977C718.39 441.807 717.885 442.148 718.22 439.271C718.561 436.394 719.238 429.964 717.543 429.117C715.849 428.27 702.141 432.335 698.252 435.041Z" fill="#34283A"/>
<path d="M688.394 436.572C688.394 436.572 689.156 439.363 688.519 441.012C687.881 442.66 685.668 442.345 683.888 442.345C682.115 442.345 680.525 442.155 679.638 441.393C678.752 440.631 677.464 436.421 678.115 435.435C678.765 434.45 680.906 434.798 683.566 435.179C686.239 435.554 688.394 436.572 688.394 436.572Z" fill="#34283A"/>
<path d="M731.415 429.117C731.415 429.117 731.192 432.165 728.617 432.165C726.043 432.165 719.199 430.05 714.305 431.574C709.412 433.097 701.622 437.603 698.791 437.603C695.96 437.603 690.614 437.669 688.808 437.669C687.001 437.669 685.977 435.639 681.596 435.383C677.215 435.127 675.001 435.744 674.594 435.16C673.819 432.112 674.128 426.503 676.446 424.473C678.765 422.444 673.372 413.478 689.839 411.528C719.822 407.974 719.297 413.308 720.841 414.825C722.384 416.349 725.504 416.244 727.356 417.281C731.586 419.639 731.415 425.058 731.415 429.117Z" fill="#856792"/>
<path d="M678.751 432.874C672.308 432.335 674.127 426.496 676.446 424.467C678.765 422.437 673.372 413.471 689.838 411.521C719.822 407.967 719.297 413.301 720.84 414.818C721.852 415.816 711.875 419.981 706.331 423.619C700.788 427.258 699.284 424.624 697.668 425.695C696.059 426.765 687.671 424.138 688.413 424.276C688.42 424.283 681.543 433.104 678.751 432.874Z" fill="#665070"/>
<path d="M678.725 446.142L679.231 455.705L676.748 456.421L676.84 458.043C676.84 458.043 703.908 456.296 714.568 458.831L712.538 456.296C712.538 456.296 696.236 454.01 681.681 455.199L680.243 452.913L678.725 446.142Z" fill="#665070"/>
<path d="M688.473 437.662C688.473 437.662 691.481 438.253 691.908 438.253C692.328 438.253 694.193 437.997 694.193 437.997L699.356 437.577L698.85 438.339L694.279 439.777L691.06 439.862L688.768 439.468L688.473 437.662Z" fill="#665070"/>
<path d="M731.133 443.56C731.133 443.56 731.198 453.576 730.207 455.862C728.512 460.02 727.073 461.682 727.073 461.682L727.415 458.358C727.415 458.358 729.694 455.862 730.036 454.621C730.371 453.373 731.133 443.56 731.133 443.56Z" fill="#665070"/>
<path d="M679.973 417.609C679.973 417.609 683.021 423.192 685.307 424.21C687.592 425.228 693.432 423.705 693.432 423.705C693.432 423.705 685.563 427.764 684.039 426.752C682.515 425.734 679.973 417.609 679.973 417.609Z" fill="#856792"/>
<path d="M638.962 503.633C638.962 503.633 643.835 501.38 649.865 499.324C655.894 497.268 658.528 496.901 658.528 496.901C658.528 496.901 654.949 494.109 648.479 497.071C644.315 498.976 641.825 499.436 638.962 503.633Z" fill="#856792"/>
<path d="M641.812 521.787L642.377 537.327L648.308 550.037C648.308 550.037 638.988 540.717 638.988 538.175C638.988 535.633 641.812 521.787 641.812 521.787Z" fill="#665070"/>
<path d="M711.363 516.815L717.392 513.38L729.451 514.851L734.246 517.879L735.645 517.945L726.325 512.053L714.266 510.582L708.236 514.017L708.578 519.186L711.875 518.72L711.363 516.815Z" fill="#665070"/>
<path d="M707.547 518.346L701.832 517.754C701.491 517.722 701.176 517.925 701.064 518.247L698.68 525.308C698.568 525.643 698.706 526.004 699.015 526.181L701.307 527.475C701.806 527.758 701.806 528.474 701.307 528.75L700.151 529.393C699.908 529.531 699.763 529.794 699.777 530.076L700.814 547.876C700.821 548.007 700.86 548.132 700.933 548.237L706.404 556.487C706.522 556.664 706.706 556.782 706.916 556.809L718.476 558.352C718.601 558.372 718.732 558.352 718.85 558.306L725.885 555.416C726.621 555.114 726.417 554.03 725.622 554.011L708.762 553.61C708.466 553.604 708.203 553.42 708.098 553.144L705.714 547.068C705.642 546.878 705.491 546.727 705.3 546.654L702.358 545.505C702.069 545.393 701.878 545.104 701.891 544.796L702.029 541.551C702.043 541.321 702.161 541.104 702.351 540.98L702.785 540.034C703.199 539.751 703.212 539.154 702.818 538.851L701.964 537.446C701.793 537.314 701.688 537.111 701.681 536.894L701.53 532.953C701.524 532.769 701.589 532.585 701.708 532.447L704.02 529.768C704.269 529.479 704.256 529.052 703.987 528.782L701.103 525.82C700.88 525.59 700.834 525.236 700.985 524.953L703.093 521.144C703.192 520.966 703.363 520.835 703.56 520.789L707.645 519.791C708.446 519.587 708.361 518.431 707.547 518.346Z" fill="#665070"/>
<path d="M624.341 559.738C627.835 557.734 640.216 557.754 643.192 559.738C646.167 561.721 641.169 577.57 641.169 577.57C641.169 577.57 652.919 597.4 649.944 600.375C646.968 603.35 629.109 596.408 625.635 592.933C622.16 589.459 619.113 571.928 620.374 567.672C621.549 563.705 620.847 561.741 624.341 559.738Z" fill="#856792"/>
<path d="M647.461 555.121L655.934 561.341L673.825 561.15L655.934 557.38L647.461 555.121Z" fill="#856792"/>
<path d="M768.598 509.833L743.231 514.562L735.606 519.068L742.693 511.876L759.33 507.094L768.598 509.833Z" fill="#665070"/>
<path d="M752.098 478.01L745.254 487.902C745.254 487.902 744.493 508.441 749.819 510.726C749.819 510.726 753.622 501.597 754.384 497.032C755.146 492.467 755.146 491.455 756.414 489.17C757.681 486.89 759.711 480.296 759.711 480.296L752.098 478.01Z" fill="#665070"/>
<path d="M695.074 494.47C695.074 494.47 693.34 505.905 693.688 510.753C694.036 515.6 700.965 521.492 700.965 521.492C700.965 521.492 697.156 515.948 697.156 509.715C697.156 503.482 695.074 494.47 695.074 494.47Z" fill="#665070"/>
<path d="M693.517 477.518C693.517 477.518 701.477 486.332 707.717 486.332C713.957 486.332 723.31 474.378 723.31 474.378L693.517 477.518Z" fill="#665070"/>
<path d="M723.31 555.705C723.31 555.705 736.821 550.51 737.859 549.472C738.896 548.434 737.859 538.037 737.859 538.037C737.859 538.037 743.836 547.909 740.46 551.547C737.084 555.186 723.31 555.705 723.31 555.705Z" fill="#665070"/>
<path d="M781.34 483.383C781.34 483.383 783.415 489.274 784.46 498.628C785.498 507.981 779.264 519.416 779.264 519.416C779.264 519.416 788.269 514.91 787.58 501.747C786.883 488.578 781.34 483.383 781.34 483.383Z" fill="#665070"/>
<path d="M664.065 541.157C663.802 543.495 669.438 548.52 669.438 548.52L667.704 541.807L668.354 535.574C668.354 535.567 664.328 538.812 664.065 541.157Z" fill="#665070"/>
<path d="M645.878 547.521C645.878 547.521 649.339 550.943 652.459 552.329C655.579 553.715 669.09 554.753 669.09 554.753C670.41 555.101 659.323 555.692 651.77 553.715C650.384 553.354 649.339 552.368 645.878 547.521Z" fill="#665070"/>
<path d="M651.073 471.777C651.073 471.777 656.21 468.802 659.211 468.69C662.206 468.578 662.64 470.864 662.64 470.864C662.64 470.864 659.783 469.826 657.576 470.082C654.029 470.503 651.073 471.777 651.073 471.777Z" fill="#856792"/>
<path d="M672.899 511.377C672.899 511.377 666.935 508.625 663.27 508.625C659.605 508.625 653.412 514.129 653.412 514.129C653.412 514.129 663.27 511.606 665.333 511.836C667.395 512.066 672.899 511.377 672.899 511.377Z" fill="#665070"/>
<path d="M692.906 519.068C692.906 518.03 689.011 514.562 685.891 514.562C682.771 514.562 682.213 514.779 679.829 515.6C677.32 516.467 675.671 517.675 674.981 518.72C674.981 518.72 674.981 513.872 680.525 513.176C686.069 512.487 685.602 511.895 687.625 512.487C689.701 513.091 692.906 519.068 692.906 519.068Z" fill="#665070"/>
<path d="M662.765 512.053C662.765 512.053 672.899 512.316 676.538 515.692C676.538 515.692 680.216 513.235 676.538 512.053C669.261 509.715 662.765 512.053 662.765 512.053Z" fill="#665070"/>
<path d="M347.585 591.462L348.544 581.846L315.847 558.766L296.616 567.416L287 581.846L304.307 595.304L347.585 591.462Z" fill="#665070"/>
<path d="M304.307 595.304L320.655 593.386L306.875 582.483L315.847 558.766L296.616 567.416L297.575 576.073L287 581.846L304.307 595.304Z" fill="#4B3355"/>
<path d="M759.783 613.235L749.898 597.209L738.68 601.478L733.74 613.892L740.026 615.002L749.189 617.334L759.783 613.235Z" fill="#4B3355"/>
<path d="M749.636 597.34L750.706 604.953L746.43 609.229L746.03 614.037L749.104 616.973C755.783 616.441 759.79 613.229 759.79 613.229L760.322 605.478L749.636 597.34Z" fill="#665070"/>
<path d="M736.204 617.57L738.351 608.979L727.974 605.399L721.169 612.204L726.181 616.854L736.204 617.57Z" fill="#4B3355"/>
<path d="M736.204 617.57L730.476 609.695L725.11 612.204L726.181 616.854L736.204 617.57Z" fill="#665070"/>
<path d="M661.57 494.082C661.57 494.082 661.57 486.03 665.865 488.178C670.161 490.325 668.013 496.23 668.013 496.23C668.013 496.23 672.847 493.012 673.918 497.301C674.988 501.596 670.699 499.987 670.699 499.987L661.57 494.082Z" fill="#33A86D"/>
<path d="M651.369 497.839C651.369 497.839 648.683 493.005 652.978 493.544C657.274 494.082 654.055 498.378 651.369 497.839Z" fill="#33A86D"/>
<path d="M662.647 501.058C662.647 501.058 656.203 493.005 655.133 498.91C654.056 504.821 659.96 506.43 662.647 501.058Z" fill="#288453"/>
<path d="M662.108 507.501C662.108 507.501 661.037 494.615 665.865 497.301C670.699 499.987 667.481 509.117 662.108 507.501Z" fill="#288453"/>
<path d="M659.422 513.413C659.422 513.413 647.612 517.708 656.203 518.779C664.794 519.856 659.422 513.413 659.422 513.413Z" fill="#288453"/>
<path d="M620.873 599.383C620.873 599.383 618.633 591.482 621.589 591.784C624.545 592.086 623.139 598.148 623.139 598.148C623.139 598.148 628.538 588.881 629.688 595.318C630.837 601.754 629.188 604.125 629.188 604.125C629.188 604.125 632.821 598.91 634.535 601.511C636.243 604.112 633.95 605.932 633.95 605.932C633.95 605.932 630.2 609.761 627.356 607.777C624.512 605.794 624.512 605.794 624.512 605.794C624.512 605.794 622.055 608.309 617.024 603.396C611.999 598.477 612.715 590.877 620.873 599.383Z" fill="#33A86D"/>
<path d="M416.196 597.708C416.196 597.708 414.587 586.969 419.953 588.578C425.319 590.188 422.639 594.483 422.639 594.483C422.639 594.483 429.083 592.874 426.396 598.779C423.71 604.684 421.03 604.684 421.03 604.684C421.03 604.684 413.516 608.979 410.83 599.317C408.143 589.656 416.196 597.708 416.196 597.708Z" fill="#33A86D"/>
<path d="M392.577 597.708C392.577 597.708 389.358 590.727 392.577 589.656C395.795 588.585 395.795 593.951 395.795 593.951C395.795 593.951 399.552 586.97 400.629 592.342C401.7 597.708 399.552 604.684 392.577 597.708Z" fill="#33A86D"/>
<path d="M394.186 578.917C394.186 578.917 394.186 585.36 397.404 583.212C400.629 581.065 402.238 572.473 394.186 578.917Z" fill="#33A86D"/>
<path d="M378.074 579.987C378.074 579.987 376.465 586.969 379.683 586.431C382.902 585.892 383.979 585.36 382.902 582.135C381.838 578.917 378.074 579.987 378.074 579.987Z" fill="#33A86D"/>
<path d="M374.856 571.935C374.856 571.935 376.465 578.378 379.69 574.621C382.908 570.858 378.613 567.639 374.856 571.935Z" fill="#33A86D"/>
<path d="M383.447 575.153C383.447 575.153 385.595 579.988 387.743 579.449C389.89 578.911 390.429 569.249 383.447 575.153Z" fill="#33A86D"/>
<path d="M379.151 568.178C379.151 568.178 379.69 576.769 384.518 571.396C389.345 566.024 383.986 564.414 379.151 568.178Z" fill="#33A86D"/>
<path d="M378.613 561.196C378.613 561.196 378.074 567.639 381.831 563.882C385.595 560.119 382.908 554.752 378.613 561.196Z" fill="#33A86D"/>
<path d="M765.195 520.388C765.195 520.388 766.003 509.918 772.447 513.945C778.89 517.971 768.42 523.613 765.195 520.388Z" fill="#33A86D"/>
<path d="M767.612 524.414C767.612 524.414 756.157 531.751 769.044 527.817C781.931 523.882 780.144 522.45 767.612 524.414Z" fill="#33A86D"/>
<path d="M770.121 531.042C770.121 531.042 771.553 542.851 774.417 536.053C777.281 529.249 776.204 529.964 770.121 531.042Z" fill="#33A86D"/>
<path d="M767.974 531.396C767.974 531.396 757.596 533.544 766.187 534.614C774.772 535.692 767.974 531.396 767.974 531.396Z" fill="#33A86D"/>
<path d="M769.044 548.217C769.044 548.217 777.636 543.206 770.476 543.206C763.317 543.206 760.453 548.217 769.044 548.217Z" fill="#33A86D"/>
<path d="M777.366 501.242C777.366 501.242 775.934 509.833 782.378 505.176C788.821 500.526 784.887 498.733 777.366 501.242Z" fill="#33A86D"/>
<path d="M789.182 489.787C789.182 489.787 779.52 493.366 785.964 494.082C792.401 494.798 791.33 490.141 789.182 489.787Z" fill="#33A86D"/>
<path d="M783.094 481.196C783.094 481.196 782.023 489.787 787.028 485.491C792.046 481.196 789.537 481.196 783.094 481.196Z" fill="#33A86D"/>
<path d="M780.591 485.492C780.591 485.492 774.509 484.776 779.521 486.923C784.525 489.071 780.591 485.492 780.591 485.492Z" fill="#33A86D"/>
<path d="M780.23 476.539C780.23 476.539 790.253 481.55 786.312 476.539C782.378 471.527 774.502 471.173 780.23 476.539Z" fill="#33A86D"/>
<path d="M785.241 596.093C785.241 596.093 783.81 602.891 788.46 601.104C793.11 599.318 791.678 595.738 789.892 595.377C788.105 595.016 785.241 596.093 785.241 596.093Z" fill="#33A86D"/>
<path d="M785.241 591.443C785.241 591.443 789.892 580.349 788.821 587.863C787.75 595.377 785.241 591.443 785.241 591.443Z" fill="#33A86D"/>
<path d="M783.094 593.951C783.094 593.951 771.639 579.994 777.011 581.426C782.378 582.858 782.023 587.153 782.023 587.153C782.023 587.153 783.094 572.119 785.241 577.846C787.389 583.574 783.094 593.951 783.094 593.951Z" fill="#33A86D"/>
<path d="M792.407 585.617C792.407 585.617 800.21 580.014 799.094 584.756C797.977 589.498 791.291 587.344 792.407 585.617Z" fill="#33A86D"/>
<path d="M798.128 598.24C798.128 598.24 797.774 588.933 794.91 588.933C792.046 588.933 794.91 599.672 798.128 598.24Z" fill="#33A86D"/>
<path d="M801.353 597.17C801.353 597.17 796.703 578.917 802.424 582.135C808.151 585.36 805.649 600.388 801.353 597.17Z" fill="#33A86D"/>
<path d="M788.821 579.988C788.821 579.988 789.537 570.681 791.323 576.769C793.117 582.851 790.253 583.567 788.821 579.988Z" fill="#33A86D"/>
<path d="M804.933 595.377C804.933 595.377 806.365 584.283 809.228 584.999C812.092 585.715 810.299 590.01 810.299 590.01C810.299 590.01 813.517 579.633 816.381 582.496C819.245 585.36 814.233 589.656 814.233 589.656C814.233 589.656 822.463 585.36 819.961 589.301C817.458 593.235 811.731 591.803 811.731 591.803C811.731 591.803 813.879 598.602 804.933 595.377Z" fill="#33A86D"/>
<path d="M774.864 608.264C774.864 608.264 764.486 600.034 769.136 598.957C773.787 597.886 772.716 601.459 772.716 601.459C772.716 601.459 778.082 598.241 777.727 600.388C777.373 602.536 778.798 602.891 778.798 602.891C778.798 602.891 787.035 610.057 774.864 608.264Z" fill="#33A86D"/>
<path d="M653.517 593.951C653.517 593.951 653.517 586.792 655.303 588.224C657.09 589.656 656.735 593.236 656.735 593.236C656.735 593.236 663.533 588.94 662.817 592.52C662.102 596.099 658.522 596.454 658.522 596.454C658.522 596.454 658.522 602.536 656.374 600.75C654.226 598.963 653.517 593.951 653.517 593.951Z" fill="#33A86D"/>
<path d="M655.665 578.556C655.665 578.556 662.108 580.703 659.244 582.851C656.381 584.999 655.665 578.556 655.665 578.556Z" fill="#33A86D"/>
<path d="M660.676 586.076C660.676 586.076 662.463 593.951 666.042 588.224C669.629 582.496 669.267 584.283 660.676 586.076Z" fill="#33A86D"/>
<path d="M632.039 549.203C632.039 549.203 627.389 541.327 632.755 543.121C638.121 544.914 634.187 547.771 634.187 547.771C634.187 547.771 642.062 546.7 639.914 550.273C637.766 553.853 633.116 551.705 633.116 551.705L632.039 549.203Z" fill="#33A86D"/>
<path d="M629.891 550.279C629.891 550.279 630.607 544.913 627.743 543.836C624.88 542.759 622.732 552.066 629.891 550.279Z" fill="#33A86D"/>
<path d="M632.039 538.825C632.039 538.825 626.673 531.665 630.252 532.381C633.832 533.097 634.548 534.884 634.548 534.884C634.548 534.884 639.559 534.529 637.412 539.534C635.264 544.539 632.039 538.825 632.039 538.825Z" fill="#33A86D"/>
<path d="M629.537 525.577C629.537 525.577 634.187 530.943 636.335 527.009C638.482 523.074 629.537 525.577 629.537 525.577Z" fill="#33A86D"/>
<path d="M644.571 527.725C644.571 527.725 649.221 523.429 647.073 523.429C644.926 523.429 644.926 523.429 643.855 523.429C642.778 523.429 642.062 527.37 644.571 527.725Z" fill="#33A86D"/>
<path d="M638.128 520.211C638.128 520.211 634.909 525.938 639.914 523.074C644.919 520.211 645.642 518.779 638.128 520.211Z" fill="#33A86D"/>
<path d="M638.929 500.526C638.929 500.526 637.858 494.444 641.432 496.592C645.011 498.739 642.147 501.242 642.147 501.242C642.147 501.242 649.307 499.81 646.443 504.106C643.579 508.401 641.077 505.892 641.077 505.892L638.929 500.526Z" fill="#33A86D"/>
<path d="M635.711 493.721C635.711 493.721 624.617 492.651 628.551 496.224C632.492 499.81 639.29 495.153 635.711 493.721Z" fill="#33A86D"/>
<path d="M634.64 499.449C634.64 499.449 628.912 504.099 633.924 502.667C638.929 501.242 636.426 499.094 634.64 499.449Z" fill="#33A86D"/>
<path d="M631.415 507.685C631.415 507.685 640.722 506.253 635.349 505.183C629.977 504.112 628.551 506.608 631.415 507.685Z" fill="#33A86D"/>
<path d="M637.497 515.199C637.497 515.199 640.716 510.903 636.781 510.903C632.847 510.903 632.847 514.483 637.497 515.199Z" fill="#33A86D"/>
<path d="M728.69 569.964C728.69 569.964 721.53 574.976 726.903 573.544C732.269 572.112 728.69 569.964 728.69 569.964Z" fill="#33A86D"/>
<path d="M730.121 575.337C729.123 576.158 733.701 581.781 734.772 576.408C735.849 571.042 736.203 570.326 730.121 575.337Z" fill="#33A86D"/>
<path d="M725.465 579.987C725.465 579.987 735.488 586.785 731.547 582.135C727.612 577.485 723.678 578.917 725.465 579.987Z" fill="#33A86D"/>
<path d="M726.896 585.715C726.896 585.715 731.547 593.229 731.908 589.294C732.269 585.36 732.985 585.36 726.896 585.715Z" fill="#33A86D"/>
<path d="M725.11 591.442C725.11 591.442 737.997 594.661 729.76 595.022C721.524 595.383 718.666 591.804 725.11 591.442Z" fill="#33A86D"/>
<path d="M740.144 558.155C740.144 558.155 736.565 563.166 741.576 561.018C746.588 558.871 751.238 555.646 740.144 558.155Z" fill="#33A86D"/>
<path d="M738.713 565.314C738.713 565.314 744.795 565.669 741.931 564.244C739.067 562.805 735.488 562.451 738.713 565.314Z" fill="#33A86D"/>
<path d="M738.712 569.248C738.712 569.248 742.647 573.544 744.794 568.894C746.942 564.237 735.849 567.462 738.712 569.248Z" fill="#33A86D"/>
<path d="M690.003 351.606C690.003 351.606 684.749 340.512 690.003 341.681C695.258 342.85 691.757 346.936 691.757 346.936C691.757 346.936 699.934 342.85 698.765 348.689C697.596 354.528 695.264 356.282 695.264 356.282C695.264 356.282 702.272 350.443 701.688 358.036C701.103 365.629 695.264 360.374 695.264 360.374C695.264 360.374 691.763 366.213 687.671 360.959C683.579 355.704 687.671 357.458 687.671 357.458C687.671 357.458 675.402 348.105 690.003 351.606Z" fill="#33A86D"/>
<path d="M678.22 413.898C675.356 414.969 671.776 425.708 682.246 419.264C692.716 412.828 681.083 412.828 678.22 413.898Z" fill="#33A86D"/>
<path d="M682.85 406.608C685.504 406.608 694.069 406.437 685.806 411.087C677.543 415.737 680.197 406.608 682.85 406.608Z" fill="#33A86D"/>
<path d="M685.32 425.852C685.32 425.852 689.74 420.69 683.106 423.035C676.479 425.386 678.134 429.143 685.32 425.852Z" fill="#33A86D"/>
<path d="M687.481 430.187C683.343 431.678 683.645 436.224 689.675 432.874C695.698 429.517 691.619 428.696 687.481 430.187Z" fill="#33A86D"/>
<path d="M690.89 418.824C688.269 419.271 690.141 425.603 696.611 422.135C699.947 420.341 693.511 418.371 690.89 418.824Z" fill="#33A86D"/>
<path d="M674.64 451.126C674.64 451.126 676.788 447.192 672.854 447.908C668.919 448.624 671.067 450.772 671.067 450.772C671.067 450.772 664.985 443.258 662.476 446.476C659.973 449.695 666.771 452.204 666.771 452.204C666.771 452.204 656.748 450.056 654.601 453.636C652.453 457.215 659.612 454.351 659.612 454.351C659.612 454.351 651.021 459.718 653.53 461.15C656.032 462.581 659.973 459.718 659.973 459.718C659.973 459.718 662.121 464.729 663.553 460.072C664.985 455.422 664.985 455.422 664.985 455.422C664.985 455.422 671.067 459.356 670.712 455.422C670.358 451.488 670.712 452.558 670.712 452.558C670.712 452.558 675.711 456.138 674.64 451.126Z" fill="#33A86D"/>
<path d="M727.612 353.944C727.612 353.944 719.56 349.648 722.778 357.701C725.996 365.753 730.299 357.162 727.612 353.944Z" fill="#288453"/>
<path d="M727.074 348.571C727.074 348.571 737.274 340.519 732.979 346.962C728.683 353.406 727.074 348.571 727.074 348.571Z" fill="#288453"/>
<path d="M719.56 340.519C719.56 340.519 715.803 346.423 722.246 345.353C728.689 344.282 719.56 340.519 719.56 340.519Z" fill="#288453"/>
<path d="M721.708 333.543C721.708 333.543 732.985 341.596 725.464 339.987C717.95 338.371 721.708 333.543 721.708 333.543Z" fill="#288453"/>
<path d="M731.908 356.092C731.908 356.092 723.317 363.074 729.76 362.535C736.204 361.997 731.908 356.092 731.908 356.092Z" fill="#288453"/>
<path d="M735.665 364.144C735.665 364.144 745.865 365.753 738.883 367.901C731.901 370.049 735.133 363.074 735.665 364.144Z" fill="#288453"/>
<path d="M375.749 473.084C375.749 473.084 389.174 464.493 385.411 471.475C381.654 478.457 375.749 473.084 375.749 473.084Z" fill="#33A86D"/>
<path d="M377.358 479.527C377.358 479.527 374.672 488.657 380.577 484.362C386.488 480.066 377.358 479.527 377.358 479.527Z" fill="#33A86D"/>
<path d="M372.524 477.38C372.524 477.38 365.542 462.884 361.247 470.398C356.951 477.912 365.542 473.084 365.542 473.084C365.542 473.084 358.028 480.598 363.394 479.527C368.767 478.457 372.524 477.38 372.524 477.38Z" fill="#33A86D"/>
<path d="M370.376 465.031C370.376 465.031 366.619 474.693 374.672 467.718C382.725 460.742 372.524 465.57 372.524 465.57L370.376 465.031Z" fill="#33A86D"/>
<path d="M483.848 312.065C483.848 312.065 491.362 305.622 490.83 311.527C490.291 317.432 483.848 312.065 483.848 312.065Z" fill="#33A86D"/>
<path d="M485.464 317.432C485.464 317.432 490.83 324.946 493.516 319.58C496.203 314.213 485.464 317.432 485.464 317.432Z" fill="#33A86D"/>
<path d="M498.35 322.804C498.35 322.804 488.689 334.614 498.35 329.248C508.012 323.881 508.012 321.188 498.35 322.804Z" fill="#33A86D"/>
<path d="M487.073 324.952C487.073 324.952 472.577 327.1 481.707 329.248C490.836 331.396 494.587 331.396 487.073 324.952Z" fill="#33A86D"/>
<path d="M497.273 338.91C497.273 338.91 509.622 335.153 504.787 334.076C499.96 333.005 493.516 338.91 497.273 338.91Z" fill="#33A86D"/>
<path d="M497.812 342.134C491.907 340.525 483.316 345.353 498.883 346.969C514.456 348.571 503.717 343.744 497.812 342.134Z" fill="#33A86D"/>
<path d="M779.401 268.66C776.183 260.43 775.467 250.046 781.903 237.875C781.903 237.875 784.774 243.891 788.301 243.556C791.835 243.222 794.738 238.591 794.915 231.629C795.092 224.542 793.411 221.461 793.411 221.461L799.454 229.264C799.454 229.264 800.294 222.827 799.828 217.691C799.309 211.996 796.222 206.532 796.222 206.532C796.222 206.532 812.255 211.34 815.933 224.213C818.738 234.019 817.936 240.259 817.936 240.259L823.073 234.657C823.073 234.657 829.516 256.85 824.117 268.594C819.644 278.315 811.191 283.8 802.672 284.41C792.872 285.107 782.626 276.89 779.401 268.66Z" fill="#FFACFF"/>
<path d="M803.927 274.026C803.927 274.026 796.065 272.884 792.058 265.041C787.94 256.989 793.733 254.742 793.733 254.742L797.483 261.14L804.465 242.348C804.465 242.348 808.761 247.537 809.654 249.862C810.547 252.187 817.234 269.599 803.927 274.026Z" fill="#9E54C7"/>
<path d="M809.293 203.688C809.293 203.688 808.754 199.931 810.364 199.931C811.979 199.931 813.588 203.156 809.293 203.688Z" fill="#9E54C7"/>
<path d="M786.206 215.504C786.206 215.504 783.519 207.99 787.815 204.226C787.815 204.226 778.153 210.669 786.206 215.504Z" fill="#FFACFF"/>
<path d="M803.434 187.405C803.565 188.541 802.061 189.06 801.483 188.075C800.196 185.868 798.803 182.972 801.234 184.364C802.757 185.231 803.316 186.361 803.434 187.405Z" fill="#FFACFF"/>
<path d="M436.478 289.372C436.478 289.372 420.997 293.504 411.014 275.52C404.465 264.906 408.78 246.482 408.78 246.482C408.78 246.482 415.48 246.035 419.953 250.948C417.273 236.203 424.866 229.057 424.866 229.057L428.885 230.843C428.885 230.843 431.493 227.822 437.181 218.16C437.181 218.16 456.912 230.384 454.068 245.681C451.224 260.978 452.124 255.855 452.124 255.855L463.296 249.602C463.283 249.609 472.498 287.763 436.478 289.372Z" fill="#FFACFF"/>
<path d="M443.848 279.323C443.848 279.323 436.478 285.353 430.442 279.993C424.413 274.633 425.753 266.587 425.753 266.587L428.432 269.267C428.432 269.267 427.762 263.908 432.452 256.532C437.142 249.162 437.142 249.162 437.142 249.162L439.822 259.211L443.841 255.862C443.848 255.862 454.574 273.957 443.848 279.323Z" fill="#9E54C7"/>
<path d="M408.682 225.622C408.682 225.622 408.327 232.065 410.83 234.213C413.332 236.36 409.398 227.769 412.616 222.758L408.682 225.622Z" fill="#9E54C7"/>
<path d="M428.367 209.51C428.367 209.51 424.432 214.522 426.935 215.954C429.437 217.385 428.367 209.51 428.367 209.51Z" fill="#FFACFF"/>
<path d="M448.413 211.303C448.413 211.303 448.058 216.669 450.199 215.237C452.354 213.806 450.922 207.362 448.413 211.303Z" fill="#9E54C7"/>
<path d="M436.603 192.689C436.603 192.689 439.822 193.405 439.467 196.623C439.112 199.842 436.603 192.689 436.603 192.689Z" fill="#FFACFF"/>
<path d="M455.795 573.19C455.618 574.444 468.997 581.065 477.588 580.704C486.18 580.342 502.061 580.901 503.618 579.16C505.116 577.485 499.96 576.139 499.96 576.139C499.96 576.139 487.809 571.981 476.873 569.919C462.639 567.239 455.973 571.935 455.795 573.19Z" fill="#C94039"/>
<path d="M495.395 600.703C495.395 603.613 494.987 631.18 494.409 636.296C494.022 639.712 489.707 641.879 489.293 637.236C488.695 630.582 486.685 620.52 486.39 617.787C485.516 609.597 487.651 601.669 487.651 601.669C487.651 601.669 495.395 599.357 495.395 600.703Z" fill="#F5894E"/>
<path d="M492.36 610.28C491.487 611.305 494.134 630.917 493.556 636.04C493.168 639.456 489.707 641.879 489.293 637.236C488.695 630.582 486.685 620.52 486.39 617.787C485.516 609.597 487.099 601.695 487.099 601.695C487.099 601.695 493.234 609.255 492.36 610.28Z" fill="#CC6D3D"/>
<path d="M497.096 584.822C496.965 587.686 497.208 593.039 496.728 596.953C496.649 597.617 496.794 597.019 495.822 606.635L486.075 606.7L485.641 595.981C485.076 594.188 483.559 583.607 483.533 583.751C484.071 581.065 497.273 580.861 497.096 584.822Z" fill="#273252"/>
<path d="M491.992 636.723C495.211 638.51 495.716 638.805 498.416 640.283C501.312 641.866 490.619 642.234 489.844 640.152C489.063 638.076 489.233 635.186 491.992 636.723Z" fill="#CC6D3D"/>
<path d="M488.892 637.768C489.234 637.012 491.053 637.38 491.408 637.525C491.762 637.669 495.519 639.114 495.519 639.114C495.519 639.114 499.257 640.697 500.281 640.848C503.191 641.275 505.378 643.337 498.317 644.053C495.513 644.336 492.642 643.147 492.642 643.147L492.399 644.021L491.729 644.152C491.729 644.152 489.142 644.323 489.004 644.021C488.82 643.6 488.55 638.523 488.892 637.768Z" fill="#992C29"/>
<path d="M499.789 643.882C499.789 643.882 495.69 644.638 492.636 643.009C492.636 643.009 492.196 642.102 493.608 642.359C497.897 643.14 498.416 643.744 499.789 643.882Z" fill="#C94039"/>
<path d="M495.506 584.822C495.342 588.04 494.554 591.804 494.232 594.845C494.16 595.508 494.068 604.329 493.175 605.761C492.281 607.193 486.403 606.116 486.403 606.116L484.951 594.943C484.433 593.19 483.323 583.567 483.29 583.751C483.769 581.065 495.703 580.861 495.506 584.822Z" fill="#1D2538"/>
<path d="M481.076 569.518C481.076 569.518 482.909 582.017 483.822 585.235C484.735 588.454 496.465 592.513 496.912 587.955C497.359 583.396 498.482 570.056 496.045 565.761C493.608 561.465 481.076 562.536 481.076 569.518Z" fill="#273252"/>
<path d="M481.076 569.518C481.076 569.518 482.725 582.017 483.552 585.235C484.38 588.454 494.942 592.513 495.349 587.955C495.749 583.39 496.768 570.056 494.567 565.761C492.36 561.465 481.076 562.536 481.076 569.518Z" fill="#1D2538"/>
<path d="M467.809 590.779C467.809 590.779 466.777 597.439 464.63 604.289C463.152 609.005 462.777 610.726 462.784 620.677C462.784 622.956 462.088 630.996 462.14 632.572C462.232 635.311 462.186 637.249 463.592 636.986C465.799 636.565 466.475 635.666 468.991 624.73C472.354 610.115 475.947 590.904 475.947 590.904L467.809 590.779Z" fill="#F5894E"/>
<path d="M467.809 590.779C467.809 590.779 466.777 597.439 464.63 604.289C463.152 609.005 462.777 610.726 462.784 620.677C462.784 622.956 461.47 633.117 461.523 634.694C461.615 637.432 462.186 637.249 463.585 636.986C465.792 636.565 464.866 632.986 467.382 622.05C470.744 607.436 469.707 606.661 469.707 606.661L467.809 590.779Z" fill="#CC6D3D"/>
<path d="M482.226 567.876C482.226 567.876 479.106 586.162 476.82 590.352C473.779 595.929 467.809 594.904 467.283 591.344C466.455 585.682 465.851 575.429 466.357 569.886C466.902 563.928 475.618 559.022 482.226 567.876Z" fill="#273252"/>
<path d="M467.368 590.004C465.575 590.924 464.222 604.244 464.222 604.244L472.951 605.984C472.951 605.984 475.27 600.053 476.61 591.797C477.845 584.198 468.866 587.193 467.368 590.004Z" fill="#273252"/>
<path d="M479.382 567.285C479.382 567.285 479.02 576.322 477.247 582.444C476.754 584.152 475.355 590.404 474.856 591.317C471.815 596.894 467.802 594.897 467.277 591.331C466.449 585.669 465.845 575.416 466.35 569.872C466.902 563.928 472.774 558.431 479.382 567.285Z" fill="#1D2538"/>
<path d="M463.027 632.815C463.73 632.624 464.485 632.821 465.083 633.248C467.428 634.93 467.283 635.298 470.357 637.413C472.577 638.943 462.009 640.263 461.431 638.575C460.925 637.124 460.702 633.445 463.027 632.815Z" fill="#CC6D3D"/>
<path d="M460.774 635.508C461.26 634.411 460.833 631.895 463.986 633.655C468.406 636.125 470.107 636.624 471.362 637.117C472.617 637.609 473.293 637.918 474.245 638.076C477.07 638.529 476.36 638.943 473.142 640.375C470.666 641.478 465.608 640.073 465.608 640.073L465.418 640.618C465.286 640.999 464.932 641.248 464.531 641.248L461.779 641.064C461.779 641.064 461.168 640.848 461.017 640.467C460.807 639.935 460.288 636.605 460.774 635.508Z" fill="#992C29"/>
<path d="M467.368 590.004C465.575 590.923 464.222 604.244 464.222 604.244L471.914 605.722C471.914 605.722 473.648 599.699 474.988 591.449C476.222 583.85 468.866 587.193 467.368 590.004Z" fill="#1D2538"/>
<path d="M491.907 535.245L490.836 541.689C490.836 541.689 496.203 552.782 499.25 560.303C502.291 567.817 504.084 571.935 503.901 578.556C503.901 578.556 496.741 576.053 490.121 575.869C483.5 575.692 463.454 566.024 455.756 573.183C455.756 573.183 465.602 554.214 469.536 545.084C469.536 545.084 464.347 524.322 470.968 520.743C477.588 517.163 486.002 518.595 487.789 519.488C489.575 520.388 495.303 525.222 491.907 535.245Z" fill="#F7BC4B"/>
<path d="M487.342 535.246L486.272 541.689L491.638 560.658L481.168 565.223L492.176 565.761C492.176 565.761 485.385 568.369 476.603 569.518C468.899 570.53 459.349 569.84 455.756 573.19C455.756 573.19 465.602 554.221 469.536 545.091C469.536 545.091 464.347 524.329 470.968 520.75C477.589 517.17 486.002 518.602 487.789 519.495C489.575 520.388 490.745 525.223 487.342 535.246Z" fill="#CE9436"/>
<path d="M470.725 489.754C470.725 489.754 472.984 492.282 475.244 493.307C476.951 494.089 478.291 494.187 478.291 494.187L477.93 493.53L478.738 492.854C478.738 492.854 475.605 492.657 471.362 489.327L470.725 489.754Z" fill="#EE5D4F"/>
<path d="M470.495 489.452C470.495 489.452 471.756 492.598 473.523 494.338C474.856 495.652 476.084 496.21 476.084 496.21L475.966 495.468L476.951 495.107C476.951 495.107 474.074 493.846 471.23 489.268L470.495 489.452Z" fill="#EE5D4F"/>
<path d="M471.933 491.087C472.721 490.916 473.306 486.634 471.408 486.621C469.621 486.607 467.605 486.923 467.999 488.256C468.386 489.583 471.145 491.258 471.933 491.087Z" fill="#992C29"/>
<path d="M472.518 488.643C472.518 488.643 472.15 486.831 471.585 486.896C471.02 486.962 471.559 487.717 471.756 488.913C471.953 490.102 472.656 489.405 472.518 488.643Z" fill="#F7BC4B"/>
<path d="M471.237 490.233C471.237 490.233 471.079 489.399 472.268 488.539C473.457 487.678 474.37 487.199 475.165 487.645C475.96 488.092 476.321 490.207 475.92 491.291C475.519 492.374 472.767 491.678 472.065 491.304C471.368 490.929 471.237 490.233 471.237 490.233Z" fill="#992C29"/>
<path d="M475.657 489.34C475.657 489.34 475.986 491.028 475.237 491.336C474.127 491.796 474.705 488.545 474.744 488.033C474.79 487.527 475.808 488.111 475.657 489.34Z" fill="#F7BC4B"/>
<path d="M485.168 492.651C485.168 492.651 489.069 493.885 490.711 499.422C492.354 504.966 492.202 512.513 484.813 512.513C473.22 512.513 473.339 503.179 473.674 501.064C475.112 492.033 485.168 492.651 485.168 492.651Z" fill="#CC6D3D"/>
<path d="M484.544 492.473C484.544 492.473 488.446 493.708 490.088 499.245C491.73 504.788 491.579 512.335 484.19 512.335C472.597 512.335 472.715 503.002 473.05 500.887C474.488 491.855 484.544 492.473 484.544 492.473Z" fill="#F5894E"/>
<path d="M487.539 502.673C487.539 502.673 488.814 495.021 484.919 492.203C481.707 489.878 478.79 489.675 474.692 490.279C474.692 490.279 480.439 489.806 484.873 495.31C486.436 497.248 487.539 502.673 487.539 502.673Z" fill="#F7BC4B"/>
<path d="M481.437 491.396C481.437 491.396 475.263 488.178 469.628 492.736C463.992 497.301 463.631 499.803 464.708 502.49C465.779 505.176 465.779 505.176 465.779 505.176C465.779 505.176 461.483 505.984 461.483 508.394C461.483 510.805 461.457 516.532 469.536 516.986C475.132 517.301 475.933 515.284 475.933 515.284C475.933 515.284 486.803 518.772 490.475 514.122C493.214 510.654 493.582 505.084 487.946 503.475C487.946 503.475 487.073 492.204 481.437 491.396Z" fill="#273252"/>
<path d="M479.29 491.396C479.29 491.396 472.491 487.501 467.48 492.736C463.454 496.939 462.199 500.164 462.56 502.489C463 505.346 463.631 505.176 463.631 505.176C463.631 505.176 459.335 505.984 459.335 508.394C459.335 510.805 459.335 516.177 467.388 516.985C475.441 517.793 476.248 515.915 476.248 515.915C476.248 515.915 488.301 518.778 490.298 512.539C491.73 508.066 491.795 505.826 486.16 504.217C486.153 504.217 484.925 492.204 479.29 491.396Z" fill="#1D2538"/>
<path d="M477.543 491.107C477.543 491.107 479.513 484.841 482.015 485.918C484.518 486.989 480.229 492.184 480.229 492.184C480.229 492.184 483.986 488.066 486.134 489.682C488.281 491.291 486.134 495.232 482.015 495.409C477.897 495.58 477.543 491.107 477.543 491.107Z" fill="#273252"/>
<path d="M476.873 491.035C476.873 491.035 478.843 484.769 481.345 485.846C483.848 486.916 479.559 492.112 479.559 492.112C479.559 492.112 483.316 487.993 485.464 489.609C487.612 491.218 485.464 495.159 481.345 495.337C477.227 495.514 476.873 491.035 476.873 491.035Z" fill="#1D2538"/>
<path d="M489.102 501.084C489.102 501.084 487.756 497.275 486.331 497.971C484.905 498.667 485.056 502.582 488.203 504.138C491.342 505.701 489.102 501.084 489.102 501.084Z" fill="#CC6D3D"/>
<path d="M489.674 501.373C489.674 501.373 488.603 498.352 487.473 498.903C486.344 499.462 486.462 502.562 488.958 503.796C491.46 505.038 489.674 501.373 489.674 501.373Z" fill="#F5894E"/>
<path d="M511.684 563.698C512.019 564.04 512.846 565.261 513.247 566.023C513.372 566.253 513.759 566.713 513.72 567.199C513.621 568.44 513.378 569.202 512.413 569.11C512.176 568.572 511.854 566.831 511.191 566.562C510.495 566.279 509.93 561.925 511.684 563.698Z" fill="#CC6D3D"/>
<path d="M501.667 560.421C501.621 560.335 501.851 559.633 502.909 558.963C504.15 558.181 504.774 558.936 504.774 558.936L518.265 574.838L513.72 578.418L501.667 560.421Z" fill="#1D2538"/>
<path d="M499.132 553.971C497.444 555.048 497.247 557.34 498.64 559.002C499.96 560.578 502.219 560.966 503.723 559.954C505.214 558.949 505.516 556.88 504.367 555.245C503.152 553.524 500.794 552.907 499.132 553.971ZM502.397 558.444C501.773 558.766 500.774 558.496 500.15 557.826C499.513 557.137 499.513 556.302 500.17 555.974C500.82 555.646 501.845 555.954 502.449 556.651C503.047 557.321 503.014 558.122 502.397 558.444Z" fill="#1D2538"/>
<path d="M500.229 554.746C499.257 555.344 499.152 556.657 499.973 557.649C500.137 557.846 500.321 558.01 500.518 558.148C500.387 558.056 500.262 557.945 500.15 557.827C499.513 557.137 499.513 556.303 500.17 555.974C500.82 555.646 501.845 555.955 502.449 556.651C503.04 557.327 503.014 558.122 502.396 558.451C502.009 558.654 501.483 558.621 500.984 558.418C501.674 558.72 502.455 558.707 503.04 558.339C503.94 557.767 504.084 556.533 503.349 555.554C502.593 554.529 501.194 554.155 500.229 554.746Z" fill="#F7BC4B"/>
<path d="M500.616 558.214C500.636 558.227 500.65 558.24 500.669 558.247C500.65 558.234 500.636 558.227 500.616 558.214Z" fill="#F6BE4A"/>
<path d="M500.84 558.339C500.872 558.352 500.899 558.365 500.932 558.385C500.899 558.372 500.866 558.352 500.84 558.339Z" fill="#F6BE4A"/>
<path d="M502.298 559.665C502.271 559.692 502.239 559.711 502.199 559.718C501.904 559.764 501.621 559.764 501.365 559.718C501.273 559.698 501.214 559.6 501.24 559.501C501.267 559.396 501.358 559.33 501.457 559.35C501.674 559.39 501.917 559.396 502.173 559.35C502.271 559.337 502.357 559.403 502.363 559.508C502.363 559.567 502.337 559.626 502.298 559.665Z" fill="#3E4C6F"/>
<path d="M508.084 565.912C508.918 565.025 509.221 564.138 509.221 564.138L515.795 571.928C516.537 572.736 518.672 575.1 518.672 575.1C518.672 575.1 514.488 578.516 513.779 578.93C513.779 578.93 511.841 575.954 511.329 575.081L506.199 567.35C506.199 567.337 507.25 566.805 508.084 565.912Z" fill="#C94039"/>
<path d="M507.855 569.721L507.217 568.618C507.217 568.618 508.327 567.948 510.061 566.096C510.061 566.096 510.528 566.404 507.855 569.721Z" fill="#1D2538"/>
<path d="M509.168 564.079C509.168 564.079 507.007 566.339 505.799 566.766L505.043 565.452C505.043 565.452 507.992 563.836 508.498 563.291L509.168 564.079Z" fill="#C73F37"/>
<path d="M511.526 566.871L511.782 567.179C511.782 567.179 510.074 569.222 508.459 570.135L511.526 566.871Z" fill="#1D2538"/>
<path d="M509.017 571.6L509.661 572.559C509.661 572.559 512.038 570.884 512.965 568.559C512.965 568.559 510.639 571.376 509.017 571.6Z" fill="#1D2538"/>
<path d="M511.329 575.068L510.37 573.603C510.37 573.603 513.063 572.434 514.436 570.273L516.498 572.703C516.498 572.71 514.672 573.373 511.329 575.068Z" fill="#1D2538"/>
<path d="M512.498 576.907L512.991 577.721C512.991 577.721 515.657 576.914 517.076 574.385C517.076 574.391 513.299 577.189 512.498 576.907Z" fill="#1D2538"/>
<path d="M526.396 574.529C526.186 574.601 526.055 574.779 525.877 574.91L510.521 586.989C510.311 587.133 509.845 587.028 508.616 586.825C507.789 586.687 506.987 586.233 507.25 585.406C507.598 584.322 507.782 582.923 508.163 582.7L523.224 571.422C523.46 571.251 524.59 571.094 525.056 571.028C525.582 570.956 525.897 570.66 526.534 570.779C527.007 570.864 527.29 571.35 527.257 571.935L526.396 574.529Z" fill="#C94039"/>
<path d="M525.943 573.793C525.864 574.004 525.727 574.194 525.543 574.332L509.608 586.273C509.562 586.306 507.552 586.28 507.263 585.774C506.974 585.268 507.868 582.877 507.868 582.877C507.868 582.877 523.874 570.49 524.176 570.523C524.728 570.588 525.431 570.503 526.101 570.621C526.6 570.713 526.889 571.219 526.718 571.692L525.943 573.793Z" fill="#F5894E"/>
<path d="M525.943 573.794C525.864 574.004 525.726 574.194 525.542 574.332L521.838 574.227L507.868 582.871C507.868 582.871 523.874 570.483 524.176 570.516C524.859 570.49 525.431 570.496 526.101 570.615C526.6 570.707 526.889 571.212 526.718 571.685L525.943 573.794Z" fill="#FEED7F"/>
<path opacity="0.5" d="M541.641 604.592L538.508 600.486L527.67 598.812L530.659 602.89L541.641 604.592Z" fill="#FEED7F"/>
<path opacity="0.5" d="M537.536 599.331L536.268 597.807L525.431 596.132L526.554 597.629L537.536 599.331Z" fill="#FEED7F"/>
<path d="M523.631 576.027L522.652 575.889C522.317 575.836 522.252 575.856 522.193 576.197L521.969 577.268L523.631 576.027Z" fill="#C94039"/>
<path d="M559.585 626.469C559.585 626.469 523.244 580.446 522.744 579.73C522.245 579.014 521.72 578.338 521.72 578.338C521.378 578.062 521.03 578.226 519.782 579.264L514.639 583.29L551.106 633.084C551.283 633.333 558.639 635.284 558.639 635.284C558.817 635.212 559.152 635.35 559.323 634.634L559.966 627.461C559.947 626.949 559.736 626.667 559.585 626.469Z" fill="#F7BC4B"/>
<path d="M559.585 626.47C559.585 626.47 523.257 580.388 522.757 579.672C522.252 578.956 521.483 578.004 521.483 578.004C521.483 578.004 521.437 577.971 520.78 578.496L558.817 627.554C558.817 627.554 559.152 635.35 559.322 634.635L559.966 627.462C559.946 626.95 559.736 626.667 559.585 626.47Z" fill="#F5894E"/>
<path d="M542.002 604.473L543.52 606.24C543.658 606.352 543.428 606.575 543.106 606.641L540.919 607.088C540.722 607.127 540.59 607.061 540.623 606.943L541.523 604.526C541.575 604.336 541.858 604.362 542.002 604.473Z" fill="#F5894E"/>
<path d="M542.758 621.643L544.597 621.886L544.15 623.528L542.758 621.643Z" fill="#F5894E"/>
<path d="M545.983 624.066L548.485 623.935L547.047 625.682L545.983 624.066Z" fill="#F5894E"/>
<path d="M559.001 635.088L517.877 580.795" stroke="#F3E7D9" stroke-miterlimit="10"/>
<path d="M536.472 612.947L537.608 612.093L539.474 613.085L539.487 615.016L543.401 616.106L544.906 616.546" stroke="#F3E7D9" stroke-miterlimit="10"/>
<path d="M497.273 530.772C497.273 530.772 501.569 541.15 502.462 544.552C502.843 545.99 503.441 548.743 502.442 549.721C501.083 551.055 497.799 550.148 496.557 547.777C494.41 543.659 489.306 534.174 490.022 531.672C490.745 529.156 495.395 526.476 497.273 530.772Z" fill="#F5894E"/>
<path d="M494.318 533.005C494.318 533.005 498.075 541.058 499.553 544.683C500.341 546.614 498.705 551.889 496.558 547.77C494.41 543.652 489.306 534.168 490.022 531.665C490.745 529.156 492.439 528.71 494.318 533.005Z" fill="#CC6D3D"/>
<path d="M507.743 564.953C507.743 564.953 511.165 565.491 508.19 559.403C505.898 554.713 504.722 550.457 503.244 546.562C501.845 542.877 496.893 545.491 497.07 548.171C497.247 550.857 499.362 553.59 501.569 557.61C504.61 563.166 505.595 565.13 507.743 564.953Z" fill="#F5894E"/>
<path d="M507.743 564.953C507.743 564.953 510.653 566.004 507.677 559.922C505.385 555.232 502.154 548.808 499.96 545.222C497.411 541.058 495.664 543.475 495.842 546.161C496.019 548.848 499.362 553.596 501.569 557.616C504.61 563.166 505.595 565.13 507.743 564.953Z" fill="#CC6D3D"/>
<path d="M505.149 562.627C505.149 562.627 505.806 560.723 508.282 561.399C510.042 561.879 509.93 561.925 511.684 563.705C512.019 564.046 512.801 565.36 513.208 566.122C513.615 566.884 509.904 567.291 509.72 567.462C509.366 567.797 509.7 570.457 509.7 570.457L510.239 572.27C510.239 572.27 510.686 573.609 510.863 574.148C511.04 574.687 510.213 574.687 509.865 574.431C509.517 574.174 508.558 572.874 508.558 572.874C507.986 573.123 507.822 573.347 506.476 570.962C506.068 570.247 505.405 568.946 505.405 568.946C505.405 568.946 504.61 564.775 505.149 562.627Z" fill="#CC6D3D"/>
<path d="M489.49 518.425C489.49 518.425 491.908 518.07 494.055 522.359C496.203 526.655 497.727 531.489 497.727 531.489L490.476 534.707C490.476 534.707 488.775 533.899 486.896 525.577C485.241 518.247 489.49 518.425 489.49 518.425Z" fill="#C94039"/>
<path d="M490.83 518.687C490.83 518.687 490.495 524.953 490.895 525.892C491.296 526.831 494.455 532.874 494.455 532.874L490.475 534.706C490.475 534.706 488.774 533.899 486.895 525.577C486.068 521.912 486.541 519.311 488.058 518.595C489.359 517.991 490.83 518.687 490.83 518.687Z" fill="#992C29"/>
<path d="M491.684 524.217C491.684 524.217 491.086 527.935 492.36 529.892L493.378 530.91C493.378 530.904 491.539 524.94 491.684 524.217Z" fill="#992C29"/>
<path d="M484.564 516.808C481.759 516.808 466.58 517.971 463.894 522.266C459.5 529.294 456.288 537.301 452.531 540.256C448.774 543.212 431.322 549.918 424.61 549.117C417.897 548.316 414.14 546.969 409.575 552.874C405.01 558.779 395.348 570.056 393.47 570.858C393.47 570.858 405.733 573.183 409.22 571.573C412.708 569.964 418.35 570.319 426.941 573.544C435.532 576.762 438.488 574.352 438.488 574.352C438.488 574.352 446.002 569.518 451.644 563.344C457.28 557.17 468.826 556.992 474.015 553.143C479.204 549.294 482.035 547.298 484.846 539.632C486.521 535.054 489.759 526.989 490.127 524.506C490.646 521.018 490.409 518.26 489.772 517.885C488.459 517.123 486.712 516.808 484.564 516.808Z" fill="#1689CB"/>
<path d="M484.636 520.644C484.636 520.644 477.28 527.015 469.418 529.288C466.344 530.181 463.316 530.089 460.636 526.523C457.963 522.956 459.46 519.245 461.516 515.619C463.572 511.994 468.294 512.808 475.145 512.401C481.996 511.994 488.065 513.793 484.636 520.644Z" fill="#29ABE2"/>
<path d="M482.777 513.229C484.524 514.569 465.661 522.647 464.117 521.242C462.58 519.836 462.902 516.276 464.8 513.905C466.166 512.197 468.137 512.598 473.858 512.395C478.994 512.217 481.03 511.889 482.777 513.229Z" fill="#992C29"/>
<path d="M1 40.5C1 40.5 32 37.5 40 63.5C40 63.5 38 38.5 61 37.5" stroke="#273252" stroke-width="2" stroke-miterlimit="10" stroke-linecap="round" stroke-linejoin="round"/>
<path d="M99.5 5C99.5 5 111.5 16 113.5 16C115.5 16 118.5 1 118.5 1" stroke="#273252" stroke-miterlimit="10" stroke-linecap="round" stroke-linejoin="round"/>
</svg>
