<svg width="242" height="43" viewBox="0 0 242 43" fill="none" xmlns="http://www.w3.org/2000/svg">
<path opacity="0.4" d="M185 28.969C187.251 29.0208 189.432 28.1544 191.065 26.5585L194.073 29.8995C192.087 32.0014 189.332 33.5634 185.051 33.5634C177.711 33.5634 172.966 28.5496 172.966 21.7713C172.936 20.2178 173.211 18.6741 173.773 17.2321C174.336 15.7902 175.175 14.4797 176.24 13.3787C177.306 12.2778 178.576 11.4089 179.974 10.8241C181.373 10.2392 182.872 9.95026 184.381 9.97452C191.67 9.97452 195.801 15.6825 195.436 23.5985H178.208C178.817 26.8864 181.065 28.9835 184.985 28.9835L185 28.969ZM190.232 19.8237C189.763 16.7528 187.983 14.4917 184.423 14.4917C181.112 14.4917 178.802 16.4201 178.208 19.8237H190.236H190.232ZM71.8792 28.7135L85.1351 14.8485H72.193V10.5H91.2853V14.9353L78.0293 28.7955H91.4726V33.1488H71.8792V28.7135ZM106.354 28.9642C108.606 29.016 110.786 28.1496 112.42 26.5537L115.427 29.8946C113.441 31.9966 110.687 33.5585 106.405 33.5585C99.0655 33.5585 94.3205 28.5448 94.3205 21.7665C94.2908 20.213 94.5654 18.6692 95.1279 17.2273C95.6904 15.7854 96.5294 14.4749 97.5947 13.3739C98.6601 12.2729 99.93 11.4041 101.329 10.8192C102.727 10.2344 104.226 9.94544 105.736 9.9697C113.024 9.9697 117.155 15.6777 116.79 23.5937H99.5714C100.18 26.8815 102.429 28.9786 106.349 28.9786L106.354 28.9642ZM111.595 19.8189C111.127 16.7479 109.347 14.4869 105.787 14.4869C102.476 14.4869 100.166 16.4153 99.5714 19.8189H111.6H111.595ZM145.428 21.7617C145.428 14.5303 150.689 9.97934 156.483 9.97934C157.873 9.9603 159.251 10.2547 160.519 10.8418C161.787 11.429 162.914 12.2947 163.823 13.3781V0.0144577H168.507V33.0861H163.823V29.9669C162.932 31.0949 161.806 32.0021 160.528 32.6213C159.25 33.2405 157.853 33.5559 156.441 33.5441C150.82 33.5441 145.433 28.9642 145.433 21.7665L145.428 21.7617ZM164.085 21.7183C164.048 20.3043 163.607 18.9329 162.817 17.7756C162.027 16.6183 160.923 15.7264 159.643 15.2116C158.362 14.6968 156.963 14.5819 155.62 14.8812C154.277 15.1805 153.049 15.8808 152.091 16.8945C151.132 17.9082 150.485 19.1902 150.231 20.5803C149.977 21.9704 150.126 23.4067 150.661 24.7098C151.196 26.0128 152.092 27.1246 153.237 27.9062C154.383 28.6878 155.727 29.1044 157.101 29.104C161.129 29.104 164.08 25.7968 164.08 21.7183H164.085ZM198.499 28.2748L202.743 26.0089C203.304 27.0383 204.127 27.8905 205.125 28.4733C206.122 29.0562 207.255 29.3476 208.401 29.3161C211.052 29.3161 212.429 27.918 212.429 26.3271C212.429 24.5145 209.867 24.1095 207.08 23.5165C203.333 22.697 199.431 21.4291 199.431 16.7672C199.431 13.1853 202.743 9.87328 207.956 9.92149C212.064 9.92149 215.123 11.5992 216.856 14.3085L212.921 16.5262C212.378 15.6976 211.638 15.0254 210.771 14.5732C209.905 14.1211 208.941 13.9038 207.97 13.9421C205.45 13.9421 204.167 15.2101 204.167 16.6612C204.167 18.2906 206.2 18.7438 209.385 19.4718C213.01 20.2913 217.114 21.511 217.114 26.2211C217.114 29.345 214.462 33.5585 208.186 33.5151C203.595 33.5151 200.363 31.6109 198.504 28.2603L198.499 28.2748ZM229.84 23.02L226.126 27.1901V33.0716H221.442V0H226.126V21.6605L236.07 10.4277H241.775L233.156 20.1178L242 33.0765H236.698L229.845 23.02H229.84ZM131.273 9.97452C125.699 9.97452 121.038 13.6866 121.038 19.8574V33.0909H125.816V20.4697C125.816 16.7576 127.891 14.5303 131.437 14.5303C134.983 14.5303 136.744 16.7479 136.744 20.4697V33.0909H141.494V19.8574C141.494 13.6963 136.81 9.97452 131.259 9.97452" fill="#746D63"/>
<g opacity="0.4">
<path d="M31.0159 40.9973V10.8268L6.78125 40.9973H31.0159Z" fill="#746D63"/>
<path d="M27.4668 8.83522C29.7393 6.49197 31.0159 3.31385 31.0159 0H6.78125C6.78125 3.31385 8.05789 6.49197 10.3303 8.83522C12.6028 11.1785 15.6849 12.4949 18.8986 12.4949C22.1123 12.4949 25.1944 11.1785 27.4668 8.83522Z" fill="#746D63"/>
<path d="M38.5575 32.1648C36.285 34.508 35.0084 37.6861 35.0084 41H59.243C59.243 37.6861 57.9664 34.508 55.694 32.1648C53.4215 29.8215 50.3394 28.5051 47.1257 28.5051C43.912 28.5051 40.8299 29.8215 38.5575 32.1648Z" fill="#746D63"/>
<path d="M35.0084 0V30.1706L59.2482 0H35.0084Z" fill="#746D63"/>
</g>
<path opacity="0.4" d="M2.86247 36.6523C2.09837 36.6596 1.36825 36.9672 0.831836 37.5076C0.295425 38.0481 -0.00364194 38.7776 3.34805e-05 39.5365C0.0037089 40.2954 0.30986 41.022 0.851481 41.5573C1.3931 42.0927 2.12613 42.3932 2.89026 42.3932C3.65439 42.3932 4.38742 42.0927 4.92904 41.5573C5.47066 41.022 5.77681 40.2954 5.78048 39.5365C5.78416 38.7776 5.48509 38.0481 4.94868 37.5076C4.41227 36.9672 3.68215 36.6596 2.91805 36.6523H2.86247ZM2.86247 42.0646C2.36129 42.0728 1.86889 41.9333 1.44754 41.6637C1.02619 41.394 0.694814 41.0064 0.495314 40.5497C0.295813 40.093 0.237142 39.5878 0.326733 39.098C0.416324 38.6082 0.650174 38.1558 0.998659 37.7979C1.34714 37.4401 1.79462 37.1929 2.28454 37.0877C2.77445 36.9825 3.28483 37.0239 3.75105 37.2067C4.21727 37.3895 4.61842 37.7056 4.9038 38.1148C5.18918 38.5241 5.34593 39.0082 5.35428 39.5059C5.35428 39.5202 5.35428 39.5339 5.35428 39.5482C5.36831 40.2011 5.12064 40.8329 4.66574 41.3046C4.21085 41.7762 3.58597 42.0491 2.92851 42.0633H2.86311" fill="#746D63"/>
<path opacity="0.4" d="M3.3215 9.70428C3.42905 9.70535 3.53569 9.68446 3.63478 9.6429C3.73386 9.60134 3.82328 9.53999 3.89751 9.46268C3.97173 9.38537 4.02916 9.29373 4.06625 9.19345C4.10333 9.09318 4.11923 8.98642 4.11304 8.87977C4.11304 8.29502 3.75783 8.01562 3.02906 8.01562H1.85156V11.0771H2.29445V9.74261H2.83868L2.85114 9.75885L3.69571 11.0771H4.16934L3.26065 9.71273L3.3215 9.70428ZM2.80929 9.3976H2.29573V8.3626H2.94665C3.2829 8.3626 3.66624 8.41717 3.66624 8.85443C3.66624 9.35732 3.27833 9.3976 2.80666 9.3976" fill="#746D63"/>
</svg>
